<svg width="209" height="241" viewBox="0 0 209 241" fill="none" xmlns="http://www.w3.org/2000/svg">
<path d="M151.945 103.889C152.618 110.486 155.127 122.228 157.437 127.056C158.957 130.229 166.267 142.321 168.777 144.458C170.097 145.58 179.855 132.393 178.286 131.443C176.617 130.44 166.641 121.911 166.112 120.585C165.583 119.259 160.507 110.031 157.363 103.823C153.633 96.4087 151.553 99.9313 151.945 103.889Z" fill="#AD6359"/>
<path d="M173.603 149.181C170.813 147.565 166.329 141.892 165.75 140.078C165.171 138.264 174.02 129.886 175.838 130.236C177.657 130.586 186.649 136.832 187.894 139.992C189.139 143.152 176.492 150.857 173.603 149.181Z" fill="#AD6359"/>
<path d="M174.02 138.086C176.387 137.025 178.888 136.336 181.443 136.041C184.494 135.797 189.059 135.803 188.996 134.062C188.872 130.48 177.495 130.467 177.495 130.467C177.495 130.467 172.476 131.311 172.301 134.873C172.281 135.524 172.431 136.169 172.734 136.736C173.038 137.302 173.482 137.77 174.02 138.086Z" fill="#AD6359"/>
<path d="M194.862 138.628L168.702 157.482L182.297 178.649L208.456 159.795L194.862 138.628Z" fill="#FB9300"/>
<path d="M193.946 142.479L172.42 157.994L183.212 174.797L204.738 159.283L193.946 142.479Z" fill="white"/>
<path d="M187.925 156.319C189.221 159.663 188.803 164.644 188.803 164.644C188.803 164.644 184.289 166.108 180.939 165.442C177.152 164.703 175.097 161.556 176.766 159.373C178.634 156.945 181.972 158.773 181.972 158.773C181.972 158.773 179.6 155.679 181.449 153.258C183.118 151.081 186.462 152.532 187.925 156.319Z" fill="#FB9300"/>
<path d="M197.054 152.79C196.513 155.679 194.115 158.865 194.115 158.865C194.115 158.865 190.429 157.704 188.436 155.652C186.182 153.344 186.126 150.23 188.181 149.544C190.478 148.785 191.973 151.622 191.973 151.622C191.973 151.622 191.674 148.39 193.959 147.631C196.021 146.945 197.665 149.531 197.054 152.79Z" fill="#2978B5"/>
<path d="M196.824 159.287C197.048 161.411 196.045 164.169 196.045 164.169C196.045 164.169 193.256 164.221 191.45 163.271C189.414 162.196 188.729 160.052 190.011 159.096C191.444 158.04 193.063 159.657 193.063 159.657C193.063 159.657 192.191 157.486 193.617 156.431C194.9 155.474 196.569 156.886 196.824 159.287Z" fill="#FB9300"/>
<path d="M175.735 150.539L172.054 153.192L172.877 154.474L176.558 151.82L175.735 150.539Z" fill="#455A64"/>
<path d="M189.624 140.534L185.942 143.187L186.766 144.469L190.447 141.816L189.624 140.534Z" fill="#455A64"/>
<path d="M173.279 153.238L169.611 147.532L185.559 136.034L189.227 141.747L187.166 143.231L184.899 139.702L173.074 148.225L175.34 151.754L173.279 153.238Z" fill="#455A64"/>
<path d="M185.055 135.513C183.367 135.592 184.432 137.65 184.432 137.65C184.432 137.65 182.246 135.071 180.54 135.863C178.834 136.654 180.247 139.062 180.341 139.24C180.222 139.108 178.161 136.793 176.523 137.776C174.886 138.759 176.573 140.995 176.685 141.14C176.536 141.048 174.562 139.873 173.478 140.922C171.61 142.717 176.592 145.857 177.003 147.967C177.003 147.967 173.703 149.128 173.615 149.181C173.528 149.234 178.286 152.268 180.945 151.516C181.334 151.414 181.678 151.174 181.921 150.835C182.163 150.497 182.289 150.081 182.277 149.656C182.277 149.656 183.678 150.824 184.992 150.098C185.665 149.722 185.696 148.244 185.696 148.244C186.027 148.492 186.416 148.639 186.82 148.668C187.224 148.697 187.628 148.608 187.988 148.409C188.891 147.836 188.778 146.43 188.778 146.43C188.778 146.43 190.267 146.74 191.008 145.83C192.496 144.023 188.654 135.381 185.055 135.513Z" fill="#AD6359"/>
<path d="M188.778 146.219C188.778 146.252 188.834 146.219 188.828 146.219C188.208 142.914 186.653 139.886 184.37 137.538C184.295 137.466 184.152 137.538 184.22 137.657C186.124 140.261 187.66 143.146 188.778 146.219Z" fill="#263238"/>
<path d="M185.721 148.284C185.721 148.317 185.783 148.284 185.777 148.284C185.062 144.648 183.142 141.403 180.366 139.135C180.266 139.062 180.104 139.095 180.21 139.194C182.028 140.797 184.706 145.375 185.721 148.284Z" fill="#263238"/>
<path d="M176.424 141.054C179.114 143.297 180.864 146.233 182.246 149.518C182.246 149.557 182.321 149.518 182.315 149.485C182.047 147.684 180.964 145.692 179.992 144.207C179.115 142.815 177.908 141.691 176.492 140.949C176.461 140.929 176.362 141.008 176.424 141.054Z" fill="#263238"/>
<path d="M184.426 137.591C184.332 137.505 184.314 137.736 184.22 137.65C183.834 137.301 181.343 135.388 180.484 136.087C179.787 136.648 180.011 138.066 180.291 138.534L181.007 139.788L179.924 138.877C179.448 138.465 178.912 138.14 178.336 137.914C178.075 137.79 177.793 137.726 177.507 137.726C177.222 137.726 176.94 137.79 176.679 137.914C176.441 138.035 176.25 138.238 176.137 138.49C176.023 138.742 175.995 139.028 176.056 139.3C176.202 139.909 176.494 140.468 176.903 140.922L177.987 142.242L176.567 141.391C176.174 141.158 175.756 140.976 175.322 140.85C174.915 140.724 174.483 140.724 174.076 140.85C173.892 140.915 173.729 141.034 173.606 141.192C173.483 141.351 173.404 141.543 173.379 141.747C173.388 142.215 173.519 142.672 173.759 143.066C174.27 143.91 174.843 144.711 175.471 145.461C175.776 145.85 176.094 146.246 176.374 146.655C176.684 147.039 176.913 147.489 177.047 147.974C176.869 147.505 176.604 147.079 176.268 146.721C175.957 146.338 175.645 145.975 175.291 145.612C174.599 144.892 173.973 144.103 173.422 143.257C173.113 142.807 172.938 142.27 172.918 141.714C172.937 141.41 173.04 141.119 173.213 140.876C173.387 140.633 173.624 140.45 173.896 140.348C174.401 140.168 174.946 140.154 175.459 140.309C175.95 140.439 176.423 140.636 176.866 140.896L176.461 141.318C175.971 140.788 175.621 140.13 175.446 139.412C175.359 139.009 175.407 138.587 175.583 138.218C175.764 137.863 176.042 137.576 176.38 137.393C176.709 137.235 177.066 137.153 177.426 137.153C177.787 137.153 178.144 137.235 178.473 137.393C179.104 137.65 179.691 138.016 180.21 138.475L179.836 138.818C179.5 138.158 179.089 136.648 180.073 135.632C181.561 134.51 184.009 137.083 184.426 137.591Z" fill="#263238"/>
<path d="M184.419 137.65C184.316 137.3 184.264 136.935 184.264 136.568C184.262 136.42 184.297 136.275 184.366 136.146C184.435 136.017 184.535 135.91 184.656 135.836C184.939 135.71 185.251 135.675 185.553 135.737C185.889 135.79 186.238 135.856 186.599 135.948C186.321 135.681 185.992 135.48 185.634 135.361C185.443 135.277 185.239 135.233 185.033 135.233C184.826 135.233 184.622 135.277 184.432 135.361C184.232 135.48 184.073 135.662 183.977 135.882C183.895 136.091 183.867 136.319 183.896 136.542C183.954 136.961 184.138 137.35 184.419 137.65Z" fill="#263238"/>
<path d="M152.798 114.397L163.179 112.676C163.179 112.676 163.372 114.101 162.419 114.397C161.466 114.694 160.868 113.573 160.868 113.573C160.859 113.881 160.759 114.178 160.581 114.422C160.403 114.666 160.157 114.844 159.878 114.932C158.913 115.176 158.502 113.916 158.502 113.916C158.502 113.916 158.346 115.288 157.337 115.46C156.329 115.631 155.855 114.358 155.855 114.358C155.875 114.715 155.767 115.066 155.554 115.343C155.341 115.621 155.037 115.803 154.703 115.855C153.252 116.086 152.798 114.397 152.798 114.397Z" fill="white"/>
<path d="M163.546 112.821L152.624 114.708C152.624 114.708 151.011 107.563 151.148 102.92C151.285 98.2755 154.542 98.071 157.873 103.414C161.205 108.757 163.546 112.821 163.546 112.821Z" fill="#FB9300"/>
<g opacity="0.1">
<path opacity="0.1" d="M153.178 99.4299L152.829 99.9444V100.604L152.206 100.4L151.584 100.604C151.715 100.267 151.935 99.9769 152.218 99.7687C152.501 99.5605 152.834 99.4428 153.178 99.4299Z" fill="black"/>
<path opacity="0.1" d="M153.197 110.934L152.829 111.475V112.135L152.206 111.93L152.069 111.977C151.995 111.574 151.92 111.139 151.845 110.657L152.206 110.143L152.58 110.677L153.197 110.934Z" fill="black"/>
<path opacity="0.1" d="M161.13 110.182L161.51 110.723L162.108 110.934L161.74 111.475L161.734 112.148L161.13 111.944L160.532 112.148L160.526 111.475L160.158 110.934L160.756 110.723L161.13 110.182Z" fill="black"/>
<path opacity="0.1" d="M156.677 104.364L157.051 104.898L157.649 105.109L157.281 105.657L157.275 106.323L156.677 106.125L156.073 106.323L156.067 105.657L155.7 105.109L156.298 104.898L156.677 104.364Z" fill="black"/>
</g>
<path d="M150.793 133.244C150.55 133.594 129.135 135.361 128.101 135.084C128.051 135.073 128.002 135.053 127.958 135.025C126.675 134.445 120.654 128.963 120.199 128.501C119.078 127.36 123.313 118.929 124.682 117.511C125.465 116.851 126.378 116.387 127.354 116.152C127.354 116.152 131.85 100.789 134.827 97.5039C135.568 96.6793 148.856 95.9075 151.272 96.9695C152.3 97.4247 154.859 100.017 154.946 100.499C155.015 101.198 151.036 132.881 150.793 133.244Z" fill="#37474F"/>
<path d="M150.793 133.244C150.55 133.594 129.135 135.361 128.101 135.084C128.051 135.073 128.002 135.053 127.958 135.025C129.826 129.088 138.631 101.112 138.899 100.927C139.167 100.743 151.883 100.373 154.928 100.499C155.015 101.198 151.036 132.881 150.793 133.244Z" fill="#263238"/>
<path d="M141.82 98.3811C141.602 98.1766 141.365 95.0828 141.739 94.4627C142.112 93.8426 147.268 93.9218 147.586 94.5023C147.933 95.7243 148.072 97.0019 147.997 98.2755C147.848 98.3877 147.001 98.5262 146.876 98.3349C146.752 98.1436 146.683 95.5841 146.59 95.4588C146.496 95.3335 142.916 95.2015 142.803 95.3994C142.691 95.5973 143.065 98.17 142.922 98.2887C142.779 98.4075 142.037 98.5856 141.82 98.3811Z" fill="#37474F"/>
<path d="M188.953 238.795C187.907 239.158 158.072 238.947 156.939 238.175C156.503 237.892 156.279 233.287 156.161 227.713C156.161 226.506 152.96 207.264 152.96 207.264L172.918 207.343L175.409 227.792C175.409 227.792 186.798 233.287 187.956 234.27C189.115 235.253 189.999 238.433 188.953 238.795Z" fill="#AD6359"/>
<path d="M188.953 238.796C187.907 239.158 158.072 238.954 156.939 238.182C156.559 237.925 156.316 234.316 156.21 229.64C162.164 231.546 180.814 234.607 182.757 233.881C184.457 233.221 182.134 231.361 180.994 230.543C184.058 232.067 187.346 233.762 187.944 234.27C189.096 235.253 189.999 238.433 188.953 238.796Z" fill="#263238"/>
<path d="M179.643 229.864C178.119 229.415 176.504 229.453 175 229.971C173.496 230.49 172.17 231.467 171.187 232.779" fill="#263238"/>
<path d="M154.852 220.5H174.68C174.68 220.5 170.856 185.004 170.607 183.453C168.776 171.468 161.204 134.678 161.204 134.678H137.311C137.311 134.678 147.38 172.727 148.843 185.05C150.176 196.317 154.852 220.5 154.852 220.5Z" fill="#2978B5"/>
<path d="M173.348 217.027C170.34 216.677 167.276 216.664 164.25 216.624C161.223 216.585 158.178 216.69 155.152 216.915C155.14 216.915 155.128 216.92 155.119 216.929C155.11 216.938 155.105 216.951 155.105 216.964C155.105 216.977 155.11 216.99 155.119 216.999C155.128 217.008 155.14 217.014 155.152 217.014C158.185 217.106 161.217 217.172 164.25 217.179C167.282 217.185 170.321 217.311 173.348 217.179C173.363 217.174 173.377 217.164 173.386 217.15C173.396 217.136 173.401 217.12 173.401 217.103C173.401 217.086 173.396 217.069 173.386 217.055C173.377 217.042 173.363 217.032 173.348 217.027Z" fill="#455A64"/>
<path d="M154.984 199.137C154.324 194.104 153.67 189.064 152.929 184.037C152.588 181.571 152.129 179.125 151.553 176.709C150.961 174.301 150.307 171.906 149.684 169.512L145.855 154.782C144.416 149.241 142.959 143.706 141.427 138.191C141.418 138.176 141.404 138.163 141.387 138.157C141.371 138.15 141.353 138.15 141.336 138.155C141.319 138.16 141.304 138.171 141.294 138.186C141.283 138.201 141.278 138.219 141.278 138.238C143.65 148.132 146.26 157.922 148.75 167.744C149.996 172.586 151.378 177.415 152.157 182.369C152.935 187.323 153.527 192.474 154.237 197.541C155.021 203.141 155.756 208.755 156.727 214.316C156.731 214.326 156.737 214.335 156.746 214.341C156.754 214.347 156.764 214.35 156.774 214.35C156.784 214.35 156.794 214.347 156.803 214.341C156.811 214.335 156.817 214.326 156.821 214.316C156.341 209.217 155.65 204.177 154.984 199.137Z" fill="#455A64"/>
<path d="M140.836 240.168C139.74 240.115 111.886 228.782 111.076 227.634C110.771 227.199 112.091 222.805 113.835 217.548C114.208 216.405 114.601 215.239 115.012 214.052C117.64 206.347 120.616 198.22 120.616 198.22L139.298 205.747L133.189 221.354L131.85 224.784C131.85 224.784 140.68 234.178 141.434 235.53C142.187 236.883 141.932 240.22 140.836 240.168Z" fill="#AD6359"/>
<path d="M140.836 240.174C139.74 240.121 111.886 228.782 111.082 227.641C110.827 227.291 111.668 224.296 112.95 220.338C117.982 224.072 134.963 233.156 137.037 233.103C138.351 233.063 137.822 231.698 137.106 230.517C138.63 232.112 140.071 233.794 141.421 235.557C142.15 236.909 141.938 240.22 140.836 240.174Z" fill="#263238"/>
<path d="M135.163 228.393C135.163 228.393 131.931 226.374 127.74 229L135.163 228.393Z" fill="#263238"/>
<path d="M115.609 211.898L133.998 218.791C133.998 218.791 143.052 199.839 144.739 190.558C146.608 180.274 151.135 151.091 151.135 151.091L152.467 150.227C155.693 148.07 158.962 137.752 159.317 134.718H131.55C131.55 134.718 126.787 144.659 129.059 154.864C129.059 154.864 124.196 182.391 123.113 188.506C122.284 193.111 115.609 211.898 115.609 211.898Z" fill="#2978B5"/>
<path d="M156.584 148.574C155.046 149.168 153.558 149.894 152.057 150.599L149.834 151.635C149.097 151.951 148.38 152.315 147.686 152.724C147.636 152.724 147.686 152.829 147.723 152.816C148.506 152.601 149.272 152.324 150.014 151.985C150.793 151.668 151.559 151.325 152.325 150.989C153.816 150.34 155.271 149.602 156.684 148.779C156.696 148.772 156.708 148.762 156.717 148.751C156.726 148.739 156.733 148.726 156.737 148.712C156.742 148.697 156.743 148.682 156.742 148.667C156.741 148.652 156.737 148.637 156.73 148.624C156.724 148.61 156.715 148.598 156.704 148.589C156.693 148.579 156.681 148.572 156.667 148.567C156.653 148.562 156.639 148.561 156.625 148.562C156.611 148.563 156.597 148.567 156.584 148.574Z" fill="#455A64"/>
<path d="M150.861 152.13C150.491 153.687 150.21 155.266 150.021 156.86C149.734 158.443 149.491 160.033 149.255 161.616C148.788 164.776 148.302 167.929 147.854 171.088C147.592 172.896 147.405 174.73 147.106 176.531C147.106 176.597 147.187 176.623 147.2 176.531C147.474 174.947 147.823 173.384 148.134 171.807C148.445 170.231 148.694 168.648 148.962 167.065C149.504 163.872 150.027 160.659 150.388 157.44C150.488 156.561 150.594 155.663 150.706 154.749C150.845 153.877 150.922 152.995 150.936 152.11C150.93 152.097 150.874 152.09 150.861 152.13Z" fill="#455A64"/>
<path d="M134.957 215.035C132.242 213.63 129.353 212.521 126.526 211.407C123.699 210.292 120.784 209.309 117.864 208.432C117.856 208.429 117.848 208.428 117.84 208.429C117.832 208.43 117.825 208.433 117.818 208.438C117.811 208.443 117.806 208.449 117.802 208.457C117.799 208.464 117.797 208.473 117.797 208.481C117.797 208.49 117.799 208.498 117.802 208.506C117.806 208.513 117.811 208.52 117.818 208.524C117.825 208.529 117.832 208.532 117.84 208.533C117.848 208.534 117.856 208.534 117.864 208.531C120.691 209.698 123.524 210.839 126.376 211.928C129.228 213.016 132.055 214.217 134.945 215.173C135.001 215.2 135.038 215.074 134.957 215.035Z" fill="#455A64"/>
<path d="M133.593 136.529C131.587 140.384 130.581 144.734 130.679 149.135C130.707 150.268 130.801 151.398 130.959 152.519C131.173 153.728 131.269 154.957 131.246 156.187C131.146 157.443 130.965 158.69 130.704 159.92C130.48 161.16 130.25 162.394 130.025 163.628C129.116 168.575 128.232 173.522 127.335 178.47C126.439 183.417 125.685 188.272 124.521 193.081C123.898 195.614 123.175 198.108 122.366 200.575C121.556 203.042 120.604 205.648 119.533 208.088C119.53 208.103 119.531 208.117 119.537 208.13C119.543 208.143 119.552 208.154 119.564 208.16C119.576 208.167 119.59 208.17 119.603 208.167C119.617 208.165 119.629 208.158 119.638 208.148C120.641 206.05 121.594 203.939 122.41 201.743C123.222 199.585 123.925 197.383 124.514 195.146C125.76 190.403 126.538 185.528 127.41 180.7C128.307 175.748 129.199 170.798 130.088 165.851C130.536 163.39 131.003 160.93 131.402 158.462C131.613 157.291 131.694 156.098 131.644 154.907C131.576 153.7 131.327 152.506 131.202 151.299C130.703 146.249 131.578 141.154 133.724 136.615C133.768 136.516 133.637 136.443 133.593 136.529Z" fill="#455A64"/>
<path d="M128.967 138.521C128.967 138.561 162.17 138.811 162.394 138.607C162.817 138.224 159.087 110.572 154.218 100.69C153.309 98.8362 148.912 95.9338 145.456 99.1397C135.026 108.83 128.581 137.888 128.967 138.521Z" fill="#FB9300"/>
<g opacity="0.1">
<path opacity="0.1" d="M153.184 99.4167L152.829 99.9444V100.604L152.206 100.4L151.583 100.604V99.9444L151.216 99.4035L151.839 99.1924L152.194 98.6845L152.262 98.7241L152.586 99.1924L153.14 99.3837C153.149 99.3854 153.158 99.3893 153.166 99.395C153.173 99.4007 153.179 99.4081 153.184 99.4167Z" fill="black"/>
<path opacity="0.1" d="M143.308 110.182L143.681 110.723L144.279 110.934L143.918 111.475L143.912 112.148L143.308 111.944L142.704 112.148L142.697 111.475L142.336 110.934L142.934 110.723L143.308 110.182Z" fill="black"/>
<path opacity="0.1" d="M152.219 110.182L152.599 110.723L153.196 110.934L152.829 111.475L152.823 112.148L152.219 111.944L151.621 112.148L151.615 111.475L151.247 110.934L151.845 110.723L152.219 110.182Z" fill="black"/>
<path opacity="0.1" d="M147.766 104.364L148.14 104.899L148.738 105.11L148.37 105.657L148.364 106.323L147.766 106.126L147.162 106.323L147.156 105.657L146.789 105.11L147.386 104.899L147.766 104.364Z" fill="black"/>
<path opacity="0.1" d="M156.335 106.238L156.073 106.323V105.664L155.706 105.116L155.949 105.03C156.08 105.42 156.21 105.822 156.335 106.238Z" fill="black"/>
<path opacity="0.1" d="M134.397 121.713L134.77 122.248L135.368 122.465L135.001 123.006L134.994 123.672L134.397 123.474L133.793 123.672L133.786 123.006L133.419 122.465L134.017 122.248L134.397 121.713Z" fill="black"/>
<path opacity="0.1" d="M143.308 121.713L143.681 122.248L144.279 122.465L143.918 123.006L143.912 123.672L143.308 123.474L142.704 123.672L142.697 123.006L142.336 122.465L142.934 122.248L143.308 121.713Z" fill="black"/>
<path opacity="0.1" d="M152.219 121.713L152.599 122.248L153.196 122.465L152.829 123.006L152.823 123.672L152.219 123.474L151.621 123.672L151.615 123.006L151.247 122.465L151.845 122.248L152.219 121.713Z" fill="black"/>
<path opacity="0.1" d="M138.849 115.895L139.229 116.429L139.827 116.64L139.459 117.188L139.453 117.854L138.849 117.656L138.251 117.854L138.245 117.188L137.877 116.64L138.475 116.429L138.849 115.895Z" fill="black"/>
<path opacity="0.1" d="M147.766 115.895L148.14 116.429L148.738 116.64L148.37 117.188L148.364 117.854L147.766 117.656L147.162 117.854L147.156 117.188L146.789 116.64L147.386 116.429L147.766 115.895Z" fill="black"/>
<path opacity="0.1" d="M156.677 115.895L157.051 116.429L157.649 116.64L157.281 117.188L157.275 117.854L156.677 117.656L156.073 117.854L156.067 117.188L155.7 116.64L156.298 116.429L156.677 115.895Z" fill="black"/>
<path opacity="0.1" d="M134.397 133.244L134.77 133.778L135.368 133.989L135.001 134.537L134.994 135.203L134.397 135.005L133.793 135.203L133.786 134.537L133.419 133.989L134.017 133.778L134.397 133.244Z" fill="black"/>
<path opacity="0.1" d="M143.308 133.244L143.681 133.778L144.279 133.989L143.918 134.537L143.912 135.203L143.308 135.005L142.704 135.203L142.697 134.537L142.336 133.989L142.934 133.778L143.308 133.244Z" fill="black"/>
<path opacity="0.1" d="M152.219 133.244L152.599 133.778L153.196 133.989L152.829 134.537L152.823 135.203L152.219 135.005L151.621 135.203L151.615 134.537L151.247 133.989L151.845 133.778L152.219 133.244Z" fill="black"/>
<path opacity="0.1" d="M162.008 134.141L161.74 134.537V135.197L161.117 134.999L160.494 135.197V134.537L160.127 133.989L160.75 133.778L161.123 133.244L161.503 133.778L161.976 133.943C161.989 134.009 162.001 134.062 162.008 134.141Z" fill="black"/>
<path opacity="0.1" d="M138.849 127.426L139.229 127.96L139.827 128.171L139.459 128.719L139.453 129.385L138.849 129.187L138.251 129.385L138.245 128.719L137.877 128.171L138.475 127.96L138.849 127.426Z" fill="black"/>
<path opacity="0.1" d="M147.766 127.426L148.14 127.96L148.738 128.171L148.37 128.719L148.364 129.385L147.766 129.187L147.162 129.385L147.156 128.719L146.789 128.171L147.386 127.96L147.766 127.426Z" fill="black"/>
<path opacity="0.1" d="M156.677 127.426L157.051 127.96L157.649 128.171L157.281 128.719L157.275 129.385L156.677 129.187L156.073 129.385L156.067 128.719L155.7 128.171L156.298 127.96L156.677 127.426Z" fill="black"/>
</g>
<path d="M145.045 104.701C141.11 107.728 128.811 114.595 122.098 113.982C117.577 113.586 108.542 107.913 104.662 101.303C103.778 99.7928 114.856 89.4296 115.871 91.0061C117.577 93.7767 122.821 100.736 124.128 101.033C125.436 101.33 136.863 99.298 143.769 99.3376C148.04 99.364 147.268 102.992 145.045 104.701Z" fill="#AD6359"/>
<path d="M136.358 110.176L131.32 100.419C131.32 100.419 130.131 101.125 130.486 102.108C130.841 103.091 132.055 102.906 132.055 102.906C131.83 103.102 131.669 103.368 131.595 103.667C131.522 103.965 131.539 104.281 131.644 104.569C132.049 105.525 133.238 105.096 133.238 105.096C133.238 105.096 132.311 106.066 132.803 107.023C133.295 107.979 134.521 107.59 134.521 107.59C134.244 107.792 134.048 108.098 133.972 108.445C133.896 108.793 133.945 109.159 134.11 109.47C134.82 110.822 136.358 110.176 136.358 110.176Z" fill="white"/>
<path d="M131.003 100.195L136.259 110.512C136.259 110.512 142.579 107.504 145.979 104.575C149.379 101.646 147.536 98.7703 141.502 99.232C135.468 99.6938 131.003 100.195 131.003 100.195Z" fill="#FB9300"/>
<g opacity="0.1">
<path opacity="0.1" d="M135.125 99.7599L135.001 99.9446V100.604L134.378 100.4L133.755 100.604V99.9446L133.724 99.8984L135.125 99.7599Z" fill="black"/>
<path opacity="0.1" d="M144.279 99.4036L143.918 99.9445V100.604L143.295 100.4L142.672 100.604V99.9445L142.311 99.4036L142.934 99.1925C143.202 99.1925 143.457 99.1925 143.7 99.1925L144.279 99.4036Z" fill="black"/>
<path opacity="0.1" d="M138.849 104.364L139.229 104.899L139.827 105.11L139.459 105.657L139.453 106.323L138.849 106.126L138.251 106.323L138.245 105.657L137.878 105.11L138.475 104.899L138.849 104.364Z" fill="black"/>
</g>
<path d="M143.383 106.877C142.536 107.28 141.689 107.676 140.848 108.098C139.975 108.512 139.127 108.981 138.307 109.503C138.298 109.51 138.292 109.521 138.29 109.533C138.287 109.545 138.289 109.557 138.294 109.568C138.299 109.579 138.307 109.587 138.318 109.592C138.328 109.597 138.34 109.598 138.351 109.595C139.125 109.278 139.88 108.91 140.611 108.494C140.811 108.447 141.01 108.421 141.234 108.368C141.458 108.316 141.639 108.256 141.857 108.19C142.274 108.038 142.679 107.874 143.102 107.689C143.102 107.689 143.102 107.649 143.102 107.656L141.826 108.012L141.203 108.19C141.963 107.775 142.71 107.346 143.464 106.91C143.42 106.904 143.401 106.871 143.383 106.877Z" fill="#263238"/>
<path d="M152.642 98.7637C155.999 105.36 159.399 118.507 159.741 120.308C160.084 122.109 160.271 121.542 160.513 119.932C160.756 118.322 157.431 103.817 154.735 99.6015C153.981 98.4405 152.368 98.2162 152.642 98.7637Z" fill="#455A64"/>
<path d="M157.076 90.9995C154.946 93.7173 155.768 100.835 157.263 101.442C157.442 101.536 157.638 101.588 157.837 101.593C158.037 101.598 158.235 101.557 158.418 101.472C158.601 101.387 158.764 101.261 158.896 101.101C159.028 100.942 159.125 100.755 159.181 100.551C159.181 100.551 160.725 105.967 164.586 105.077C168.447 104.186 164.984 97.2003 164.984 97.2003C164.984 97.2003 167.606 99.4101 168.497 97.6159C170.097 94.3703 160.302 86.8832 157.076 90.9995Z" fill="#263238"/>
<path d="M159.388 87.8943L155.522 90.2592L156.543 92.1329L160.41 89.7681L159.388 87.8943Z" fill="#CFA31A"/>
<path d="M142.037 83.9874C139.005 82.5031 132.697 85.1615 132.553 86.8503C132.513 87.0569 132.516 87.2704 132.563 87.4756C132.609 87.6808 132.697 87.8727 132.822 88.0376C132.946 88.2025 133.103 88.3365 133.281 88.43C133.46 88.5235 133.656 88.5742 133.855 88.5786C133.855 88.5786 129.303 91.5536 131.109 95.2741C132.915 98.9945 138.401 93.6711 138.401 93.6711C138.401 93.6711 137.049 96.9232 138.918 97.3718C142.286 98.1832 146.614 86.2368 142.037 83.9874Z" fill="#263238"/>
<path d="M145.465 85.5651L142.318 82.2097L140.869 83.7345L144.015 87.09L145.465 85.5651Z" fill="#CFA31A"/>
<path d="M151.428 97.2201C154.106 98.8165 157.443 104.351 156.08 105.07C154.716 105.789 152.686 103.256 152.686 103.256C152.686 103.256 152.437 106.99 150.195 106.64C147.212 106.172 146.259 101.251 146.334 99.5157C146.409 97.7808 147.997 95.1751 151.428 97.2201Z" fill="white"/>
<path d="M146.944 99.1793C147.331 99.7136 150.432 103.797 153.234 103.381C154.143 103.249 153.688 97.9391 153.688 97.9391L153.738 97.5367L154.448 91.9362L147.088 87.8859C147.088 87.8859 146.284 98.2689 146.944 99.1793Z" fill="#AD6359"/>
<path d="M154.448 91.9363L153.9 96.2372C150.955 97.9325 147.673 96.9958 146.683 96.6528C146.683 93.3017 147.088 87.8926 147.088 87.8926L154.448 91.9363Z" fill="#263238"/>
<path d="M140.861 82.0611C137.977 92.1539 143.351 95.1223 145.419 95.7754C147.287 96.3691 153.707 98.1435 157.556 88.4202C161.404 78.6969 157.886 74.0925 153.682 72.4896C149.479 70.8866 143.738 71.9684 140.861 82.0611Z" fill="#AD6359"/>
<path d="M142.561 80.4186C142.791 80.4317 143.022 80.4317 143.252 80.4186C143.49 80.4692 143.738 80.4344 143.955 80.3196C144.017 80.2675 144.061 80.1958 144.082 80.115C144.102 80.0342 144.097 79.9487 144.068 79.8711C143.986 79.7302 143.87 79.6149 143.732 79.5372C143.594 79.4596 143.439 79.4223 143.283 79.4292C142.964 79.3891 142.642 79.4761 142.38 79.6732C142.31 79.7181 142.257 79.7855 142.226 79.8653C142.195 79.9451 142.19 80.0332 142.21 80.1167C142.23 80.2001 142.275 80.2745 142.338 80.3288C142.401 80.3832 142.479 80.4146 142.561 80.4186Z" fill="#263238"/>
<path d="M149.018 82.6086C148.8 82.5163 148.607 82.391 148.395 82.2788C148.165 82.192 147.967 82.0304 147.829 81.8171C147.799 81.7406 147.794 81.6558 147.814 81.5759C147.834 81.496 147.879 81.4254 147.941 81.3751C148.076 81.291 148.229 81.2466 148.386 81.2466C148.543 81.2466 148.696 81.291 148.831 81.3751C149.122 81.5006 149.36 81.7355 149.498 82.0347C149.539 82.108 149.557 82.1933 149.549 82.2781C149.542 82.363 149.509 82.4432 149.455 82.507C149.402 82.5708 149.331 82.6151 149.252 82.6334C149.174 82.6516 149.092 82.643 149.018 82.6086Z" fill="#263238"/>
<path d="M147.816 83.6246C148.887 83.862 148.358 86.1114 147.368 85.8938C146.378 85.6761 146.895 83.4267 147.816 83.6246Z" fill="#263238"/>
<path d="M148.184 83.8555C148.339 84.0336 148.464 84.304 148.682 84.3832C148.9 84.4623 149.186 84.2974 149.41 84.1127C149.41 84.1127 149.448 84.1127 149.441 84.1523C149.342 84.5811 149.087 84.9835 148.632 84.9307C148.177 84.8779 148.009 84.4294 148.009 83.9742C148.028 83.8884 148.121 83.7829 148.184 83.8555Z" fill="#263238"/>
<path d="M143.102 82.1337C142.062 81.7775 141.471 84.0137 142.436 84.337C143.401 84.6602 143.98 82.4306 143.102 82.1337Z" fill="#263238"/>
<path d="M142.629 82.1535C142.43 82.2195 142.206 82.3844 142.006 82.3382C141.807 82.292 141.664 81.9952 141.577 81.7181C141.577 81.7181 141.546 81.7181 141.539 81.7181C141.415 82.1469 141.427 82.6285 141.795 82.8264C142.162 83.0243 142.486 82.7143 142.691 82.3184C142.735 82.259 142.704 82.1205 142.629 82.1535Z" fill="#263238"/>
<path d="M143.875 86.4083C143.68 86.8957 143.51 87.3933 143.364 87.8991C143.364 87.9387 143.457 87.9915 143.613 88.0442C143.991 88.2311 144.409 88.3041 144.824 88.2553C145.238 88.2064 145.631 88.0375 145.961 87.7672C146.004 87.7276 145.961 87.6616 145.905 87.6814C145.21 87.9428 144.455 87.9613 143.75 87.7342C143.75 87.5891 144.479 86.0257 144.404 86.0191C144.08 86.0191 143.507 85.9861 143.289 85.9795C143.532 85.3198 144.298 83.4991 144.734 82.3052C144.765 82.2326 144.659 82.1732 144.622 82.2392C143.904 83.5368 143.267 84.8832 142.716 86.2697C142.691 86.3819 143.669 86.4412 143.875 86.4083Z" fill="#263238"/>
<path d="M143.744 87.6815C143.876 88.1668 144.125 88.6076 144.466 88.9612C144.659 89.1445 144.9 89.2617 145.157 89.2976C145.724 89.3636 145.917 88.8689 145.979 88.4071C146.005 88.1594 146.005 87.9094 145.979 87.6617C145.255 87.9199 144.472 87.9269 143.744 87.6815Z" fill="#263238"/>
<path d="M144.466 88.9612C144.659 89.1444 144.9 89.2616 145.157 89.2976C145.724 89.3635 145.917 88.8688 145.979 88.407C145.705 88.3064 145.407 88.3063 145.132 88.4068C144.858 88.5073 144.623 88.7025 144.466 88.9612Z" fill="#FF9CBD"/>
<path d="M157.475 89.2911C155.208 89.2911 154.984 83.8687 155.214 81.9755C155.214 81.9755 154.392 84.7922 152.779 83.9545C151.167 83.1167 150.874 79.0004 150.874 79.0004C150.874 79.0004 148.844 80.887 147.393 80.1614C145.942 79.4358 145.992 76.3882 145.992 76.3882C145.992 76.3882 143.214 78.8817 141.583 77.7867C140.25 76.9027 142.143 73.9013 143.738 73.3933C143.738 73.3933 141.639 73.2614 142.492 71.8959C143.345 70.5304 145.78 71.0779 145.78 71.0779C147.618 70.318 149.579 69.946 151.553 69.9829C154.56 70.1214 158.097 72.6611 158.645 75.6692C160.22 76.9977 161.264 78.9052 161.572 81.0124C161.927 84.3634 159.137 89.3241 157.475 89.2911Z" fill="#263238"/>
<path d="M154.784 84.8713L157.898 83.6905L158.122 84.5877L154.921 85.3727L154.784 84.8713Z" fill="#FB9300"/>
<path d="M154.94 85.7486L158.197 85.1747L158.272 86.0983L154.99 86.2698L154.94 85.7486Z" fill="#FB9300"/>
<path d="M155.818 88.7105C155.818 88.7105 158.583 85.9663 159.804 87.0745C161.024 88.1828 158.502 92.4969 156.752 92.7739C156.531 92.8266 156.302 92.8312 156.079 92.7875C155.856 92.7437 155.644 92.6524 155.455 92.5192C155.267 92.386 155.106 92.2136 154.982 92.0124C154.858 91.8113 154.774 91.5856 154.735 91.3491L155.818 88.7105Z" fill="#AD6359"/>
<path d="M159.025 88.2949C159.025 88.2949 159.025 88.3345 159.025 88.3411C157.779 88.5786 156.976 89.5549 156.329 90.6235C156.418 90.5174 156.529 90.4333 156.652 90.3769C156.776 90.3205 156.91 90.2933 157.044 90.297C157.178 90.3008 157.311 90.3355 157.431 90.3987C157.552 90.4619 157.658 90.5521 157.742 90.6631C157.742 90.6631 157.742 90.7357 157.699 90.7159C157.512 90.6046 157.297 90.5575 157.084 90.5812C156.871 90.6048 156.67 90.698 156.509 90.8478C156.238 91.0955 155.994 91.3742 155.781 91.679C155.706 91.778 155.538 91.679 155.6 91.5669C155.911 89.9969 157.468 88.1036 159.025 88.2949Z" fill="#263238"/>
<path d="M142.38 99.1725C141.957 98.625 144.622 97.7675 145.338 98.3744C146.054 98.9812 147.997 107.755 146.826 117.986C145.655 128.217 130.106 135.605 129.39 134.075C129.091 133.415 129.608 131.878 130.075 131.305C130.735 130.493 140.805 125.011 142.174 118.665C143.401 113.025 143.457 100.558 142.38 99.1725Z" fill="#455A64"/>
<path d="M59.9638 193.754C59.9638 193.754 59.9638 222.166 59.9638 222.179C59.9326 227.614 60.0011 232.377 60.2565 234.838C60.2535 234.851 60.2535 234.864 60.2565 234.877C60.2555 235.46 60.3812 236.036 60.6239 236.559C60.6239 236.559 60.6239 236.559 60.655 236.592C62.1744 237.694 103.155 239.185 104.6 238.723C106.045 238.261 104.924 233.868 103.355 232.463C101.785 231.058 86.3545 223.063 86.3545 223.063L86.0929 194.664L59.9638 193.754Z" fill="#AD6359"/>
<path d="M59.9638 216.347C59.9638 216.347 59.9638 222.166 59.9638 222.179C59.9326 227.614 60.0011 232.377 60.2565 234.838C60.2535 234.851 60.2535 234.864 60.2565 234.877C60.317 235.451 60.4403 236.016 60.6239 236.559C60.6239 236.559 60.6239 236.559 60.655 236.592C62.1744 237.694 103.155 239.185 104.6 238.723C106.045 238.261 104.924 233.868 103.355 232.463C101.785 231.058 86.3545 223.063 86.3545 223.063L86.4292 217.126L59.9638 216.347Z" fill="#C7C7C7"/>
<path d="M104.612 238.723C103.161 239.185 62.1931 237.7 60.6674 236.592C60.0821 236.183 59.9326 229.844 59.97 222.185V221.941L86.4167 222.601V223.076C86.4167 223.076 101.86 231.078 103.417 232.483C104.974 233.888 106.057 238.288 104.612 238.723Z" fill="#263238"/>
<path d="M104.226 237.027C97.3266 236.592 69.4539 235.55 62.5978 235.708C62.548 235.708 62.5418 235.748 62.5978 235.754C69.4477 236.335 97.3079 237.145 104.22 237.172C104.345 237.145 104.345 237.033 104.226 237.027Z" fill="#455A64"/>
<path d="M88.6088 223.228C85.9062 222.568 82.5685 222.911 80.4263 224.89C80.3454 224.969 80.4264 225.088 80.5384 225.061C83.165 224.268 85.8643 223.775 88.5901 223.59C88.6306 223.585 88.668 223.565 88.6957 223.533C88.7235 223.501 88.74 223.46 88.7422 223.417C88.7444 223.374 88.7323 223.332 88.7079 223.297C88.6835 223.262 88.6485 223.238 88.6088 223.228Z" fill="#455A64"/>
<path d="M90.5267 224.553C87.8241 223.894 84.4864 224.237 82.3443 226.216C82.2571 226.288 82.3442 226.414 82.4501 226.387C85.085 225.593 87.7926 225.1 90.5267 224.916C90.5665 224.908 90.6024 224.886 90.6282 224.853C90.6541 224.819 90.6682 224.778 90.6682 224.735C90.6682 224.692 90.6541 224.65 90.6282 224.617C90.6024 224.584 90.5665 224.562 90.5267 224.553Z" fill="#455A64"/>
<path d="M92.4508 225.873C89.7545 225.213 86.4105 225.563 84.2684 227.535C84.1874 227.614 84.2684 227.74 84.3805 227.713C87.0069 226.918 89.7062 226.422 92.4322 226.236C92.4726 226.23 92.51 226.21 92.5378 226.178C92.5656 226.147 92.582 226.106 92.5842 226.062C92.5864 226.019 92.5743 225.977 92.5499 225.942C92.5256 225.907 92.4905 225.883 92.4508 225.873Z" fill="#455A64"/>
<path d="M41.4065 78.3901C41.4065 78.3901 55.6044 161.124 55.7787 162.127C55.8099 162.259 55.8597 163.789 55.9344 166.276C56.3392 179.924 56.7252 222.485 56.7252 222.485H87.5994C87.5994 222.485 86.2107 172.074 85.0525 160.319C83.5766 145.312 67.6539 78.3901 67.6539 78.3901H41.4065Z" fill="#2978B5"/>
<path d="M85.7816 216.651C84.972 216.539 84.094 216.578 83.2907 216.545C82.3629 216.512 81.4226 216.506 80.5072 216.466C78.72 216.394 76.9328 216.347 75.1394 216.314C71.5401 216.255 67.9221 216.275 64.3229 216.394L61.3463 216.506C60.2939 216.552 59.2291 216.651 58.1767 216.644C58.0957 216.644 58.0957 216.75 58.1767 216.75C59.995 216.75 61.832 216.915 63.6441 216.981C65.4562 217.047 67.2185 217.086 69.0119 217.113C72.6112 217.165 76.2292 217.113 79.8284 216.994C80.8186 216.954 81.8149 216.934 82.805 216.908L84.3929 216.836C84.86 216.836 85.3332 216.836 85.8003 216.783C85.8168 216.78 85.8316 216.771 85.8416 216.756C85.8515 216.742 85.8557 216.724 85.8532 216.707C85.8507 216.689 85.8418 216.674 85.8283 216.663C85.8149 216.653 85.7981 216.648 85.7816 216.651Z" fill="#263238"/>
<path d="M60.5991 188.028C60.5575 183.727 60.5098 179.424 60.4558 175.119C60.4122 170.798 60.3873 166.471 60.0386 162.163C59.6382 157.91 59.025 153.682 58.2016 149.498L55.8851 136.806C54.3241 128.257 52.757 119.708 51.1836 111.159C49.4275 101.488 47.5594 91.8438 45.7224 82.1865C45.7224 82.1205 45.6165 82.1535 45.6289 82.1865C48.6263 99.3375 51.6859 116.46 54.8078 133.554C55.6007 137.877 56.3895 142.198 57.1741 146.516C57.9525 150.764 58.7932 155.013 59.3163 159.307C59.7706 163.512 60.0014 167.74 60.0075 171.972C60.0697 176.37 60.1237 180.752 60.1694 185.119C60.2939 194.869 60.3998 204.619 60.543 214.362C60.5506 214.404 60.5719 214.442 60.6032 214.469C60.6344 214.497 60.6737 214.512 60.7143 214.512C60.7548 214.512 60.7941 214.497 60.8253 214.469C60.8566 214.442 60.8779 214.404 60.8855 214.362C60.8108 205.602 60.6987 196.815 60.5991 188.028Z" fill="#263238"/>
<path d="M62.6228 78.8024L55.2001 159.129C52.5037 143.436 41.407 78.7892 41.407 78.7892L62.6228 78.8024Z" fill="#263238"/>
<path d="M17.1211 177.817L5.36421 203.372C3.0913 208.24 1.17957 212.554 0.382498 214.883C0.379798 214.896 0.379798 214.909 0.382498 214.923C0.141101 215.446 0.0174829 216.022 0.0213272 216.605C0.0213272 216.605 0.0213272 216.638 0.0213272 216.651C0.93049 218.346 37.1475 238.71 38.6296 238.967C40.1117 239.224 40.9336 234.752 40.1241 232.773C39.3146 230.794 28.7347 216.427 28.7347 216.427L40.2611 190.792L17.1211 177.817Z" fill="#AD6359"/>
<path d="M7.77427 198.128L5.36436 203.372C3.09146 208.24 1.17973 212.554 0.382655 214.883C0.379954 214.896 0.379954 214.91 0.382655 214.923C0.200834 215.466 0.0796247 216.031 0.0214844 216.605C0.0214844 216.605 0.0214844 216.638 0.0214844 216.651C0.930646 218.346 37.1477 238.71 38.6297 238.967C40.1118 239.224 40.9338 234.752 40.1242 232.773C39.3147 230.794 28.7348 216.427 28.7348 216.427L31.2257 211.149L7.77427 198.128Z" fill="#C7C7C7"/>
<path d="M38.642 238.947C37.1538 238.69 0.942904 218.326 0.0337406 216.625C-0.321207 215.965 2.16965 210.226 5.3704 203.352L5.47004 203.135L28.9713 215.998L28.7533 216.413C28.7533 216.413 39.3395 230.774 40.1428 232.76C40.9461 234.745 40.1303 239.238 38.642 238.947Z" fill="#263238"/>
<path d="M38.9784 237.252C32.9567 233.67 8.32842 219.778 2.10128 216.717C2.05147 216.717 2.03278 216.717 2.10128 216.756C7.99838 220.45 32.7263 234.125 38.9286 237.357C39.0593 237.423 39.1029 237.324 38.9784 237.252Z" fill="#455A64"/>
<path d="M30.6712 217.607C28.5104 215.787 25.3781 214.52 22.6319 215.305C22.5261 215.305 22.5697 215.496 22.6319 215.51C25.321 216.016 27.9513 216.826 30.4781 217.924C30.5178 217.951 30.566 217.96 30.6121 217.95C30.6582 217.939 30.6985 217.91 30.7241 217.868C30.7497 217.826 30.7585 217.775 30.7486 217.726C30.7387 217.677 30.7108 217.634 30.6712 217.607Z" fill="#455A64"/>
<path d="M31.8545 219.692C29.6874 217.865 26.5551 216.605 23.8089 217.383C23.7031 217.416 23.7467 217.574 23.8089 217.594C26.496 218.101 29.1243 218.91 31.649 220.009C31.6886 220.037 31.7375 220.048 31.7848 220.039C31.8321 220.03 31.8739 220.001 31.9012 219.959C31.9284 219.917 31.9388 219.865 31.9301 219.815C31.9213 219.765 31.8941 219.721 31.8545 219.692Z" fill="#455A64"/>
<path d="M33.0314 221.796C30.8706 219.969 27.7321 218.709 24.9921 219.487C24.8863 219.487 24.9236 219.679 24.9921 219.692C27.6806 220.202 30.3106 221.011 32.8384 222.106C32.8576 222.12 32.8791 222.129 32.9018 222.134C32.9244 222.138 32.9476 222.138 32.9701 222.133C32.9927 222.128 33.0141 222.119 33.0332 222.105C33.0522 222.091 33.0686 222.074 33.0813 222.053C33.0939 222.033 33.1027 222.01 33.1071 221.986C33.1114 221.962 33.1113 221.938 33.1067 221.914C33.102 221.89 33.093 221.867 33.0801 221.847C33.0672 221.827 33.0507 221.81 33.0314 221.796Z" fill="#455A64"/>
<path d="M4 202.742L33.5229 218.435C33.5229 218.435 53.2318 172.998 54.4897 155.596C55.405 142.858 55.3677 115.977 55.8409 97.1177C55.8409 97.1177 60.8787 93.9646 62.149 92.2429C63.4194 90.5212 64.5776 84.327 67.0872 78.3901H30.2412C21.4298 96.5108 28.0617 104.572 28.0617 108.523C28.0617 127.6 26.1935 149.178 25.3342 152.925C23.5283 160.768 4 202.742 4 202.742Z" fill="#2978B5"/>
<path d="M34.937 211.156C34.252 210.681 33.4487 210.305 32.7263 209.896C31.9044 209.434 31.0761 208.999 30.2355 208.53C28.6538 207.633 27.0659 206.763 25.4717 205.892C22.2585 204.164 19.0017 202.501 15.7138 200.938L12.9925 199.658C12.0273 199.203 11.0372 198.801 10.0844 198.339C10.0159 198.306 9.97859 198.398 10.0471 198.431C11.6848 199.269 13.2603 200.278 14.8669 201.182C16.4735 202.086 18.0365 202.937 19.6307 203.821C22.8501 205.536 26.1131 207.185 29.4073 208.735C30.3102 209.157 31.2131 209.606 32.1161 210.054L33.5732 210.714C34.0029 210.912 34.4139 211.163 34.8623 211.321C34.8829 211.331 34.9066 211.333 34.9282 211.325C34.9498 211.317 34.9675 211.3 34.9775 211.278C34.9874 211.256 34.9887 211.231 34.9811 211.208C34.9735 211.185 34.9576 211.166 34.937 211.156Z" fill="#263238"/>
<path d="M33.7724 80.9001C32.0362 84.0014 30.7435 87.3581 29.9365 90.861C29.576 92.5614 29.3819 94.2967 29.3574 96.0393C29.3684 97.8452 29.5583 99.6449 29.924 101.409C30.3392 103.362 30.6057 105.347 30.7211 107.346C30.7958 109.397 30.6838 111.442 30.609 113.487C30.4658 117.564 30.335 121.641 30.1918 125.717C30.0486 129.794 29.9178 133.943 29.7746 138.059C29.6376 142.063 29.675 146.14 29.0522 150.105C28.4295 154.069 27.0346 157.664 25.646 161.319C24.2573 164.973 22.794 168.634 21.287 172.263C18.3042 179.558 15.1221 186.775 11.8093 193.88L10.5639 196.591C10.5523 196.613 10.5494 196.638 10.5558 196.663C10.5623 196.687 10.5775 196.707 10.5981 196.719C10.6188 196.732 10.6431 196.735 10.6659 196.728C10.6887 196.721 10.708 196.705 10.7195 196.683C14.1569 189.618 17.3826 182.448 20.4526 175.198C21.9886 171.557 23.481 167.891 24.9299 164.202C26.3982 160.72 27.6708 157.149 28.7409 153.509C29.7497 149.742 29.924 145.876 30.0548 141.991L30.4658 129.761C30.6028 125.649 30.7419 121.535 30.883 117.419C30.9536 115.387 31.02 113.353 31.0823 111.317C31.185 109.32 31.1413 107.317 30.9515 105.327C30.7273 103.441 30.2728 101.6 29.9739 99.7267C29.6846 97.8787 29.6093 96.0002 29.7497 94.1329C30.0757 90.3996 31.0466 86.7616 32.6142 83.4002C32.994 82.5691 33.3988 81.7511 33.8596 80.9529C33.8662 80.9407 33.8679 80.9261 33.8644 80.9125C33.8609 80.8989 33.8525 80.8874 33.8409 80.8804C33.8294 80.8734 33.8156 80.8715 33.8028 80.8752C33.7899 80.8789 33.779 80.8879 33.7724 80.9001Z" fill="#263238"/>
<path d="M63.0151 92.2396C61.2559 93.0945 59.5862 94.1425 58.0334 95.3664C56.3832 96.567 54.8699 97.9457 53.2758 99.232C53.2135 99.2848 53.2758 99.3904 53.3381 99.3442C55.0194 98.2096 56.7755 97.2135 58.4319 96.0458C60.093 94.9737 61.6602 93.7462 63.1147 92.3781C63.1321 92.3641 63.1434 92.3434 63.1464 92.3205C63.1493 92.2976 63.1435 92.2744 63.1303 92.256C63.1171 92.2377 63.0975 92.2256 63.0759 92.2225C63.0543 92.2194 63.0324 92.2256 63.0151 92.2396Z" fill="#263238"/>
<path d="M63.2394 81.2894C63.0277 82.5031 62.7475 83.7103 62.4984 84.9175C62.2493 86.1247 62.0999 87.2065 61.8134 88.3279C61.5845 89.4137 61.0632 90.4059 60.3127 91.1842C59.8955 91.5998 59.4347 91.9626 58.9863 92.3452C58.7435 92.5497 58.4819 92.741 58.2328 92.9521C58.264 92.7872 58.2889 92.6289 58.32 92.464L58.5442 91.0787C58.7061 90.0562 58.8556 89.0271 59.005 88.0047C59.2977 85.9861 59.5654 83.9478 59.964 81.949C59.964 81.8699 59.8643 81.8369 59.8457 81.916C59.3724 83.895 58.8493 85.874 58.4321 87.853C58.2329 88.8293 57.5105 93.658 57.4731 94.001C57.4358 94.344 57.4171 94.7134 57.4046 95.063C57.358 95.4242 57.358 95.7903 57.4046 96.1515C57.4046 96.2372 57.523 96.224 57.5603 96.1515C57.7026 95.8176 57.801 95.4647 57.853 95.1026C57.9339 94.7596 58.0087 94.443 58.0709 94.0603C58.0709 93.935 58.1083 93.8031 58.1208 93.6712C58.5691 93.3875 58.9925 93.0115 59.4098 92.6817C59.827 92.3518 60.3251 92.022 60.7548 91.613C61.5445 90.9032 62.115 89.9588 62.3925 88.9018C62.6647 87.7614 62.8438 86.5983 62.9281 85.4254C63.0713 84.0533 63.1771 82.6746 63.3577 81.3091C63.3702 81.2102 63.2519 81.1772 63.2394 81.2894Z" fill="#263238"/>
<path d="M32.5767 89.7263C33.0624 89.4624 34.9243 89.9308 38.3119 89.3173C38.9765 89.23 39.6078 88.9593 40.1426 88.5323C41.0132 87.6634 41.7228 86.6298 42.2349 85.4847C42.8725 84.3059 43.3624 83.0441 43.6921 81.7312C43.6921 81.6521 43.8166 81.6851 43.8042 81.7642C43.6796 82.5096 43.6111 83.2485 43.4243 83.9873C43.24 84.6786 43.0048 85.3535 42.7207 86.0058C42.2841 87.2959 41.5473 88.4485 40.5785 89.3569C39.495 90.221 37.9881 90.3794 36.6742 90.4783C35.9144 90.5311 32.9379 90.4783 32.5394 89.9968C32.523 89.9773 32.5108 89.9543 32.5037 89.9294C32.4966 89.9044 32.4948 89.8781 32.4984 89.8523C32.5019 89.8265 32.5108 89.8018 32.5243 89.7801C32.5379 89.7583 32.5558 89.7399 32.5767 89.7263Z" fill="#263238"/>
<path d="M59.858 39.2561C61.0225 53.5575 64.8896 68.9406 66.272 72.1334C70.0083 80.7089 83.9197 91.2634 89.3747 93.3479C91.4234 94.1263 100.721 79.0202 98.5535 78.1033C94.5556 76.4212 79.2992 64.2505 78.5581 62.9839C78.0475 62.0868 72.1629 48.7354 68.0218 40.5556C62.872 30.3639 59.5529 35.5027 59.858 39.2561Z" fill="#AD6359"/>
<path d="M114.265 100.835C114.14 100.922 113.997 100.977 113.849 100.993C113.7 101.009 113.55 100.986 113.411 100.927C113.598 102.517 113.38 103.843 112.303 104.226C111.977 104.317 111.633 104.302 111.314 104.185C110.996 104.067 110.718 103.852 110.516 103.566C110.485 104.371 110.18 104.925 109.47 105.057C108.224 105.288 106.512 102.86 105.067 100.254C105.789 102.233 106.076 103.949 104.967 104.212C102.022 104.872 99.363 98.6845 97.0154 94.7529C96.3108 93.5119 95.4403 92.3854 94.4311 91.4085C94.2735 91.2699 94.1047 91.1463 93.9267 91.0391C93.744 90.8848 93.5203 90.7948 93.2869 90.7818C93.0536 90.7688 92.8222 90.8334 92.6252 90.9665C92.0025 91.5008 92.6875 93.3413 93.4908 94.3637C95.0227 96.2965 95.3589 100.169 94.2131 101.198C92.5567 102.708 89.5988 97.7808 88.1666 96.3361C86.2486 94.4033 84.1874 90.1419 83.9944 89.8583C83.9944 89.8583 84.8849 88.3872 86.2299 86.4215C88.7893 82.668 92.9926 77.1203 95.7326 76.5266C95.7326 76.5266 104.064 80.2405 110.647 86.2697C112.882 88.3609 116.905 99.2716 114.265 100.835Z" fill="#AD6359"/>
<path d="M99.9483 90.8214C101.316 91.8523 102.438 93.2077 103.224 94.7793C104.338 96.9298 104.513 98.3085 105.248 100.525C105.248 100.578 105.185 100.617 105.167 100.558C104.812 99.5025 103.498 96.0591 103.049 95.0762C102.363 93.4051 101.292 91.9425 99.9358 90.8214C99.9358 90.8214 99.9296 90.8082 99.9483 90.8214Z" fill="#263238"/>
<path d="M103.155 88.4137C104.554 89.7132 105.808 91.1784 106.892 92.7806C108.205 94.7596 108.828 97.1278 109.457 99.43C109.839 100.815 110.19 102.207 110.51 103.606C110.51 103.665 110.435 103.698 110.422 103.606C109.8 101.244 109.108 98.8956 108.349 96.5802C107.662 94.4276 106.578 92.4409 105.16 90.7357C104.53 89.9261 103.86 89.1511 103.155 88.4137Z" fill="#263238"/>
<path d="M106.157 86.2567C107.695 87.576 109.083 88.7304 110.123 90.5576C111.182 92.582 111.974 94.7504 112.477 97.0024C112.807 98.2821 113.1 99.5684 113.374 100.861C113.374 100.914 113.299 100.934 113.287 100.861C112.621 97.9873 111.778 95.1624 110.765 92.4046C110.351 91.2199 109.744 90.1214 108.971 89.1591C108.111 88.106 107.167 87.1327 106.15 86.2501C106.15 86.2501 106.15 86.2501 106.157 86.2567Z" fill="#263238"/>
<path d="M104.967 104.232C105.208 104.144 105.409 103.966 105.534 103.731C105.642 103.486 105.689 103.216 105.671 102.946C105.635 102.41 105.537 101.88 105.378 101.369C105.301 101.107 105.236 100.841 105.185 100.571C105.182 100.552 105.182 100.531 105.185 100.512C105.185 100.512 105.185 100.512 105.185 100.459C105.185 100.406 105.247 100.386 105.272 100.4C105.297 100.413 105.335 100.452 105.353 100.466L105.384 100.512L105.484 100.69L105.665 101.053C105.908 101.528 106.157 101.996 106.424 102.458C106.912 103.39 107.604 104.184 108.442 104.773C108.649 104.896 108.882 104.964 109.119 104.971C109.357 104.978 109.592 104.923 109.806 104.813C110.014 104.72 110.184 104.551 110.283 104.337C110.383 104.122 110.406 103.876 110.347 103.645L110.21 103.065L110.59 103.513C110.878 103.858 111.274 104.081 111.705 104.14C111.913 104.173 112.125 104.143 112.318 104.055C112.51 103.966 112.676 103.822 112.795 103.639C113.037 103.242 113.186 102.789 113.231 102.319C113.305 101.848 113.305 101.366 113.231 100.894L113.168 100.558L113.461 100.723C113.59 100.78 113.731 100.802 113.87 100.787C114.009 100.772 114.142 100.721 114.258 100.637C114.517 100.474 114.706 100.212 114.787 99.9049C114.967 99.2431 115.04 98.5541 115.005 97.8666C114.926 96.4945 114.677 95.1394 114.264 93.8361C113.488 91.1215 112.265 88.5735 110.653 86.3094C112.372 88.4852 113.688 90.985 114.532 93.6777C114.962 95.0287 115.213 96.4361 115.279 97.86C115.325 98.5826 115.251 99.308 115.061 100.004C115.006 100.186 114.926 100.359 114.825 100.518C114.715 100.68 114.573 100.813 114.408 100.908C114.246 101.023 114.059 101.092 113.865 101.109C113.671 101.125 113.476 101.087 113.299 101L113.53 100.828C113.617 101.337 113.617 101.857 113.53 102.365C113.472 102.886 113.301 103.385 113.031 103.823C112.879 104.061 112.662 104.243 112.409 104.344C112.168 104.439 111.91 104.473 111.655 104.443C111.147 104.375 110.681 104.109 110.347 103.698L110.59 103.566C110.661 103.866 110.632 104.183 110.509 104.463C110.376 104.739 110.156 104.956 109.887 105.077C109.635 105.198 109.36 105.259 109.083 105.255C108.806 105.234 108.537 105.151 108.293 105.011C107.428 104.385 106.72 103.545 106.231 102.563C105.97 102.095 105.727 101.613 105.49 101.132L105.316 100.769C105.279 100.65 105.135 100.499 105.316 100.551C105.347 100.809 105.422 101.072 105.478 101.336C105.624 101.86 105.705 102.401 105.721 102.946C105.728 103.223 105.67 103.497 105.553 103.744C105.419 103.976 105.212 104.149 104.967 104.232Z" fill="#263238"/>
<path d="M103.286 93.9482C102.29 91.6592 92.5006 95.1817 94.0324 98.9351C95.5643 102.689 104.413 96.534 103.286 93.9482Z" fill="#AD6359"/>
<path d="M105.08 97.352C104.089 95.0696 94.3002 98.5856 95.8259 102.339C97.3515 106.092 106.207 99.9379 105.08 97.352Z" fill="#AD6359"/>
<path d="M106.842 98.9616C105.64 97.0288 97.202 101.673 99.0888 104.859C100.976 108.045 108.205 101.145 106.842 98.9616Z" fill="#AD6359"/>
<path d="M108.947 100.109C107.315 98.6779 100.721 105.505 103.342 107.9C105.964 110.295 110.796 101.739 108.947 100.109Z" fill="#AD6359"/>
<path d="M102.146 96.7055C101.617 96.8559 101.101 97.0523 100.602 97.2926C100.06 97.5301 99.5186 97.7741 99.0017 98.0644C98.5007 98.3381 98.0162 98.6443 97.5508 98.9813C97.0651 99.3375 96.6105 99.7728 96.1123 100.116C96.1046 100.118 96.0976 100.123 96.0918 100.129C96.086 100.134 96.0817 100.142 96.0792 100.15C96.0767 100.158 96.076 100.167 96.0773 100.175C96.0786 100.183 96.0818 100.191 96.0866 100.198C96.0914 100.205 96.0978 100.21 96.105 100.214C96.1123 100.218 96.1202 100.22 96.1283 100.219C96.1363 100.219 96.1441 100.217 96.1511 100.212C96.1581 100.208 96.164 100.202 96.1684 100.195C96.6532 99.8624 97.1588 99.5649 97.6816 99.3045C98.1922 99.0209 98.6841 98.7174 99.1885 98.4338C99.6929 98.1501 100.16 97.8665 100.652 97.596C101.144 97.3256 101.686 97.0881 102.178 96.7847C102.184 96.7782 102.188 96.7699 102.19 96.7609C102.192 96.7518 102.191 96.7424 102.187 96.7339C102.184 96.7254 102.178 96.7181 102.171 96.7131C102.164 96.708 102.155 96.7054 102.146 96.7055Z" fill="#263238"/>
<path d="M104.98 98.5856C104.476 99.0078 102.639 100.683 102.115 101.086C101.592 101.488 101.051 101.877 100.509 102.253C99.967 102.629 99.4128 103.071 98.8274 103.395C98.7776 103.427 98.8274 103.513 98.871 103.487C99.4564 103.157 100.067 102.887 100.64 102.524C101.212 102.161 101.748 101.778 102.284 101.369C103.257 100.522 104.182 99.6147 105.055 98.6516C105.092 98.6054 105.024 98.5526 104.98 98.5856Z" fill="#263238"/>
<path d="M106.779 100.551C106.157 101.211 105.609 101.95 105.005 102.629L104.102 103.632L103.672 104.127C103.521 104.326 103.354 104.511 103.174 104.681C103.124 104.72 103.174 104.806 103.242 104.747C103.439 104.552 103.647 104.372 103.865 104.206C104.021 104.061 104.183 103.916 104.332 103.764C104.656 103.447 104.955 103.104 105.248 102.774C105.841 102.105 106.384 101.388 106.873 100.631C106.904 100.571 106.829 100.499 106.779 100.551Z" fill="#263238"/>
<path d="M103.329 93.7503C102.52 92.6091 100.695 92.9653 99.5932 93.2028C98.1923 93.4979 96.8673 94.1075 95.7074 94.9905C94.6737 95.7952 93.5341 96.9694 93.7209 98.4537C93.7719 98.7489 93.8805 99.0295 94.0397 99.2778C94.1989 99.526 94.4052 99.7363 94.6455 99.8952C94.8858 100.054 95.1548 100.158 95.4352 100.201C95.7156 100.243 96.0013 100.223 96.2741 100.142C96.3301 100.142 96.3052 100.03 96.2429 100.043C95.926 100.118 95.5955 100.096 95.2901 99.9788C94.9847 99.862 94.7169 99.6557 94.518 99.3838C94.2843 99.0819 94.14 98.7135 94.1034 98.325C94.0669 97.9365 94.1396 97.5451 94.3125 97.2003C94.8979 95.881 96.3364 94.9839 97.5257 94.3902C98.8045 93.7405 100.205 93.4045 101.623 93.4073C102.414 93.4073 103.566 93.8229 103.286 94.9047C103.015 95.6759 102.557 96.3583 101.959 96.8837C101.959 96.8837 101.959 96.943 101.991 96.9233C102.788 96.3098 104.127 94.8717 103.329 93.7503Z" fill="#263238"/>
<path d="M104.55 96.5736C104.113 96.4171 103.646 96.3808 103.192 96.468C102.968 96.5027 102.747 96.5579 102.532 96.6329L102.171 96.7649C102.047 96.8111 101.847 96.943 102.04 96.9034C102.233 96.8638 102.831 96.7187 103.043 96.6923C103.437 96.646 103.835 96.6728 104.22 96.7715C104.395 96.813 104.563 96.8819 104.718 96.976C104.874 97.093 104.996 97.2526 105.073 97.4378C105.145 97.6527 105.174 97.8814 105.157 98.1088C105.139 98.3362 105.077 98.5571 104.973 98.7571C104.973 98.7571 104.973 98.7571 105.005 98.7571C105.21 98.3519 105.315 97.8979 105.31 97.4378C105.271 97.2334 105.179 97.0445 105.045 96.8919C104.911 96.7394 104.74 96.6292 104.55 96.5736Z" fill="#263238"/>
<path d="M107.091 99.0078C106.904 98.3481 105.957 98.104 105.005 98.7241C105.005 98.7241 104.942 98.7835 105.005 98.7241C105.252 98.5877 105.526 98.5164 105.805 98.5164C106.084 98.5164 106.358 98.5877 106.605 98.7241C106.736 98.8505 106.838 99.0075 106.902 99.1827C106.965 99.3579 106.99 99.5465 106.973 99.7334C106.967 100.121 106.852 100.498 106.642 100.815C106.838 100.567 106.98 100.277 107.057 99.9645C107.135 99.6521 107.146 99.3254 107.091 99.0078Z" fill="#263238"/>
<path d="M108.641 99.819C108.271 99.8087 107.903 99.8905 107.568 100.058C107.233 100.225 106.939 100.473 106.711 100.782C106.661 100.842 106.636 100.907 106.711 100.855C107.172 100.406 108.074 99.7927 108.716 100.037C109.357 100.281 109.339 101.053 109.339 101.607C109.295 103.032 108.573 104.245 107.888 105.4C107.888 105.4 107.888 105.446 107.925 105.4C108.397 104.752 108.8 104.051 109.127 103.309C109.456 102.604 109.614 101.825 109.588 101.039C109.488 100.499 109.239 99.8982 108.641 99.819Z" fill="#263238"/>
<path d="M117.752 94.3901C116.849 93.3215 116.338 87.6947 113.854 86.6327C112.203 85.9268 110.815 85.973 107.732 87.0284C104.426 88.1432 105.397 90.3993 107.197 90.485C109.204 90.57 111.215 90.5347 113.218 90.3795C113.708 91.4532 114.142 92.5543 114.52 93.6777L117.752 94.3901Z" fill="#AD6359"/>
<path d="M113.885 90.142C112.646 90.3263 111.399 90.4408 110.148 90.485C109.526 90.485 107.346 90.5642 106.537 90.1486C106.382 90.0895 106.242 89.9949 106.126 89.8717C106.01 89.7484 105.921 89.5995 105.865 89.4356C105.81 89.2717 105.79 89.0969 105.806 88.9236C105.821 88.7504 105.873 88.583 105.957 88.4335C106.279 87.9273 106.724 87.5236 107.246 87.2659C108.28 86.7204 109.398 86.3785 110.547 86.2566C110.609 86.2566 110.547 86.1841 110.497 86.1907C109.245 86.2753 108.018 86.604 106.879 87.1604C105.976 87.6617 104.874 88.8755 105.696 89.9837C106.074 90.4222 106.6 90.6853 107.159 90.7159C109.409 90.9939 111.687 90.8125 113.872 90.1816C113.872 90.1816 113.91 90.1354 113.885 90.142Z" fill="#263238"/>
<path d="M94.5555 75.4844L83.191 90.3597C83.191 90.3597 68.2458 78.7827 65.4872 72.4104C62.7286 66.0381 59.5029 45.9384 59.6835 39.8366C59.8641 33.7348 62.6041 29.9813 68.1774 40.3182C73.7506 50.655 78.0536 60.6488 79.0749 62.3969C80.0961 64.1449 94.5555 75.4844 94.5555 75.4844Z" fill="#FB9300"/>
<path d="M89.1505 74.0332C89.1118 74.2125 89.1242 74.3999 89.186 74.5718C89.2478 74.7436 89.3564 74.8922 89.4979 74.9987C89.6395 75.1052 89.8077 75.1649 89.9812 75.1702C90.1548 75.1755 90.3259 75.1262 90.473 75.0284C90.6201 74.9307 90.7366 74.789 90.8076 74.6212C90.8787 74.4533 90.9012 74.267 90.8723 74.0856C90.8434 73.9043 90.7643 73.7361 90.6452 73.6023C90.5261 73.4685 90.3721 73.3751 90.2029 73.3339C90.0905 73.3066 89.974 73.303 89.8603 73.3233C89.7465 73.3437 89.6377 73.3876 89.5399 73.4525C89.4422 73.5175 89.3575 73.6022 89.2907 73.7018C89.2239 73.8014 89.1762 73.914 89.1505 74.0332Z" fill="#263238"/>
<path d="M85.5449 71.0845C85.5074 71.2639 85.5209 71.451 85.5837 71.6222C85.6465 71.7935 85.7558 71.9412 85.8977 72.0468C86.0396 72.1523 86.2079 72.211 86.3813 72.2154C86.5547 72.2198 86.7254 72.1696 86.8719 72.0714C87.0185 71.9731 87.1342 71.8311 87.2046 71.6632C87.2751 71.4953 87.297 71.3091 87.2676 71.128C87.2382 70.9469 87.1589 70.7792 87.0396 70.6458C86.9203 70.5124 86.7664 70.4195 86.5973 70.3787C86.3695 70.3254 86.131 70.3698 85.9339 70.502C85.7368 70.6342 85.597 70.8436 85.5449 71.0845Z" fill="#263238"/>
<path opacity="0.1" d="M77.1259 85.3265C72.6485 81.4147 67.0752 76.0583 65.4873 72.4104C62.7037 66.0381 59.503 45.9384 59.6836 39.8366C59.8143 35.4169 61.284 32.2374 64.192 34.7243L77.1259 85.3265Z" fill="black"/>
<path d="M28.0684 83.4398C28.1556 83.5717 70.9609 88.717 71.3968 88.3014C72.0195 87.7077 67.4675 37.4354 63.7063 30.8454C62.903 29.4403 59.8392 28.7147 57.1678 28.7543C56.4702 28.7579 55.7742 28.8263 55.0879 28.9588H55.0319C54.4785 29.0633 53.9459 29.2662 53.4564 29.5591C45.4795 34.9023 37.0417 55.8662 34.9245 62.2054C31.4 72.661 27.7571 82.9714 28.0684 83.4398Z" fill="#FB9300"/>
<path opacity="0.1" d="M24.2822 86.6194L36.5746 87.0877L51.2582 30.7531V30.7926L45.031 37.5607L44.8131 37.8971C39.3332 46.5188 32.2218 67.8653 32.2218 67.8653C31.9914 69.0065 24.2822 86.6194 24.2822 86.6194Z" fill="black"/>
<path d="M61.3461 41.9805C61.3461 45.602 61.2402 49.2367 61.1406 52.8318C61.041 56.4269 60.8915 60.055 60.7732 63.67C60.6549 67.2849 60.4556 70.9262 60.2564 74.5015L59.9512 79.9173C59.8267 81.7182 59.7209 83.5256 59.5776 85.3265C59.5776 83.519 59.6212 81.7116 59.6461 79.9041L59.7831 74.4817C59.8765 70.8668 60.026 67.2255 60.1505 63.6436C60.275 60.0616 60.4681 56.4203 60.6673 52.8054C60.8666 49.1905 61.0721 45.5888 61.3461 41.9805Z" fill="#263238"/>
<path d="M63.42 53.1814C63.42 53.3616 63.3525 53.5344 63.2322 53.6618C63.1119 53.7893 62.9487 53.8608 62.7786 53.8608C62.6085 53.8608 62.4454 53.7893 62.3251 53.6618C62.2048 53.5344 62.1372 53.3616 62.1372 53.1814C62.1372 53.0012 62.2048 52.8284 62.3251 52.701C62.4454 52.5735 62.6085 52.502 62.7786 52.502C62.9487 52.502 63.1119 52.5735 63.2322 52.701C63.3525 52.8284 63.42 53.0012 63.42 53.1814Z" fill="#263238"/>
<path d="M63.0026 60.1804C62.9965 60.3092 62.9549 60.4334 62.8829 60.5374C62.8109 60.6415 62.7116 60.7209 62.5975 60.7658C62.4833 60.8107 62.3592 60.8191 62.2405 60.7901C62.1218 60.761 62.0138 60.6957 61.9298 60.6023C61.8458 60.5089 61.7895 60.3914 61.7679 60.2644C61.7463 60.1374 61.7603 60.0065 61.8083 59.8879C61.8562 59.7693 61.9358 59.6681 62.0375 59.597C62.1391 59.5259 62.2582 59.4879 62.38 59.4877C62.4644 59.4876 62.548 59.5057 62.6257 59.5409C62.7033 59.5761 62.7734 59.6277 62.8316 59.6924C62.8899 59.7572 62.9351 59.8339 62.9645 59.9178C62.9939 60.0017 63.0069 60.091 63.0026 60.1804Z" fill="#263238"/>
<path d="M62.5854 67.1266C62.5793 67.2555 62.5377 67.3796 62.4657 67.4837C62.3937 67.5877 62.2944 67.6671 62.1802 67.7121C62.0661 67.757 61.9419 67.7654 61.8233 67.7364C61.7046 67.7073 61.5966 67.642 61.5126 67.5486C61.4286 67.4551 61.3723 67.3377 61.3507 67.2107C61.3291 67.0837 61.3431 66.9528 61.391 66.8342C61.4389 66.7155 61.5186 66.6144 61.6202 66.5433C61.7218 66.4721 61.8409 66.4341 61.9627 66.434C62.0472 66.4338 62.1308 66.4519 62.2084 66.4871C62.2861 66.5223 62.3562 66.5739 62.4144 66.6387C62.4727 66.7035 62.5178 66.7801 62.5472 66.864C62.5766 66.9479 62.5896 67.0372 62.5854 67.1266Z" fill="#263238"/>
<path d="M62.1681 74.0991C62.1608 74.2276 62.1182 74.351 62.0455 74.4542C61.9728 74.5573 61.8731 74.6357 61.7589 74.6796C61.6447 74.7235 61.5208 74.7311 61.4026 74.7013C61.2844 74.6716 61.177 74.6058 61.0936 74.5122C61.0102 74.4186 60.9545 74.3011 60.9333 74.1744C60.9122 74.0476 60.9265 73.9171 60.9745 73.7988C61.0226 73.6806 61.1022 73.5798 61.2036 73.5089C61.3051 73.438 61.4239 73.4001 61.5454 73.3999C61.6304 73.3997 61.7145 73.418 61.7926 73.4536C61.8707 73.4892 61.9411 73.5414 61.9994 73.6069C62.0578 73.6724 62.1028 73.7499 62.1318 73.8345C62.1608 73.9192 62.1732 74.0092 62.1681 74.0991Z" fill="#263238"/>
<path d="M61.751 81.0651C61.751 81.1956 61.7145 81.3231 61.646 81.4316C61.5776 81.54 61.4804 81.6246 61.3666 81.6745C61.2528 81.7244 61.1276 81.7375 61.0068 81.7121C60.886 81.6866 60.7751 81.6238 60.688 81.5315C60.6009 81.4393 60.5416 81.3217 60.5176 81.1938C60.4936 81.0658 60.5059 80.9332 60.553 80.8127C60.6001 80.6921 60.68 80.5891 60.7824 80.5166C60.8848 80.4441 61.0051 80.4055 61.1283 80.4055C61.2934 80.4055 61.4518 80.475 61.5686 80.5987C61.6854 80.7224 61.751 80.8901 61.751 81.0651Z" fill="#263238"/>
<path d="M58.9177 41.367L61.2342 37.6597L63.395 40.7931L62.4983 43.5504L60.0324 43.6032L58.9177 41.367Z" fill="#263238"/>
<path d="M60.0136 43.6032C60.0136 43.6032 55.5736 59.026 58.7993 67.4037C61.9689 75.6494 70.7554 77.602 70.7554 77.602L78.8507 76.8434L74.6412 70.2996C74.6412 70.2996 68.333 67.8457 65.4499 63.0104C62.5667 58.1751 62.4608 43.5505 62.4608 43.5505L60.0136 43.6032Z" fill="#263238"/>
<path d="M47.1047 34.3548C33.9592 44.4343 24.687 59.9495 23.8152 63.195C21.7478 71.0581 18.5657 83.0176 18.2108 89.2052C18.0738 91.4942 34.8248 92.5035 35.024 90.0826C35.7152 82.4371 38.4303 65.7676 38.4988 65.484C39.0094 63.4588 43.5241 54.6458 48.157 45.0676C52.79 35.4894 52.6343 30.1066 47.1047 34.3548Z" fill="#AD6359"/>
<path d="M35.2794 87.6286C35.2794 87.6286 34.7377 96.2042 34.8684 100.934C34.9431 103.573 34.6878 108.151 33.9032 110.123C32.7263 113.078 26.0196 124.635 23.317 122.973C20.8947 121.469 27.8442 112.313 27.8442 112.313C27.8442 112.313 21.617 122.208 18.9954 119.833C16.3738 117.458 25.5401 108.21 25.5401 108.21C25.5401 108.21 18.9144 118.23 16.6042 115.321C14.8481 113.124 22.6943 104.265 22.6943 104.265C22.6943 104.265 16.9404 112.841 15.0412 110.657C12.9488 108.249 19.7053 99.5882 19.7053 99.5882C15.7635 93.2027 18.1236 86.87 18.9269 83.5388C19.1199 82.734 35.2794 87.6286 35.2794 87.6286Z" fill="#AD6359"/>
<path d="M29.868 109.655C27.3211 114.12 23.7841 117.966 22.109 119.253L21.7354 119.53C23.5039 117.439 29.0336 110.736 29.8306 109.635C29.8493 109.562 29.8804 109.595 29.868 109.655Z" fill="#263238"/>
<path d="M26.4616 105.941C24.992 109.615 21.536 113.052 20.44 114.404C20.359 114.51 20.3341 114.404 20.44 114.318C21.4799 112.92 25.4777 107.352 26.4554 105.914C26.4429 105.888 26.4679 105.914 26.4616 105.941Z" fill="#263238"/>
<path d="M23.429 103.058C22.3183 105.394 20.7519 107.454 18.8334 109.101C18.7338 109.193 18.7276 109.101 18.8334 108.982C20.4836 106.891 21.5422 105.618 23.373 103.012C23.3792 102.939 23.4539 102.979 23.429 103.058Z" fill="#263238"/>
<path d="M35.8211 90.2541L17.6191 89.2052C17.6191 89.2052 21.1437 68.3799 23.1862 62.72C25.2287 57.0602 39.5138 39.0713 47.4721 32.8706C54.9447 27.0392 54.3842 32.5539 51.0091 40.0213C47.634 47.4886 39.2709 65.5236 38.9098 66.8693C38.5486 68.215 35.8211 90.2541 35.8211 90.2541Z" fill="#FB9300"/>
<path d="M35.4102 86.2961C34.7252 86.1444 34.0153 86.1312 33.3241 86.0521C32.6329 85.9729 31.9355 85.9201 31.238 85.874C29.893 85.775 28.5479 85.7025 27.2028 85.6365L23.1677 85.4518C21.779 85.3858 20.3655 85.2473 18.9768 85.3067C18.9693 85.3037 18.9612 85.3027 18.9532 85.3038C18.9452 85.3049 18.9376 85.308 18.931 85.3128C18.9244 85.3177 18.9191 85.3242 18.9153 85.3317C18.9116 85.3393 18.9097 85.3476 18.9097 85.3562C18.9097 85.3647 18.9116 85.3731 18.9153 85.3806C18.9191 85.3881 18.9244 85.3946 18.931 85.3995C18.9376 85.4043 18.9452 85.4074 18.9532 85.4085C18.9612 85.4096 18.9693 85.4086 18.9768 85.4056C20.3468 85.6299 21.7666 85.6629 23.1552 85.7684C24.5439 85.874 25.8889 85.9729 27.2589 86.0653C28.6289 86.1576 29.9926 86.25 31.3626 86.3225C32.0413 86.3555 32.7076 86.3819 33.3864 86.3819C34.0651 86.3819 34.7439 86.4544 35.4226 86.3819C35.4725 86.3885 35.4538 86.3027 35.4102 86.2961Z" fill="#263238"/>
<path d="M60.6362 37.0924C59.9325 36.9803 55.6545 32.5474 54.5211 29.3546C54.4464 29.1303 55.0317 27.0392 55.6296 24.46C55.9845 22.89 56.3519 21.1617 56.5698 19.5125C56.6134 19.1761 57.6036 19.9545 57.6036 19.9545L59.5215 20.7659L65.8607 23.4639C65.0328 25.4103 64.4347 27.4575 64.0798 29.5591C64.0596 29.7785 64.0596 29.9994 64.0798 30.2188C64.0798 30.2188 64.0798 30.2913 64.0798 30.3309C64.086 31.6172 61.7944 37.2375 60.6362 37.0924Z" fill="#AD6359"/>
<path d="M64.0675 30.2055C64.0675 30.2055 64.0675 30.2781 64.0675 30.3177C63.7337 30.3139 63.4006 30.283 63.0712 30.2253C56.6136 29.0775 56.9935 20.225 56.9935 20.225L59.5404 20.7329L65.8796 23.4309C65.0517 25.3774 64.4536 27.4245 64.0987 29.5261C64.0669 29.7509 64.0565 29.9785 64.0675 30.2055Z" fill="#263238"/>
<path d="M58.2886 5.67294C56.3707 8.90525 55.5238 19.5983 57.311 22.5469C59.9015 26.8215 65.4436 28.7543 69.1986 25.1394C72.8415 21.6366 73.7133 7.68488 71.5961 4.86156C68.4763 0.705728 61.122 0.89703 58.2886 5.67294Z" fill="#AD6359"/>
<path d="M66.4524 14.4597C66.4524 14.4597 66.3964 14.4597 66.3964 14.519C66.3528 15.2446 66.1971 16.0626 65.562 16.2407V16.2869C66.3217 16.2407 66.5272 15.1523 66.4524 14.4597Z" fill="#263238"/>
<path d="M65.9108 13.6548C64.821 13.4635 64.5408 15.7789 65.5496 15.9504C66.5584 16.1219 66.8199 13.8131 65.9108 13.6548Z" fill="#263238"/>
<path d="M70.1515 15.1324C70.1515 15.1324 70.2013 15.172 70.1951 15.2049C70.0768 15.9108 70.0456 16.7486 70.6248 17.085C70.6248 17.085 70.6248 17.1312 70.6248 17.1246C69.8837 16.8937 69.9273 15.7855 70.1515 15.1324Z" fill="#263238"/>
<path d="M70.8614 14.4793C71.9574 14.5651 71.7146 16.8871 70.6995 16.808C69.6845 16.7288 69.9398 14.4068 70.8614 14.4793Z" fill="#263238"/>
<path d="M65.1759 12.4807C65.4738 12.429 65.769 12.3607 66.0602 12.2762C66.3805 12.2527 66.6847 12.1183 66.9258 11.8936C66.9875 11.8059 67.0208 11.6995 67.0208 11.5901C67.0208 11.4808 66.9875 11.3744 66.9258 11.2867C66.7768 11.1364 66.5924 11.0314 66.3919 10.9826C66.1913 10.9339 65.9821 10.9432 65.7862 11.0096C65.3678 11.0815 64.9901 11.3169 64.7276 11.6693C64.678 11.7512 64.6509 11.8461 64.649 11.9433C64.6472 12.0406 64.6708 12.1365 64.7172 12.2204C64.7636 12.3044 64.831 12.3731 64.9119 12.419C64.9929 12.465 65.0842 12.4863 65.1759 12.4807Z" fill="#263238"/>
<path d="M71.8451 13.4569C71.5462 13.3513 71.2909 13.2062 71.0107 13.0809C70.7013 12.9907 70.428 12.7962 70.2324 12.5267C70.1863 12.4286 70.1724 12.3171 70.1927 12.2096C70.2129 12.1021 70.2663 12.0049 70.3444 11.933C70.5185 11.8171 70.7184 11.7518 70.9239 11.7437C71.1294 11.7356 71.3333 11.7849 71.5151 11.8869C71.9209 12.0326 72.2607 12.3338 72.4678 12.7312C72.5115 12.8262 72.5274 12.9328 72.5133 13.0374C72.4992 13.1419 72.4558 13.2396 72.3888 13.3178C72.3217 13.396 72.234 13.451 72.1371 13.4758C72.0402 13.5006 71.9385 13.494 71.8451 13.4569Z" fill="#263238"/>
<path d="M67.6046 20.1062C67.2701 20.46 66.8568 20.7187 66.4028 20.8582C66.1522 20.9195 65.8901 20.9012 65.6493 20.8055C65.1262 20.5812 65.1761 20.0535 65.3317 19.6181C65.4145 19.3853 65.5232 19.1639 65.6555 18.9584C66.1739 19.5503 66.8565 19.9523 67.6046 20.1062Z" fill="#263238"/>
<path d="M66.4027 20.8582C66.1521 20.9195 65.8901 20.9012 65.6493 20.8055C65.1262 20.5812 65.1761 20.0535 65.3317 19.6181C65.6185 19.6607 65.8823 19.8078 66.0778 20.0341C66.2732 20.2604 66.3881 20.5519 66.4027 20.8582Z" fill="#FF9CBD"/>
<path d="M57.3048 13.8989C59.7147 14.2881 60.8668 9.74307 60.8668 9.74307C60.8668 9.74307 65.1074 9.74307 66.1972 6.51735C66.1972 6.51735 69.728 9.81563 72.9848 9.15597C76.2416 8.49632 76.1482 4.69009 75.924 3.83913C75.6998 2.98818 73.7694 4.17556 73.7694 4.17556C73.7694 4.17556 73.8877 2.05147 73.3896 1.74802C72.8914 1.44458 72.1441 2.61877 72.1441 2.61877C69.8184 1.37282 67.3286 0.505517 64.7587 0.0461061C61.1407 -0.44204 58.7807 3.10692 58.7807 3.10692C58.7807 3.10692 56.788 3.21906 55.9535 4.54497C55.1191 5.87088 55.7729 13.6482 57.3048 13.8989Z" fill="#263238"/>
<path d="M59.8893 9.61115C63.0028 10.594 65.4936 8.70082 66.4215 5.53445C66.4215 5.5257 66.4248 5.51731 66.4306 5.51112C66.4365 5.50494 66.4444 5.50146 66.4526 5.50146C66.4609 5.50146 66.4688 5.50494 66.4746 5.51112C66.4805 5.51731 66.4838 5.5257 66.4838 5.53445C65.942 8.5425 62.7786 11.4714 59.8394 9.74308C59.7709 9.7101 59.8083 9.58476 59.8893 9.61115Z" fill="#263238"/>
<path d="M58.8678 3.06073C58.876 3.06073 58.884 3.0642 58.8898 3.07039C58.8956 3.07657 58.8989 3.08496 58.8989 3.09371C58.8989 3.10246 58.8956 3.11085 58.8898 3.11703C58.884 3.12322 58.876 3.12669 58.8678 3.12669C57.9088 3.41694 56.8378 3.57526 56.0781 4.33386C55.1627 5.25079 55.1253 6.64926 55.2312 7.87622C55.3931 9.78923 55.9348 12.3223 57.3235 13.6614C57.4044 13.7406 57.3235 13.8593 57.2052 13.7933C55.5239 12.3157 54.9011 9.04381 54.9696 6.83396C55.0319 4.36685 56.6821 3.22564 58.8678 3.06073Z" fill="#263238"/>
<path d="M69.5599 8.06755C70.2341 8.65034 71.046 9.02664 71.9077 9.1557C72.7693 9.28476 73.6479 9.16168 74.4482 8.79977C76.3164 7.83667 76.2604 5.72577 75.7871 3.89193C75.7871 3.80617 75.893 3.73361 75.9365 3.82596C76.7087 5.49489 76.4472 7.7839 74.8779 8.85913C73.3087 9.93437 70.7991 9.51879 69.3918 8.25225C69.2797 8.12692 69.4416 7.94881 69.5599 8.06755Z" fill="#263238"/>
<path d="M58.5688 14.7895C58.5688 14.7895 57.1615 10.8975 55.5487 11.3527C53.9359 11.8079 54.4527 17.0323 55.9597 18.1339C56.1443 18.2877 56.3564 18.4005 56.5832 18.4653C56.8099 18.5302 57.0468 18.5458 57.2794 18.5113C57.512 18.4768 57.7357 18.3929 57.9369 18.2646C58.1382 18.1362 58.3129 17.9661 58.4505 17.7645L58.5688 14.7895Z" fill="#AD6359"/>
<path d="M55.7357 12.8434C55.7357 12.8434 55.6921 12.8764 55.7357 12.8896C56.7818 13.701 57.1243 15.0071 57.28 16.3132C57.2423 16.1701 57.1757 16.0372 57.0849 15.9239C56.9941 15.8106 56.8812 15.7194 56.754 15.6568C56.6268 15.5941 56.4882 15.5613 56.3479 15.5608C56.2076 15.5602 56.0688 15.5919 55.9412 15.6536C55.9038 15.6536 55.9412 15.7261 55.9412 15.7261C56.1592 15.7092 56.3768 15.7633 56.565 15.8812C56.7531 15.9992 56.9026 16.1752 56.9936 16.3858C57.1396 16.7477 57.2462 17.1262 57.3111 17.5138C57.3423 17.6391 57.5415 17.6325 57.5353 17.5138C57.9339 15.9372 57.2925 13.4305 55.7357 12.8434Z" fill="#263238"/>
<path d="M64.0737 30.4562L61.1033 36.2546L54.8201 27.7582L52.541 29.9746C52.541 29.9746 58.1828 42.9567 58.2887 42.4092L61.1967 37.4815L64.2044 41.512L64.8956 32.3758L64.0737 30.4562Z" fill="#FB9300"/>
<path d="M64.8022 37.0199C64.8645 35.5026 64.9766 33.9854 64.9766 32.4682C64.9766 32.4154 64.8956 32.3825 64.8769 32.4682C64.441 33.8865 64.2169 39.6717 64.0612 41.0438C63.9366 40.8657 61.2527 37.475 61.2216 37.5212C60.5989 38.2864 58.4879 41.8749 58.3384 42.2048C57.4417 40.1466 53.9794 32.6265 52.8772 30.6476C52.8765 30.6393 52.8739 30.6313 52.8697 30.6243C52.8655 30.6173 52.8598 30.6114 52.8531 30.6071C52.8463 30.6029 52.8387 30.6004 52.8309 30.5998C52.8231 30.5993 52.8152 30.6007 52.808 30.604C52.8008 30.6073 52.7944 30.6123 52.7894 30.6187C52.7844 30.6251 52.7808 30.6326 52.7791 30.6407C52.7773 30.6488 52.7774 30.6573 52.7793 30.6653C52.7812 30.6734 52.7849 30.6809 52.7901 30.6871C53.5435 32.8442 58.1018 42.9568 58.189 42.9436C59.2894 41.2618 60.3058 39.5201 61.2341 37.7257C61.6762 38.4447 64.3476 42.2312 64.3788 42.0069C64.6019 40.3535 64.7433 38.6889 64.8022 37.0199Z" fill="#263238"/>
</svg>
