<svg width="248" height="180" viewBox="0 0 248 180" fill="none" xmlns="http://www.w3.org/2000/svg">
<g clip-path="url(#clip0)">
<path d="M18.6093 180C15.1329 180.004 11.7402 178.988 8.89475 177.092C6.04928 175.195 3.88979 172.511 2.71127 169.406C0.502527 163.565 -10.0756 130.754 33.749 102.679C76.7454 75.1329 58.8643 36.5865 113.426 29.2704C170.205 26.1255 178.308 65.5314 203.467 100.015C218.049 120.002 245.449 134.142 247.542 158.313C250.221 173.726 240.677 180.007 231.171 180.001C178.031 179.968 18.6093 180 18.6093 180Z" fill="#F3F5FD"/>
<path d="M175.205 0H69.5298V130.151H175.205V0Z" fill="#DEE8F5"/>
<path d="M167.602 6.75775H77.1335V51.7788H167.602V6.75775Z" fill="#C1D8ED"/>
<path d="M86.9923 19.64H83.0028V45.9413H86.9923V19.64Z" fill="white"/>
<path d="M109.385 22.2516H105.395V45.9405H109.385V22.2516Z" fill="white"/>
<path d="M94.4568 14.0734H90.4673V45.9407H94.4568V14.0734Z" fill="white"/>
<path d="M101.921 25.8785H97.9314V45.9409H101.921V25.8785Z" fill="white"/>
<path d="M116.849 18.3566H112.859V45.9408H116.849V18.3566Z" fill="white"/>
<path d="M124.313 16.1333H120.323V45.9413H124.313V16.1333Z" fill="white"/>
<path d="M131.777 25.8785H127.788V45.9409H131.777V25.8785Z" fill="white"/>
<path d="M139.241 19.64H135.252V45.9413H139.241V19.64Z" fill="white"/>
<path d="M161.634 22.2516H157.644V45.9405H161.634V22.2516Z" fill="white"/>
<path d="M146.706 14.0734H142.716V45.9407H146.706V14.0734Z" fill="white"/>
<path d="M154.17 25.8785H150.18V45.9409H154.17V25.8785Z" fill="white"/>
<path d="M84.4293 71.0119C88.1431 71.0119 91.1537 68.1536 91.1537 64.6278C91.1537 61.1019 88.1431 58.2437 84.4293 58.2437C80.7155 58.2437 77.705 61.1019 77.705 64.6278C77.705 68.1536 80.7155 71.0119 84.4293 71.0119Z" fill="white"/>
<path d="M167.03 60.3656H97.0674V63.1698H167.03V60.3656Z" fill="white"/>
<path d="M118.701 65.6956H97.0674V68.4999H118.701V65.6956Z" fill="white"/>
<path d="M83.261 67.9171C83.0686 67.917 82.8836 67.8472 82.7438 67.7219L80.1581 65.4063C80.0146 65.2756 79.9313 65.0964 79.9264 64.9077C79.9214 64.7191 79.9952 64.5362 80.1317 64.3989C80.2681 64.2616 80.4561 64.1811 80.6548 64.1749C80.8535 64.1686 81.0468 64.2372 81.1925 64.3656L83.2194 66.1812L87.6233 61.5737C87.6892 61.502 87.7694 61.4436 87.8594 61.4017C87.9493 61.3599 88.0472 61.3355 88.1472 61.3299C88.2472 61.3244 88.3473 61.3379 88.4418 61.3695C88.5363 61.4012 88.6231 61.4504 88.6973 61.5143C88.7715 61.5782 88.8316 61.6555 88.8739 61.7417C88.9163 61.8278 88.9401 61.9212 88.944 62.0162C88.948 62.1112 88.9319 62.206 88.8968 62.2951C88.8616 62.3842 88.8081 62.4657 88.7394 62.5349L83.8189 67.6827C83.7515 67.7531 83.6701 67.8101 83.5793 67.8503C83.4885 67.8905 83.3902 67.9131 83.2901 67.9168L83.261 67.9171Z" fill="#C1D8ED"/>
<path d="M84.4293 88.1389C88.1431 88.1389 91.1537 85.2807 91.1537 81.7548C91.1537 78.229 88.1431 75.3707 84.4293 75.3707C80.7155 75.3707 77.705 78.229 77.705 81.7548C77.705 85.2807 80.7155 88.1389 84.4293 88.1389Z" fill="white"/>
<path d="M167.03 77.4927H97.0674V80.297H167.03V77.4927Z" fill="white"/>
<path d="M118.701 82.8226H97.0674V85.6269H118.701V82.8226Z" fill="white"/>
<path d="M83.261 85.0446C83.0687 85.0445 82.8837 84.9748 82.7438 84.8496L80.1581 82.534C80.0146 82.4033 79.9313 82.2242 79.9264 82.0355C79.9214 81.8468 79.9952 81.6639 80.1317 81.5266C80.2681 81.3894 80.4561 81.3088 80.6548 81.3026C80.8535 81.2963 81.0468 81.3649 81.1925 81.4933L83.2194 83.3089L87.6233 78.7016C87.6892 78.63 87.7694 78.5715 87.8594 78.5297C87.9493 78.4878 88.0472 78.4634 88.1472 78.4579C88.2472 78.4523 88.3473 78.4658 88.4418 78.4974C88.5363 78.5291 88.6231 78.5783 88.6973 78.6422C88.7715 78.7061 88.8316 78.7834 88.8739 78.8696C88.9163 78.9558 88.9401 79.0491 88.944 79.1441C88.948 79.2392 88.9319 79.334 88.8968 79.4231C88.8616 79.5121 88.8081 79.5936 88.7394 79.6629L83.8197 84.8104C83.7524 84.8809 83.6709 84.9378 83.5801 84.9781C83.4893 85.0183 83.391 85.0409 83.2909 85.0446H83.261Z" fill="#C1D8ED"/>
<path d="M84.4293 105.268C88.1431 105.268 91.1537 102.409 91.1537 98.8835C91.1537 95.3576 88.1431 92.4994 84.4293 92.4994C80.7155 92.4994 77.705 95.3576 77.705 98.8835C77.705 102.409 80.7155 105.268 84.4293 105.268Z" fill="white"/>
<path d="M167.03 94.6221H97.0674V97.4266H167.03V94.6221Z" fill="white"/>
<path d="M118.701 99.9514H97.0674V102.756H118.701V99.9514Z" fill="white"/>
<path d="M83.2609 102.173C83.0687 102.173 82.8837 102.103 82.7438 101.978L80.1581 99.6625C80.084 99.5986 80.0241 99.5212 79.9819 99.435C79.9397 99.3488 79.916 99.2555 79.9122 99.1605C79.9084 99.0655 79.9245 98.9708 79.9597 98.8818C79.9949 98.7928 80.0485 98.7113 80.1172 98.6422C80.1859 98.5731 80.2685 98.5176 80.36 98.4791C80.4516 98.4406 80.5503 98.4198 80.6504 98.4179C80.7505 98.4161 80.85 98.4332 80.9431 98.4682C81.0361 98.5032 81.1209 98.5555 81.1925 98.622L83.2194 100.438L87.6233 95.8303C87.6891 95.7587 87.7694 95.7002 87.8594 95.6584C87.9493 95.6165 88.0471 95.5921 88.1472 95.5866C88.2472 95.5811 88.3473 95.5945 88.4418 95.6262C88.5362 95.6578 88.6231 95.707 88.6973 95.7709C88.7715 95.8348 88.8315 95.9121 88.8739 95.9983C88.9163 96.0845 88.9401 96.1779 88.944 96.2729C88.9479 96.3679 88.9319 96.4627 88.8967 96.5518C88.8616 96.6409 88.8081 96.7224 88.7394 96.7916L83.8189 101.939C83.7516 102.01 83.6701 102.067 83.5793 102.107C83.4885 102.147 83.3902 102.17 83.29 102.173L83.2609 102.173Z" fill="#C1D8ED"/>
<path d="M84.4293 122.395C88.1431 122.395 91.1537 119.537 91.1537 116.011C91.1537 112.485 88.1431 109.626 84.4293 109.626C80.7155 109.626 77.705 112.485 77.705 116.011C77.705 119.537 80.7155 122.395 84.4293 122.395Z" fill="white"/>
<path d="M167.03 111.749H97.0674V114.554H167.03V111.749Z" fill="white"/>
<path d="M118.701 117.079H97.0674V119.884H118.701V117.079Z" fill="white"/>
<path d="M83.261 119.3C83.0687 119.3 82.8837 119.231 82.7438 119.105L80.1581 116.79C80.0146 116.659 79.9313 116.48 79.9264 116.291C79.9214 116.103 79.9952 115.92 80.1317 115.782C80.2681 115.645 80.4561 115.565 80.6548 115.558C80.8535 115.552 81.0468 115.621 81.1925 115.749L83.2194 117.565L87.6233 112.957C87.6892 112.886 87.7694 112.827 87.8594 112.785C87.9493 112.744 88.0472 112.719 88.1472 112.714C88.2472 112.708 88.3473 112.722 88.4418 112.753C88.5363 112.785 88.6231 112.834 88.6973 112.898C88.7715 112.962 88.8316 113.039 88.8739 113.125C88.9163 113.212 88.9401 113.305 88.944 113.4C88.948 113.495 88.9319 113.59 88.8968 113.679C88.8616 113.768 88.8081 113.849 88.7394 113.919L83.8189 119.066C83.7516 119.137 83.6702 119.194 83.5794 119.234C83.4886 119.274 83.3902 119.297 83.2901 119.3H83.261Z" fill="#C1D8ED"/>
<path d="M160.424 176.917C159.759 171.61 159.759 171.064 159.759 170.884H166.065C166.065 170.866 166.065 170.842 166.065 170.815C166.087 171.257 166.405 173.96 166.687 176.211L160.424 176.917Z" fill="#E98862"/>
<path d="M185.55 177.633C185.55 177.633 185.529 171.433 185.529 170.884H191.835C191.835 171.431 191.857 177.613 191.857 177.613L185.55 177.633Z" fill="#E98862"/>
<path d="M158.096 174.848C158.618 162.463 158.621 148.954 158.812 136.548C160.948 122.973 162.134 108.097 164.799 94.62L164.879 94.6424L165.114 93.1228L187.959 92.7049L193.481 174.687L182.41 175.575L175.462 107.671C173.254 117.682 171.773 128.064 169.82 137.974C169.82 137.974 169.162 162.822 169.206 175.027L158.096 174.848Z" fill="#262626"/>
<path d="M177.884 179.948C177.722 179.948 177.562 179.917 177.413 179.857C177.263 179.798 177.128 179.711 177.014 179.602C176.9 179.493 176.809 179.363 176.748 179.221C176.687 179.079 176.656 178.926 176.656 178.772C176.656 178.743 176.656 178.715 176.66 178.685C176.679 178.463 176.763 178.25 176.905 178.072C177.046 177.893 177.238 177.757 177.459 177.679L184.798 175.345C184.94 175.301 185.091 175.285 185.24 175.301C185.389 175.317 185.532 175.363 185.661 175.436C186.67 176.101 187.877 176.441 189.105 176.406C190.061 176.341 190.979 176.023 191.753 175.487C191.821 175.434 191.904 175.401 191.991 175.39C192.079 175.38 192.167 175.394 192.247 175.43C192.327 175.466 192.394 175.522 192.441 175.593C192.488 175.664 192.512 175.746 192.512 175.829V179.237C192.512 179.439 192.427 179.633 192.277 179.776C192.126 179.92 191.922 180 191.708 180H191.705L177.884 179.948Z" fill="#C1D8ED"/>
<path d="M152.74 179.948C152.578 179.948 152.418 179.917 152.269 179.857C152.119 179.798 151.984 179.711 151.87 179.602C151.756 179.493 151.665 179.363 151.604 179.221C151.543 179.079 151.511 178.926 151.512 178.772C151.512 178.743 151.512 178.715 151.516 178.685C151.534 178.463 151.619 178.25 151.761 178.072C151.902 177.893 152.094 177.757 152.314 177.679L159.654 175.345C159.796 175.301 159.947 175.285 160.096 175.301C160.245 175.317 160.388 175.363 160.517 175.436C161.526 176.101 162.733 176.441 163.96 176.406C164.917 176.341 165.834 176.023 166.609 175.487C166.677 175.434 166.76 175.401 166.847 175.39C166.935 175.38 167.023 175.394 167.103 175.43C167.182 175.466 167.25 175.522 167.297 175.593C167.343 175.664 167.368 175.746 167.368 175.829V179.237C167.368 179.439 167.283 179.633 167.133 179.776C166.982 179.92 166.777 180 166.564 180H166.561L152.74 179.948Z" fill="#C1D8ED"/>
<path d="M194.682 102.057C194.682 102.907 194.211 105.747 194.97 105.95C195.425 106.072 195.964 103.955 195.964 103.955" fill="#E98862"/>
<path d="M198.271 101.61C198.271 101.61 200.752 107.345 197.922 110.639C197.85 110.723 197.753 110.785 197.643 110.815C197.534 110.846 197.417 110.844 197.309 110.811C197.2 110.778 197.105 110.714 197.035 110.628C196.965 110.543 196.924 110.439 196.917 110.331C196.779 108.11 196.308 103.547 194.765 104.08V100.498" fill="#E98862"/>
<path d="M142.314 71.0591C142.314 71.0591 138.85 68.4455 138.603 67.5066C138.357 66.5677 140.799 64.7215 140.799 64.7215C140.799 64.7215 137.554 61.6164 138.201 61.1651C138.965 60.6336 142.731 65.1512 142.731 65.1512C142.731 65.1512 142.198 63.5258 142.862 63.4192C143.134 63.3755 143.35 63.6297 143.776 64.7797C144.262 66.0904 145.233 68.0629 145.233 68.0629L142.314 71.0591Z" fill="#E98862"/>
<path d="M180.943 62.1284C180.943 62.1284 178.528 61.1434 178.528 55.1204L173.673 54.6509C173.673 54.6509 174.674 59.9733 172.402 61.8647L180.943 62.1284Z" fill="#E98862"/>
<path d="M181.041 52.5883C180.867 54.4303 179.972 56.2297 178.336 56.9473C176.557 57.7833 174.59 58.1933 172.606 58.1414C167.337 58.1414 167.396 46.761 169.692 44.3728C171.988 41.9845 179.401 42.8065 180.605 46.4087C181.228 48.2715 181.207 50.8361 181.041 52.5883Z" fill="#E98862"/>
<path d="M173.397 51.7746C173.637 51.7746 173.832 51.5897 173.832 51.3617C173.832 51.1337 173.637 50.9489 173.397 50.9489C173.157 50.9489 172.962 51.1337 172.962 51.3617C172.962 51.5897 173.157 51.7746 173.397 51.7746Z" fill="#367CFF"/>
<path d="M174.252 50.5434C174.241 50.5434 174.231 50.5426 174.22 50.541L173.065 50.3705C173.011 50.3626 172.963 50.3348 172.931 50.2932C172.899 50.2517 172.886 50.1998 172.895 50.1489C172.903 50.0981 172.932 50.0525 172.976 50.0221C173.02 49.9918 173.074 49.9792 173.128 49.9871L174.283 50.1576C174.334 50.1648 174.381 50.1902 174.413 50.2285C174.445 50.2668 174.461 50.3153 174.457 50.3642C174.453 50.4131 174.43 50.4588 174.392 50.4921C174.354 50.5253 174.304 50.5436 174.252 50.5434Z" fill="#367CFF"/>
<path d="M170.208 48.1605C172.269 56.9358 174.167 59.2815 178.944 57.5245C180.039 57.1216 182.664 54.6509 182.927 49.3933C183.162 44.6931 179.201 42.2185 176.711 41.8896C167.25 40.6404 166.917 48.7515 166.917 48.7515C171.666 49.5244 178.134 48.2474 178.134 48.2474" fill="#0F1011"/>
<path d="M181.606 49.3904C183.929 49.3904 185.811 47.6027 185.811 45.3975C185.811 43.1923 183.929 41.4046 181.606 41.4046C179.283 41.4046 177.4 43.1923 177.4 45.3975C177.4 47.6027 179.283 49.3904 181.606 49.3904Z" fill="#0F1011"/>
<path d="M145.963 67.5841L156.214 78.5339L164.243 64.89C165.006 62.7486 166.731 61.3113 170.245 61.1697C171.451 61.1205 177.334 61.1118 181.641 61.1118C184.535 61.1118 186.91 61.9539 188.282 63.2572C188.973 63.9036 189.49 64.6984 189.79 65.5744L189.831 65.56L196.724 83.3541C196.801 83.5537 196.857 83.7603 196.89 83.9707L199.671 101.765L193.195 102.678L190.462 85.2006L187.679 78.0147C187.389 79.1192 187.231 80.2511 187.208 81.389C187.208 87.3773 190.06 90.0611 189.851 93.1338C189.52 97.9648 164.798 96.8233 163.538 94.0793C162.241 91.2492 164.874 89.5059 164.758 80.2493C164.745 79.2423 164.663 78.1884 164.55 77.1156L159.686 85.3822C159.431 85.8152 159.071 86.1841 158.635 86.458C158.2 86.7319 157.702 86.9029 157.182 86.9566C156.663 87.0103 156.138 86.9453 155.65 86.7669C155.163 86.5885 154.727 86.3019 154.38 85.9311L140.902 70.9625L145.963 67.5841Z" fill="#367CFF"/>
<path d="M169.985 53.1152C169.985 53.5797 170.179 54.0251 170.525 54.3535C170.871 54.6819 171.34 54.8664 171.829 54.8664C172.319 54.8664 172.788 54.6819 173.134 54.3535C173.48 54.0251 173.674 53.5797 173.674 53.1152C173.682 52.6586 173.499 52.2176 173.165 51.8891C172.83 51.5607 172.372 51.3718 171.891 51.364H171.829C170.516 51.4253 169.985 52.1479 169.985 53.1152Z" fill="#E98862"/>
<path d="M209.946 162.097C211.071 161.748 212.225 162.141 213.33 162.937C211.875 159.45 211.275 156.301 213.762 156.159C215.501 156.059 216.834 157.327 217.847 159.128C218.203 155.961 219.122 153.598 221.18 154.381C223.44 155.241 223.783 158.189 223.44 161.272C224.436 159.697 225.508 158.819 226.481 159.743C229.385 162.5 222.256 170.271 222.256 170.271H220.486L219.476 171.313C219.681 171.723 219.793 171.968 219.793 171.968L218.509 174.447C218.509 174.447 205.279 163.548 209.946 162.097Z" fill="#8DDBE0"/>
<path d="M213.121 180.001H223.141L224.818 168.895H211.444L213.121 180.001Z" fill="#C1D8ED"/>
<path d="M42.2805 122.742L39.5684 122.133L36.1683 135.786L38.8805 136.395L42.2805 122.742Z" fill="#F0F6FF"/>
<path d="M36.5861 121.072L35.0804 121.336L37.409 133.32L38.9147 133.056L36.5861 121.072Z" fill="#C1D8ED"/>
<path d="M36.5859 121.068L35.0818 121.34L35.3467 122.662L36.8508 122.39L36.5859 121.068Z" fill="#DEE8F5"/>
<path d="M41.2458 124.12L36.3668 135.878L37.2029 136.191L42.0819 124.433L41.2458 124.12Z" fill="#0CBC8B"/>
<path d="M42.3145 129.264H34.9598V138.188H42.3145V129.264Z" fill="#DEE8F5"/>
<path d="M61.9471 180H64.698V154.308H61.9471V180Z" fill="#C1D8ED"/>
<path d="M64.2108 180H66.9617V154.308H64.2108V180Z" fill="#DEE8F5"/>
<path d="M27.6836 180H30.4344L30.4344 154.308H27.6836L27.6836 180Z" fill="#C1D8ED"/>
<path d="M29.9471 180H32.698V154.308H29.9471L29.9471 180Z" fill="#DEE8F5"/>
<path d="M54.4026 180H57.1534V154.308H54.4026V180Z" fill="#C1D8ED"/>
<path d="M56.6661 180H59.417V154.308H56.6661V180Z" fill="#DEE8F5"/>
<path d="M20.1382 180H22.889L22.889 154.308H20.1382L20.1382 180Z" fill="#C1D8ED"/>
<path d="M22.4026 180H25.1534L25.1534 154.308H22.4026L22.4026 180Z" fill="#DEE8F5"/>
<path d="M57.1371 137.862H20.1394V154.924H57.1371V137.862Z" fill="#C1D8ED"/>
<path d="M66.9623 137.862H29.9646V154.924H66.9623V137.862Z" fill="#DEE8F5"/>
<g opacity="0.53">
<path opacity="0.53" d="M64.9718 140.287H31.9548V152.422H64.9718V140.287Z" fill="#F3F5FD"/>
</g>
<path d="M48.4634 147.747C49.2734 147.747 49.9299 147.123 49.9299 146.355C49.9299 145.586 49.2734 144.962 48.4634 144.962C47.6535 144.962 46.9969 145.586 46.9969 146.355C46.9969 147.123 47.6535 147.747 48.4634 147.747Z" fill="white"/>
</g>
<defs>
<clipPath id="clip0">
<rect width="248" height="180" fill="white"/>
</clipPath>
</defs>
</svg>
