<svg width="207" height="200" viewBox="0 0 207 200" fill="none" xmlns="http://www.w3.org/2000/svg">
<g clip-path="url(#clip0)">
<path d="M176.746 2.98376H141.164V49.4155H176.746V2.98376Z" fill="#F4F4F4"/>
<path d="M176.746 49.4157H177.9V2.98397H176.746V49.4157Z" fill="#F4F4F4"/>
<path opacity="0.05" d="M176.746 49.4157H177.9V2.98397H176.746V49.4157Z" fill="#292A2E"/>
<path opacity="0.05" d="M170.264 11.442H147.646V40.9576H170.264V11.442Z" fill="#292A2E"/>
<path opacity="0.03" d="M170.264 11.442H169.085V40.9576H170.264V11.442Z" fill="#292A2E"/>
<path d="M205.846 60.834H176.746V90.276H205.846V60.834Z" fill="#F4F4F4"/>
<path opacity="0.05" d="M200.545 66.1972H182.047V84.9127H200.545V66.1972Z" fill="#292A2E"/>
<path d="M205.846 90.276H207V60.834H205.846V90.276Z" fill="#F4F4F4"/>
<path opacity="0.05" d="M205.846 90.276H207V60.834H205.846V90.276Z" fill="#292A2E"/>
<path opacity="0.03" d="M200.545 66.1972H199.366V84.9127H200.545V66.1972Z" fill="#292A2E"/>
<path d="M100.799 0H3.86169V97.1842H100.799V0Z" fill="#F4F4F4"/>
<path d="M101.91 0H100.799V97.1842H101.91V0Z" fill="#F4F4F4"/>
<path opacity="0.05" d="M101.91 0H100.799V97.1842H101.91V0Z" fill="#292A2E"/>
<path opacity="0.05" d="M77.3157 66.9679V41.5413H56.5404V56.3135H24.3595V82.4698H10.6821V97.1842H24.3595H26.9945H96.1363V66.9679H77.3157Z" fill="#292A2E"/>
<path opacity="0.34" d="M74.3361 44.3021H59.2073V47.0628H74.3361V44.3021Z" fill="#FFFFFA"/>
<path opacity="0.34" d="M74.3361 50.0229H59.2073V52.7837H74.3361V50.0229Z" fill="#FFFFFA"/>
<path opacity="0.34" d="M74.3361 55.7438H59.2073V58.5045H74.3361V55.7438Z" fill="#FFFFFA"/>
<path opacity="0.34" d="M93.4535 69.6478H90.665V72.4085H93.4535V69.6478Z" fill="#FFFFFA"/>
<path opacity="0.34" d="M93.4535 75.3687H90.665V78.1294H93.4535V75.3687Z" fill="#FFFFFA"/>
<path opacity="0.34" d="M93.4535 81.0895H90.665V83.8503H93.4535V81.0895Z" fill="#FFFFFA"/>
<path opacity="0.34" d="M88.2949 69.6478H85.5065V72.4085H88.2949V69.6478Z" fill="#FFFFFA"/>
<path opacity="0.34" d="M88.2949 75.3687H85.5065V78.1294H88.2949V75.3687Z" fill="#FFFFFA"/>
<path opacity="0.34" d="M88.2949 81.0895H85.5065V83.8503H88.2949V81.0895Z" fill="#FFFFFA"/>
<path opacity="0.34" d="M83.2758 69.6478H80.4873V72.4085H83.2758V69.6478Z" fill="#FFFFFA"/>
<path opacity="0.34" d="M83.2758 75.3687H80.4873V78.1294H83.2758V75.3687Z" fill="#FFFFFA"/>
<path opacity="0.34" d="M83.2758 81.0895H80.4873V83.8503H83.2758V81.0895Z" fill="#FFFFFA"/>
<path d="M100.799 48.047H81.2938V0H79.6807V48.047H26.9944V0H25.3812V48.047H3.86169V49.6643H25.3812V97.1842H26.9944V49.6643H79.6807V97.1842H81.2938V49.6643H100.799V48.047Z" fill="white"/>
<path d="M104.661 97.0671H0V100.299H104.661V97.0671Z" fill="#F4F4F4"/>
<path opacity="0.1" d="M104.661 97.0671H0V100.299H104.661V97.0671Z" fill="#292A2E"/>
<path opacity="0.1" d="M106.172 97.0671H104.661V100.299H106.172V97.0671Z" fill="#292A2E"/>
<path opacity="0.1" d="M106.172 97.0671H104.661V100.299H106.172V97.0671Z" fill="#292A2E"/>
<path opacity="0.05" d="M155.831 195.89H150.447V199.496H155.831V195.89Z" fill="#292A2E"/>
<path opacity="0.05" d="M189.635 195.89H184.25V199.496H189.635V195.89Z" fill="#292A2E"/>
<path d="M194.571 140.96H145.51V195.89H194.571V140.96Z" fill="#F4F4F4"/>
<path opacity="0.03" d="M194.571 140.96H145.51V195.89H194.571V140.96Z" fill="#292A2E"/>
<path d="M181.541 140.96H132.481V195.89H181.541V140.96Z" fill="#F4F4F4"/>
<path opacity="0.05" d="M142.802 195.89H137.417V199.496H142.802V195.89Z" fill="#292A2E"/>
<path opacity="0.05" d="M176.605 195.89H171.221V199.496H176.605V195.89Z" fill="#292A2E"/>
<path opacity="0.7" d="M178.902 144.356H135.12V158.288H178.902V144.356Z" fill="white"/>
<path opacity="0.7" d="M178.902 161.698H135.12V175.63H178.902V161.698Z" fill="white"/>
<path opacity="0.7" d="M178.902 179.04H135.12V192.971H178.902V179.04Z" fill="white"/>
<path opacity="0.05" d="M157.011 153.272C158.085 153.272 158.956 152.399 158.956 151.322C158.956 150.246 158.085 149.373 157.011 149.373C155.937 149.373 155.067 150.246 155.067 151.322C155.067 152.399 155.937 153.272 157.011 153.272Z" fill="#292A2E"/>
<path opacity="0.05" d="M157.011 170.614C158.085 170.614 158.956 169.741 158.956 168.664C158.956 167.588 158.085 166.715 157.011 166.715C155.937 166.715 155.067 167.588 155.067 168.664C155.067 169.741 155.937 170.614 157.011 170.614Z" fill="#292A2E"/>
<path opacity="0.05" d="M157.011 187.955C158.085 187.955 158.956 187.083 158.956 186.006C158.956 184.929 158.085 184.056 157.011 184.056C155.937 184.056 155.067 184.929 155.067 186.006C155.067 187.083 155.937 187.955 157.011 187.955Z" fill="#292A2E"/>
<path d="M23.0579 172.811C23.0307 172.811 23.0038 172.806 22.9787 172.796C22.9536 172.785 22.9308 172.77 22.9117 172.75C22.6203 172.459 22.1453 167.099 20.8661 151.143C20.3427 144.614 19.8482 138.447 19.4873 134.699C19.4617 134.431 19.3581 134.4 19.3242 134.39C18.8301 134.24 17.3282 135.428 16.4896 136.468C16.4551 136.51 16.4051 136.538 16.3505 136.544C16.2959 136.549 16.2413 136.533 16.1986 136.499C16.156 136.464 16.1288 136.414 16.123 136.359C16.1172 136.304 16.1333 136.25 16.1678 136.207C16.7225 135.519 18.5299 133.717 19.4431 133.993C19.6271 134.048 19.8567 134.209 19.898 134.659C20.2593 138.41 20.7538 144.579 21.2774 151.109C22.0547 160.806 22.9353 171.791 23.2248 172.483C23.247 172.514 23.2602 172.551 23.263 172.589C23.2658 172.627 23.2581 172.665 23.2408 172.699C23.2234 172.732 23.1971 172.761 23.1646 172.781C23.1322 172.801 23.0949 172.811 23.0569 172.811H23.0579Z" fill="#494949"/>
<path d="M18.956 141.576C22.3876 138.819 23.5249 134.526 21.4964 131.989C19.4678 129.452 15.0415 129.631 11.61 132.389C8.17843 135.146 7.04107 139.439 9.06962 141.976C11.0982 144.513 15.5245 144.334 18.956 141.576Z" fill="#0CBC8B"/>
<path opacity="0.2" d="M18.956 141.576C22.3876 138.819 23.5249 134.526 21.4964 131.989C19.4678 129.452 15.0415 129.631 11.61 132.389C8.17843 135.146 7.04107 139.439 9.06962 141.976C11.0982 144.513 15.5245 144.334 18.956 141.576Z" fill="white"/>
<path d="M10.0313 142.621C10.0116 142.621 9.9924 142.615 9.97583 142.604C9.95926 142.594 9.94603 142.579 9.93768 142.561C9.92933 142.543 9.92621 142.523 9.92868 142.504C9.93115 142.484 9.93911 142.466 9.95163 142.451L19.7313 130.627C19.74 130.617 19.7506 130.608 19.7626 130.602C19.7746 130.595 19.7878 130.592 19.8013 130.59C19.8148 130.589 19.8285 130.59 19.8415 130.594C19.8544 130.599 19.8665 130.605 19.877 130.614C19.8874 130.622 19.8961 130.633 19.9024 130.645C19.9087 130.657 19.9127 130.67 19.9139 130.684C19.9152 130.698 19.9137 130.711 19.9097 130.724C19.9057 130.737 19.8992 130.749 19.8905 130.76L10.1109 142.583C10.1012 142.595 10.089 142.604 10.0752 142.611C10.0615 142.617 10.0465 142.621 10.0313 142.621Z" fill="white"/>
<path d="M25.1903 170.277C25.1672 170.277 25.1443 170.273 25.1225 170.265C25.0707 170.247 25.0282 170.209 25.0043 170.159C24.9804 170.11 24.9771 170.053 24.9951 170.001L28.6687 159.41C28.7768 159.098 28.9611 158.819 29.2047 158.598C29.4483 158.377 29.7434 158.22 30.0629 158.143C30.3824 158.066 30.7161 158.07 31.0336 158.156C31.351 158.241 31.642 158.405 31.8798 158.633L33.8221 160.492C33.8617 160.53 33.8847 160.583 33.886 160.638C33.8873 160.693 33.8667 160.746 33.8288 160.786C33.7909 160.825 33.7388 160.849 33.6839 160.85C33.6291 160.851 33.5759 160.83 33.5363 160.792L31.5942 158.932C31.4065 158.753 31.1767 158.623 30.9261 158.556C30.6755 158.488 30.412 158.485 30.1598 158.546C29.9075 158.607 29.6746 158.731 29.4823 158.905C29.29 159.08 29.1445 159.3 29.0591 159.546L25.3858 170.137C25.3717 170.178 25.3453 170.213 25.3102 170.238C25.2752 170.263 25.2333 170.277 25.1903 170.277Z" fill="#494949"/>
<path d="M39.2475 166.356C41.7906 164.338 41.6395 159.899 38.9099 156.442C36.1804 152.985 31.9061 151.819 29.363 153.837C26.8199 155.855 26.971 160.293 29.7006 163.75C32.4301 167.208 36.7044 168.374 39.2475 166.356Z" fill="#0CBC8B"/>
<path d="M21.3886 172.136C21.3422 172.136 21.2971 172.12 21.2606 172.091C21.2241 172.062 21.1984 172.022 21.1876 171.977L15.0228 146.135C14.9806 145.959 14.8908 145.798 14.7633 145.67C14.6358 145.541 14.4754 145.451 14.2999 145.408C14.1244 145.365 13.9405 145.372 13.7684 145.427C13.5964 145.482 13.4428 145.583 13.3246 145.72L11.4241 147.922C11.4066 147.943 11.385 147.961 11.3605 147.974C11.3361 147.987 11.3093 147.995 11.2818 147.997C11.2543 147.999 11.2265 147.996 11.2002 147.988C11.174 147.979 11.1497 147.965 11.1288 147.947C11.1079 147.929 11.0908 147.907 11.0786 147.882C11.0664 147.857 11.0592 147.83 11.0576 147.803C11.056 147.775 11.0599 147.747 11.0692 147.721C11.0784 147.695 11.0928 147.671 11.1114 147.651L13.0117 145.449C13.1796 145.254 13.3979 145.11 13.6425 145.032C13.8871 144.953 14.1485 144.944 14.398 145.005C14.6475 145.066 14.8753 145.195 15.0566 145.377C15.2378 145.559 15.3654 145.788 15.4252 146.039L21.5896 171.88C21.6024 171.934 21.5934 171.99 21.5647 172.037C21.536 172.084 21.4899 172.117 21.4366 172.13C21.4209 172.134 21.4048 172.136 21.3886 172.136Z" fill="#494949"/>
<path d="M19.1139 153.663C19.8633 149.318 17.88 145.347 14.684 144.793C11.4881 144.239 8.28978 147.312 7.54038 151.656C6.79098 156.001 8.77429 159.972 11.9702 160.526C15.1661 161.08 18.3645 158.008 19.1139 153.663Z" fill="#0CBC8B"/>
<path d="M23.0578 172.811C23.0493 172.811 23.0408 172.811 23.0324 172.81C23.0054 172.806 22.9794 172.798 22.9557 172.784C22.9321 172.771 22.9113 172.753 22.8945 172.732C22.8778 172.71 22.8655 172.686 22.8582 172.659C22.851 172.633 22.8489 172.606 22.8523 172.579L26.7889 140.535C26.8318 140.186 26.9744 139.857 27.1994 139.587C27.4245 139.317 27.7225 139.119 28.0576 139.014C28.3927 138.91 28.7506 138.906 29.0884 139.001C29.4261 139.096 29.7293 139.286 29.9615 139.55L34.461 144.659C34.479 144.679 34.4928 144.703 34.5016 144.729C34.5104 144.755 34.5141 144.782 34.5124 144.809C34.5107 144.836 34.5037 144.863 34.4918 144.887C34.4798 144.912 34.4632 144.934 34.4428 144.952C34.4225 144.97 34.3988 144.984 34.3731 144.992C34.3474 145.001 34.3202 145.005 34.2931 145.003C34.2659 145.002 34.2394 144.995 34.215 144.983C34.1906 144.971 34.1688 144.954 34.1508 144.934L29.6513 139.824C29.4719 139.621 29.2375 139.473 28.9765 139.4C28.7154 139.326 28.4388 139.33 28.1798 139.411C27.9208 139.491 27.6905 139.645 27.5166 139.853C27.3426 140.062 27.2325 140.316 27.1993 140.586L23.2628 172.629C23.2566 172.679 23.2324 172.726 23.1946 172.759C23.1569 172.793 23.1082 172.811 23.0578 172.811Z" fill="#494949"/>
<path d="M39.0755 147.498C40.6454 144.653 38.7982 140.616 34.9498 138.482C31.1014 136.348 26.709 136.924 25.1392 139.77C23.5693 142.615 25.4164 146.652 29.2648 148.786C33.1132 150.92 37.5056 150.343 39.0755 147.498Z" fill="#0CBC8B"/>
<path opacity="0.2" d="M39.2475 166.356C41.7906 164.338 41.6395 159.899 38.9099 156.442C36.1804 152.985 31.9061 151.819 29.363 153.837C26.8199 155.855 26.971 160.293 29.7006 163.75C32.4301 167.208 36.7044 168.374 39.2475 166.356Z" fill="white"/>
<path opacity="0.5" d="M19.1139 153.663C19.8633 149.318 17.88 145.347 14.684 144.793C11.4881 144.239 8.28978 147.312 7.54038 151.656C6.79098 156.001 8.77429 159.972 11.9702 160.526C15.1661 161.08 18.3645 158.008 19.1139 153.663Z" fill="white"/>
<path opacity="0.5" d="M39.0755 147.498C40.6454 144.653 38.7982 140.616 34.9498 138.482C31.1014 136.348 26.709 136.924 25.1392 139.77C23.5693 142.615 25.4164 146.652 29.2648 148.786C33.1132 150.92 37.5056 150.343 39.0755 147.498Z" fill="white"/>
<path d="M28.0926 200H18.0224L16.3535 167.698H29.7612L28.0926 200Z" fill="#292A2E"/>
<path opacity="0.3" d="M28.0926 200H18.0224L16.3535 167.698H29.7612L28.0926 200Z" fill="white"/>
<path d="M39.2482 166.46C39.2326 166.46 39.2172 166.456 39.2032 166.45C39.1891 166.443 39.1768 166.433 39.1671 166.421L29.2822 153.901C29.2738 153.89 29.2676 153.878 29.2638 153.865C29.2601 153.852 29.259 153.838 29.2606 153.825C29.2621 153.811 29.2663 153.798 29.273 153.786C29.2796 153.774 29.2884 153.764 29.2991 153.755C29.3097 153.747 29.3219 153.741 29.335 153.737C29.3481 153.733 29.3617 153.732 29.3752 153.734C29.3887 153.735 29.4018 153.739 29.4136 153.746C29.4255 153.753 29.4359 153.762 29.4444 153.772L39.3293 166.292C39.3414 166.307 39.3489 166.325 39.3511 166.345C39.3532 166.364 39.3499 166.384 39.3414 166.401C39.3329 166.419 39.3197 166.434 39.3032 166.444C39.2867 166.454 39.2677 166.46 39.2482 166.46Z" fill="white"/>
<path d="M38.4183 148.501C38.3963 148.501 38.3749 148.494 38.3573 148.481L25.7083 139.221C25.6862 139.205 25.6714 139.18 25.6671 139.153C25.6629 139.126 25.6696 139.098 25.6858 139.076C25.702 139.054 25.7263 139.039 25.7534 139.035C25.7805 139.031 25.8082 139.037 25.8303 139.054L38.4793 148.313C38.4967 148.326 38.5095 148.344 38.516 148.365C38.5224 148.386 38.5222 148.408 38.5154 148.429C38.5085 148.45 38.4953 148.468 38.4777 148.48C38.4601 148.493 38.439 148.5 38.4173 148.5L38.4183 148.501Z" fill="white"/>
<path d="M11.4566 160.391C11.4476 160.391 11.4386 160.39 11.4299 160.387C11.4036 160.38 11.3813 160.363 11.3677 160.339C11.3541 160.315 11.3504 160.287 11.3573 160.261L15.3839 145.136C15.3872 145.122 15.3931 145.11 15.4013 145.099C15.4095 145.088 15.4199 145.079 15.4317 145.072C15.4435 145.065 15.4566 145.06 15.4702 145.058C15.4838 145.056 15.4976 145.057 15.5109 145.061C15.5241 145.064 15.5366 145.07 15.5474 145.079C15.5583 145.087 15.5674 145.098 15.5741 145.11C15.5809 145.122 15.5852 145.135 15.5869 145.149C15.5885 145.162 15.5874 145.176 15.5836 145.189L11.5571 160.314C11.5512 160.336 11.5381 160.356 11.5199 160.37C11.5017 160.384 11.4795 160.391 11.4566 160.391Z" fill="white"/>
<path d="M153.477 11.4105H34.6327C31.2064 11.4105 28.4288 14.1952 28.4288 17.6302V149.068C28.4288 152.503 31.2064 155.288 34.6327 155.288H153.477C156.903 155.288 159.68 152.503 159.68 149.068V17.6302C159.68 14.1952 156.903 11.4105 153.477 11.4105Z" fill="white"/>
<path d="M153.359 155.319H34.5145C32.8148 155.317 31.1854 154.639 29.9836 153.435C28.7818 152.23 28.1057 150.596 28.1038 148.892V17.4544C28.1057 15.7504 28.7818 14.1168 29.9836 12.912C31.1854 11.7071 32.8148 11.0293 34.5145 11.0273H153.359C155.059 11.0293 156.688 11.707 157.89 12.9119C159.092 14.1168 159.768 15.7504 159.77 17.4544V148.892C159.768 150.596 159.092 152.23 157.89 153.435C156.688 154.64 155.059 155.317 153.359 155.319ZM34.5145 11.442C32.9245 11.4439 31.4002 12.0779 30.2759 13.205C29.1517 14.3322 28.5192 15.8604 28.5174 17.4544V148.892C28.5192 150.486 29.1516 152.014 30.2759 153.142C31.4002 154.269 32.9245 154.903 34.5145 154.905H153.359C154.949 154.903 156.473 154.269 157.598 153.142C158.722 152.014 159.354 150.486 159.356 148.892V17.4544C159.354 15.8604 158.722 14.3322 157.598 13.205C156.473 12.0779 154.949 11.4439 153.359 11.442H34.5145Z" fill="#292A2E"/>
<path d="M159.563 17.4535V22.2609H28.312V17.4535C28.312 15.8039 28.9656 14.2219 30.1291 13.0555C31.2926 11.8891 32.8705 11.2338 34.5159 11.2338H153.359C155.004 11.2338 156.582 11.8891 157.746 13.0555C158.909 14.2219 159.563 15.8039 159.563 17.4535Z" fill="#292A2E"/>
<path opacity="0.1" d="M50.1961 60.4429C58.5729 60.4429 65.3636 53.6349 65.3636 45.2368C65.3636 36.8387 58.5729 30.0306 50.1961 30.0306C41.8193 30.0306 35.0286 36.8387 35.0286 45.2368C35.0286 53.6349 41.8193 60.4429 50.1961 60.4429Z" fill="#367CFF"/>
<path opacity="0.2" d="M50.1961 44.5824C53.1057 44.5824 55.4643 42.2178 55.4643 39.3009C55.4643 36.384 53.1057 34.0193 50.1961 34.0193C47.2866 34.0193 44.928 36.384 44.928 39.3009C44.928 42.2178 47.2866 44.5824 50.1961 44.5824Z" fill="#367CFF"/>
<path opacity="0.2" d="M61.5987 55.264C60.1751 56.8912 58.4215 58.195 56.4549 59.0881C54.4884 59.9812 52.3543 60.4432 50.1954 60.443C48.0365 60.4428 45.9025 59.9805 43.9361 59.087C41.9698 58.1935 40.2163 56.8894 38.7931 55.2619C39.5222 52.7971 41.0264 50.6345 43.0814 49.0967C45.1365 47.5589 47.6323 46.7282 50.1967 46.7284C52.7611 46.7286 55.2567 47.5598 57.3114 49.098C59.3662 50.6362 60.87 52.799 61.5987 55.264Z" fill="#367CFF"/>
<path opacity="0.2" d="M57.3601 70.8163H36.8016C36.0597 70.8163 35.4583 71.4192 35.4583 72.163C35.4583 72.9068 36.0597 73.5098 36.8016 73.5098H57.3601C58.102 73.5098 58.7035 72.9068 58.7035 72.163C58.7035 71.4192 58.102 70.8163 57.3601 70.8163Z" fill="#367CFF"/>
<path opacity="0.1" d="M106.21 31.0519H73.8955C72.6889 31.0519 71.7107 32.0326 71.7107 33.2423V37.7854C71.7107 38.9951 72.6889 39.9757 73.8955 39.9757H106.21C107.416 39.9757 108.395 38.9951 108.395 37.7854V33.2423C108.395 32.0326 107.416 31.0519 106.21 31.0519Z" fill="#367CFF"/>
<path opacity="0.2" d="M121.18 44.9091H72.7447C72.1736 44.9091 71.7107 45.3732 71.7107 45.9457C71.7107 46.5182 72.1736 46.9823 72.7447 46.9823H121.18C121.751 46.9823 122.214 46.5182 122.214 45.9457C122.214 45.3732 121.751 44.9091 121.18 44.9091Z" fill="#367CFF"/>
<path opacity="0.2" d="M121.18 51.1288H72.7447C72.1736 51.1288 71.7107 51.5929 71.7107 52.1654C71.7107 52.7379 72.1736 53.202 72.7447 53.202H121.18C121.751 53.202 122.214 52.7379 122.214 52.1654C122.214 51.5929 121.751 51.1288 121.18 51.1288Z" fill="#367CFF"/>
<path opacity="0.2" d="M112.908 57.3485H72.7447C72.1736 57.3485 71.7107 57.8127 71.7107 58.3852C71.7107 58.9577 72.1736 59.4218 72.7447 59.4218H112.908C113.479 59.4218 113.942 58.9577 113.942 58.3852C113.942 57.8127 113.479 57.3485 112.908 57.3485Z" fill="#367CFF"/>
<path opacity="0.1" d="M87.891 77.3951H37.4003C36.3277 77.3951 35.4583 78.2668 35.4583 79.3421V84.1524C35.4583 85.2276 36.3277 86.0993 37.4003 86.0993H87.891C88.9636 86.0993 89.8331 85.2276 89.8331 84.1524V79.3421C89.8331 78.2668 88.9636 77.3951 87.891 77.3951Z" fill="#367CFF"/>
<path opacity="0.2" d="M119.266 70.8163H98.7079C97.9659 70.8163 97.3645 71.4192 97.3645 72.163C97.3645 72.9068 97.9659 73.5098 98.7079 73.5098H119.266C120.008 73.5098 120.61 72.9068 120.61 72.163C120.61 71.4192 120.008 70.8163 119.266 70.8163Z" fill="#367CFF"/>
<path opacity="0.1" d="M149.797 77.3951H99.3065C98.234 77.3951 97.3645 78.2668 97.3645 79.3421V84.1524C97.3645 85.2276 98.234 86.0993 99.3065 86.0993H149.797C150.87 86.0993 151.739 85.2276 151.739 84.1524V79.3421C151.739 78.2668 150.87 77.3951 149.797 77.3951Z" fill="#367CFF"/>
<path opacity="0.2" d="M57.3601 93.2955H36.8016C36.0597 93.2955 35.4583 93.8985 35.4583 94.6423C35.4583 95.3861 36.0597 95.989 36.8016 95.989H57.3601C58.102 95.989 58.7035 95.3861 58.7035 94.6423C58.7035 93.8985 58.102 93.2955 57.3601 93.2955Z" fill="#367CFF"/>
<path opacity="0.1" d="M87.891 99.8743H37.4003C36.3277 99.8743 35.4583 100.746 35.4583 101.821V106.632C35.4583 107.707 36.3277 108.579 37.4003 108.579H87.891C88.9636 108.579 89.8331 107.707 89.8331 106.632V101.821C89.8331 100.746 88.9636 99.8743 87.891 99.8743Z" fill="#367CFF"/>
<path opacity="0.2" d="M119.266 93.2955H98.7079C97.9659 93.2955 97.3645 93.8985 97.3645 94.6423C97.3645 95.3861 97.9659 95.989 98.7079 95.989H119.266C120.008 95.989 120.61 95.3861 120.61 94.6423C120.61 93.8985 120.008 93.2955 119.266 93.2955Z" fill="#367CFF"/>
<path opacity="0.1" d="M149.797 99.8743H99.3065C98.234 99.8743 97.3645 100.746 97.3645 101.821V106.632C97.3645 107.707 98.234 108.579 99.3065 108.579H149.797C150.87 108.579 151.739 107.707 151.739 106.632V101.821C151.739 100.746 150.87 99.8743 149.797 99.8743Z" fill="#367CFF"/>
<path opacity="0.2" d="M57.3601 115.775H36.8016C36.0597 115.775 35.4583 116.378 35.4583 117.121C35.4583 117.865 36.0597 118.468 36.8016 118.468H57.3601C58.102 118.468 58.7035 117.865 58.7035 117.121C58.7035 116.378 58.102 115.775 57.3601 115.775Z" fill="#367CFF"/>
<path opacity="0.1" d="M87.891 122.354H37.4003C36.3277 122.354 35.4583 123.225 35.4583 124.3V129.111C35.4583 130.186 36.3277 131.058 37.4003 131.058H87.891C88.9636 131.058 89.8331 130.186 89.8331 129.111V124.3C89.8331 123.225 88.9636 122.354 87.891 122.354Z" fill="#367CFF"/>
<path opacity="0.2" d="M119.266 115.775H98.7079C97.9659 115.775 97.3645 116.378 97.3645 117.121C97.3645 117.865 97.9659 118.468 98.7079 118.468H119.266C120.008 118.468 120.61 117.865 120.61 117.121C120.61 116.378 120.008 115.775 119.266 115.775Z" fill="#367CFF"/>
<path opacity="0.1" d="M149.797 122.354H99.3065C98.234 122.354 97.3645 123.225 97.3645 124.3V129.111C97.3645 130.186 98.234 131.058 99.3065 131.058H149.797C150.87 131.058 151.739 130.186 151.739 129.111V124.3C151.739 123.225 150.87 122.354 149.797 122.354Z" fill="#367CFF"/>
<path opacity="0.2" d="M109.717 137.84H78.1571C76.8837 137.84 75.8513 138.874 75.8513 140.151V144.419C75.8513 145.695 76.8837 146.73 78.1571 146.73H109.717C110.99 146.73 112.023 145.695 112.023 144.419V140.151C112.023 138.874 110.99 137.84 109.717 137.84Z" fill="#367CFF"/>
<path d="M99.4426 37.1706L102.785 41.1275L102.578 40.4481C102.515 40.2275 102.539 39.9913 102.643 39.7873C102.748 39.5833 102.926 39.4268 103.141 39.3493C103.254 39.3132 103.372 39.3005 103.49 39.3118C103.607 39.3232 103.722 39.3585 103.825 39.4155C103.929 39.4725 104.019 39.5501 104.092 39.6435C104.165 39.7368 104.218 39.8441 104.248 39.9586L105.776 45.7262C105.968 46.4542 105.87 47.229 105.501 47.8852C105.132 48.5415 104.522 49.0272 103.801 49.2388C102.964 49.4845 102.072 49.474 101.241 49.2085C100.41 48.943 99.6767 48.4347 99.1355 47.7488L96.6893 44.6367C96.559 44.4775 96.4876 44.2781 96.4872 44.0721C96.4868 43.8662 96.5574 43.6665 96.687 43.5068C96.8071 43.3648 96.9693 43.2651 97.1499 43.2222C97.3306 43.1794 97.5202 43.1955 97.691 43.2684C97.6945 43.2547 97.7016 43.2422 97.7117 43.2323C97.7217 43.2235 97.7337 43.2174 97.7466 43.2144C97.7596 43.2114 97.7731 43.2117 97.7859 43.2153L97.3328 42.641C97.194 42.4727 97.1205 42.2597 97.1261 42.0413C97.1317 41.8229 97.2159 41.614 97.3632 41.453C97.5141 41.2985 97.7168 41.2057 97.932 41.1926C98.1473 41.1795 98.3597 41.2471 98.5281 41.3821C98.5292 41.373 98.532 41.3641 98.5364 41.356L98.3503 41.1205C98.2288 40.9592 98.1624 40.7629 98.1608 40.5608C98.1592 40.3587 98.2225 40.1615 98.3414 39.9982C98.4867 39.8226 98.6949 39.7109 98.9213 39.6873C99.1477 39.6636 99.3744 39.7297 99.5528 39.8716L99.5646 39.8598L98.1604 38.1972C98.0884 38.112 98.0345 38.0129 98.0019 37.9061C97.9694 37.7992 97.9589 37.6868 97.971 37.5758C97.9832 37.4647 98.0179 37.3573 98.0728 37.2602C98.1278 37.163 98.2019 37.078 98.2907 37.0105C98.4671 36.8858 98.6843 36.833 98.8981 36.8627C99.112 36.8924 99.3066 37.0024 99.4426 37.1706Z" fill="#E98862"/>
<path opacity="0.2" d="M99.5186 39.9649C99.5221 39.9739 99.527 39.9821 99.5333 39.9894L100.917 41.5891C100.924 41.5973 100.933 41.604 100.942 41.6088C100.952 41.6137 100.962 41.6166 100.973 41.6174C100.984 41.6182 100.994 41.6168 101.005 41.6135C101.015 41.6101 101.024 41.6047 101.032 41.5977C101.041 41.5907 101.047 41.5821 101.052 41.5725C101.057 41.5628 101.06 41.5523 101.061 41.5416C101.061 41.5308 101.06 41.52 101.057 41.5098C101.053 41.4995 101.048 41.4901 101.041 41.4819L99.6586 39.8828C99.6456 39.8694 99.6285 39.8608 99.61 39.8584C99.5916 39.856 99.5728 39.8599 99.5568 39.8695C99.5408 39.8791 99.5285 39.8938 99.522 39.9113C99.5154 39.9287 99.5148 39.9479 99.5205 39.9657L99.5186 39.9649Z" fill="#0C0C0C"/>
<path opacity="0.2" d="M98.5302 41.4205C98.5335 41.4291 98.5383 41.4372 98.5442 41.4443L99.6212 42.709C99.6357 42.7241 99.6553 42.7331 99.6762 42.7342C99.697 42.7353 99.7175 42.7283 99.7333 42.7147C99.7492 42.7011 99.7593 42.682 99.7615 42.6612C99.7638 42.6403 99.758 42.6195 99.7453 42.6028L98.6683 41.3382C98.6558 41.3233 98.6385 41.3135 98.6194 41.3103C98.6003 41.3071 98.5807 41.3108 98.5641 41.3208C98.5474 41.3307 98.5349 41.3463 98.5287 41.3647C98.5224 41.383 98.5229 41.403 98.53 41.4211L98.5302 41.4205Z" fill="#0C0C0C"/>
<path opacity="0.2" d="M97.6895 43.3233C97.6931 43.3327 97.6984 43.3413 97.705 43.3488L98.2286 43.9343C98.2358 43.9423 98.2444 43.9488 98.2541 43.9535C98.2637 43.9581 98.2742 43.9608 98.2849 43.9614C98.2956 43.962 98.3063 43.9605 98.3164 43.9569C98.3265 43.9534 98.3358 43.9479 98.3438 43.9407C98.3518 43.9335 98.3583 43.9249 98.3629 43.9152C98.3676 43.9055 98.3703 43.895 98.3709 43.8843C98.3715 43.8736 98.37 43.8628 98.3664 43.8527C98.3629 43.8426 98.3574 43.8332 98.3502 43.8252L97.8277 43.2395C97.8149 43.2256 97.7978 43.2165 97.7791 43.2138C97.7604 43.2112 97.7414 43.215 97.7253 43.2248C97.7091 43.2345 97.6969 43.2496 97.6905 43.2674C97.6842 43.2852 97.6842 43.3047 97.6906 43.3225L97.6895 43.3233Z" fill="#0C0C0C"/>
<path d="M139.922 76.8585L110.746 74.8114C109.693 74.7375 108.683 74.3662 107.832 73.7404C106.981 73.1145 106.325 72.2598 105.939 71.2753L96.7141 47.7488L107.107 43.653L115.041 63.89L140.701 65.6904L139.922 76.8585Z" fill="#367CFF"/>
<path d="M156.863 190.573C156.863 190.573 155.929 195.424 151.397 195.696C146.866 195.967 147.849 199.585 147.849 199.585H165.166V190.911L156.863 190.573Z" fill="#367CFF"/>
<path d="M162.204 102.061C162.204 102.061 162.15 100.602 162.161 103.911C162.204 116.252 162.418 130.35 162.94 138.599C163.779 151.86 165.93 193.67 165.93 193.67L154.551 193.574L143.522 101.559L162.204 102.061Z" fill="#262626"/>
<path d="M136.605 190.573C136.605 190.573 135.671 195.424 131.139 195.696C126.608 195.967 127.591 199.585 127.591 199.585H144.908V190.911L136.605 190.573Z" fill="#367CFF"/>
<path d="M131.095 103.019C131.095 103.019 130.087 145.2 130.235 147.262L134.467 193.35L145.658 193.557L144.567 145.594C144.567 145.594 145.336 132.364 148.525 120.078C150.156 113.773 151.138 107.316 151.455 100.81L131.095 103.019Z" fill="#262626"/>
<path d="M162.328 102.059L162.365 102.061C162.365 102.061 162.338 101.342 162.328 102.059Z" fill="#333333"/>
<path d="M129.493 79.6055C129.728 82.3696 130.869 99.6143 131.095 103.019H162.191C162.367 99.9481 163.156 86.521 163.822 80.5163C164.458 74.7863 165.705 71.9174 164.791 70.2235C163.296 67.4549 159.213 65.855 156.429 65.4771C154.728 65.2463 152.171 65.0809 152.171 65.0809C152.171 65.0809 151.955 69.4722 146.792 69.7166C139.764 70.0483 140.233 65.0809 140.198 65.0809C139.06 65.0809 132.43 65.6176 130.964 66.749C128.4 68.7277 128.995 73.748 129.493 79.6055Z" fill="#367CFF"/>
<path d="M129.064 76.142C129.037 76.1421 129.012 76.132 128.993 76.1138C128.973 76.0957 128.962 76.0708 128.96 76.0444L128.71 71.6551C128.709 71.6277 128.718 71.6008 128.736 71.5802C128.755 71.5597 128.78 71.5473 128.808 71.5457C128.835 71.5444 128.862 71.5539 128.882 71.5722C128.903 71.5904 128.915 71.616 128.917 71.6433L129.168 76.0324C129.169 76.0598 129.16 76.0867 129.142 76.1073C129.124 76.1278 129.098 76.1402 129.071 76.1418L129.064 76.142Z" fill="#0C0C0C"/>
<path d="M168.914 102.838C169.829 102.838 170.73 102.616 171.541 102.192C172.352 101.768 173.048 101.153 173.571 100.401C174.094 99.6487 174.428 98.7809 174.545 97.8714C174.661 96.9619 174.557 96.0377 174.24 95.1773C173.919 94.3039 166.388 74.309 164.954 70.6043L154.337 74.9167C155.144 76.9998 158.064 84.8955 160.411 91.256L156.512 90.8312L155.285 102.148L168.3 102.805C168.504 102.827 168.709 102.838 168.914 102.838Z" fill="#367CFF"/>
<path d="M136.494 64.7022C136.529 64.6977 137.483 68.2964 144.927 67.7364C150.08 67.3493 151.337 63.8325 151.455 63.8325C150.899 63.7141 149.997 63.5912 149.75 63.4593C148.939 63.0223 148.348 62.4901 148.05 61.3482C147.817 60.455 147.698 57.017 147.698 55.2921L139.768 57.0786C139.879 59.0245 140.652 63.5352 137.941 64.3336C137.49 64.4655 137.004 64.587 136.494 64.7022Z" fill="#E98862"/>
<path d="M140.043 60.9039C143.169 61.1512 147.185 59.8279 147.948 55.6464L148.636 51.8731C149.399 47.6916 147.827 43.9 143.901 43.18C139.974 42.46 136.42 45.3115 135.657 49.493L135.352 51.1634C135.059 52.7681 134.465 60.4627 140.043 60.9039Z" fill="#E98862"/>
<path d="M137.144 57.0647C137.706 54.2381 137.963 52.352 137.933 50.3624C137.143 48.9733 137.35 47.3769 137.53 46.6878C136.986 47.0344 136.346 47.199 135.702 47.1578C135.702 47.1578 137.009 41.8984 141.451 40.4832C142.268 40.1643 144.354 39.7617 147.124 40.1426C149.48 40.4664 155.286 42.2324 156.116 48.7865V48.7902C156.143 49.0075 156.701 55.0462 157.812 57.9435C159.306 61.8385 161.404 63.0487 161.351 67.5426C161.282 73.323 150.682 74.0924 144.29 73.6601C137.897 73.2278 134.328 71.12 134.281 66.9542C134.232 62.2868 136.022 62.7203 137.144 57.0647Z" fill="#0A0A0A"/>
<path d="M162.856 80.6326L162.092 103.016L162.298 103.023L163.062 80.6397L162.856 80.6326Z" fill="#0C0C0C"/>
<path d="M12.5084 200H195.547C195.568 200.001 195.588 199.997 195.607 199.99C195.627 199.983 195.644 199.972 195.659 199.957C195.674 199.943 195.685 199.926 195.693 199.907C195.701 199.888 195.705 199.868 195.705 199.847C195.705 199.827 195.701 199.806 195.693 199.787C195.685 199.769 195.674 199.751 195.659 199.737C195.644 199.723 195.627 199.712 195.607 199.705C195.588 199.697 195.568 199.694 195.547 199.695H12.5084C12.4879 199.694 12.4675 199.697 12.4483 199.705C12.4292 199.712 12.4117 199.723 12.397 199.737C12.3822 199.751 12.3705 199.769 12.3625 199.787C12.3545 199.806 12.3503 199.827 12.3503 199.847C12.3503 199.868 12.3545 199.888 12.3625 199.907C12.3705 199.926 12.3822 199.943 12.397 199.957C12.4117 199.972 12.4292 199.983 12.4483 199.99C12.4675 199.997 12.4879 200.001 12.5084 200Z" fill="#292A2E"/>
<path d="M149.354 116.614C149.354 116.614 148.882 125.571 148.795 127.673C148.593 132.536 148.523 137.571 148.523 143.279L146.729 128.314C146.729 128.314 148.041 123.625 149.354 116.614Z" fill="#0A0A0A"/>
</g>
<defs>
<clipPath id="clip0">
<rect width="207" height="200" fill="white"/>
</clipPath>
</defs>
</svg>
