<svg width="248" height="200" viewBox="0 0 248 200" fill="none" xmlns="http://www.w3.org/2000/svg">
<g clip-path="url(#clip0)">
<path d="M230.891 193.485C240.637 193.485 248.413 184.799 247.983 174.394C247.42 160.79 240.91 141.581 215.25 122.386C183.958 98.9762 198.072 31.574 131.585 36.2258C65.0989 40.8777 71.4381 90.6855 30.6697 113.516C4.71983 128.048 0.00179776 156.482 0 175.232C0 185.318 7.66958 193.485 17.1085 193.485H230.891Z" fill="#F3F5FD"/>
<path d="M34.8765 174.55C32.0814 173.765 29.9773 171.316 29.1414 168.588C28.3054 165.86 28.6002 162.901 29.4168 160.168C30.083 157.937 31.0926 155.781 31.3414 153.47C32.1684 145.775 24.5484 137.912 28.1353 131.017C29.2949 128.787 31.5392 127.045 31.9401 124.573C32.2712 122.529 31.2429 120.543 30.732 118.535C30.0284 115.772 30.385 112.636 32.2159 110.423C34.0467 108.21 37.5059 107.243 40.0286 108.661C43.3278 110.514 43.614 115.09 42.7658 118.721C41.9176 122.352 40.3464 126.088 41.3826 129.672C42.3699 133.088 45.5836 135.66 46.16 139.166C46.6389 142.08 45.1863 144.921 44.5481 147.806C43.5453 152.339 44.5661 157.039 44.6099 161.678C44.6538 166.316 43.3177 171.518 34.8765 174.55Z" fill="#8DDBE0"/>
<path d="M30.564 174.991C28.9009 174.473 27.4084 173.531 26.2398 172.262C25.0712 170.993 24.2686 169.442 23.9145 167.768C23.3673 165.008 24.0389 161.908 22.4964 159.536C20.406 156.323 18.2627 155.96 15.6603 153.128C11.6592 148.773 11.5186 146.844 11.7825 138.778C11.894 135.367 7.08499 131.518 8.77883 128.241C10.271 125.354 14.8067 125.339 17.3789 127.371C19.9512 129.402 21.0823 132.659 22.2016 135.704C23.3209 138.748 24.7371 141.969 27.5776 143.622C29.2815 144.612 31.5122 145.071 32.4531 146.778C33.2082 148.152 32.8285 149.826 32.525 151.356C31.761 155.204 31.9526 159.897 35.2497 162.12C36.7375 163.122 38.6856 163.467 39.9084 164.769C41.1176 166.056 41.3125 167.962 41.2308 169.708C41.0701 173.067 40.1252 176.344 38.4688 179.289" fill="#DEE8F5"/>
<path d="M34.5403 177.671C33.0863 175.974 32.2099 173.875 32.0338 171.666C31.8577 169.458 32.3906 167.251 33.558 165.354C35.5765 162.222 39.3381 160.064 40.1281 156.442C40.8317 153.216 38.8804 149.883 39.4647 146.634C40.0997 143.101 43.4324 140.782 46.0804 138.303C46.7692 137.701 47.3618 137 47.8383 136.226C49.0025 134.173 48.6778 131.656 49.073 129.341C49.8302 124.906 53.5606 120.973 58.0902 120.24C62.0625 119.597 64.9083 121.832 64.9083 125.948C64.9083 130.823 61.1784 132.913 59.2756 135.12C56.5428 138.316 55.0924 142.378 55.1958 146.545C55.3299 151.2 57.3531 156.156 55.1915 160.303C53.6048 163.347 50.2156 164.969 47.5528 167.178C45.5408 168.866 43.9028 170.94 42.7398 173.271C41.5768 175.603 40.9134 178.142 40.7904 180.734" fill="white"/>
<path d="M47.3522 170.026H23.3975V193.485H47.3522V170.026Z" fill="#0CBC8B"/>
<g opacity="0.42">
<path opacity="0.42" d="M47.3522 174.6H23.3975V179.179H47.3522V174.6Z" fill="white"/>
</g>
<path d="M186.821 0H61.1791V159.619H186.821V0Z" fill="#DEE8F5"/>
<path d="M176.785 46.3627H153.033V55.0206H176.785V46.3627Z" fill="white"/>
<path d="M176.785 60.6887H153.033V69.3466H176.785V60.6887Z" fill="white"/>
<path d="M176.785 75.0148H153.033V83.6727H176.785V75.0148Z" fill="white"/>
<path d="M176.785 89.3405H153.033V97.9984H176.785V89.3405Z" fill="white"/>
<path d="M176.785 103.666H153.033V112.324H176.785V103.666Z" fill="white"/>
<path d="M176.785 117.993H153.033V126.65H176.785V117.993Z" fill="white"/>
<path d="M148.232 46.3627H71.2145V55.0206H148.232V46.3627Z" fill="white"/>
<path d="M148.232 60.6887H71.2145V69.3466H148.232V60.6887Z" fill="white"/>
<path d="M148.232 75.0148H71.2145V83.6727H148.232V75.0148Z" fill="white"/>
<path d="M148.232 89.3405H71.2145V97.9984H148.232V89.3405Z" fill="white"/>
<path d="M148.232 103.666H71.2145V112.324H148.232V103.666Z" fill="white"/>
<path d="M148.232 117.993H71.2145V126.65H148.232V117.993Z" fill="white"/>
<path d="M188.542 191.33C187.859 191.218 180.152 189.928 180.152 189.928L181.423 182.64C181.423 182.64 189.109 183.925 189.79 184.037L188.542 191.33Z" fill="#E98862"/>
<path d="M175.755 198.322C175.722 198.518 175.731 198.719 175.782 198.911C175.832 199.104 175.922 199.284 176.047 199.441C176.171 199.598 176.328 199.729 176.506 199.824C176.684 199.919 176.881 199.977 177.083 199.994C177.363 200.019 177.645 199.964 177.894 199.837C178.144 199.71 178.352 199.515 178.492 199.277L182.847 191.264C182.931 191.109 182.979 190.938 182.989 190.762C182.999 190.587 182.97 190.412 182.904 190.248C182.277 188.946 182.093 187.48 182.379 186.068C182.649 184.975 183.226 183.979 184.046 183.192C184.125 183.124 184.184 183.035 184.214 182.936C184.243 182.837 184.244 182.732 184.215 182.632C184.186 182.533 184.129 182.444 184.05 182.375C183.971 182.306 183.874 182.261 183.77 182.244L179.531 181.549C179.406 181.529 179.278 181.532 179.155 181.56C179.031 181.589 178.915 181.64 178.812 181.712C178.709 181.785 178.621 181.876 178.554 181.982C178.488 182.087 178.443 182.205 178.422 182.327L175.755 198.322Z" fill="#C1D8ED"/>
<path d="M212.4 171.615C215.598 171.746 218.856 171.837 222.113 171.916L227.009 172.022L231.899 172.108L232.386 172.116C234.406 172.154 236.336 172.939 237.787 174.315C239.239 175.691 240.104 177.555 240.208 179.53C240.311 181.506 239.647 183.447 238.347 184.961C237.047 186.476 235.21 187.451 233.205 187.691L184.881 193.438L182.912 179.452L231.02 172.179L232.326 187.763L227.361 188.077L222.399 188.371C219.086 188.558 215.772 188.734 212.398 188.869L212.4 171.615Z" fill="#262626"/>
<path d="M224.59 188.267C217.919 187.316 217.256 187.142 217.036 187.084L218.996 179.943C218.974 179.938 218.946 179.93 218.911 179.923C219.457 180.04 222.848 180.547 225.677 180.949L224.59 188.267Z" fill="#E98862"/>
<path d="M232.924 194.623C232.994 194.809 233.024 195.008 233.012 195.207C233 195.405 232.946 195.599 232.855 195.777C232.763 195.954 232.634 196.111 232.478 196.237C232.321 196.364 232.14 196.458 231.944 196.512C231.674 196.588 231.387 196.587 231.117 196.509C230.847 196.43 230.606 196.278 230.422 196.069L224.593 189.012C224.481 188.875 224.401 188.716 224.357 188.546C224.314 188.376 224.308 188.199 224.341 188.026C224.705 186.631 224.601 185.158 224.046 183.824C223.57 182.802 222.81 181.931 221.853 181.311C221.762 181.259 221.688 181.182 221.639 181.091C221.591 180.999 221.57 180.896 221.579 180.793C221.588 180.69 221.627 180.591 221.691 180.509C221.755 180.427 221.842 180.365 221.941 180.329L225.967 178.858C226.086 178.815 226.213 178.795 226.339 178.8C226.466 178.804 226.59 178.833 226.706 178.885C226.821 178.937 226.924 179.011 227.01 179.102C227.097 179.193 227.163 179.3 227.207 179.416L232.924 194.623Z" fill="#C1D8ED"/>
<path d="M201.672 187.601C199.647 187.433 197.623 187.311 195.599 187.197C193.576 187.091 191.552 186.985 189.529 186.915L186.495 186.8L183.46 186.714C181.437 186.649 179.415 186.622 177.393 186.583L178.094 172.355C181.88 172.873 185.67 173.349 189.46 173.838C193.25 174.326 197.043 174.775 200.836 175.232L206.529 175.889L212.226 176.514C216.026 176.915 219.826 177.312 223.635 177.639L221.963 191.664C218.181 191.124 214.389 190.653 210.597 190.185L204.906 189.509L199.212 188.865C195.413 188.454 191.615 188.037 187.814 187.656C184.013 187.275 180.211 186.885 176.405 186.536C174.579 186.369 172.886 185.532 171.663 184.194C170.44 182.856 169.778 181.115 169.81 179.32C169.842 177.525 170.565 175.807 171.834 174.512C173.104 173.216 174.826 172.437 176.656 172.332L177.107 172.307C179.126 172.191 181.145 172.086 183.164 171.942L186.192 171.739L189.22 171.507C191.238 171.358 193.256 171.173 195.274 170.99C197.292 170.798 199.309 170.597 201.326 170.35L201.672 187.601Z" fill="#262626"/>
<path d="M219.748 169.455L220.812 186.957L190.074 186.604L192.394 171.109L219.748 169.455Z" fill="#262626"/>
<path d="M230.008 165.497L221.863 140.762C221.525 139.475 220.824 138.306 219.839 137.391C218.196 135.782 215.359 134.743 211.9 134.739C211.641 136.715 199.395 136.722 199.301 134.785C198.834 134.792 198.471 134.799 198.244 134.81C193.297 135.019 191.305 136.884 190.673 139.691L180.288 164.301C180.034 164.904 179.947 165.562 180.036 166.208C180.126 166.854 180.388 167.465 180.796 167.98C181.204 168.494 181.744 168.894 182.361 169.139C182.978 169.383 183.651 169.464 184.31 169.372L189.983 168.58C189.704 169.964 189.66 171.04 190.212 172.284C191.718 175.675 221.32 177.084 221.716 171.119C221.72 171.06 221.72 171.002 221.722 170.943L226.641 170.494C227.225 170.441 227.79 170.26 228.293 169.965C228.797 169.669 229.226 169.267 229.549 168.787C229.872 168.307 230.081 167.762 230.161 167.193C230.24 166.624 230.188 166.044 230.008 165.497ZM189.792 161.14L191.669 156.692C191.648 158.283 191.561 159.679 191.437 160.911L189.792 161.14ZM221.047 163.297L219.611 163.428C218.904 161.223 218.547 158.925 218.552 156.614C218.552 156.345 218.564 156.078 218.581 155.811L221.047 163.297Z" fill="#367CFF"/>
<path d="M209.522 146.575L210.793 165.124C210.807 165.343 210.776 165.562 210.701 165.769C210.626 165.975 210.508 166.164 210.356 166.324C210.203 166.484 210.018 166.612 209.813 166.699C209.607 166.786 209.386 166.831 209.162 166.831H182.708C182.303 166.831 181.913 166.685 181.613 166.42C181.313 166.154 181.124 165.79 181.082 165.396L179.124 146.846C179.101 146.624 179.125 146.398 179.196 146.185C179.267 145.972 179.383 145.776 179.536 145.61C179.69 145.444 179.877 145.311 180.086 145.22C180.295 145.129 180.521 145.082 180.75 145.082H207.892C208.307 145.082 208.706 145.236 209.008 145.513C209.311 145.791 209.494 146.17 209.522 146.575Z" fill="#9EBCEA"/>
<path d="M184.917 166.832H212.713C213.342 166.832 213.853 166.332 213.853 165.715C213.853 165.098 213.342 164.598 212.713 164.598H184.917C184.287 164.598 183.777 165.098 183.777 165.715C183.777 166.332 184.287 166.832 184.917 166.832Z" fill="#9EBCEA"/>
<path d="M194.258 158.421C195.648 158.421 196.775 157.318 196.775 155.956C196.775 154.595 195.648 153.492 194.258 153.492C192.868 153.492 191.741 154.595 191.741 155.956C191.741 157.318 192.868 158.421 194.258 158.421Z" fill="white"/>
<path d="M197.884 169.187C199.498 170.163 201.997 170.624 204.176 170.793L204.297 166.905C203.272 166.877 201.697 166.771 200.155 166.831C199.458 166.275 199.057 166.109 198.341 165.409C197.58 164.663 195.581 164.215 195.204 165.409C194.826 166.603 196.467 168.328 197.884 169.187Z" fill="#E98862"/>
<path d="M199.301 134.786C199.395 136.723 200.47 139.571 203.789 139.786C208.211 140.071 211.641 136.716 211.9 134.74H211.889C207.535 134.74 201.84 134.747 199.301 134.786Z" fill="#E98862"/>
<path d="M210.927 136.856C210.927 136.856 208.147 135.412 208.768 127.997L203.023 126.954C203.023 126.954 203.669 133.602 200.763 135.712L210.927 136.856Z" fill="#E98862"/>
<g opacity="0.15">
<path opacity="0.15" d="M201.94 134.322L206.712 130.747L202.964 130.709C202.855 131.966 202.508 133.191 201.94 134.322Z" fill="black"/>
</g>
<path d="M212.027 125.122C211.63 127.372 210.376 129.502 208.35 130.228C206.142 131.087 203.752 131.403 201.39 131.149C195.101 130.644 196.345 116.641 199.331 113.921C202.317 111.2 211.079 112.923 212.145 117.473C212.695 119.827 212.406 122.981 212.027 125.122Z" fill="#E98862"/>
<path d="M197.257 114.404C197.444 114.112 197.707 113.874 198.019 113.714C200.811 112.227 205.986 111.712 208.472 112.441C211.355 113.286 214.971 115.653 214.045 121.393C214.006 121.635 213.964 121.868 213.92 122.098C214.831 121.945 215.767 122.041 216.625 122.375C217.484 122.709 218.232 123.268 218.788 123.99C219.344 124.713 219.686 125.572 219.777 126.472C219.868 127.373 219.704 128.28 219.303 129.095C218.903 129.911 218.28 130.602 217.505 131.094C216.73 131.586 215.831 131.86 214.907 131.885C213.984 131.91 213.071 131.685 212.269 131.236C211.467 130.787 210.807 130.13 210.36 129.338C209.933 129.7 209.471 130.021 208.98 130.297C208.636 130.497 208.553 130.332 208.434 129.96C208.017 128.653 207.607 123.485 207.934 119.732L201.158 119.503L199.977 116.213L199.009 119.503H196.702C196.392 117.721 196.073 115.7 197.257 114.404Z" fill="#0F1011"/>
<path d="M203.032 123.39C203.319 123.39 203.553 123.161 203.553 122.879C203.553 122.597 203.319 122.369 203.032 122.369C202.744 122.369 202.511 122.597 202.511 122.879C202.511 123.161 202.744 123.39 203.032 123.39Z" fill="#0F1011"/>
<path d="M198.921 123.06C199.209 123.06 199.442 122.831 199.442 122.549C199.442 122.268 199.209 122.039 198.921 122.039C198.634 122.039 198.4 122.268 198.4 122.549C198.4 122.831 198.634 123.06 198.921 123.06Z" fill="#0F1011"/>
<path d="M198.018 121.462C197.955 121.46 197.895 121.434 197.851 121.39C197.807 121.345 197.782 121.286 197.781 121.224C197.781 121.162 197.805 121.102 197.849 121.057C197.892 121.012 197.952 120.986 198.015 120.983L199.396 120.966H199.399C199.462 120.968 199.522 120.994 199.566 121.038C199.611 121.082 199.636 121.142 199.636 121.204C199.636 121.266 199.612 121.326 199.569 121.371C199.525 121.416 199.465 121.442 199.402 121.445L198.022 121.462H198.018Z" fill="#0F1011"/>
<path d="M204.156 121.955C204.137 121.955 204.117 121.952 204.098 121.948L202.738 121.628C202.675 121.613 202.62 121.574 202.586 121.52C202.552 121.466 202.542 121.401 202.557 121.339C202.572 121.277 202.612 121.223 202.667 121.19C202.723 121.157 202.789 121.147 202.852 121.161L204.213 121.482C204.272 121.496 204.323 121.53 204.358 121.578C204.392 121.626 204.407 121.685 204.4 121.743C204.393 121.802 204.364 121.856 204.319 121.895C204.274 121.934 204.216 121.955 204.156 121.955Z" fill="#0F1011"/>
<path d="M205.742 124.128C205.698 124.698 205.886 125.261 206.265 125.696C206.644 126.13 207.183 126.4 207.764 126.447C208.346 126.493 208.922 126.312 209.368 125.944C209.814 125.575 210.093 125.049 210.144 124.48C210.173 124.196 210.143 123.909 210.056 123.637C209.969 123.364 209.828 123.112 209.639 122.894C209.45 122.676 209.219 122.498 208.959 122.37C208.698 122.242 208.414 122.166 208.123 122.148C206.549 122.099 205.843 122.937 205.742 124.128Z" fill="#E98862"/>
<g opacity="0.15">
<path opacity="0.15" d="M200.719 125.709C200.701 125.709 200.683 125.707 200.666 125.701L199.412 125.324C199.387 125.317 199.365 125.304 199.346 125.288C199.327 125.272 199.311 125.251 199.301 125.229C199.291 125.206 199.285 125.181 199.285 125.156C199.285 125.131 199.291 125.106 199.301 125.084L200.126 123.286C200.146 123.244 200.182 123.211 200.226 123.195C200.27 123.179 200.319 123.18 200.362 123.199C200.406 123.218 200.439 123.253 200.456 123.296C200.473 123.34 200.472 123.388 200.454 123.43L199.712 125.046L200.772 125.365C200.813 125.377 200.848 125.404 200.871 125.439C200.894 125.475 200.903 125.518 200.897 125.559C200.89 125.601 200.869 125.639 200.836 125.667C200.804 125.694 200.762 125.709 200.719 125.709H200.719Z" fill="black"/>
</g>
<path d="M202.79 126.898C202.79 126.898 200.868 127.096 199.519 126.635C199.519 126.635 199.529 127.875 201.051 127.998C202.573 128.12 202.79 126.898 202.79 126.898Z" fill="white"/>
<path d="M176.785 32.9694H153.033V41.9837H176.785V32.9694Z" fill="#C1D8ED"/>
<path d="M148.232 32.9694H71.2145V41.9837H148.232V32.9694Z" fill="#C1D8ED"/>
<path d="M176.785 135.69H135.984V145.081H176.785V135.69Z" fill="#C1D8ED"/>
<path d="M97.74 11.02C100.247 11.02 102.173 11.6333 103.52 12.86C104.867 14.0733 105.54 15.7667 105.54 17.94C105.54 20.1133 104.887 21.8333 103.58 23.1C102.273 24.3667 100.273 25 97.58 25H92.94V11.02H97.74ZM103.16 18C103.16 14.8 101.327 13.2 97.66 13.2H95.3V22.78H97.92C99.6133 22.78 100.907 22.38 101.8 21.58C102.707 20.7667 103.16 19.5733 103.16 18ZM110.565 21.82L109.165 25H106.645L112.805 11.02H115.325L121.485 25H118.965L117.565 21.82H110.565ZM116.605 19.64L114.065 13.88L111.525 19.64H116.605ZM128.708 13.18V25H126.348V13.18H122.108V11.02H132.948V13.18H128.708ZM145.319 11.02V13.24H137.859V16.94H144.559V19.04H137.859V22.78H145.559V25H135.499V11.02H145.319ZM152.805 12.86C152.125 12.86 151.565 13 151.125 13.28C150.685 13.56 150.465 13.9867 150.465 14.56C150.465 15.12 150.685 15.5533 151.125 15.86C151.565 16.1533 152.498 16.4733 153.925 16.82C155.365 17.1667 156.445 17.6533 157.165 18.28C157.898 18.9067 158.265 19.8333 158.265 21.06C158.265 22.2733 157.805 23.26 156.885 24.02C155.965 24.78 154.758 25.16 153.265 25.16C151.078 25.16 149.138 24.4067 147.445 22.9L148.925 21.12C150.338 22.3467 151.805 22.96 153.325 22.96C154.085 22.96 154.685 22.8 155.125 22.48C155.578 22.1467 155.805 21.7133 155.805 21.18C155.805 20.6333 155.591 20.2133 155.165 19.92C154.751 19.6133 154.031 19.34 153.005 19.1C151.978 18.8467 151.198 18.62 150.665 18.42C150.131 18.2067 149.658 17.9333 149.245 17.6C148.418 16.9733 148.005 16.0133 148.005 14.72C148.005 13.4267 148.471 12.4333 149.405 11.74C150.351 11.0333 151.518 10.68 152.905 10.68C153.798 10.68 154.685 10.8267 155.565 11.12C156.445 11.4133 157.205 11.8267 157.845 12.36L156.585 14.14C156.171 13.7667 155.611 13.46 154.905 13.22C154.198 12.98 153.498 12.86 152.805 12.86Z" fill="white"/>
</g>
<defs>
<clipPath id="clip0">
<rect width="248" height="200" fill="white"/>
</clipPath>
</defs>
</svg>
