<svg width="613" height="602" viewBox="0 0 613 602" fill="none" xmlns="http://www.w3.org/2000/svg">
<path d="M537.061 153.654C532.926 147.172 528.378 140.947 523.443 135.017C494.969 101.04 461.172 70.7832 420.949 50.4958C358.356 18.9269 279.087 11.5343 211.727 34.4344C131.727 61.6207 96.4073 128.395 83.136 206.149C81.2872 217.009 79.8676 227.929 78.8772 238.91C75.5718 274.741 77.1936 310.981 72.6872 346.68C68.0571 383.257 47.234 415.85 47.7415 453.342C47.9453 474.671 53.9232 495.572 65.0735 513.939C96.4445 564.676 160.115 572.827 215.602 564.002C375.911 538.477 394.035 477.795 461.654 464.419C522.638 452.379 564.409 391.433 576.355 335.398C589.54 273.428 570.982 206.558 537.061 153.654Z" fill="#FAE1E1"/>
<path opacity="0.7" d="M537.061 153.654C532.926 147.172 528.378 140.947 523.443 135.017C494.969 101.04 461.172 70.7832 420.949 50.4958C358.356 18.9269 279.087 11.5343 211.727 34.4344C131.727 61.6207 96.4073 128.395 83.136 206.149C81.2872 217.009 79.8676 227.929 78.8772 238.91C75.5718 274.741 77.1936 310.981 72.6872 346.68C68.0571 383.257 47.234 415.85 47.7415 453.342C47.9453 474.671 53.9232 495.572 65.0735 513.939C96.4445 564.676 160.115 572.827 215.602 564.002C375.911 538.477 394.035 477.795 461.654 464.419C522.638 452.379 564.409 391.433 576.355 335.398C589.54 273.428 570.982 206.558 537.061 153.654Z" fill="#FAE1E1"/>
<g opacity="0.3">
<path opacity="0.3" d="M97.9922 104.748V107.758" stroke="black" stroke-linejoin="round"/>
<path opacity="0.3" d="M97.9922 114.26V137.015" stroke="black" stroke-linejoin="round" stroke-dasharray="5.4 5.4"/>
<path opacity="0.3" d="M97.9922 140.266V143.276H101.087" stroke="black" stroke-linejoin="round"/>
<path opacity="0.3" d="M107.166 143.276H298.61" stroke="black" stroke-linejoin="round" stroke-dasharray="4.91 4.91"/>
<path opacity="0.3" d="M301.643 143.276H304.738V146.286" stroke="black" stroke-linejoin="round"/>
<path opacity="0.3" d="M304.738 152.33V451.488" stroke="black" stroke-linejoin="round" stroke-dasharray="5.02 5.02"/>
<path opacity="0.3" d="M304.738 454.51V457.52H307.833" stroke="black" stroke-linejoin="round"/>
<path opacity="0.3" d="M311.547 457.52H317.118" stroke="black" stroke-linejoin="round" stroke-dasharray="3 3"/>
<path opacity="0.3" d="M318.975 457.52H322.07" stroke="black" stroke-linejoin="round"/>
<path opacity="0.3" d="M59.614 449.092V446.082" stroke="black" stroke-linejoin="round"/>
<path opacity="0.3" d="M59.614 439.893V319.144" stroke="black" stroke-linejoin="round" stroke-dasharray="5.14 5.14"/>
<path opacity="0.3" d="M59.614 316.05V313.04H62.709" stroke="black" stroke-linejoin="round"/>
<path opacity="0.3" d="M68.3542 313.04H110.644" stroke="black" stroke-linejoin="round" stroke-dasharray="4.56 4.56"/>
<path opacity="0.3" d="M113.467 313.04H116.562V316.05" stroke="black" stroke-linejoin="round"/>
<path opacity="0.3" d="M116.562 322.022V450.32" stroke="black" stroke-linejoin="round" stroke-dasharray="4.96 4.96"/>
<path opacity="0.3" d="M116.562 453.306V456.316H119.657" stroke="black" stroke-linejoin="round"/>
<path opacity="0.3" d="M125.958 456.316H261.359" stroke="black" stroke-linejoin="round" stroke-dasharray="5.09 5.09"/>
<path opacity="0.3" d="M264.503 456.316H267.598V453.306" stroke="black" stroke-linejoin="round"/>
<path opacity="0.3" d="M267.598 447.262V196.264" stroke="black" stroke-linejoin="round" stroke-dasharray="5.02 5.02"/>
<path opacity="0.3" d="M267.598 193.242V190.232H270.693" stroke="black" stroke-linejoin="round"/>
<path opacity="0.3" d="M276.734 190.232H515.272" stroke="black" stroke-linejoin="round" stroke-dasharray="4.88 4.88"/>
<path opacity="0.3" d="M518.293 190.232H521.388" stroke="black" stroke-linejoin="round"/>
<path opacity="0.3" d="M112.848 75.6834C112.848 71.8516 111.283 68.1767 108.497 65.4672C105.711 62.7576 101.932 61.2354 97.992 61.2354C94.0519 61.2354 90.2732 62.7576 87.4872 65.4672C84.7012 68.1767 83.136 71.8516 83.136 75.6834C83.136 83.6539 97.992 99.7634 97.992 99.7634C97.992 99.7634 112.848 83.6539 112.848 75.6834Z" stroke="black" stroke-linejoin="round"/>
<path opacity="0.3" d="M104.356 75.6834C104.356 74.4595 103.982 73.263 103.283 72.2453C102.584 71.2276 101.59 70.4343 100.427 69.966C99.2646 69.4976 97.9852 69.375 96.7508 69.6138C95.5164 69.8526 94.3826 70.442 93.4927 71.3075C92.6028 72.1729 91.9967 73.2756 91.7512 74.4761C91.5056 75.6766 91.6317 76.9209 92.1133 78.0517C92.5949 79.1825 93.4105 80.149 94.457 80.829C95.5034 81.509 96.7337 81.872 97.9922 81.872C99.6789 81.8688 101.296 81.2158 102.488 80.0559C103.681 78.896 104.352 77.3238 104.356 75.6834V75.6834Z" stroke="black" stroke-linejoin="round"/>
<path opacity="0.3" d="M540.354 169.03C540.254 165.967 538.932 163.063 536.669 160.931C534.406 158.799 531.379 157.607 528.228 157.607C525.078 157.607 522.05 158.799 519.787 160.931C517.524 163.063 516.203 165.967 516.102 169.03C516.102 175.543 528.234 188.691 528.234 188.691C528.234 188.691 540.354 175.543 540.354 169.03Z" stroke="black" stroke-linejoin="round"/>
<path opacity="0.3" d="M528.234 174.086C531.106 174.086 533.434 171.822 533.434 169.03C533.434 166.237 531.106 163.973 528.234 163.973C525.363 163.973 523.035 166.237 523.035 169.03C523.035 171.822 525.363 174.086 528.234 174.086Z" stroke="black" stroke-linejoin="round"/>
<path opacity="0.3" d="M522.997 242.666C523.07 239.531 522.498 236.413 521.315 233.496C520.132 230.579 518.361 227.921 516.107 225.679C513.853 223.437 511.161 221.655 508.189 220.439C505.217 219.222 502.025 218.596 498.801 218.596C495.576 218.596 492.384 219.222 489.412 220.439C486.441 221.655 483.748 223.437 481.494 225.679C479.24 227.921 477.47 230.579 476.286 233.496C475.103 236.413 474.531 239.531 474.604 242.666C474.604 255.657 498.795 281.893 498.795 281.893C498.795 281.893 522.997 255.657 522.997 242.666Z" stroke="black" stroke-linejoin="round"/>
<path opacity="0.3" d="M498.795 252.756C504.524 252.756 509.169 248.238 509.169 242.666C509.169 237.094 504.524 232.577 498.795 232.577C493.065 232.577 488.42 237.094 488.42 242.666C488.42 248.238 493.065 252.756 498.795 252.756Z" stroke="black" stroke-linejoin="round"/>
<path opacity="0.3" d="M123.383 263.941C123.383 259.081 121.398 254.42 117.865 250.983C114.331 247.547 109.538 245.616 104.541 245.616C99.5438 245.616 94.7512 247.547 91.2175 250.983C87.6839 254.42 85.6987 259.081 85.6987 263.941C85.6987 274.054 104.541 294.474 104.541 294.474C104.541 294.474 123.383 274.054 123.383 263.941Z" stroke="black" stroke-linejoin="round"/>
<path opacity="0.3" d="M112.613 263.941C112.613 262.388 112.139 260.871 111.252 259.58C110.365 258.289 109.105 257.282 107.63 256.688C106.155 256.094 104.532 255.939 102.966 256.242C101.401 256.544 99.9623 257.292 98.8334 258.39C97.7046 259.488 96.9358 260.887 96.6243 262.409C96.3129 263.932 96.4727 265.511 97.0837 266.945C97.6946 268.379 98.7292 269.605 100.057 270.468C101.384 271.331 102.945 271.791 104.541 271.791C105.601 271.791 106.651 271.588 107.63 271.193C108.609 270.799 109.499 270.221 110.249 269.492C110.998 268.763 111.593 267.897 111.998 266.945C112.404 265.993 112.613 264.972 112.613 263.941V263.941Z" stroke="black" stroke-linejoin="round"/>
<path opacity="0.3" d="M69.2581 471.005C69.2581 469.457 68.9446 467.924 68.3355 466.494C67.7264 465.064 66.8337 463.765 65.7082 462.67C64.5828 461.575 63.2467 460.707 61.7762 460.115C60.3057 459.522 58.7297 459.218 57.1381 459.218C55.5465 459.218 53.9704 459.522 52.5 460.115C51.0295 460.707 49.6934 461.575 48.5679 462.67C47.4425 463.765 46.5497 465.064 45.9406 466.494C45.3316 467.924 45.0181 469.457 45.0181 471.005C45.0181 477.518 57.1381 490.654 57.1381 490.654C57.1381 490.654 69.2581 477.518 69.2581 471.005Z" stroke="black" stroke-linejoin="round"/>
<path opacity="0.3" d="M57.1381 476.062C60.0097 476.062 62.3377 473.798 62.3377 471.005C62.3377 468.212 60.0097 465.948 57.1381 465.948C54.2664 465.948 51.9385 468.212 51.9385 471.005C51.9385 473.798 54.2664 476.062 57.1381 476.062Z" stroke="black" stroke-linejoin="round"/>
</g>
<path d="M417.396 89.3127V455.69C417.396 465.427 413.422 474.766 406.347 481.656C399.272 488.546 389.674 492.423 379.662 492.436H200.473C190.453 492.436 180.842 488.565 173.756 481.673C166.67 474.782 162.69 465.436 162.69 455.69V89.3127C162.693 79.5691 166.675 70.2257 173.761 63.3371C180.846 56.4485 190.455 52.5787 200.473 52.5787H275.397L275.472 52.8435C277.688 60.5973 282.788 65.6421 288.446 65.6421H291.689C297.347 65.6421 302.448 60.5973 304.664 52.8435L304.75 52.5787H379.662C389.672 52.5914 399.268 56.4669 406.342 63.3541C413.417 70.2413 417.393 79.5775 417.396 89.3127Z" fill="#D6D6D6"/>
<path d="M318.913 320.926V204.993H373.633C374.106 204.994 374.57 204.863 374.969 204.616C375.369 204.368 375.687 204.014 375.886 203.596L417.396 115.223V103.64L371.986 200.177H318.913V52.5787H313.961V111.972C264.54 107.228 235.583 129.887 219.947 149.97C210.118 162.779 202.811 177.246 198.394 192.64L162.69 170.595V176.302L226.632 215.781V286.227L162.727 274.885V279.786L313.998 306.611V319.855L162.727 437.365V443.53L231.139 390.385L283.271 459.013C283.501 459.316 283.802 459.562 284.148 459.731C284.494 459.901 284.877 459.989 285.264 459.988C285.473 459.988 285.68 459.964 285.883 459.916L368.074 439.448V492.436H373.026V392.733C373.025 392.288 372.897 391.852 372.656 391.474C372.416 391.096 372.072 390.79 371.664 390.59L353.206 381.511L384.75 348.04L417.396 360.273V355.18L384.874 343.02C384.409 342.843 383.9 342.807 383.414 342.917C382.928 343.027 382.487 343.276 382.15 343.634L348.575 379.26L285.363 348.161L317.972 322.816C318.265 322.591 318.503 322.304 318.666 321.976C318.829 321.649 318.913 321.29 318.913 320.926ZM368.037 394.214V434.355L286.23 454.739L234.977 387.315L281.104 351.472L368.037 394.214ZM313.961 301.674L231.547 287.058V218.767L313.961 269.696V301.674ZM313.961 263.953L202.789 195.325C206.987 180.002 214.128 165.59 223.835 152.848C245.45 125.084 275.756 112.959 313.899 116.728L313.961 263.953Z" fill="white"/>
<path d="M417.445 271.358H410.03L391.311 316.881H353.874L373.633 272.369H344.515V228.88H388.192L417.445 173.653V271.358Z" fill="#C4C4C4"/>
<path d="M209.412 95.116H172.272V125.216H209.412V95.116Z" fill="#C4C4C4"/>
<path d="M242.343 95.116H215.602V116.788H242.343V95.116Z" fill="#C4C4C4"/>
<path d="M213.968 190.978L305.889 248.71V127.624C305.889 127.624 240.139 121.46 213.968 190.978Z" fill="#C4C4C4"/>
<path d="M267.598 95.116H250.266V109.167H267.598V95.116Z" fill="#C4C4C4"/>
<path d="M299.786 378.056L266.36 400.932L284.93 434.644L351.782 431.032L355.496 399.728L329.498 388.892L318.356 405.748L307.214 399.728L317.118 381.668L299.786 378.056Z" fill="#C4C4C4"/>
<path d="M192.674 310.138V375.178L162.69 390.012V308.766L192.674 310.138Z" fill="#C4C4C4"/>
<path d="M242.59 350.508V312.426L200.994 310.524V371.073L242.59 350.508Z" fill="#C4C4C4"/>
<path d="M248.83 312.715V347.426L273.788 335.085V313.847L248.83 312.715Z" fill="#C4C4C4"/>
<path d="M433.651 187.09V140.531H429.318V80.9208C429.315 71.1761 425.333 61.8315 418.248 54.9409C411.163 48.0504 401.554 44.1779 391.534 44.1747H188.601C178.581 44.1779 168.973 48.0504 161.888 54.9409C154.803 61.8315 150.821 71.1761 150.817 80.9208V481.937C150.817 491.683 154.798 501.029 161.884 507.921C168.97 514.812 178.58 518.683 188.601 518.683H391.534C401.555 518.683 411.165 514.812 418.251 507.921C425.337 501.029 429.318 491.683 429.318 481.937V226.773H433.651V199.262H429.318V187.09H433.651ZM417.396 455.69C417.396 465.427 413.422 474.766 406.347 481.656C399.272 488.546 389.674 492.423 379.662 492.436H200.474C190.453 492.436 180.842 488.565 173.756 481.673C166.671 474.782 162.69 465.436 162.69 455.69V89.3127C162.693 79.5691 166.675 70.2257 173.761 63.3371C180.846 56.4485 190.455 52.5787 200.474 52.5787H275.397L275.472 52.8435C277.688 60.5973 282.788 65.6421 288.446 65.6421H291.689C297.347 65.6421 302.448 60.5973 304.664 52.8435L304.75 52.5787H379.662C389.672 52.5914 399.268 56.4669 406.342 63.3541C413.417 70.2413 417.393 79.5775 417.396 89.3127V455.69Z" fill="#707070" stroke="#263238" stroke-linejoin="round"/>
<path d="M387.164 49.2436H192.971C188.01 49.2436 183.097 50.1941 178.514 52.0409C173.931 53.8878 169.766 56.5946 166.259 60.007C162.751 63.4193 159.969 67.4703 158.072 71.9284C156.174 76.3866 155.198 81.1647 155.2 85.9897V476.88C155.2 486.624 159.179 495.969 166.262 502.859C173.345 509.75 182.953 513.623 192.971 513.626H387.164C397.183 513.623 406.79 509.75 413.873 502.859C420.956 495.969 424.935 486.624 424.935 476.88V85.9897C424.937 81.1647 423.961 76.3866 422.064 71.9284C420.166 67.4703 417.384 63.4193 413.877 60.007C410.369 56.5946 406.205 53.8878 401.621 52.0409C397.038 50.1941 392.125 49.2436 387.164 49.2436ZM417.396 455.69C417.396 465.427 413.422 474.766 406.347 481.656C399.272 488.546 389.674 492.423 379.662 492.436H200.474C190.453 492.436 180.842 488.565 173.756 481.673C166.671 474.782 162.69 465.436 162.69 455.69V89.3127C162.693 79.5691 166.675 70.2257 173.761 63.3371C180.846 56.4485 190.455 52.5787 200.474 52.5787H275.397L275.472 52.8435C277.688 60.5973 282.788 65.6421 288.446 65.6421H291.689C297.347 65.6421 302.448 60.5973 304.664 52.8435L304.75 52.5787H379.662C389.672 52.5914 399.268 56.4668 406.342 63.3541C413.417 70.2413 417.393 79.5775 417.396 89.3127V455.69Z" fill="#263238" stroke="#263238" stroke-linejoin="round"/>
<path d="M289.288 57.7799C291.243 57.7799 292.828 56.2382 292.828 54.3365C292.828 52.4347 291.243 50.8931 289.288 50.8931C287.332 50.8931 285.747 52.4347 285.747 54.3365C285.747 56.2382 287.332 57.7799 289.288 57.7799Z" fill="white"/>
<path d="M185.333 67.5564C185.333 71.048 181.309 72.3002 181.284 74.9731V75.1537H185.197V76.3577H179.972V75.3704C179.972 71.6259 184.008 70.9035 184.008 67.6407C184.008 66.4367 183.6 65.8227 182.609 65.8227C181.619 65.8227 181.223 66.5089 181.223 67.5323V68.5557H179.985V67.6166C179.985 65.8467 180.826 64.6668 182.659 64.6668C184.491 64.6668 185.333 65.7865 185.333 67.5564Z" fill="#263238"/>
<path d="M191.845 67.5444V67.8454C191.913 68.3447 191.809 68.8521 191.549 69.2879C191.29 69.7236 190.888 70.0632 190.409 70.2534C190.885 70.4485 191.282 70.7891 191.541 71.2236C191.8 71.6581 191.907 72.1628 191.845 72.6614V73.5523C191.845 75.3222 191.003 76.4781 189.158 76.4781C187.314 76.4781 186.497 75.2741 186.497 73.5523V72.7216H187.735V73.6005C187.735 74.6359 188.18 75.262 189.134 75.262C190.087 75.262 190.52 74.648 190.52 73.4801V72.5891C190.52 71.4453 190.025 70.9035 189.022 70.8674H188.366V69.6634H189.146C189.352 69.6656 189.556 69.6243 189.744 69.5423C189.932 69.4603 190.1 69.3395 190.235 69.1884C190.37 69.0373 190.47 68.8594 190.528 68.667C190.586 68.4747 190.6 68.2724 190.57 68.0741V67.5444C190.57 66.3404 190.149 65.7384 189.183 65.7384C188.217 65.7384 187.784 66.3885 187.784 67.424V68.026H186.546V67.5444C186.546 65.7745 187.388 64.6307 189.208 64.6307C191.028 64.6307 191.845 65.7745 191.845 67.5444Z" fill="#263238"/>
<path d="M194.42 68.4233V70.0246H193.182V68.4233H194.42ZM194.42 74.7202V76.3215H193.182V74.7202H194.42Z" fill="#263238"/>
<path d="M197.106 69.4588C197.28 69.1547 197.538 68.9042 197.851 68.7361C198.164 68.5679 198.52 68.4887 198.877 68.5076C200.412 68.5076 201.08 69.5912 201.08 71.2527V73.5162C201.08 75.2861 200.214 76.442 198.394 76.442C196.574 76.442 195.732 75.238 195.732 73.5162V72.7336H196.97V73.6005C196.97 74.636 197.416 75.262 198.369 75.262C199.322 75.262 199.756 74.636 199.756 73.6005V71.349C199.756 70.3016 199.322 69.6755 198.369 69.6755C198.197 69.6604 198.024 69.6803 197.861 69.734C197.698 69.7878 197.548 69.874 197.421 69.9874C197.294 70.1007 197.192 70.2386 197.123 70.3923C197.054 70.5459 197.019 70.7118 197.02 70.8795V71.1444H195.782L196.104 64.715H200.746V65.919H197.243L197.106 69.4588Z" fill="#263238"/>
<path d="M207.703 67.5203V67.737H206.465V67.424C206.465 66.3765 206.02 65.7625 205.054 65.7625C204.088 65.7625 203.606 66.3885 203.606 67.6287V70.2293C203.749 69.8541 204.013 69.534 204.359 69.317C204.705 69.1 205.114 68.9976 205.525 69.0253C207.06 69.0253 207.741 70.0969 207.741 71.7704V73.5283C207.741 75.2981 206.837 76.454 205.017 76.454C203.197 76.454 202.281 75.25 202.281 73.5283V67.6046C202.281 65.7745 203.123 64.6307 205.017 64.6307C206.911 64.6307 207.703 65.7504 207.703 67.5203ZM203.606 71.8547V73.6005C203.606 74.6359 204.051 75.262 205.017 75.262C205.983 75.262 206.428 74.6359 206.428 73.6005V71.8547C206.428 70.8193 205.97 70.1932 205.017 70.1932C204.064 70.1932 203.606 70.8193 203.606 71.8547Z" fill="#263238"/>
<path d="M337.669 68.038H334.301V76.2132H337.669V68.038Z" fill="#263238"/>
<path d="M342.15 66.4006H338.783V76.2132H342.15V66.4006Z" fill="#263238"/>
<path d="M346.632 65.2327H343.265V76.2011H346.632V65.2327Z" fill="#263238"/>
<path d="M351.101 63.21H347.746V76.2011H351.101V63.21Z" fill="#263238"/>
<path d="M392.698 75.9844H372.531V63.9444H392.698V75.9844ZM373.657 74.8888H391.584V65.0882H373.657V74.8888Z" fill="#263238"/>
<path d="M385.975 66.2681H375.329V73.7089H385.975V66.2681Z" fill="#263238"/>
<path d="M394.53 68.5798H391.992V71.4092H394.53V68.5798Z" fill="#263238"/>
<path d="M365.14 73.3718C365.005 73.3774 364.871 73.3438 364.756 73.2754C360.646 70.8674 357.935 73.1069 357.823 73.1912C357.672 73.3188 357.475 73.3828 357.276 73.3693C357.076 73.3557 356.89 73.2657 356.759 73.1189C356.694 73.0472 356.645 72.9637 356.613 72.8733C356.582 72.7828 356.57 72.6873 356.577 72.5922C356.583 72.497 356.61 72.4042 356.654 72.3189C356.698 72.2337 356.759 72.1577 356.833 72.0955C356.969 71.9631 360.448 69.0735 365.499 72.0112C365.585 72.0608 365.659 72.1263 365.719 72.2041C365.778 72.2818 365.821 72.3703 365.845 72.4643C365.87 72.5583 365.874 72.656 365.86 72.7518C365.845 72.8477 365.811 72.9397 365.759 73.0226C365.694 73.1268 365.604 73.2134 365.496 73.2744C365.387 73.3355 365.265 73.369 365.14 73.3718Z" fill="#263238"/>
<path d="M366.638 70.9156C366.502 70.9136 366.37 70.8762 366.254 70.8072C360.324 67.3758 356.35 70.6989 356.288 70.735C356.136 70.8544 355.942 70.9118 355.747 70.8951C355.553 70.8784 355.372 70.7889 355.244 70.6454C355.116 70.5019 355.05 70.3157 355.06 70.1258C355.07 69.9359 355.155 69.7573 355.298 69.6273C355.298 69.6273 360.163 65.5819 367.022 69.5551C367.193 69.6531 367.318 69.8131 367.369 70.0002C367.42 70.1874 367.393 70.3865 367.294 70.5544C367.225 70.6636 367.128 70.7541 367.014 70.8172C366.899 70.8804 366.77 70.9142 366.638 70.9156Z" fill="#263238"/>
<path d="M368.037 68.0621C367.901 68.0634 367.767 68.0257 367.653 67.9538C360.126 63.6073 355.137 67.7009 354.926 67.8815C354.775 68.0091 354.578 68.0732 354.379 68.0596C354.179 68.0461 353.993 67.956 353.862 67.8093C353.797 67.7375 353.748 67.654 353.716 67.5636C353.685 67.4732 353.673 67.3777 353.68 67.2825C353.686 67.1874 353.713 67.0945 353.757 67.0093C353.801 66.924 353.862 66.8481 353.936 66.7859C353.998 66.7859 359.928 61.7893 368.421 66.7016C368.506 66.75 368.58 66.8144 368.64 66.8911C368.699 66.9678 368.742 67.0552 368.766 67.1482C368.79 67.2413 368.795 67.338 368.781 67.4329C368.766 67.5278 368.732 67.6189 368.681 67.7009C368.614 67.81 368.52 67.9006 368.408 67.9639C368.295 68.0272 368.167 68.061 368.037 68.0621Z" fill="#263238"/>
<path d="M360.98 76.442C362.026 76.442 362.874 75.6172 362.874 74.5998C362.874 73.5825 362.026 72.7577 360.98 72.7577C359.934 72.7577 359.086 73.5825 359.086 74.5998C359.086 75.6172 359.934 76.442 360.98 76.442Z" fill="#263238"/>
<path d="M402.924 541.198C402.861 542.083 402.72 542.961 402.503 543.823C401.488 547.435 395.706 546.134 392.314 547.435C388.922 548.735 384.502 550.409 381.444 551.396C378.387 552.383 368.891 553.057 364.112 552.058C360.968 551.408 359.458 549.746 359.396 548.025C359.375 547.078 359.729 546.159 360.386 545.46C362.416 543.148 370.216 540.175 374.635 536.876C379.055 533.577 384.824 525.642 384.824 525.642C391.274 527.304 402.156 525.979 402.156 525.979C402.156 525.979 402.825 529.591 402.825 530.603C403.062 534.13 403.095 537.667 402.924 541.198Z" fill="white" stroke="#263238" stroke-linecap="round" stroke-linejoin="round"/>
<path d="M402.924 541.198C402.861 542.083 402.72 542.961 402.503 543.823C401.488 547.435 395.706 546.134 392.314 547.435C388.922 548.735 384.502 550.409 381.445 551.396C378.387 552.383 368.891 553.057 364.113 552.058C360.968 551.408 359.458 549.746 359.396 548.025C361.129 549.229 365.351 551.408 373.373 550.722C384.515 549.795 388.315 546.038 392.908 544.172C396.167 542.942 399.515 541.948 402.924 541.198Z" fill="white" stroke="#263238" stroke-linecap="round" stroke-linejoin="round"/>
<path d="M402.453 527.641C402.305 526.726 402.169 525.992 402.169 525.992C398.754 526.373 395.317 526.533 391.881 526.473L391.633 526.654C391.633 526.654 392.314 526.317 392.661 528.965C392.855 530.718 392.855 532.486 392.661 534.239C392.661 534.239 400.386 532.457 401.488 529.953C401.81 529.218 402.144 528.412 402.453 527.641Z" fill="white" stroke="#263238" stroke-linecap="round" stroke-linejoin="round"/>
<path d="M440.918 554.924C437.798 556.85 422.496 565.17 419.872 565.651C417.247 566.133 407.492 565.483 404.731 563.243C402.565 561.509 401.983 559.186 403.382 557.223C403.835 556.611 404.407 556.092 405.065 555.694C408.359 553.611 414.115 547.688 416.752 544.328C419.389 540.969 423.499 535.046 423.499 535.046L423.821 533.288L440.608 533.769C440.608 533.769 440.93 537.285 441.091 537.935C441.704 540.192 442.147 542.49 442.416 544.81C442.614 546.17 442.837 547.447 442.973 548.615C443.233 551.432 443.072 553.575 440.918 554.924Z" fill="white" stroke="#263238" stroke-linecap="round" stroke-linejoin="round"/>
<path d="M440.918 554.924C437.798 556.85 422.496 565.17 419.872 565.651C417.247 566.133 407.492 565.483 404.731 563.243C402.565 561.509 401.983 559.186 403.382 557.223C403.592 558.343 405.177 564.014 415.403 563.604C426.73 563.135 435.644 553.286 440.707 549.999C441.512 549.469 442.267 549.012 442.973 548.615C443.233 551.432 443.072 553.575 440.918 554.924Z" fill="white" stroke="#263238" stroke-linecap="round" stroke-linejoin="round"/>
<path d="M440.547 533.805L423.759 533.324L423.437 535.082L422.645 536.201C423.066 536.201 428.105 535.937 429.516 537.165C430.927 538.393 431.162 542.607 434.617 541.487C436.966 540.656 439.133 539.402 441.005 537.791C440.831 536.852 440.547 533.805 440.547 533.805Z" fill="white" stroke="#263238" stroke-linecap="round" stroke-linejoin="round"/>
<path d="M372.283 374.095C372.283 374.095 370.922 408.77 373.645 429.9C376.369 451.03 377.037 466.225 377.359 467.224C377.681 468.224 384.143 510.147 384.478 512.796C384.812 515.444 385.839 518.406 385.839 519.394C385.839 520.381 386.855 520.718 391.955 522.042C395.347 522.768 398.881 522.539 402.144 521.38C402.144 521.38 404.521 498.601 404.521 492.653C404.521 486.705 401.463 459.627 401.463 458.64C401.463 457.652 403.493 412.418 403.493 412.418L405.189 413.731C405.189 413.731 407.566 452.367 408.594 459.627C409.621 466.887 409.943 473.497 411.305 477.133C412.667 480.769 415.725 503.874 417.074 507.233C418.424 510.592 419.451 523.078 419.451 523.078L420.466 527.039C420.466 527.039 421.828 530.651 430.37 530.651C438.912 530.651 440.559 528.664 440.559 528.664C440.559 528.664 440.893 511.17 440.893 502.911C440.893 494.651 436.474 470.222 435.805 464.612C435.137 459.001 434.097 436.209 435.458 431.586C436.82 426.962 439.172 399.897 439.172 388.338C439.286 382.936 439.058 377.532 438.492 372.156C438.492 372.156 406.242 374.131 395.372 372.481C384.502 370.832 374.326 368.52 374.326 368.52L372.283 374.095Z" fill="#263238" stroke="#263238" stroke-linecap="round" stroke-linejoin="round"/>
<path d="M382.138 372.782C382.138 372.782 396.734 377.069 420.157 375.094L420.491 369.146L383.153 356.926L382.138 372.782Z" fill="#808080" stroke="#263238" stroke-linecap="round" stroke-linejoin="round"/>
<path d="M401.93 371.707L392.293 371.357L392.151 375.051L401.788 375.401L401.93 371.707Z" fill="white" stroke="#263238" stroke-linecap="round" stroke-linejoin="round"/>
<path d="M423.215 275.367C423.215 275.367 411.33 274.054 405.561 275.704C399.792 277.353 392.661 279.316 390.618 284.614C388.575 289.911 378.572 368.328 378.572 368.328C378.572 368.328 389.603 371.795 399.445 371.795C409.287 371.795 419.822 371.133 419.822 371.133C419.822 371.133 420.838 328.861 423.215 321.275C425.592 313.69 423.215 275.367 423.215 275.367Z" fill="#005792" stroke="#263238" stroke-linecap="round" stroke-linejoin="round"/>
<path d="M396.251 280.773C396.251 280.773 396.672 288.972 399.136 290.971C401.599 292.969 401.81 293.583 401.81 293.583L403.246 309.235C403.246 309.235 408.606 299.796 409.225 298.592C409.827 296.43 410.241 294.223 410.463 291.994C412.256 290.684 413.975 289.281 415.613 287.792C417.458 285.986 418.906 273.982 418.906 272.574C418.906 271.165 418.498 263.568 418.498 263.568C418.498 263.568 414.165 272.971 409.436 277.173C404.707 281.375 400.175 281.784 399.148 281.579C398.12 281.375 396.251 280.773 396.251 280.773Z" fill="white" stroke="#263238" stroke-linecap="round" stroke-linejoin="round"/>
<path d="M396.053 278.365C396.053 278.365 395.632 307.393 395.632 319.192C395.632 330.992 391.918 345.813 388.018 355.818C384.119 365.823 375.638 392.745 373.001 398.957C371.274 403.061 369.831 407.273 368.681 411.563C368.681 411.563 364.769 408.553 364.558 398.753C364.348 388.952 366.824 377.538 367.232 370.531C367.641 363.524 367.851 348.859 367.851 348.859C367.851 348.859 367.851 352.254 362.503 354.879C357.155 357.504 353.837 358.684 350.358 352.278C346.879 345.873 347.276 342.068 350.569 336.265C353.862 330.462 356.944 315.448 359.618 308.645C362.293 301.843 362.094 292.235 364.979 290.236C367.864 288.238 381.643 282.832 387.201 279.629C392.76 276.426 395.025 276.426 395.025 276.426C395.025 276.426 395.842 275.969 396.053 278.365Z" fill="white" stroke="#263238" stroke-linecap="round" stroke-linejoin="round"/>
<path d="M356.548 333.4C356.548 333.4 352.426 341.683 353.602 344.537C354.778 347.39 358.554 350.557 363.011 347.968C367.467 345.379 368.879 345.115 367.405 339.685C365.932 334.254 360.361 330.257 356.548 333.4Z" stroke="#263238" stroke-linecap="round" stroke-linejoin="round"/>
<path d="M370.142 305.431C370.005 302.637 369.919 300.783 369.919 300.783L370.142 305.431Z" fill="white"/>
<path d="M370.142 305.431C370.005 302.637 369.919 300.783 369.919 300.783" stroke="#263238" stroke-linecap="round" stroke-linejoin="round"/>
<path d="M367.876 348.823C367.876 348.823 370.761 333.604 370.761 324.996C370.761 320.288 370.513 313.473 370.29 308.272" fill="white"/>
<path d="M367.876 348.823C367.876 348.823 370.761 333.604 370.761 324.996C370.761 320.288 370.513 313.473 370.29 308.272" stroke="#263238" stroke-linecap="round" stroke-linejoin="round"/>
<path d="M395.025 276.366C395.025 276.366 393.23 276.366 388.947 278.606C387.994 283.879 386.161 296.148 387.399 307.393C388.464 316.905 391.98 326.814 394.369 332.677C395.149 328.213 395.563 323.696 395.607 319.168C395.607 307.369 396.028 278.341 396.028 278.341C395.842 275.969 395.025 276.366 395.025 276.366Z" fill="white" stroke="#263238" stroke-linecap="round" stroke-linejoin="round"/>
<path d="M382.732 250.492C382.732 250.492 384.428 261.063 386.137 265.626C387.845 270.19 391.893 275.15 393.565 278.268C395.236 281.387 398.888 284.686 402.936 284.686C406.985 284.686 412.518 279.304 413.583 277.462C414.648 275.62 417.631 272.273 417.854 270.238C418.077 268.203 418.065 264.856 418.065 264.856C419.366 264.437 420.521 263.671 421.396 262.645C422.272 261.619 422.833 260.374 423.017 259.053C423.608 256.56 423.383 253.95 422.373 251.588C421.38 249.275 420.165 247.058 418.746 244.966C415.762 240.15 405.969 237.501 396.585 238.946C387.201 240.391 382.522 244.28 382.732 250.492Z" fill="white" stroke="#263238" stroke-linecap="round" stroke-linejoin="round"/>
<path d="M382.992 258.86C387.063 258.102 391.249 258.155 395.298 259.017C395.298 259.017 396.362 262.749 394.06 265.229C391.757 267.709 387.449 266.891 386.174 266.433C384.899 265.976 382.918 263.857 382.992 258.86Z" fill="white" stroke="#263238" stroke-linecap="round" stroke-linejoin="round"/>
<path d="M399.556 258.679C403.64 257.863 407.852 257.863 411.936 258.679C411.936 258.679 413.05 262.388 410.698 264.916C408.346 267.445 404.112 266.662 402.837 266.265C401.562 265.867 399.556 263.676 399.556 258.679Z" fill="white" stroke="#263238" stroke-linecap="round" stroke-linejoin="round"/>
<path d="M395.298 258.992C396.627 258.374 398.146 258.262 399.556 258.679" stroke="#263238" stroke-linecap="round" stroke-linejoin="round"/>
<path d="M411.875 258.655L417.668 254.851" stroke="#263238" stroke-linecap="round" stroke-linejoin="round"/>
<path d="M395.632 260.714C395.632 260.714 397.922 259.847 399.346 260.714" stroke="#263238" stroke-linecap="round" stroke-linejoin="round"/>
<path d="M400.72 257.259C403.173 256.264 405.876 256.004 408.482 256.512" stroke="#263238" stroke-linecap="round" stroke-linejoin="round"/>
<path d="M393.973 257.873C391.885 256.728 389.421 256.417 387.102 257.006" stroke="#263238" stroke-linecap="round" stroke-linejoin="round"/>
<path d="M395.632 262.821C395.632 262.821 395.372 271.863 395.496 272.236C396.219 272.924 397.163 273.349 398.17 273.44C399.291 273.316 400.4 273.107 401.488 272.814" stroke="#263238" stroke-linecap="round" stroke-linejoin="round"/>
<path d="M396.647 275.716C396.647 275.716 399.197 277.823 403.902 275.957" stroke="#263238" stroke-linecap="round" stroke-linejoin="round"/>
<path d="M378.894 240.547C378.894 240.547 371.862 242.618 373.137 246.977C374.412 251.335 382.521 252.78 390.618 250.697C396.411 249.089 402.056 247.01 407.492 244.484C406.961 245.12 406.708 245.934 406.79 246.75C406.871 247.566 407.279 248.317 407.925 248.843C410.265 250.914 410.054 244.484 410.054 244.484C410.054 244.484 409.844 251.949 412.828 252.984C415.811 254.02 416.022 254.634 416.022 254.634C416.022 254.634 414.957 258.788 416.232 259.197C417.507 259.606 417.718 254.851 417.718 254.851C417.718 254.851 418.151 252.358 420.28 251.949L422.41 251.528C422.41 251.528 421.989 237.646 420.701 232.468C419.414 227.291 406.427 221.271 395.137 225.244C383.846 229.218 378.461 234.539 378.894 240.547Z" fill="#263238" stroke="#263238" stroke-linecap="round" stroke-linejoin="round"/>
<path d="M354.481 339.01L359.433 331.401L363.543 337.806C361.689 338.861 359.766 339.799 357.786 340.612C356.625 340.202 355.516 339.665 354.481 339.01Z" fill="white" stroke="#263238" stroke-linecap="round" stroke-linejoin="round"/>
<path d="M364.558 343.008C365.76 343.508 367.002 343.91 368.272 344.212C369.506 344.141 370.711 343.819 371.809 343.268C372.907 342.716 373.874 341.947 374.648 341.009C375.886 339.01 373.818 338.806 373.818 338.806L371.342 341.009L367.22 340.816L364.558 343.008Z" fill="white" stroke="#263238" stroke-linecap="round" stroke-linejoin="round"/>
<path d="M351.807 322.997L363.741 340.612L373.819 340.816L363.122 322.997H351.807Z" fill="#263238" stroke="#263238" stroke-linecap="round" stroke-linejoin="round"/>
<path d="M364.162 334.411C364.162 334.411 354.493 337.614 354.493 339.01C354.58 339.724 354.952 340.377 355.529 340.827C356.105 341.277 356.84 341.49 357.576 341.418C359.222 341.418 365.598 337.409 366.242 336.205C366.886 335.001 366.205 334.206 364.162 334.411Z" fill="white" stroke="#263238" stroke-linecap="round" stroke-linejoin="round"/>
<path d="M358.591 341.611C358.739 342.161 359.023 342.668 359.418 343.087C359.812 343.507 360.306 343.827 360.856 344.019C362.713 344.609 368.284 340.816 369.3 339.408C370.315 337.999 367.232 338.408 364.979 339.215C362.726 340.022 358.591 341.611 358.591 341.611Z" fill="white" stroke="#263238" stroke-linecap="round" stroke-linejoin="round"/>
<path d="M354.679 327.608C354.422 327.805 354.207 328.048 354.047 328.325C353.888 328.603 353.786 328.908 353.748 329.223C353.71 329.539 353.736 329.859 353.826 330.164C353.916 330.47 354.067 330.755 354.27 331.004C355.719 333.002 359.222 333.412 359.222 333.412L354.679 327.608Z" fill="white" stroke="#263238" stroke-linecap="round" stroke-linejoin="round"/>
<path d="M418.894 272.562C418.894 272.562 410.872 324.803 408.99 329.402C407.108 334.002 412.493 369.327 412.493 374.131C412.493 378.935 417.223 379.742 419.067 380.741C420.912 381.74 435.953 388.747 438.207 392.347C440.46 395.947 446.241 403.557 446.241 403.557C446.241 403.557 442.787 369.58 442.329 351.219C442.144 343.814 442.738 332.81 442.738 332.81C442.738 332.81 451.404 289.177 450.562 285.974C449.72 282.771 435.953 277.546 429.974 275.572C426.347 274.351 422.646 273.346 418.894 272.562Z" fill="white" stroke="#263238" stroke-linecap="round" stroke-linejoin="round"/>
<path d="M428.971 279.328C429.182 277.967 429.38 276.511 429.529 275.379C426.043 274.228 422.493 273.276 418.894 272.525C418.894 272.525 410.872 324.767 408.99 329.366C408.629 330.692 408.503 332.069 408.619 333.436C409.708 331.943 414.313 325.538 418.461 318.362C423.215 310.187 428.538 282.169 428.971 279.328Z" fill="white" stroke="#263238" stroke-linecap="round" stroke-linejoin="round"/>
<path d="M413.546 377.743C417.433 378.926 421.43 379.733 425.48 380.151C432.685 380.946 449.72 387.556 455.786 394.804C457.745 396.962 459.471 399.31 460.937 401.811C460.937 401.811 452.431 403.015 450.785 403.171C449.138 403.328 445.437 403.569 445.437 403.569C445.437 403.569 438.851 394.358 435.533 391.758C432.215 389.157 414.772 380.741 413.546 377.743Z" fill="white" stroke="#263238" stroke-linecap="round" stroke-linejoin="round"/>
<path d="M383.153 519.141V524.848C383.155 525.317 383.297 525.775 383.563 526.167C383.83 526.558 384.208 526.866 384.651 527.051C387.231 528.004 389.92 528.647 392.661 528.965C396.044 529.504 399.516 528.972 402.565 527.448C402.942 527.236 403.256 526.931 403.473 526.563C403.691 526.195 403.804 525.778 403.803 525.353V520.128C403.805 519.835 403.741 519.546 403.616 519.279C403.491 519.013 403.308 518.776 403.079 518.586C402.851 518.396 402.582 518.256 402.292 518.177C402.002 518.098 401.698 518.082 401.401 518.129C397.687 518.719 390.383 519.514 384.948 517.768C384.734 517.712 384.509 517.705 384.292 517.748C384.074 517.791 383.87 517.883 383.696 518.016C383.522 518.15 383.382 518.321 383.288 518.516C383.193 518.711 383.147 518.925 383.153 519.141Z" fill="#808080" stroke="#263238" stroke-linecap="round" stroke-linejoin="round"/>
<path d="M418.634 525.209V531.65C418.633 532.18 418.794 532.699 419.096 533.14C419.398 533.582 419.827 533.926 420.33 534.131C423.241 535.203 426.276 535.926 429.367 536.286C433.194 536.908 437.125 536.308 440.571 534.576C441.015 534.342 441.384 533.993 441.637 533.568C441.89 533.143 442.019 532.659 442.007 532.168V526.317C442.008 525.987 441.935 525.661 441.794 525.362C441.652 525.063 441.445 524.798 441.187 524.584C440.928 524.371 440.625 524.215 440.299 524.128C439.972 524.04 439.63 524.023 439.296 524.077C435.099 524.739 426.916 525.63 420.726 523.656C420.48 523.583 420.22 523.568 419.967 523.613C419.714 523.657 419.475 523.76 419.271 523.911C419.067 524.063 418.902 524.26 418.792 524.485C418.681 524.711 418.627 524.959 418.634 525.209Z" fill="#808080" stroke="#263238" stroke-linecap="round" stroke-linejoin="round"/>
<path d="M432.5 383.221L425.802 389.217L435.718 398.596L439.457 392.6L432.5 383.221Z" fill="white" stroke="#263238" stroke-linecap="round" stroke-linejoin="round"/>
<path d="M441.735 310.993C441.735 310.993 440.299 322.804 440.906 327.006C441.512 331.208 451.193 354.578 451.193 354.578L430.618 383.546C430.618 383.546 433.094 393.744 440.089 396.947C440.089 396.947 460.318 377.791 464.168 373.734C472.413 365.041 475.57 357.492 475.57 354.289C475.57 351.086 455.316 292.777 454.907 291.368C454.499 289.959 452.431 284.565 447.294 283.157" fill="white"/>
<path d="M441.735 310.993C441.735 310.993 440.299 322.804 440.906 327.006C441.512 331.208 451.193 354.578 451.193 354.578L430.618 383.546C430.618 383.546 433.094 393.744 440.089 396.947C440.089 396.947 460.318 377.791 464.168 373.734C472.413 365.041 475.57 357.492 475.57 354.289C475.57 351.086 455.316 292.777 454.907 291.368C454.499 289.959 452.431 284.565 447.294 283.157" stroke="#263238" stroke-linecap="round" stroke-linejoin="round"/>
<path d="M453.174 354.53C453.174 354.53 459.042 351.11 465.208 353.386" stroke="#263238" stroke-linecap="round" stroke-linejoin="round"/>
<path d="M460.218 350.822C462.764 350.378 465.387 350.89 467.56 352.254" stroke="#263238" stroke-linecap="round" stroke-linejoin="round"/>
<path d="M390.729 99.2216C396.286 99.2221 401.772 100.429 406.788 102.753C411.804 105.078 416.223 108.462 419.723 112.658H489.126C494.217 112.783 499.056 114.838 502.612 118.384C506.167 121.93 508.157 126.686 508.157 131.639C508.157 136.592 506.167 141.349 502.612 144.895C499.056 148.441 494.217 150.496 489.126 150.62H424.75C422.012 156.457 417.742 161.49 412.37 165.213L391.584 180.865C391.505 180.921 391.409 180.951 391.311 180.949C391.221 180.95 391.134 180.92 391.064 180.865L368.247 164.743C363.568 161.374 359.78 156.97 357.197 151.895C354.614 146.82 353.309 141.22 353.391 135.558C353.404 125.929 357.342 116.698 364.34 109.887C371.339 103.076 380.829 99.2408 390.729 99.2216Z" fill="#263238"/>
<path d="M490.066 146.888H400.064V109.769L490.066 109.769C495.126 109.769 499.979 111.723 503.556 115.203C507.134 118.682 509.144 123.402 509.144 128.322C509.146 130.76 508.653 133.174 507.695 135.426C506.737 137.679 505.332 139.725 503.561 141.45C501.789 143.174 499.685 144.541 497.37 145.475C495.055 146.408 492.573 146.888 490.066 146.888Z" fill="white" stroke="#263238" stroke-linecap="round" stroke-linejoin="round"/>
<path d="M369.436 161.083L392.24 177.217L413.026 161.565C418.194 157.997 422.332 153.197 425.042 147.625C427.751 142.053 428.941 135.896 428.497 129.747C428.052 123.599 425.989 117.665 422.505 112.516C419.021 107.367 414.233 103.176 408.603 100.347C402.972 97.5178 396.687 96.1449 390.353 96.3605C384.019 96.5761 377.849 98.3729 372.435 101.578C367.022 104.783 362.547 109.289 359.442 114.663C356.337 120.036 354.705 126.096 354.704 132.259C354.627 137.857 355.924 143.391 358.486 148.404C361.048 153.417 364.802 157.763 369.436 161.083Z" fill="white" stroke="#263238" stroke-linecap="round" stroke-linejoin="round"/>
<path d="M423.908 132.44C423.91 138.691 422.007 144.802 418.438 150.001C414.869 155.2 409.795 159.252 403.858 161.647C397.921 164.041 391.387 164.669 385.083 163.452C378.778 162.235 372.987 159.227 368.44 154.809C363.893 150.39 360.796 144.76 359.54 138.63C358.283 132.499 358.924 126.144 361.382 120.368C363.839 114.592 368.003 109.655 373.345 106.18C378.688 102.705 384.971 100.849 391.398 100.847C395.669 100.833 399.901 101.64 403.851 103.222C407.8 104.805 411.389 107.131 414.41 110.067C417.431 113.003 419.826 116.492 421.456 120.331C423.086 124.171 423.919 128.286 423.908 132.44Z" fill="#FB9300" stroke="#263238" stroke-linejoin="round"/>
<path d="M229.517 162.046C223.96 162.047 218.472 163.254 213.456 165.581C208.44 167.908 204.021 171.295 200.523 175.495H131.121C128.517 175.431 125.926 175.875 123.5 176.8C121.075 177.725 118.865 179.113 116.999 180.882C115.134 182.651 113.652 184.765 112.64 187.1C111.628 189.434 111.106 191.942 111.106 194.476C111.106 197.01 111.628 199.518 112.64 201.852C113.652 204.187 115.134 206.301 116.999 208.07C118.865 209.839 121.075 211.227 123.5 212.152C125.926 213.077 128.517 213.521 131.121 213.457H195.497C198.232 219.296 202.502 224.33 207.877 228.05L228.663 243.702C228.736 243.761 228.828 243.795 228.923 243.798C229.016 243.796 229.107 243.766 229.183 243.714L252.012 227.556C256.69 224.188 260.476 219.786 263.06 214.713C265.643 209.64 266.948 204.043 266.868 198.383C266.855 188.752 262.916 179.519 255.914 172.707C248.913 165.896 239.42 162.062 229.517 162.046Z" fill="#263238"/>
<path d="M129.14 209.821H219.143V172.702H129.14C124.078 172.705 119.225 174.662 115.645 178.143C112.066 181.624 110.054 186.344 110.05 191.267C110.054 196.189 112.066 200.908 115.646 204.388C119.226 207.867 124.079 209.821 129.14 209.821Z" fill="white" stroke="#263238" stroke-linecap="round" stroke-linejoin="round"/>
<path d="M249.771 224.016L226.955 240.15L206.169 224.498C201 220.931 196.862 216.13 194.153 210.558C191.443 204.986 190.254 198.829 190.698 192.681C191.142 186.532 193.205 180.598 196.69 175.449C200.174 170.3 204.961 166.109 210.592 163.28C216.223 160.451 222.507 159.078 228.841 159.294C235.175 159.509 241.345 161.306 246.759 164.511C252.173 167.717 256.647 172.222 259.753 177.596C262.858 182.969 264.49 189.029 264.491 195.192C264.57 200.789 263.276 206.323 260.716 211.336C258.156 216.349 254.404 220.696 249.771 224.016Z" fill="white" stroke="#263238" stroke-linecap="round" stroke-linejoin="round"/>
<path d="M232.693 226.392C250.413 223.62 262.467 207.402 259.616 190.168C256.765 172.935 240.089 161.212 222.369 163.985C204.649 166.758 192.595 182.976 195.446 200.209C198.297 217.442 214.973 229.165 232.693 226.392Z" fill="#FC92E3" stroke="#263238" stroke-linejoin="round"/>
<path d="M228.415 370.146C222.859 370.146 217.373 371.353 212.357 373.677C207.341 376.002 202.922 379.386 199.421 383.582H130.019C124.928 383.707 120.088 385.762 116.533 389.308C112.977 392.854 110.987 397.611 110.987 402.563C110.987 407.516 112.977 412.273 116.533 415.819C120.088 419.365 124.928 421.42 130.019 421.544H194.395C197.134 427.381 201.403 432.413 206.775 436.137L227.561 451.789C227.64 451.845 227.736 451.875 227.833 451.873C227.924 451.874 228.011 451.844 228.081 451.789L250.897 435.667C255.577 432.298 259.365 427.894 261.948 422.819C264.531 417.744 265.835 412.144 265.753 406.482C265.74 396.853 261.803 387.622 254.804 380.811C247.806 374 238.316 370.165 228.415 370.146Z" fill="#263238"/>
<path d="M128.385 418.294H218.387V381.174H128.385C123.325 381.174 118.473 383.129 114.895 386.609C111.317 390.088 109.307 394.807 109.307 399.728C109.306 402.166 109.798 404.579 110.756 406.832C111.714 409.084 113.119 411.131 114.89 412.855C116.662 414.579 118.766 415.947 121.081 416.88C123.397 417.813 125.878 418.294 128.385 418.294Z" fill="white" stroke="#263238" stroke-linecap="round" stroke-linejoin="round"/>
<path d="M249.028 432.489L226.211 448.622L205.425 432.97C200.257 429.403 196.119 424.603 193.41 419.03C190.7 413.458 189.51 407.302 189.955 401.153C190.399 395.004 192.462 389.07 195.946 383.921C199.43 378.773 204.218 374.582 209.849 371.753C215.479 368.923 221.764 367.551 228.098 367.766C234.432 367.982 240.602 369.779 246.016 372.984C251.429 376.189 255.904 380.695 259.009 386.068C262.115 391.441 263.746 397.501 263.748 403.665C263.825 409.261 262.53 414.795 259.97 419.807C257.41 424.82 253.659 429.167 249.028 432.489Z" fill="white" stroke="#263238" stroke-linecap="round" stroke-linejoin="round"/>
<path d="M194.358 403.412C194.358 409.663 196.264 415.774 199.835 420.971C203.405 426.168 208.481 430.219 214.419 432.611C220.357 435.004 226.891 435.629 233.195 434.41C239.499 433.19 245.29 430.18 249.834 425.76C254.379 421.34 257.474 415.709 258.728 409.578C259.982 403.447 259.339 397.093 256.879 391.318C254.419 385.542 250.254 380.606 244.91 377.134C239.566 373.661 233.283 371.807 226.855 371.807C222.585 371.799 218.356 372.611 214.409 374.197C210.463 375.782 206.877 378.11 203.858 381.046C200.839 383.983 198.445 387.47 196.815 391.308C195.185 395.146 194.35 399.26 194.358 403.412Z" fill="#FB9300" stroke="#263238" stroke-linejoin="round"/>
<path d="M142.272 396.6C142.344 396.6 142.4 396.624 142.44 396.672C142.48 396.712 142.5 396.764 142.5 396.828V404.736C142.5 404.824 142.476 404.892 142.428 404.94C142.38 404.98 142.32 405 142.248 405C142.168 405 142.104 404.968 142.056 404.904L136.656 397.524V404.796C136.656 404.852 136.632 404.9 136.584 404.94C136.544 404.98 136.492 405 136.428 405C136.356 405 136.3 404.98 136.26 404.94C136.22 404.9 136.2 404.852 136.2 404.796V396.84C136.2 396.76 136.22 396.7 136.26 396.66C136.308 396.62 136.36 396.6 136.416 396.6C136.488 396.6 136.548 396.628 136.596 396.684L142.044 404.112V396.828C142.044 396.764 142.064 396.712 142.104 396.672C142.152 396.624 142.208 396.6 142.272 396.6ZM150.187 401.976C150.187 402.568 150.059 403.104 149.803 403.584C149.547 404.056 149.191 404.432 148.735 404.712C148.287 404.984 147.787 405.12 147.235 405.12C146.683 405.12 146.179 404.984 145.723 404.712C145.275 404.432 144.919 404.052 144.655 403.572C144.399 403.092 144.271 402.56 144.271 401.976C144.271 401.384 144.399 400.848 144.655 400.368C144.919 399.888 145.275 399.512 145.723 399.24C146.171 398.96 146.675 398.82 147.235 398.82C147.787 398.82 148.287 398.96 148.735 399.24C149.191 399.512 149.547 399.888 149.803 400.368C150.059 400.848 150.187 401.384 150.187 401.976ZM149.707 401.976C149.707 401.464 149.599 401.004 149.383 400.596C149.175 400.188 148.883 399.868 148.507 399.636C148.131 399.396 147.707 399.276 147.235 399.276C146.771 399.276 146.347 399.396 145.963 399.636C145.587 399.868 145.291 400.188 145.075 400.596C144.859 401.004 144.751 401.464 144.751 401.976C144.751 402.48 144.859 402.936 145.075 403.344C145.291 403.752 145.587 404.076 145.963 404.316C146.347 404.548 146.771 404.664 147.235 404.664C147.707 404.664 148.131 404.548 148.507 404.316C148.883 404.084 149.175 403.764 149.383 403.356C149.599 402.94 149.707 402.48 149.707 401.976ZM152.238 404.76C152.238 404.824 152.214 404.88 152.166 404.928C152.118 404.976 152.062 405 151.998 405C151.926 405 151.866 404.976 151.818 404.928C151.778 404.88 151.758 404.824 151.758 404.76V399.06C151.758 398.996 151.782 398.94 151.83 398.892C151.878 398.844 151.934 398.82 151.998 398.82C152.07 398.82 152.126 398.844 152.166 398.892C152.214 398.94 152.238 398.996 152.238 399.06V404.76ZM151.998 398.004C151.87 398.004 151.766 397.968 151.686 397.896C151.614 397.824 151.578 397.732 151.578 397.62V397.524C151.578 397.412 151.618 397.32 151.698 397.248C151.778 397.176 151.882 397.14 152.01 397.14C152.122 397.14 152.214 397.176 152.286 397.248C152.366 397.32 152.406 397.412 152.406 397.524V397.62C152.406 397.732 152.366 397.824 152.286 397.896C152.214 397.968 152.118 398.004 151.998 398.004ZM159.138 396.12C159.21 396.12 159.266 396.144 159.306 396.192C159.354 396.24 159.378 396.296 159.378 396.36V404.76C159.378 404.824 159.354 404.88 159.306 404.928C159.258 404.976 159.202 405 159.138 405C159.066 405 159.006 404.976 158.958 404.928C158.918 404.88 158.898 404.824 158.898 404.76V403.62C158.706 404.044 158.402 404.4 157.986 404.688C157.57 404.976 157.106 405.12 156.594 405.12C156.074 405.12 155.602 404.984 155.178 404.712C154.754 404.432 154.418 404.052 154.17 403.572C153.93 403.092 153.81 402.556 153.81 401.964C153.81 401.372 153.93 400.836 154.17 400.356C154.418 399.876 154.754 399.5 155.178 399.228C155.602 398.956 156.074 398.82 156.594 398.82C157.09 398.82 157.55 398.96 157.974 399.24C158.398 399.52 158.706 399.884 158.898 400.332V396.36C158.898 396.296 158.918 396.24 158.958 396.192C159.006 396.144 159.066 396.12 159.138 396.12ZM156.618 404.664C157.066 404.664 157.466 404.548 157.818 404.316C158.17 404.084 158.446 403.764 158.646 403.356C158.846 402.94 158.946 402.476 158.946 401.964C158.946 401.452 158.846 400.992 158.646 400.584C158.446 400.176 158.166 399.856 157.806 399.624C157.454 399.392 157.058 399.276 156.618 399.276C156.186 399.276 155.79 399.392 155.43 399.624C155.078 399.856 154.798 400.18 154.59 400.596C154.39 401.004 154.29 401.46 154.29 401.964C154.29 402.476 154.39 402.936 154.59 403.344C154.798 403.752 155.078 404.076 155.43 404.316C155.782 404.548 156.178 404.664 156.618 404.664ZM166.275 399.012C166.347 399.012 166.403 399.036 166.443 399.084C166.491 399.132 166.515 399.188 166.515 399.252V404.76C166.515 404.824 166.491 404.88 166.443 404.928C166.395 404.976 166.339 405 166.275 405C166.203 405 166.143 404.976 166.095 404.928C166.055 404.88 166.035 404.824 166.035 404.76V403.68C165.835 404.088 165.527 404.432 165.111 404.712C164.695 404.984 164.235 405.12 163.731 405.12C163.203 405.12 162.727 404.984 162.303 404.712C161.879 404.432 161.547 404.052 161.307 403.572C161.067 403.084 160.947 402.54 160.947 401.94C160.947 401.348 161.067 400.816 161.307 400.344C161.555 399.864 161.891 399.492 162.315 399.228C162.739 398.956 163.211 398.82 163.731 398.82C164.251 398.82 164.719 398.956 165.135 399.228C165.551 399.5 165.851 399.864 166.035 400.32V399.252C166.035 399.188 166.055 399.132 166.095 399.084C166.143 399.036 166.203 399.012 166.275 399.012ZM163.755 404.664C164.195 404.664 164.591 404.548 164.943 404.316C165.303 404.076 165.583 403.748 165.783 403.332C165.983 402.916 166.083 402.452 166.083 401.94C166.083 401.452 165.983 401.004 165.783 400.596C165.583 400.188 165.303 399.868 164.943 399.636C164.591 399.396 164.195 399.276 163.755 399.276C163.315 399.276 162.915 399.392 162.555 399.624C162.203 399.848 161.927 400.164 161.727 400.572C161.527 400.972 161.427 401.428 161.427 401.94C161.427 402.452 161.527 402.916 161.727 403.332C161.927 403.748 162.203 404.076 162.555 404.316C162.907 404.548 163.307 404.664 163.755 404.664Z" fill="black"/>
<path d="M444.308 129.86C444.38 129.86 444.436 129.884 444.476 129.932C444.524 129.98 444.548 130.036 444.548 130.1V133.112C444.548 133.208 444.512 133.28 444.44 133.328C444.072 133.576 443.668 133.772 443.228 133.916C442.796 134.052 442.356 134.12 441.908 134.12C441.084 134.12 440.344 133.936 439.688 133.568C439.04 133.192 438.528 132.676 438.152 132.02C437.784 131.364 437.6 130.624 437.6 129.8C437.6 128.976 437.784 128.236 438.152 127.58C438.528 126.924 439.04 126.412 439.688 126.044C440.344 125.668 441.084 125.48 441.908 125.48C442.356 125.48 442.78 125.536 443.18 125.648C443.588 125.752 443.952 125.912 444.272 126.128C444.344 126.176 444.38 126.244 444.38 126.332C444.38 126.404 444.352 126.464 444.296 126.512C444.248 126.552 444.2 126.572 444.152 126.572C444.112 126.572 444.06 126.556 443.996 126.524C443.324 126.148 442.628 125.96 441.908 125.96C441.172 125.96 440.516 126.124 439.94 126.452C439.364 126.78 438.912 127.236 438.584 127.82C438.264 128.404 438.104 129.064 438.104 129.8C438.104 130.536 438.264 131.196 438.584 131.78C438.912 132.364 439.364 132.82 439.94 133.148C440.516 133.476 441.172 133.64 441.908 133.64C442.276 133.64 442.648 133.584 443.024 133.472C443.408 133.352 443.756 133.196 444.068 133.004V130.34H441.908C441.844 130.34 441.788 130.316 441.74 130.268C441.692 130.22 441.668 130.164 441.668 130.1C441.668 130.028 441.692 129.972 441.74 129.932C441.788 129.884 441.844 129.86 441.908 129.86H444.308ZM450.852 128.012C450.924 128.012 450.98 128.036 451.02 128.084C451.068 128.132 451.092 128.188 451.092 128.252V131.744C451.092 132.504 450.876 133.084 450.444 133.484C450.02 133.876 449.44 134.072 448.704 134.072C447.968 134.072 447.388 133.876 446.964 133.484C446.54 133.084 446.328 132.504 446.328 131.744V128.252C446.328 128.188 446.352 128.132 446.4 128.084C446.448 128.036 446.504 128.012 446.568 128.012C446.64 128.012 446.696 128.036 446.736 128.084C446.784 128.132 446.808 128.188 446.808 128.252V131.744C446.808 132.344 446.976 132.808 447.312 133.136C447.648 133.456 448.112 133.616 448.704 133.616C449.304 133.616 449.772 133.456 450.108 133.136C450.444 132.808 450.612 132.344 450.612 131.744V128.252C450.612 128.188 450.632 128.132 450.672 128.084C450.72 128.036 450.78 128.012 450.852 128.012ZM455.802 127.82C456.17 127.82 456.354 127.912 456.354 128.096C456.354 128.168 456.334 128.228 456.294 128.276C456.254 128.324 456.202 128.348 456.138 128.348C456.114 128.348 456.054 128.332 455.958 128.3C455.87 128.26 455.774 128.24 455.67 128.24C455.342 128.24 455.014 128.372 454.686 128.636C454.358 128.892 454.09 129.22 453.882 129.62C453.674 130.012 453.57 130.392 453.57 130.76V133.76C453.57 133.824 453.546 133.88 453.498 133.928C453.45 133.976 453.394 134 453.33 134C453.258 134 453.198 133.976 453.15 133.928C453.11 133.88 453.09 133.824 453.09 133.76V128.252C453.09 128.188 453.114 128.132 453.162 128.084C453.21 128.036 453.266 128.012 453.33 128.012C453.402 128.012 453.458 128.036 453.498 128.084C453.546 128.132 453.57 128.188 453.57 128.252V129.524C453.754 129.036 454.038 128.632 454.422 128.312C454.814 127.992 455.274 127.828 455.802 127.82ZM462.032 128.012C462.104 128.012 462.16 128.036 462.2 128.084C462.248 128.132 462.272 128.188 462.272 128.252V131.744C462.272 132.504 462.056 133.084 461.624 133.484C461.2 133.876 460.62 134.072 459.884 134.072C459.148 134.072 458.568 133.876 458.144 133.484C457.72 133.084 457.508 132.504 457.508 131.744V128.252C457.508 128.188 457.532 128.132 457.58 128.084C457.628 128.036 457.684 128.012 457.748 128.012C457.82 128.012 457.876 128.036 457.916 128.084C457.964 128.132 457.988 128.188 457.988 128.252V131.744C457.988 132.344 458.156 132.808 458.492 133.136C458.828 133.456 459.292 133.616 459.884 133.616C460.484 133.616 460.952 133.456 461.288 133.136C461.624 132.808 461.792 132.344 461.792 131.744V128.252C461.792 128.188 461.812 128.132 461.852 128.084C461.9 128.036 461.96 128.012 462.032 128.012ZM469.3 128.012C469.372 128.012 469.428 128.036 469.468 128.084C469.516 128.132 469.54 128.188 469.54 128.252V133.412C469.54 134.02 469.416 134.548 469.168 134.996C468.92 135.444 468.572 135.788 468.124 136.028C467.676 136.276 467.164 136.4 466.588 136.4C466.268 136.4 465.944 136.356 465.616 136.268C465.288 136.188 465.016 136.08 464.8 135.944C464.592 135.816 464.488 135.684 464.488 135.548C464.488 135.484 464.504 135.432 464.536 135.392C464.576 135.352 464.628 135.332 464.692 135.332C464.74 135.332 464.812 135.372 464.908 135.452C465.02 135.564 465.144 135.648 465.28 135.704C465.672 135.864 466.116 135.944 466.612 135.944C467.364 135.944 467.96 135.712 468.4 135.248C468.84 134.784 469.06 134.172 469.06 133.412V132.584C468.844 133.096 468.508 133.48 468.052 133.736C467.604 133.992 467.132 134.12 466.636 134.12C466.092 134.12 465.596 133.984 465.148 133.712C464.708 133.432 464.36 133.052 464.104 132.572C463.856 132.092 463.732 131.556 463.732 130.964C463.732 130.372 463.856 129.836 464.104 129.356C464.36 128.876 464.708 128.5 465.148 128.228C465.596 127.956 466.092 127.82 466.636 127.82C467.172 127.82 467.66 127.964 468.1 128.252C468.548 128.532 468.868 128.872 469.06 129.272V128.252C469.06 128.188 469.08 128.132 469.12 128.084C469.168 128.036 469.228 128.012 469.3 128.012ZM466.66 133.664C467.124 133.664 467.54 133.552 467.908 133.328C468.284 133.096 468.576 132.776 468.784 132.368C469 131.96 469.108 131.492 469.108 130.964C469.108 130.436 469 129.968 468.784 129.56C468.576 129.152 468.284 128.836 467.908 128.612C467.54 128.388 467.124 128.276 466.66 128.276C466.196 128.276 465.776 128.392 465.4 128.624C465.032 128.856 464.74 129.176 464.524 129.584C464.316 129.992 464.212 130.452 464.212 130.964C464.212 131.476 464.316 131.936 464.524 132.344C464.74 132.752 465.032 133.076 465.4 133.316C465.776 133.548 466.196 133.664 466.66 133.664ZM474.247 127.82C474.615 127.82 474.799 127.912 474.799 128.096C474.799 128.168 474.779 128.228 474.739 128.276C474.699 128.324 474.647 128.348 474.583 128.348C474.559 128.348 474.499 128.332 474.403 128.3C474.315 128.26 474.219 128.24 474.115 128.24C473.787 128.24 473.459 128.372 473.131 128.636C472.803 128.892 472.535 129.22 472.327 129.62C472.119 130.012 472.015 130.392 472.015 130.76V133.76C472.015 133.824 471.991 133.88 471.943 133.928C471.895 133.976 471.839 134 471.775 134C471.703 134 471.643 133.976 471.595 133.928C471.555 133.88 471.535 133.824 471.535 133.76V128.252C471.535 128.188 471.559 128.132 471.607 128.084C471.655 128.036 471.711 128.012 471.775 128.012C471.847 128.012 471.903 128.036 471.943 128.084C471.991 128.132 472.015 128.188 472.015 128.252V129.524C472.199 129.036 472.483 128.632 472.867 128.312C473.259 127.992 473.719 127.828 474.247 127.82ZM480.72 128.012C480.792 128.012 480.848 128.036 480.888 128.084C480.936 128.132 480.96 128.188 480.96 128.252V133.76C480.96 133.824 480.936 133.88 480.888 133.928C480.84 133.976 480.784 134 480.72 134C480.648 134 480.588 133.976 480.54 133.928C480.5 133.88 480.48 133.824 480.48 133.76V132.68C480.28 133.088 479.972 133.432 479.556 133.712C479.14 133.984 478.68 134.12 478.176 134.12C477.648 134.12 477.172 133.984 476.748 133.712C476.324 133.432 475.992 133.052 475.752 132.572C475.512 132.084 475.392 131.54 475.392 130.94C475.392 130.348 475.512 129.816 475.752 129.344C476 128.864 476.336 128.492 476.76 128.228C477.184 127.956 477.656 127.82 478.176 127.82C478.696 127.82 479.164 127.956 479.58 128.228C479.996 128.5 480.296 128.864 480.48 129.32V128.252C480.48 128.188 480.5 128.132 480.54 128.084C480.588 128.036 480.648 128.012 480.72 128.012ZM478.2 133.664C478.64 133.664 479.036 133.548 479.388 133.316C479.748 133.076 480.028 132.748 480.228 132.332C480.428 131.916 480.528 131.452 480.528 130.94C480.528 130.452 480.428 130.004 480.228 129.596C480.028 129.188 479.748 128.868 479.388 128.636C479.036 128.396 478.64 128.276 478.2 128.276C477.76 128.276 477.36 128.392 477 128.624C476.648 128.848 476.372 129.164 476.172 129.572C475.972 129.972 475.872 130.428 475.872 130.94C475.872 131.452 475.972 131.916 476.172 132.332C476.372 132.748 476.648 133.076 477 133.316C477.352 133.548 477.752 133.664 478.2 133.664ZM489.765 127.94C490.453 127.94 490.973 128.156 491.325 128.588C491.685 129.02 491.865 129.58 491.865 130.268V133.76C491.865 133.824 491.841 133.88 491.793 133.928C491.753 133.976 491.697 134 491.625 134C491.553 134 491.493 133.976 491.445 133.928C491.405 133.88 491.385 133.824 491.385 133.76V130.316C491.385 129.748 491.245 129.288 490.965 128.936C490.693 128.576 490.277 128.396 489.717 128.396C489.373 128.396 489.033 128.484 488.697 128.66C488.369 128.836 488.101 129.072 487.893 129.368C487.685 129.656 487.581 129.972 487.581 130.316V133.76C487.581 133.824 487.557 133.88 487.509 133.928C487.469 133.976 487.413 134 487.341 134C487.269 134 487.209 133.976 487.161 133.928C487.121 133.88 487.101 133.824 487.101 133.76V130.256C487.101 129.704 486.969 129.256 486.705 128.912C486.441 128.568 486.041 128.396 485.505 128.396C485.169 128.396 484.841 128.48 484.521 128.648C484.201 128.816 483.937 129.044 483.729 129.332C483.529 129.62 483.429 129.928 483.429 130.256V133.76C483.429 133.824 483.405 133.88 483.357 133.928C483.309 133.976 483.253 134 483.189 134C483.117 134 483.057 133.976 483.009 133.928C482.969 133.88 482.949 133.824 482.949 133.76V128.252C482.949 128.188 482.973 128.132 483.021 128.084C483.069 128.036 483.125 128.012 483.189 128.012C483.261 128.012 483.317 128.036 483.357 128.084C483.405 128.132 483.429 128.188 483.429 128.252V129.092C483.661 128.756 483.961 128.48 484.329 128.264C484.705 128.048 485.097 127.94 485.505 127.94C485.945 127.94 486.337 128.052 486.681 128.276C487.025 128.5 487.277 128.828 487.437 129.26C487.605 128.892 487.921 128.58 488.385 128.324C488.857 128.068 489.317 127.94 489.765 127.94Z" fill="black"/>
<path d="M130.308 191.86C130.38 191.86 130.436 191.884 130.476 191.932C130.524 191.98 130.548 192.036 130.548 192.1V195.112C130.548 195.208 130.512 195.28 130.44 195.328C130.072 195.576 129.668 195.772 129.228 195.916C128.796 196.052 128.356 196.12 127.908 196.12C127.084 196.12 126.344 195.936 125.688 195.568C125.04 195.192 124.528 194.676 124.152 194.02C123.784 193.364 123.6 192.624 123.6 191.8C123.6 190.976 123.784 190.236 124.152 189.58C124.528 188.924 125.04 188.412 125.688 188.044C126.344 187.668 127.084 187.48 127.908 187.48C128.356 187.48 128.78 187.536 129.18 187.648C129.588 187.752 129.952 187.912 130.272 188.128C130.344 188.176 130.38 188.244 130.38 188.332C130.38 188.404 130.352 188.464 130.296 188.512C130.248 188.552 130.2 188.572 130.152 188.572C130.112 188.572 130.06 188.556 129.996 188.524C129.324 188.148 128.628 187.96 127.908 187.96C127.172 187.96 126.516 188.124 125.94 188.452C125.364 188.78 124.912 189.236 124.584 189.82C124.264 190.404 124.104 191.064 124.104 191.8C124.104 192.536 124.264 193.196 124.584 193.78C124.912 194.364 125.364 194.82 125.94 195.148C126.516 195.476 127.172 195.64 127.908 195.64C128.276 195.64 128.648 195.584 129.024 195.472C129.408 195.352 129.756 195.196 130.068 195.004V192.34H127.908C127.844 192.34 127.788 192.316 127.74 192.268C127.692 192.22 127.668 192.164 127.668 192.1C127.668 192.028 127.692 191.972 127.74 191.932C127.788 191.884 127.844 191.86 127.908 191.86H130.308ZM134.944 189.94C135.632 189.94 136.16 190.16 136.528 190.6C136.896 191.032 137.08 191.584 137.08 192.256V195.76C137.08 195.824 137.056 195.88 137.008 195.928C136.96 195.976 136.904 196 136.84 196C136.768 196 136.708 195.976 136.66 195.928C136.62 195.88 136.6 195.824 136.6 195.76V192.256C136.6 191.704 136.464 191.256 136.192 190.912C135.92 190.568 135.504 190.396 134.944 190.396C134.6 190.396 134.26 190.48 133.924 190.648C133.596 190.816 133.328 191.044 133.12 191.332C132.912 191.62 132.808 191.928 132.808 192.256V195.76C132.808 195.824 132.784 195.88 132.736 195.928C132.688 195.976 132.632 196 132.568 196C132.496 196 132.436 195.976 132.388 195.928C132.348 195.88 132.328 195.824 132.328 195.76V187.36C132.328 187.296 132.352 187.24 132.4 187.192C132.448 187.144 132.504 187.12 132.568 187.12C132.64 187.12 132.696 187.144 132.736 187.192C132.784 187.24 132.808 187.296 132.808 187.36V191.152C133.032 190.8 133.34 190.512 133.732 190.288C134.132 190.056 134.536 189.94 134.944 189.94ZM143.974 190.012C144.046 190.012 144.102 190.036 144.142 190.084C144.19 190.132 144.214 190.188 144.214 190.252V195.76C144.214 195.824 144.19 195.88 144.142 195.928C144.094 195.976 144.038 196 143.974 196C143.902 196 143.842 195.976 143.794 195.928C143.754 195.88 143.734 195.824 143.734 195.76V194.68C143.534 195.088 143.226 195.432 142.81 195.712C142.394 195.984 141.934 196.12 141.43 196.12C140.902 196.12 140.426 195.984 140.002 195.712C139.578 195.432 139.246 195.052 139.006 194.572C138.766 194.084 138.646 193.54 138.646 192.94C138.646 192.348 138.766 191.816 139.006 191.344C139.254 190.864 139.59 190.492 140.014 190.228C140.438 189.956 140.91 189.82 141.43 189.82C141.95 189.82 142.418 189.956 142.834 190.228C143.25 190.5 143.55 190.864 143.734 191.32V190.252C143.734 190.188 143.754 190.132 143.794 190.084C143.842 190.036 143.902 190.012 143.974 190.012ZM141.454 195.664C141.894 195.664 142.29 195.548 142.642 195.316C143.002 195.076 143.282 194.748 143.482 194.332C143.682 193.916 143.782 193.452 143.782 192.94C143.782 192.452 143.682 192.004 143.482 191.596C143.282 191.188 143.002 190.868 142.642 190.636C142.29 190.396 141.894 190.276 141.454 190.276C141.014 190.276 140.614 190.392 140.254 190.624C139.902 190.848 139.626 191.164 139.426 191.572C139.226 191.972 139.126 192.428 139.126 192.94C139.126 193.452 139.226 193.916 139.426 194.332C139.626 194.748 139.902 195.076 140.254 195.316C140.606 195.548 141.006 195.664 141.454 195.664ZM150.331 190.06C150.331 190.116 150.311 190.172 150.271 190.228L146.479 195.544H149.971C150.035 195.544 150.091 195.568 150.139 195.616C150.187 195.664 150.211 195.716 150.211 195.772C150.211 195.836 150.187 195.892 150.139 195.94C150.091 195.98 150.035 196 149.971 196H146.059C145.987 196 145.927 195.972 145.879 195.916C145.831 195.86 145.807 195.808 145.807 195.76C145.807 195.712 145.827 195.66 145.867 195.604L149.659 190.276H146.419C146.355 190.276 146.299 190.256 146.251 190.216C146.203 190.168 146.179 190.112 146.179 190.048C146.179 189.984 146.203 189.932 146.251 189.892C146.299 189.844 146.355 189.82 146.419 189.82H150.091C150.155 189.82 150.207 189.844 150.247 189.892C150.295 189.94 150.323 189.996 150.331 190.06ZM152.402 195.76C152.402 195.824 152.378 195.88 152.33 195.928C152.282 195.976 152.226 196 152.162 196C152.09 196 152.03 195.976 151.982 195.928C151.942 195.88 151.922 195.824 151.922 195.76V190.06C151.922 189.996 151.946 189.94 151.994 189.892C152.042 189.844 152.098 189.82 152.162 189.82C152.234 189.82 152.29 189.844 152.33 189.892C152.378 189.94 152.402 189.996 152.402 190.06V195.76ZM152.162 189.004C152.034 189.004 151.93 188.968 151.85 188.896C151.778 188.824 151.742 188.732 151.742 188.62V188.524C151.742 188.412 151.782 188.32 151.862 188.248C151.942 188.176 152.046 188.14 152.174 188.14C152.286 188.14 152.378 188.176 152.45 188.248C152.53 188.32 152.57 188.412 152.57 188.524V188.62C152.57 188.732 152.53 188.824 152.45 188.896C152.378 188.968 152.282 189.004 152.162 189.004ZM159.302 190.012C159.374 190.012 159.43 190.036 159.47 190.084C159.518 190.132 159.542 190.188 159.542 190.252V195.76C159.542 195.824 159.518 195.88 159.47 195.928C159.422 195.976 159.366 196 159.302 196C159.23 196 159.17 195.976 159.122 195.928C159.082 195.88 159.062 195.824 159.062 195.76V194.68C158.862 195.088 158.554 195.432 158.138 195.712C157.722 195.984 157.262 196.12 156.758 196.12C156.23 196.12 155.754 195.984 155.33 195.712C154.906 195.432 154.574 195.052 154.334 194.572C154.094 194.084 153.974 193.54 153.974 192.94C153.974 192.348 154.094 191.816 154.334 191.344C154.582 190.864 154.918 190.492 155.342 190.228C155.766 189.956 156.238 189.82 156.758 189.82C157.278 189.82 157.746 189.956 158.162 190.228C158.578 190.5 158.878 190.864 159.062 191.32V190.252C159.062 190.188 159.082 190.132 159.122 190.084C159.17 190.036 159.23 190.012 159.302 190.012ZM156.782 195.664C157.222 195.664 157.618 195.548 157.97 195.316C158.33 195.076 158.61 194.748 158.81 194.332C159.01 193.916 159.11 193.452 159.11 192.94C159.11 192.452 159.01 192.004 158.81 191.596C158.61 191.188 158.33 190.868 157.97 190.636C157.618 190.396 157.222 190.276 156.782 190.276C156.342 190.276 155.942 190.392 155.582 190.624C155.23 190.848 154.954 191.164 154.754 191.572C154.554 191.972 154.454 192.428 154.454 192.94C154.454 193.452 154.554 193.916 154.754 194.332C154.954 194.748 155.23 195.076 155.582 195.316C155.934 195.548 156.334 195.664 156.782 195.664ZM164.315 189.82C164.843 189.82 165.319 189.956 165.743 190.228C166.167 190.492 166.499 190.864 166.739 191.344C166.979 191.816 167.099 192.348 167.099 192.94C167.099 193.532 166.975 194.072 166.727 194.56C166.487 195.04 166.155 195.42 165.731 195.7C165.307 195.98 164.835 196.12 164.315 196.12C163.843 196.12 163.407 195.996 163.007 195.748C162.607 195.492 162.275 195.14 162.011 194.692V195.76C162.011 195.824 161.987 195.88 161.939 195.928C161.899 195.976 161.843 196 161.771 196C161.707 196 161.651 195.976 161.603 195.928C161.555 195.88 161.531 195.824 161.531 195.76V187.372C161.531 187.308 161.551 187.252 161.591 187.204C161.639 187.156 161.699 187.132 161.771 187.132C161.843 187.132 161.899 187.156 161.939 187.204C161.987 187.252 162.011 187.308 162.011 187.372V191.284C162.251 190.812 162.571 190.452 162.971 190.204C163.379 189.948 163.827 189.82 164.315 189.82ZM164.291 195.664C164.731 195.664 165.127 195.544 165.479 195.304C165.831 195.064 166.107 194.74 166.307 194.332C166.515 193.916 166.619 193.452 166.619 192.94C166.619 192.428 166.515 191.972 166.307 191.572C166.107 191.164 165.831 190.848 165.479 190.624C165.127 190.392 164.731 190.276 164.291 190.276C163.843 190.276 163.439 190.392 163.079 190.624C162.727 190.848 162.451 191.164 162.251 191.572C162.059 191.972 161.963 192.428 161.963 192.94C161.963 193.452 162.063 193.916 162.263 194.332C162.463 194.748 162.739 195.076 163.091 195.316C163.443 195.548 163.843 195.664 164.291 195.664ZM173.576 190.012C173.648 190.012 173.704 190.036 173.744 190.084C173.792 190.132 173.816 190.188 173.816 190.252V195.76C173.816 195.824 173.792 195.88 173.744 195.928C173.696 195.976 173.64 196 173.576 196C173.504 196 173.444 195.976 173.396 195.928C173.356 195.88 173.336 195.824 173.336 195.76V194.68C173.136 195.088 172.828 195.432 172.412 195.712C171.996 195.984 171.536 196.12 171.032 196.12C170.504 196.12 170.028 195.984 169.604 195.712C169.18 195.432 168.848 195.052 168.608 194.572C168.368 194.084 168.248 193.54 168.248 192.94C168.248 192.348 168.368 191.816 168.608 191.344C168.856 190.864 169.192 190.492 169.616 190.228C170.04 189.956 170.512 189.82 171.032 189.82C171.552 189.82 172.02 189.956 172.436 190.228C172.852 190.5 173.152 190.864 173.336 191.32V190.252C173.336 190.188 173.356 190.132 173.396 190.084C173.444 190.036 173.504 190.012 173.576 190.012ZM171.056 195.664C171.496 195.664 171.892 195.548 172.244 195.316C172.604 195.076 172.884 194.748 173.084 194.332C173.284 193.916 173.384 193.452 173.384 192.94C173.384 192.452 173.284 192.004 173.084 191.596C172.884 191.188 172.604 190.868 172.244 190.636C171.892 190.396 171.496 190.276 171.056 190.276C170.616 190.276 170.216 190.392 169.856 190.624C169.504 190.848 169.228 191.164 169.028 191.572C168.828 191.972 168.728 192.428 168.728 192.94C168.728 193.452 168.828 193.916 169.028 194.332C169.228 194.748 169.504 195.076 169.856 195.316C170.208 195.548 170.608 195.664 171.056 195.664ZM180.713 187.12C180.785 187.12 180.841 187.144 180.881 187.192C180.929 187.24 180.953 187.296 180.953 187.36V195.76C180.953 195.824 180.929 195.88 180.881 195.928C180.833 195.976 180.777 196 180.713 196C180.641 196 180.581 195.976 180.533 195.928C180.493 195.88 180.473 195.824 180.473 195.76V194.62C180.281 195.044 179.977 195.4 179.561 195.688C179.145 195.976 178.681 196.12 178.169 196.12C177.649 196.12 177.177 195.984 176.753 195.712C176.329 195.432 175.993 195.052 175.745 194.572C175.505 194.092 175.385 193.556 175.385 192.964C175.385 192.372 175.505 191.836 175.745 191.356C175.993 190.876 176.329 190.5 176.753 190.228C177.177 189.956 177.649 189.82 178.169 189.82C178.665 189.82 179.125 189.96 179.549 190.24C179.973 190.52 180.281 190.884 180.473 191.332V187.36C180.473 187.296 180.493 187.24 180.533 187.192C180.581 187.144 180.641 187.12 180.713 187.12ZM178.193 195.664C178.641 195.664 179.041 195.548 179.393 195.316C179.745 195.084 180.021 194.764 180.221 194.356C180.421 193.94 180.521 193.476 180.521 192.964C180.521 192.452 180.421 191.992 180.221 191.584C180.021 191.176 179.741 190.856 179.381 190.624C179.029 190.392 178.633 190.276 178.193 190.276C177.761 190.276 177.365 190.392 177.005 190.624C176.653 190.856 176.373 191.18 176.165 191.596C175.965 192.004 175.865 192.46 175.865 192.964C175.865 193.476 175.965 193.936 176.165 194.344C176.373 194.752 176.653 195.076 177.005 195.316C177.357 195.548 177.753 195.664 178.193 195.664Z" fill="black"/>
</svg>
