<svg width="20" height="22" viewBox="0 0 20 22" fill="none" xmlns="http://www.w3.org/2000/svg">
<path d="M10 0C15.5242 0 20 4.74131 20 10.5932C20 16.4451 15.5242 21.1864 10 21.1864C4.47581 21.1864 0 16.4451 0 10.5932C0 4.74131 4.47581 0 10 0ZM8.83468 6.1338L11.879 9.22634H4.51613C3.97984 9.22634 3.54839 9.68338 3.54839 10.2515V10.9349C3.54839 11.503 3.97984 11.9601 4.51613 11.9601H11.879L8.83468 15.0526C8.44355 15.4498 8.43548 16.1119 8.81855 16.5177L9.2621 16.9833C9.64113 17.3848 10.254 17.3848 10.629 16.9833L15.9798 11.3193C16.3589 10.9178 16.3589 10.2686 15.9798 9.87133L10.629 4.19884C10.25 3.79732 9.6371 3.79732 9.2621 4.19884L8.81855 4.66443C8.43548 5.07448 8.44355 5.73656 8.83468 6.1338Z" fill="#461A42"/>
</svg>
