<svg width="248" height="161" viewBox="0 0 248 161" fill="none" xmlns="http://www.w3.org/2000/svg">
<g clip-path="url(#clip0)">
<path d="M213.478 106.376L213.012 106.427L218.767 158.965L219.233 158.914L213.478 106.376Z" fill="#292A2E"/>
<path d="M228.385 129.311L225.553 157.292L226.02 157.34L228.851 129.358L228.385 129.311Z" fill="#292A2E"/>
<path d="M233.253 153.91H212.244V160.721H233.253V153.91Z" fill="#292A2E"/>
<path opacity="0.2" d="M233.253 153.91H212.244V160.721H233.253V153.91Z" fill="white"/>
<path d="M245.918 141.369C249.898 136.085 248 127.951 241.68 123.2C235.36 118.45 227.01 118.882 223.03 124.166C219.05 129.45 220.947 137.585 227.268 142.335C233.588 147.086 241.938 146.653 245.918 141.369Z" fill="#0CBC8B"/>
<path opacity="0.2" d="M245.918 141.369C249.898 136.085 248 127.951 241.68 123.2C235.36 118.45 227.01 118.882 223.03 124.166C219.05 129.45 220.947 137.585 227.268 142.335C233.588 147.086 241.938 146.653 245.918 141.369Z" fill="white"/>
<path opacity="0.5" d="M245.918 141.37C245.65 141.727 245.359 142.064 245.045 142.38C240.664 145.177 234.197 144.736 229.067 140.88C222.747 136.13 220.851 127.996 224.831 122.712C225.099 122.356 225.39 122.019 225.702 121.702C230.086 118.904 236.549 119.346 241.682 123.2C248.001 127.952 249.898 136.087 245.918 141.37Z" fill="white"/>
<path d="M216.599 121.323C222.861 116.495 224.562 108.215 220.4 102.829C216.238 97.4427 207.789 96.9903 201.528 101.818C195.266 106.646 193.565 114.927 197.727 120.313C201.889 125.699 210.338 126.151 216.599 121.323Z" fill="#0CBC8B"/>
<path opacity="0.2" d="M214.615 119.937C209.766 123.678 203.604 124.248 199.137 121.813C198.62 121.358 198.148 120.855 197.727 120.31C193.564 114.925 195.265 106.644 201.527 101.817C206.375 98.0781 212.538 97.506 217.003 99.9392C217.521 100.394 217.994 100.898 218.415 101.444C222.577 106.829 220.876 115.11 214.615 119.937Z" fill="white"/>
<path d="M173.771 76.7263L245.784 76.8326V50.2034H173.771V76.7263Z" fill="#EFEFEF"/>
<path d="M239.584 57.5892H179.971C179.942 57.5902 179.913 57.5852 179.885 57.5746C179.858 57.564 179.832 57.548 179.811 57.5274C179.79 57.5069 179.773 57.4824 179.762 57.4552C179.75 57.4281 179.744 57.3989 179.744 57.3694C179.744 57.34 179.75 57.3108 179.762 57.2836C179.773 57.2565 179.79 57.2319 179.811 57.2114C179.832 57.1909 179.858 57.1749 179.885 57.1643C179.913 57.1537 179.942 57.1487 179.971 57.1497H239.584C239.613 57.1487 239.643 57.1537 239.67 57.1643C239.698 57.1749 239.723 57.1909 239.744 57.2114C239.765 57.2319 239.782 57.2565 239.794 57.2836C239.805 57.3108 239.811 57.34 239.811 57.3694C239.811 57.3989 239.805 57.4281 239.794 57.4552C239.782 57.4824 239.765 57.5069 239.744 57.5274C239.723 57.548 239.698 57.564 239.67 57.5746C239.643 57.5852 239.613 57.5902 239.584 57.5892Z" fill="white"/>
<path d="M239.584 64.1846H179.971C179.942 64.1856 179.913 64.1806 179.885 64.17C179.858 64.1594 179.832 64.1433 179.811 64.1228C179.79 64.1023 179.773 64.0778 179.762 64.0506C179.75 64.0235 179.744 63.9943 179.744 63.9648C179.744 63.9353 179.75 63.9062 179.762 63.879C179.773 63.8519 179.79 63.8273 179.811 63.8068C179.832 63.7863 179.858 63.7703 179.885 63.7597C179.913 63.7491 179.942 63.7441 179.971 63.7451H239.584C239.613 63.7441 239.643 63.7491 239.67 63.7597C239.698 63.7703 239.723 63.7863 239.744 63.8068C239.765 63.8273 239.782 63.8519 239.794 63.879C239.805 63.9062 239.811 63.9353 239.811 63.9648C239.811 63.9943 239.805 64.0235 239.794 64.0506C239.782 64.0778 239.765 64.1023 239.744 64.1228C239.723 64.1433 239.698 64.1594 239.67 64.17C239.643 64.1806 239.613 64.1856 239.584 64.1846Z" fill="white"/>
<path d="M239.584 70.7801H204.18C204.121 70.7801 204.065 70.7569 204.024 70.7157C203.983 70.6744 203.96 70.6185 203.96 70.5602C203.96 70.5018 203.983 70.4459 204.024 70.4047C204.065 70.3634 204.121 70.3403 204.18 70.3403H239.584C239.642 70.3403 239.698 70.3634 239.74 70.4047C239.781 70.4459 239.804 70.5018 239.804 70.5602C239.804 70.6185 239.781 70.6744 239.74 70.7157C239.698 70.7569 239.642 70.7801 239.584 70.7801Z" fill="white"/>
<path d="M87.8493 34.7633L0.702393 34.7846L0.708957 0H87.8493V34.7633Z" fill="#EFEFEF"/>
<path d="M81.341 7.6968H7.21736C7.17091 7.6968 7.12637 7.67837 7.09353 7.64556C7.06069 7.61276 7.04224 7.56826 7.04224 7.52186C7.04224 7.47547 7.06069 7.43097 7.09353 7.39816C7.12637 7.36535 7.17091 7.34692 7.21736 7.34692H81.341C81.3875 7.34692 81.432 7.36535 81.4648 7.39816C81.4977 7.43097 81.5161 7.47547 81.5161 7.52186C81.5161 7.56826 81.4977 7.61276 81.4648 7.64556C81.432 7.67837 81.3875 7.6968 81.341 7.6968Z" fill="white"/>
<path d="M81.341 14.6199H7.21736C7.17091 14.6199 7.12637 14.6015 7.09353 14.5687C7.06069 14.5359 7.04224 14.4914 7.04224 14.445C7.04224 14.3986 7.06069 14.3541 7.09353 14.3213C7.12637 14.2885 7.17091 14.27 7.21736 14.27H81.341C81.3875 14.27 81.432 14.2885 81.4648 14.3213C81.4977 14.3541 81.5161 14.3986 81.5161 14.445C81.5161 14.4914 81.4977 14.5359 81.4648 14.5687C81.432 14.6015 81.3875 14.6199 81.341 14.6199Z" fill="white"/>
<path d="M81.341 21.5427H7.21736C7.17091 21.5427 7.12637 21.5243 7.09353 21.4914C7.06069 21.4586 7.04224 21.4141 7.04224 21.3677C7.04224 21.3213 7.06069 21.2769 7.09353 21.244C7.12637 21.2112 7.17091 21.1928 7.21736 21.1928H81.341C81.3875 21.1928 81.432 21.2112 81.4648 21.244C81.4977 21.2769 81.5161 21.3213 81.5161 21.3677C81.5161 21.4141 81.4977 21.4586 81.4648 21.4914C81.432 21.5243 81.3875 21.5427 81.341 21.5427Z" fill="white"/>
<path d="M44.3796 28.4658H7.21736C7.17091 28.4658 7.12637 28.4473 7.09353 28.4145C7.06069 28.3817 7.04224 28.3372 7.04224 28.2908C7.04224 28.2444 7.06069 28.2 7.09353 28.1671C7.12637 28.1343 7.17091 28.1159 7.21736 28.1159H44.3796C44.4261 28.1159 44.4706 28.1343 44.5035 28.1671C44.5363 28.2 44.5548 28.2444 44.5548 28.2908C44.5548 28.3372 44.5363 28.3817 44.5035 28.4145C44.4706 28.4473 44.4261 28.4658 44.3796 28.4658Z" fill="white"/>
<path d="M206.185 16.3466H48.0154C44.1312 16.3466 40.9824 19.492 40.9824 23.3722V139.055C40.9824 142.935 44.1312 146.081 48.0154 146.081H206.185C210.07 146.081 213.218 142.935 213.218 139.055V23.3722C213.218 19.492 210.07 16.3466 206.185 16.3466Z" fill="white"/>
<path d="M206.185 146.315H48.0155C46.0887 146.313 44.2415 145.547 42.879 144.186C41.5166 142.825 40.7502 140.98 40.748 139.055V23.3719C40.7503 21.4472 41.5167 19.6019 42.8791 18.2409C44.2415 16.8799 46.0887 16.1144 48.0155 16.1121H206.185C208.112 16.1143 209.959 16.8799 211.321 18.2409C212.684 19.6019 213.45 21.4472 213.452 23.3719V139.055C213.45 140.98 212.684 142.825 211.322 144.186C209.959 145.547 208.112 146.313 206.185 146.315ZM48.0155 16.5805C46.213 16.5825 44.4849 17.2986 43.2104 18.5719C41.9358 19.8451 41.2189 21.5714 41.2169 23.3719V139.055C41.2189 140.856 41.9358 142.582 43.2104 143.855C44.4849 145.128 46.213 145.844 48.0155 145.846H206.185C207.988 145.844 209.716 145.128 210.99 143.855C212.265 142.582 212.982 140.856 212.984 139.055V23.3719C212.982 21.5714 212.265 19.8451 210.99 18.5719C209.716 17.2986 207.988 16.5825 206.185 16.5805H48.0155Z" fill="#292A2E"/>
<path d="M213.218 23.372V30.4416H40.9832V23.372C40.9832 21.5086 41.7241 19.7216 43.0431 18.4041C44.362 17.0865 46.1509 16.3463 48.0162 16.3463H206.185C208.05 16.3463 209.839 17.0865 211.158 18.4041C212.477 19.7216 213.218 21.5086 213.218 23.372Z" fill="#292A2E"/>
<path opacity="0.2" d="M115.204 87.5587H89.732C86.518 87.5587 83.9126 90.1613 83.9126 93.3719C83.9126 96.5825 86.518 99.1852 89.732 99.1852H115.204C118.418 99.1852 121.024 96.5825 121.024 93.3719C121.024 90.1613 118.418 87.5587 115.204 87.5587Z" fill="#367CFF"/>
<path opacity="0.2" d="M164.13 87.5587H138.657C135.443 87.5587 132.838 90.1613 132.838 93.3719C132.838 96.5825 135.443 99.1852 138.657 99.1852H164.13C167.344 99.1852 169.949 96.5825 169.949 93.3719C169.949 90.1613 167.344 87.5587 164.13 87.5587Z" fill="#367CFF"/>
<path opacity="0.1" d="M196.206 61.5835C196.206 63.0494 195.917 64.501 195.356 65.8554C194.795 67.2098 193.972 68.4405 192.934 69.4771C191.897 70.5138 190.665 71.3361 189.309 71.8972C187.953 72.4583 186.5 72.7471 185.033 72.7472H73.5923C72.1248 72.7472 70.6718 72.4585 69.3161 71.8975C67.9603 71.3365 66.7285 70.5143 65.6908 69.4777C64.6532 68.4412 63.8301 67.2107 63.2686 65.8564C62.707 64.502 62.418 63.0505 62.418 61.5846C62.418 60.1187 62.707 58.6672 63.2686 57.3129C63.8301 55.9586 64.6532 54.728 65.6908 53.6915C66.7285 52.655 67.9603 51.8327 69.3161 51.2718C70.6718 50.7108 72.1248 50.4221 73.5923 50.4221H185.033C187.996 50.4222 190.838 51.5981 192.933 53.6913C195.029 55.7844 196.206 58.6233 196.206 61.5835Z" fill="#367CFF"/>
<path d="M196.206 61.5835C196.206 63.0494 195.918 64.501 195.356 65.8554C194.795 67.2098 193.972 68.4405 192.934 69.4771C191.897 70.5138 190.665 71.3361 189.309 71.8972C187.954 72.4583 186.5 72.7471 185.033 72.7472H167.722V50.4221H185.033C187.996 50.4222 190.838 51.5981 192.933 53.6913C195.029 55.7844 196.206 58.6233 196.206 61.5835Z" fill="#367CFF"/>
<path d="M77.9892 65.0902L76.8548 61.4652C76.7834 61.2434 76.6498 60.7397 76.4541 59.9542H76.4089C76.2584 60.612 76.1267 61.1194 76.0139 61.4765L74.8457 65.0902H73.7621L72.0742 58.9114H73.056C73.4547 60.4636 73.7586 61.6456 73.9675 62.4575C74.1188 62.9965 74.2385 63.5438 74.326 64.0968H74.371C74.4125 63.8826 74.4794 63.6054 74.5714 63.2652C74.6635 62.925 74.7434 62.6554 74.8112 62.4563L75.9457 58.9102H76.9615L78.0678 62.4563C78.2488 62.9887 78.392 63.5331 78.4965 64.0855H78.5418C78.5711 63.8749 78.6116 63.6661 78.6632 63.4598C78.7289 63.1778 79.1211 61.6613 79.8398 58.9102H80.8106L79.0993 65.089L77.9892 65.0902Z" fill="#0A0A0A"/>
<path d="M87.4419 65.0902L86.3074 61.4652C86.2359 61.2434 86.1023 60.7397 85.9068 59.9542H85.8618C85.7111 60.612 85.5794 61.1194 85.4668 61.4765L84.2983 65.0902H83.2148L81.5269 58.9114H82.5089C82.9076 60.4636 83.2114 61.6456 83.4204 62.4575C83.5717 62.9965 83.6913 63.5438 83.7786 64.0968H83.8238C83.8654 63.8826 83.9322 63.6054 84.0243 63.2652C84.1163 62.925 84.1963 62.6554 84.2641 62.4563L85.3985 58.9102H86.4143L87.5204 62.4563C87.7016 62.9886 87.8449 63.5331 87.9494 64.0855H87.9947C88.0237 63.8749 88.0642 63.666 88.1159 63.4598C88.1817 63.1778 88.5739 61.6613 89.2925 58.9102H90.2633L88.5533 65.089L87.4419 65.0902Z" fill="#0A0A0A"/>
<path d="M96.8947 65.0902L95.7603 61.4652C95.6887 61.2434 95.5551 60.7397 95.3596 59.9542H95.3144C95.1639 60.612 95.0322 61.1194 94.9194 61.4764L93.7502 65.0902H92.6664L90.9785 58.9114H91.9606C92.3594 60.4636 92.6632 61.6456 92.872 62.4575C93.0234 62.9965 93.1431 63.5438 93.2305 64.0968H93.2755C93.3171 63.8826 93.3839 63.6054 93.4759 63.2652C93.568 62.925 93.6479 62.6553 93.7158 62.4563L94.8502 58.9102H95.866L96.9737 62.4579C97.1547 62.9903 97.298 63.5347 97.4025 64.0872H97.4477C97.4769 63.8766 97.5174 63.6677 97.5692 63.4614C97.6348 63.1795 98.027 61.6629 98.7458 58.9119H99.7166L98.0052 65.0907L96.8947 65.0902Z" fill="#0A0A0A"/>
<path d="M179.27 64.6888C177.957 64.6899 176.687 64.2203 175.691 63.3652C174.694 62.5101 174.038 61.3264 173.842 60.0292C173.645 58.732 173.921 57.4073 174.619 56.296C175.317 55.1847 176.391 54.3604 177.646 53.9731C178.901 53.5857 180.253 53.661 181.457 54.1852C182.662 54.7093 183.637 55.6476 184.208 56.8295C184.778 58.0114 184.905 59.3585 184.565 60.6259C184.225 61.8933 183.442 62.9969 182.357 63.7361C181.447 64.3558 180.372 64.6878 179.27 64.6888ZM179.253 54.8937C178.141 54.8943 177.071 55.323 176.266 56.0907C175.462 56.8584 174.984 57.9062 174.932 59.0166C174.88 60.1269 175.259 61.2145 175.989 62.0535C176.718 62.8926 177.744 63.4186 178.851 63.5224C179.959 63.6262 181.065 63.2998 181.938 62.611C182.811 61.9222 183.385 60.9239 183.541 59.8233C183.697 58.7227 183.423 57.6044 182.775 56.7006C182.127 55.7968 181.156 55.1769 180.063 54.9695C179.796 54.9192 179.525 54.8938 179.253 54.8937Z" fill="white"/>
<path d="M187.359 69.4449C187.273 69.4451 187.188 69.4264 187.111 69.3902C187.033 69.354 186.964 69.3012 186.909 69.2355L182.021 63.4097C181.922 63.2906 181.873 63.1369 181.887 62.9822C181.9 62.8275 181.975 62.6846 182.094 62.5848C182.213 62.4851 182.367 62.4367 182.522 62.4503C182.677 62.4639 182.82 62.5384 182.92 62.6574L187.807 68.4833C187.879 68.5687 187.925 68.6727 187.939 68.7832C187.954 68.8936 187.937 69.0059 187.889 69.1069C187.842 69.2079 187.767 69.2933 187.673 69.3532C187.579 69.413 187.47 69.4449 187.359 69.4449Z" fill="white"/>
<path d="M8.79018 148.335C7.37374 148.335 5.97831 147.992 4.72268 147.338C3.46704 146.683 2.38838 145.735 1.57851 144.574C0.768646 143.413 0.251558 142.074 0.0712655 140.67C-0.109027 139.267 0.0528153 137.841 0.543015 136.513C1.04025 135.166 12.7507 103.441 14.971 97.7241L31.3632 104.077C30.1148 107.291 25.5916 119.474 21.9579 129.287L27.9948 128.632L29.8949 146.093L9.74151 148.281C9.42559 148.316 9.10802 148.334 8.79018 148.335Z" fill="#367CFF"/>
<path d="M19.3258 147.437L16.645 160.766H68.7126L65.7135 147.183L19.3258 147.437Z" fill="#262626"/>
<path d="M30.5834 87.8673C26.2333 88.1896 21.7976 89.6017 18.5312 92.49C13.6045 96.8459 14.0429 99.5695 16.5024 111.633C18.6184 122.014 17.7791 126.55 19.1946 145.704C19.2364 146.269 19.3257 147.436 19.3257 147.436L65.8609 147.359C65.8609 147.359 70.2213 121.945 72.6287 110.224C74.4594 101.313 79.2682 90.4954 58.9931 88.3151C58.9397 88.3097 42.6786 86.9713 30.5834 87.8673Z" fill="#367CFF"/>
<path d="M125.893 78.2584C123.701 78.2577 121.565 77.5685 119.786 76.2883C118.008 75.0081 116.677 73.2018 115.983 71.1248C115.288 69.0478 115.265 66.8052 115.917 64.7144C116.568 62.6236 117.861 60.7903 119.613 59.474C121.365 58.1576 123.487 57.4247 125.678 57.379C127.87 57.3334 130.02 57.9772 131.826 59.2194C133.631 60.4617 134.999 62.2395 135.738 64.3013C136.476 66.3632 136.546 68.6047 135.939 70.7089C135.309 72.8841 133.988 74.796 132.177 76.1574C130.365 77.5188 128.16 78.256 125.893 78.2584ZM125.886 59.7156C123.828 59.7144 121.847 60.4924 120.341 61.8928C118.835 63.2933 117.916 65.2121 117.77 67.2623C117.624 69.3125 118.262 71.3417 119.555 72.9408C120.847 74.5399 122.699 75.59 124.736 75.8794C126.773 76.1688 128.844 75.6759 130.532 74.5002C132.219 73.3244 133.398 71.5532 133.83 69.5437C134.262 67.5341 133.916 65.4357 132.86 63.6713C131.805 61.907 130.119 60.608 128.143 60.0362C127.409 59.8242 126.649 59.7163 125.886 59.7156Z" fill="#0A0A0A"/>
<path d="M117.067 91.1258C116.875 91.1258 116.687 91.0789 116.518 90.9893C116.349 90.8996 116.204 90.77 116.097 90.6117C115.989 90.4534 115.922 90.2712 115.902 90.0811C115.881 89.891 115.907 89.6988 115.978 89.5211L121.31 76.1591C121.428 75.8753 121.653 75.6495 121.937 75.5302C122.221 75.4109 122.54 75.4078 122.826 75.5215C123.112 75.6353 123.341 75.8567 123.465 76.1381C123.589 76.4195 123.597 76.7383 123.488 77.0256L118.156 90.3879C118.069 90.6056 117.919 90.7924 117.725 90.9239C117.531 91.0555 117.302 91.1258 117.067 91.1258Z" fill="#0A0A0A"/>
<path d="M112.985 89.66L116.255 82.3339C116.326 82.1729 116.431 82.0287 116.562 81.9103C116.692 81.7919 116.846 81.7021 117.014 81.6464C117.181 81.5908 117.358 81.5706 117.534 81.5871C117.71 81.6036 117.88 81.6565 118.034 81.7423C118.314 81.9097 118.521 82.1749 118.616 82.4864C118.712 82.798 118.687 83.1338 118.548 83.4285L117.848 84.9994L122.322 81.0702C122.812 80.6253 123.698 80.3911 124.162 80.9728C124.355 81.185 124.471 81.4564 124.49 81.7427C124.509 82.0289 124.43 82.3131 124.267 82.5489C124.272 82.5524 124.277 82.5565 124.281 82.5611C124.284 82.5651 124.287 82.5694 124.289 82.5739L125.044 81.8868C125.184 81.7597 125.351 81.6653 125.532 81.6106C125.713 81.5559 125.904 81.5423 126.091 81.5707C126.278 81.5991 126.456 81.6688 126.613 81.7748C126.77 81.8808 126.901 82.0204 126.997 82.1833C127.142 82.443 127.194 82.7449 127.144 83.0383C127.094 83.3318 126.944 83.5991 126.72 83.7955L126.399 84.088C126.403 84.1011 126.404 84.1148 126.404 84.1285C126.667 83.9814 126.974 83.9325 127.269 83.9906C127.565 84.0488 127.831 84.2101 128.018 84.4458C128.216 84.7098 128.307 85.0385 128.273 85.3664C128.239 85.6943 128.082 85.9973 127.834 86.2149L127.036 86.9408C127.054 86.9385 127.073 86.9406 127.091 86.947C127.108 86.9534 127.124 86.9639 127.137 86.9776C127.151 86.9947 127.16 87.0154 127.163 87.0373C127.433 86.9713 127.718 86.9959 127.973 87.1074C128.229 87.2188 128.44 87.4109 128.576 87.6542C128.713 87.9127 128.758 88.2099 128.705 88.4976C128.652 88.7852 128.503 89.0465 128.283 89.2392L121.546 95.3658C120.604 96.2228 119.427 96.7793 118.166 96.9637C116.905 97.1481 115.617 96.9521 114.468 96.4009C113.478 95.9255 112.712 95.083 112.333 94.0525C111.954 93.0219 111.993 91.8845 112.44 90.8818L112.985 89.66Z" fill="#E98862"/>
<g opacity="0.2">
<path opacity="0.2" d="M119.857 86.4591C119.878 86.4817 119.907 86.4953 119.937 86.4968C119.968 86.4984 119.998 86.4879 120.021 86.4675L124.272 82.7255C124.283 82.7153 124.293 82.7029 124.299 82.6891C124.306 82.6753 124.31 82.6603 124.311 82.6449C124.312 82.6296 124.31 82.6142 124.305 82.5996C124.3 82.5851 124.292 82.5717 124.282 82.5601C124.272 82.5486 124.259 82.5392 124.245 82.5324C124.232 82.5257 124.217 82.5217 124.201 82.5207C124.186 82.5198 124.17 82.5219 124.156 82.5268C124.141 82.5318 124.128 82.5396 124.116 82.5498L119.866 86.2919C119.855 86.3021 119.845 86.3144 119.839 86.3282C119.832 86.3421 119.828 86.3571 119.827 86.3724C119.826 86.3878 119.828 86.4032 119.833 86.4177C119.838 86.4323 119.846 86.4457 119.856 86.4572L119.857 86.4591Z" fill="#0C0C0C"/>
</g>
<g opacity="0.2">
<path opacity="0.2" d="M121.457 88.3774C121.478 88.4 121.507 88.4135 121.538 88.4151C121.568 88.4167 121.598 88.4062 121.621 88.3858L126.365 84.2095C126.376 84.1993 126.386 84.187 126.393 84.1732C126.399 84.1593 126.403 84.1443 126.404 84.129C126.405 84.1136 126.403 84.0982 126.398 84.0837C126.393 84.0691 126.385 84.0557 126.375 84.0442C126.354 84.0218 126.325 84.0083 126.295 84.0064C126.264 84.0045 126.234 84.0143 126.21 84.0339L121.466 88.2099C121.455 88.2201 121.445 88.2324 121.438 88.2463C121.432 88.2601 121.428 88.2751 121.427 88.2904C121.426 88.3058 121.428 88.3212 121.433 88.3357C121.438 88.3503 121.446 88.3637 121.456 88.3752L121.457 88.3774Z" fill="#0C0C0C"/>
</g>
<g opacity="0.2">
<path opacity="0.2" d="M123.179 90.4647C123.2 90.4873 123.228 90.5009 123.259 90.5024C123.29 90.504 123.32 90.4935 123.343 90.4731L127.127 87.142C127.138 87.1318 127.148 87.1195 127.154 87.1057C127.161 87.0919 127.165 87.0769 127.166 87.0615C127.167 87.0461 127.165 87.0308 127.16 87.0162C127.155 87.0017 127.147 86.9882 127.137 86.9767C127.127 86.9652 127.114 86.9557 127.101 86.949C127.087 86.9422 127.072 86.9383 127.056 86.9373C127.041 86.9363 127.026 86.9384 127.011 86.9434C126.996 86.9484 126.983 86.9562 126.971 86.9664L123.188 90.2975C123.176 90.3077 123.167 90.32 123.16 90.3338C123.153 90.3476 123.149 90.3627 123.148 90.378C123.147 90.3934 123.149 90.4088 123.154 90.4233C123.159 90.4379 123.167 90.4513 123.177 90.4628L123.179 90.4647Z" fill="#0C0C0C"/>
</g>
<path d="M110.942 87.2819L91.1187 109.581L71.0882 92.2701L59.5842 105.553L86.1761 128.535L86.3554 128.69C86.418 128.743 86.4809 128.796 86.5442 128.847C88.3165 130.28 90.586 130.95 92.8532 130.711C95.1205 130.472 97.1999 129.343 98.6339 127.573L122.998 97.4925L110.942 87.2819Z" fill="#367CFF"/>
<path d="M58.9932 88.3163C58.9393 88.3093 57.4623 93.8618 45.9352 92.9977C37.9551 92.4005 36.0093 86.9744 35.8264 86.9744C36.6868 86.7917 38.084 86.602 38.4661 86.3983C39.7227 85.7238 40.6379 84.9028 41.0988 83.1407C41.4592 81.7628 41.6427 76.4582 41.6427 73.7966L53.9224 76.553C53.7512 79.5553 52.5533 86.5154 56.752 87.7472C57.4506 87.9509 58.2032 88.1383 58.9932 88.3163Z" fill="#E98862"/>
<path d="M53.4981 82.4557C48.6573 82.8372 42.4387 80.7953 41.2574 74.3434L40.1916 68.522C39.0103 62.0701 41.4452 56.2201 47.5264 55.1091C53.6074 53.9981 59.1105 58.398 60.2916 64.8499L60.7635 67.426C61.2159 69.9027 62.1347 81.7749 53.4981 82.4557Z" fill="#E98862"/>
<path d="M57.986 76.5326C57.1172 72.1711 56.7187 69.2613 56.7649 66.1914C57.9889 64.0467 57.667 61.5853 57.3887 60.5217C58.5883 61.1755 59.09 61.2476 60.219 61.2476C60.219 61.2476 58.1949 53.1328 51.3152 50.9492C50.0493 50.4574 46.8202 49.8361 42.5314 50.4237C38.8836 50.9235 29.8917 53.6482 28.6061 63.7607V63.7666C28.5634 64.1019 27.7002 73.4193 25.979 77.8897C23.6649 83.8992 20.4166 85.7664 20.4988 92.7C20.6048 101.619 37.0185 102.806 46.9196 102.139C56.8207 101.472 62.3454 98.2198 62.4176 91.7923C62.4973 84.5887 59.7246 85.258 57.986 76.5326Z" fill="#0A0A0A"/>
<path d="M57.9889 72.876C56.1409 73.2134 54.2811 71.5123 53.9433 69.6662C53.6055 67.8201 54.9169 66.5281 56.7649 66.1906L57.9889 72.876Z" fill="#E98862"/>
<path d="M71.5168 115.982C71.5094 115.982 71.5021 115.982 71.495 115.98C71.4798 115.977 71.4654 115.972 71.4524 115.963C71.4395 115.955 71.4284 115.944 71.4197 115.931C71.411 115.919 71.4049 115.904 71.4017 115.889C71.3985 115.874 71.3983 115.859 71.4012 115.843L72.5809 109.6C72.5832 109.584 72.5886 109.569 72.5969 109.556C72.6051 109.543 72.616 109.531 72.6289 109.522C72.6417 109.513 72.6563 109.506 72.6717 109.503C72.6871 109.5 72.703 109.499 72.7185 109.502C72.734 109.505 72.7487 109.511 72.7619 109.52C72.775 109.529 72.7862 109.54 72.7948 109.553C72.8035 109.566 72.8094 109.581 72.8122 109.597C72.815 109.612 72.8146 109.628 72.8111 109.643L71.6316 115.887C71.6265 115.914 71.6123 115.938 71.5913 115.955C71.5703 115.973 71.544 115.982 71.5168 115.982Z" fill="#0C0C0C"/>
<path d="M19.3257 147.554C19.2954 147.554 19.2663 147.542 19.2445 147.521C19.2226 147.5 19.2097 147.471 19.2085 147.441L17.7503 109.626C17.7497 109.61 17.7521 109.595 17.7574 109.581C17.7628 109.566 17.7709 109.553 17.7813 109.542C17.7918 109.53 17.8044 109.521 17.8184 109.515C17.8323 109.508 17.8475 109.505 17.8629 109.504C17.8936 109.504 17.9231 109.516 17.9456 109.537C17.9681 109.558 17.982 109.586 17.9845 109.617L19.443 147.432C19.4436 147.447 19.4411 147.463 19.4358 147.477C19.4304 147.492 19.4223 147.505 19.4118 147.516C19.4013 147.528 19.3887 147.537 19.3747 147.543C19.3607 147.549 19.3456 147.553 19.3302 147.554H19.3257Z" fill="#0C0C0C"/>
<path d="M89.7884 111.502C89.7666 111.502 89.7453 111.496 89.7267 111.485C89.7082 111.473 89.6933 111.457 89.6835 111.438C89.6738 111.418 89.6697 111.396 89.6716 111.375C89.6736 111.353 89.6815 111.332 89.6946 111.315L91.0255 109.512C91.0441 109.487 91.0716 109.471 91.102 109.467C91.1325 109.463 91.1634 109.47 91.1881 109.489C91.2128 109.507 91.2294 109.534 91.2343 109.564C91.2392 109.594 91.232 109.625 91.2142 109.651L89.8821 111.455C89.8713 111.469 89.8572 111.481 89.8409 111.49C89.8246 111.498 89.8066 111.502 89.7884 111.502Z" fill="#0C0C0C"/>
<path d="M5.33697 161H239.687C239.749 161 239.809 160.975 239.853 160.931C239.897 160.887 239.921 160.828 239.921 160.766C239.921 160.704 239.897 160.644 239.853 160.6C239.809 160.556 239.749 160.532 239.687 160.532H5.33697C5.2748 160.532 5.21517 160.556 5.1712 160.6C5.12724 160.644 5.10254 160.704 5.10254 160.766C5.10254 160.828 5.12724 160.887 5.1712 160.931C5.21517 160.975 5.2748 161 5.33697 161Z" fill="#292A2E"/>
</g>
<defs>
<clipPath id="clip0">
<rect width="248" height="161" fill="white"/>
</clipPath>
</defs>
</svg>
