<svg width="100" height="100" viewBox="0 0 100 100" fill="none" xmlns="http://www.w3.org/2000/svg">
<path d="M99.9984 44.9825C99.6973 45.5886 99.4649 46.2424 99.0855 46.7909C97.0177 49.7665 92.7081 49.5611 90.9413 46.3901C90.6427 45.8566 90.3441 45.6487 89.7715 45.5986C88.8416 45.516 88.2812 44.8447 88.2714 43.9531C88.2616 43.0864 88.8244 42.315 89.7348 42.2674C90.4445 42.2298 90.699 41.8641 91.022 41.3357C92.0817 39.6024 93.6577 38.7934 95.6423 39.0138C97.5781 39.2292 98.9167 40.3263 99.668 42.1797C99.7757 42.4477 99.7316 42.7859 99.9984 42.9862C99.9984 43.65 99.9984 44.3162 99.9984 44.9825Z" fill="white" fill-opacity="0.3"/>
<path d="M52.8384 48.9875C55.5646 54.1021 58.2272 59.0438 60.8359 64.0132C61.9396 66.1146 63.3051 68.0933 63.9414 70.4252C64.8126 73.6087 64.6462 76.7571 62.8989 79.5648C61.1932 82.305 61.3987 85.268 61.3792 88.2511C61.3767 88.6619 61.5578 88.7596 61.9151 88.7495C62.5661 88.732 63.217 88.7245 63.868 88.7521C64.9374 88.7996 65.5981 89.4183 65.6128 90.4953C65.6471 93.0601 65.6446 95.6249 65.6153 98.1898C65.603 99.2768 64.957 99.938 63.8998 99.9606C62.0766 99.9956 60.2534 99.9956 58.4327 99.9606C57.422 99.9405 56.7246 99.2167 56.705 98.2874C56.6854 97.3331 57.4196 96.5892 58.4743 96.5542C59.4826 96.5216 60.4933 96.5166 61.5015 96.5542C62.0644 96.5767 62.3287 96.469 62.2895 95.8053C62.2308 94.8435 62.2479 93.8742 62.2846 92.9073C62.3067 92.3638 62.1794 92.1584 61.5945 92.1609C53.8467 92.181 46.1013 92.1785 38.3534 92.1635C37.8224 92.1635 37.6878 92.3413 37.7074 92.8522C37.7416 93.8166 37.7612 94.7859 37.7025 95.7502C37.6584 96.4415 37.9203 96.5617 38.5321 96.5592C43.057 96.5341 47.5818 96.5542 52.1043 96.5417C53.0391 96.5392 53.7953 96.8097 54.0792 97.7965C54.4218 98.9887 53.6044 99.9606 52.2486 99.9731C49.6766 99.9931 47.1071 99.9806 44.5351 99.9806C41.8334 99.9806 39.1317 99.9881 36.4299 99.9781C34.9592 99.9731 34.3669 99.3594 34.3621 97.8491C34.3523 95.5172 34.3498 93.1854 34.3621 90.8535C34.3694 89.3607 34.9739 88.7721 36.4593 88.7495C38.608 88.7195 38.5541 88.7195 38.6202 86.5129C38.7009 83.8203 38.0916 81.4208 36.797 79.0038C34.9371 75.5323 35.1354 71.8278 36.8876 68.2737C37.6193 66.7909 38.4171 65.3432 39.2149 63.898C39.812 62.8134 40.7664 62.4828 41.6474 62.9988C42.4843 63.4897 42.7095 64.4765 42.1711 65.526C41.4785 66.8785 40.7248 68.201 40.0347 69.5561C38.559 72.454 38.4709 75.3845 40.1717 78.1948C41.7599 80.8172 42.0438 83.665 41.9826 86.6331C41.941 88.7495 41.9753 88.7521 44.0212 88.7521C48.3821 88.7521 52.7454 88.7345 57.1063 88.7696C57.8136 88.7746 58.0387 88.6318 58.0289 87.8579C57.9996 85.8316 57.8821 83.7978 58.3495 81.789C58.6163 80.6418 59.025 79.5723 59.6221 78.5755C61.5015 75.4496 61.4648 72.3212 59.742 69.1328C57.1039 64.2536 54.5099 59.3494 51.8865 54.4402C51.5512 54.618 51.7078 54.9186 51.7054 55.1415C51.6931 59.0388 51.7054 62.9362 51.6858 66.836C51.6833 67.392 51.8033 67.7001 52.3465 67.9681C54.7228 69.1428 55.8705 71.7226 55.2416 74.2974C54.6469 76.7345 52.3759 78.5304 49.9409 78.4903C47.4546 78.4502 45.2546 76.6469 44.7137 74.2073C44.1411 71.63 45.2815 69.1553 47.6161 67.9581C48.0101 67.7577 48.3013 67.6074 48.2964 67.0439C48.2671 62.9462 48.2793 58.8485 48.2768 54.7508C48.2768 54.6606 48.2426 54.5705 48.1863 54.2799C47.2319 56.0658 46.3607 57.7063 45.4772 59.3419C45.2423 59.7777 45.0196 60.2311 44.7064 60.6068C44.1509 61.2705 43.4363 61.3757 42.6801 60.9775C41.9508 60.5943 41.6009 59.7376 41.9288 58.9487C42.2959 58.067 42.7584 57.2229 43.2062 56.3789C44.4861 53.9618 45.7807 51.5548 47.1462 48.9975C46.4414 48.9975 45.8737 49.0201 45.3059 48.9925C44.19 48.9399 43.566 48.3112 43.5317 47.1691C43.4999 46.1046 43.4803 45.0351 43.5391 43.9731C43.5733 43.3369 43.3457 43.109 42.7657 43.0013C39.068 42.3025 35.5636 41.0125 32.2648 39.1766C25.0749 35.1741 19.6837 29.4008 16.1304 21.8441C13.9915 17.2931 12.8365 12.4815 12.5355 7.44961C12.5036 6.92363 12.3617 6.55794 11.9359 6.19727C10.4039 4.90484 10.2889 2.61054 11.6153 1.14028C12.9417 -0.332478 15.2005 -0.385077 16.5856 1.02507C17.9952 2.46026 17.9536 4.83471 16.4094 6.15969C15.9175 6.58048 15.9077 6.96871 15.9395 7.52726C16.3311 14.0996 18.3696 20.0933 22.0869 25.4434C27.3043 32.9524 34.3694 37.6437 43.1744 39.5849C43.265 39.6049 43.3629 39.5774 43.5219 39.5698C43.5219 38.9336 43.5072 38.3025 43.5244 37.6738C43.5611 36.4515 44.1509 35.7877 45.3133 35.7777C48.4384 35.7527 51.5634 35.7527 54.6885 35.7777C55.802 35.7877 56.3673 36.4515 56.4554 37.6036C56.5068 38.2649 56.1128 39.1891 56.6756 39.5122C57.1039 39.7552 57.909 39.3419 58.5355 39.1716C65.4244 37.3006 71.2267 33.6212 75.8764 28.0958C80.3646 22.7608 82.9757 16.5517 83.8665 9.57861C83.9717 8.75456 83.9766 7.91549 84.0794 7.09144C84.1308 6.68568 83.9375 6.49532 83.6805 6.26489C82.0678 4.80215 81.9259 2.56796 83.3379 1.06765C84.6839 -0.362534 86.9696 -0.35502 88.3082 1.08518C89.7202 2.60303 89.5734 4.86727 87.9264 6.2699C87.5544 6.588 87.459 6.92613 87.4321 7.37447C87.1335 12.439 85.9833 17.2856 83.8249 21.8666C80.2985 29.3557 74.9587 35.0914 67.8496 39.0914C64.5287 40.9599 60.9974 42.2699 57.2703 42.9837C56.661 43.1015 56.3869 43.3119 56.4334 44.0006C56.4994 44.9624 56.4578 45.9318 56.4481 46.8986C56.4309 48.3513 55.8363 48.97 54.4389 48.995C53.9666 48.995 53.482 48.9875 52.8384 48.9875Z" fill="white" fill-opacity="0.3"/>
<path d="M4.89514 38.9737C6.75746 39.0338 8.17929 39.8854 9.10678 41.5435C9.32702 41.9367 9.49098 42.1922 10.0171 42.2248C11.0817 42.2899 11.7106 42.9737 11.7277 43.9004C11.7449 44.8672 11.1257 45.5635 9.99022 45.6211C9.37352 45.6512 9.27318 46.0595 9.05049 46.4402C7.94435 48.3312 5.91807 49.2354 3.79879 48.7846C1.87285 48.3738 0.316426 46.628 0.0423396 44.5717C-0.234194 42.5103 0.864599 40.4239 2.73181 39.4846C3.40724 39.139 4.12427 38.9386 4.89514 38.9737Z" fill="white" fill-opacity="0.3"/>
<path d="M20.7039 45.6137C20.0554 45.6137 19.4045 45.6513 18.7584 45.6037C17.8432 45.536 17.3782 44.9274 17.2583 44.0533C17.1482 43.2593 17.6914 42.4302 18.5259 42.3075C20.0016 42.0871 21.5066 42.062 22.9798 42.3225C23.8094 42.4703 24.2426 43.1441 24.1961 44.0057C24.1472 44.9049 23.643 45.501 22.7474 45.5911C22.0719 45.6588 21.3867 45.6037 20.7064 45.6037C20.7039 45.6112 20.7039 45.6112 20.7039 45.6137Z" fill="white" fill-opacity="0.3"/>
<path d="M79.1579 45.6037C78.5094 45.6012 77.856 45.6538 77.2124 45.5886C76.3534 45.501 75.8762 44.9199 75.8004 44.0708C75.7245 43.2117 76.1234 42.5003 76.953 42.3451C78.4874 42.057 80.0585 42.0495 81.5904 42.3501C82.4274 42.5154 82.8018 43.2417 82.721 44.0858C82.6403 44.9224 82.1655 45.5185 81.2968 45.5911C80.5895 45.6538 79.8701 45.6062 79.1579 45.6037Z" fill="white" fill-opacity="0.3"/>
<path d="M32.333 45.6187C31.9757 45.6187 31.616 45.6438 31.2611 45.6137C30.3483 45.5335 29.8638 44.96 29.7316 44.0808C29.6117 43.2943 30.155 42.4928 30.9822 42.3075C31.939 42.0946 32.9228 42.0846 33.8797 42.32C34.7239 42.5279 35.1302 43.1992 35.0739 44.0307C35.0127 44.8999 34.5208 45.5135 33.6007 45.6062C33.1798 45.6488 32.7564 45.6488 32.3355 45.6688C32.3355 45.6538 32.3355 45.6362 32.333 45.6187Z" fill="white" fill-opacity="0.3"/>
<path d="M67.5435 45.6738C67.1373 45.6488 66.7139 45.6538 66.2954 45.5937C65.4242 45.4684 64.9739 44.8598 64.9127 44.0357C64.854 43.2443 65.226 42.578 66.014 42.3551C67.0271 42.0696 68.0819 42.0796 69.0975 42.3401C69.9344 42.5555 70.3235 43.2393 70.2477 44.0808C70.1718 44.9099 69.697 45.496 68.8258 45.6012C68.4098 45.6513 67.984 45.6488 67.5435 45.6738Z" fill="white" fill-opacity="0.3"/>
<path d="M49.9604 74.9963C48.8322 74.9787 47.9365 74.0169 47.9684 72.8598C47.9977 71.7727 48.9277 70.8335 49.9824 70.8234C51.0689 70.8134 52.0282 71.8053 52.0234 72.9324C52.016 74.0946 51.0983 75.0138 49.9604 74.9963Z" fill="white" fill-opacity="0.3"/>
</svg>
