<svg width="100" height="100" viewBox="0 0 100 100" fill="none" xmlns="http://www.w3.org/2000/svg">
<path d="M85.1708 73.3254C86.0033 73.3254 86.8385 73.2893 87.6709 73.3338C89.1604 73.4117 90.3575 73.3644 91.3403 71.7588C92.4706 69.9083 94.9318 69.5466 96.9391 70.3981C98.9492 71.2496 100.188 73.3282 99.9765 75.4876C99.7649 77.633 98.1724 79.3888 95.9925 79.8786C93.9685 80.3349 91.7022 79.361 90.7111 77.4465C90.352 76.7537 89.9511 76.6368 89.2773 76.6424C86.4654 76.6702 83.6535 76.6758 80.8416 76.6396C80.1818 76.6312 79.8644 76.7787 79.9953 77.4771C80.0008 77.5105 79.9981 77.5467 79.9953 77.5801C79.9368 78.362 80.3433 79.5586 79.831 79.8368C79.1044 80.232 78.0186 79.9593 77.0887 79.9871C76.4762 80.0066 76.6739 79.5558 76.6711 79.2608C76.6572 77.3881 76.6349 75.5126 76.6795 73.6399C76.6962 72.9887 76.5514 72.8023 75.8832 72.9303C73.0602 73.4729 70.226 73.4646 67.4002 72.9247C66.796 72.8106 66.6374 72.9693 66.6513 73.5787C66.6903 75.4876 66.6457 77.3965 66.6791 79.3026C66.6875 79.8452 66.5399 80.0428 65.9887 79.9899C65.134 79.9092 64.0343 80.3405 63.483 79.8257C62.9791 79.3527 63.3188 78.2507 63.3522 77.4298C63.38 76.7759 63.1851 76.6257 62.5476 76.634C59.6661 76.6702 56.7846 76.673 53.9031 76.634C53.2599 76.6257 52.962 76.8232 52.6558 77.3937C51.4754 79.5947 48.8973 80.5242 46.5977 79.6615C44.3259 78.81 42.9478 76.4003 43.4127 74.0934C43.9139 71.6057 46.0631 69.8694 48.5577 70.0029C50.3896 70.1003 51.8067 70.988 52.6614 72.6019C52.976 73.1974 53.3073 73.3421 53.9281 73.3338C56.74 73.3004 59.5519 73.3338 62.3638 73.2976C62.6756 73.2948 63.277 73.6816 63.3243 72.9386C63.3605 72.3765 63.444 71.8896 62.6422 71.5724C56.8375 69.285 52.4498 65.3698 49.5321 59.8435C48.0259 56.994 47.1044 53.9637 46.8455 50.7442C46.7926 50.0819 46.6283 49.659 45.9434 49.3139C43.925 48.2927 42.9561 46.0081 43.4823 43.8738C44.0336 41.631 45.9379 40.0644 48.179 40.0059C50.4425 39.9475 52.4915 41.4251 53.1235 43.5649C53.7694 45.7549 52.9119 48.0645 50.913 49.211C50.2309 49.6033 50.0861 49.9845 50.1613 50.7442C51.119 60.4751 59.2735 68.7507 68.9899 69.797C80.8555 71.077 91.048 63.3858 93.0609 51.6346C93.1026 51.3953 93.0776 51.1421 93.1444 50.9112C93.3977 50.0541 93.0915 49.5922 92.3064 49.1303C90.3742 47.9922 89.5752 45.6603 90.2211 43.526C90.867 41.3945 92.9356 39.9308 95.1962 40.0059C97.4012 40.0783 99.2805 41.6171 99.8373 43.8098C100.383 45.9553 99.4419 48.2259 97.4513 49.2889C96.8249 49.6228 96.5716 49.9817 96.488 50.6774C95.2937 60.6254 90.0207 67.5375 80.8611 71.5334C80.4881 71.6976 79.9869 71.6753 79.9786 72.3515C79.9702 73.0694 80.0649 73.3922 80.9112 73.3393C82.32 73.2614 83.7454 73.3254 85.1708 73.3254Z" fill="white" fill-opacity="0.3"/>
<path d="M16.413 3.36401C23.5514 3.35009 29.7542 7.6159 32.2293 14.0522C34.6737 20.4105 33.0144 27.715 27.939 32.2229C25.6645 34.2431 23.8186 36.4191 23.4344 39.5524C23.4149 39.7082 23.4289 39.967 23.2145 39.9698C22.2456 39.9921 21.274 40.031 20.3107 39.9531C19.985 39.9253 20.1771 39.4717 20.1938 39.2268C20.4471 35.2477 20.7033 31.2657 20.9928 27.2893C21.0485 26.5435 20.72 25.5418 21.2851 25.1244C21.7612 24.771 22.6883 25.0325 23.4177 25.013C26.135 24.9351 28.3037 22.7647 28.3344 20.0905C28.365 17.4442 26.2881 15.1931 23.6683 15.0317C20.8007 14.8536 18.4176 16.7931 18.1447 19.5284C18.1336 19.6314 18.1336 19.7371 18.128 19.8401C18.0139 21.8186 17.7911 21.9744 15.7783 21.7017C15.3133 21.6377 15.3272 21.3789 15.2911 21.0756C15.1936 20.2519 15.2549 19.4144 15.0126 18.6018C14.2777 16.1392 11.7135 14.5948 9.14385 15.0929C6.58251 15.5882 4.83134 17.8505 5.01787 20.4189C5.20162 22.9455 7.33978 24.9324 9.9373 25.0242C10.6862 25.0492 11.669 24.6875 12.12 25.2023C12.5042 25.6364 12.3121 26.5825 12.3594 27.306C12.6267 31.2518 12.8773 35.1948 13.1612 39.1406C13.2058 39.7556 13.1668 40.1117 12.3956 40.031C11.6411 39.9503 10.7447 40.2342 10.1461 39.9169C9.55867 39.6053 9.79253 38.6007 9.56146 37.9218C8.89885 35.9711 7.79915 34.321 6.22059 32.9965C3.17204 30.4392 1.17587 27.2642 0.346219 23.3407C-1.60819 14.0939 4.93713 4.79429 14.2999 3.55044C15.0906 3.43914 15.8813 3.35287 16.413 3.36401Z" fill="white" fill-opacity="0.3"/>
<path d="M18.334 53.1763C18.334 55.4413 18.3034 57.6563 18.3423 59.8685C18.3785 61.8748 18.153 63.8923 18.5177 65.8902C19.3474 70.4343 23.6181 73.6788 28.2592 73.3004C32.8389 72.9275 36.5946 69.0736 36.6364 64.4877C36.7088 56.8215 36.6949 49.1525 36.6531 41.4863C36.628 36.6696 38.5184 32.9241 42.5163 30.2166C45.3087 28.3244 46.6646 25.6502 46.6646 22.2805C46.6646 19.0526 46.6534 15.8275 46.6674 12.5996C46.7008 5.5901 52.2132 0.152792 59.2151 0.00531141C63.5415 -0.0865162 67.3056 0.998719 70.2261 4.32399C72.1972 6.56681 73.2412 9.20476 73.3108 12.185C73.3665 14.5419 73.3108 16.9044 73.3386 19.2613C73.3442 19.8067 73.2607 20.0321 72.6259 20.0404C69.9922 20.0738 70.0256 20.0989 69.9839 17.447C69.9504 15.232 70.201 13.0031 69.8057 10.802C69.0902 6.78942 65.5934 3.63946 61.5259 3.40015C59.6606 3.29163 57.7952 3.2638 55.98 3.94555C52.4833 5.26453 50.0611 8.55919 50.011 12.3019C49.9665 15.6327 50.0082 18.9635 49.9943 22.2944C49.9748 26.8607 48.0872 30.4559 44.3093 33.0243C41.4138 34.9916 39.9856 37.6908 39.994 41.1886C40.0079 48.8214 40.0162 56.4542 39.994 64.087C39.9717 71.3442 34.0806 76.9429 26.8254 76.6479C20.564 76.3919 15.1629 70.9769 15.0265 64.7131C14.9458 61.1068 15.0126 57.4977 14.9987 53.8886C14.9959 53.4016 15.0209 53.1484 15.6585 53.2681C16.5021 53.4267 17.379 53.371 18.334 53.1763Z" fill="white" fill-opacity="0.3"/>
<path d="M73.3276 59.1367C73.3276 56.4931 73.3415 54.139 73.3165 51.7821C73.3109 51.3397 73.5113 51.1115 73.8092 50.8416C75.3015 49.4864 75.3961 47.43 74.0626 46.0387C72.7596 44.6808 70.6326 44.6585 69.3102 45.9858C67.9209 47.38 68.01 49.4642 69.5385 50.8638C69.803 51.1059 70.0118 51.2952 70.009 51.707C69.9867 54.0917 69.9979 56.4737 69.9979 59.1116C68.6253 57.5533 67.4031 56.1704 66.1865 54.7818C64.5188 52.8757 62.8651 50.9557 61.178 49.069C60.8272 48.6767 60.7826 48.468 61.2002 48.0812C64.4075 45.1177 66.5846 41.5113 67.7762 37.3179C67.907 36.856 68.0852 36.6556 68.6086 36.664C70.6215 36.7001 72.6344 36.7057 74.6472 36.6612C75.218 36.65 75.4045 36.8671 75.5465 37.3652C76.7269 41.528 78.9096 45.087 82.064 48.0506C82.3396 48.3094 82.6737 48.4763 82.2589 48.9438C79.3245 52.2635 76.4179 55.6055 73.3276 59.1367Z" fill="white" fill-opacity="0.3"/>
<path d="M48.2238 86.6516C38.0536 86.6516 27.8806 86.6405 17.7105 86.6738C16.8446 86.6766 16.6191 86.4763 16.6442 85.6081C16.711 83.3207 16.6637 83.3207 18.9633 83.3207C38.925 83.3207 58.8867 83.3291 78.8456 83.2985C79.7894 83.2957 80.0483 83.5239 80.0149 84.47C79.9398 86.6516 79.9927 86.6544 77.7988 86.6544C67.9433 86.6516 58.0821 86.6516 48.2238 86.6516Z" fill="white" fill-opacity="0.3"/>
<path d="M48.3322 93.316C38.1258 93.316 27.9194 93.3049 17.7131 93.3383C16.8528 93.341 16.6162 93.1518 16.644 92.2781C16.7108 89.9879 16.6635 89.9852 18.9603 89.9852C38.922 89.9852 58.8837 89.9935 78.8427 89.9629C79.7781 89.9629 80.051 90.1744 80.0175 91.1288C79.9396 93.3132 79.9925 93.316 77.8042 93.316C67.9821 93.316 58.1571 93.316 48.3322 93.316Z" fill="white" fill-opacity="0.3"/>
<path d="M48.3322 99.9777C38.1258 99.9777 27.9194 99.9666 17.7131 100C16.8528 100.003 16.6162 99.8136 16.644 98.937C16.7108 96.6469 16.6635 96.6469 18.9603 96.6469C38.922 96.6469 58.8837 96.6552 78.8427 96.6246C79.7781 96.6246 80.051 96.8361 80.0175 97.7906C79.9396 99.9749 79.9925 99.9777 77.8042 99.9777C67.9793 99.9777 58.1571 99.9777 48.3322 99.9777Z" fill="white" fill-opacity="0.3"/>
<path d="M83.3251 91.5574C83.3251 89.0614 83.3223 86.5654 83.3279 84.0693C83.3279 83.7243 83.1664 83.2818 83.829 83.3152C85.8697 83.4154 87.9244 83.1204 89.9512 83.5044C94.0549 84.2836 96.9197 88.0541 96.6385 92.2615C96.3629 96.3492 92.9385 99.7579 88.8459 99.9527C87.22 100.031 85.5858 99.9416 83.9571 99.9972C83.3195 100.019 83.3168 99.7162 83.3195 99.257C83.3307 96.6887 83.3251 94.123 83.3251 91.5574Z" fill="white" fill-opacity="0.3"/>
<path d="M13.2893 84.3837C13.2893 89.27 13.2893 94.0395 13.2893 98.9147C9.72289 97.1366 6.23446 95.3946 2.74603 93.6555C2.09735 93.3327 1.44866 93.0071 0.797189 92.6815C0.374012 92.4701 0.0287888 92.1946 0.0120844 91.6742C-0.00461995 91.1483 0.323899 90.8478 0.747076 90.6363C4.88976 88.5688 9.03244 86.5068 13.2893 84.3837Z" fill="white" fill-opacity="0.3"/>
<path d="M16.6553 43.3423C18.6654 43.3423 20.6755 43.3674 22.6828 43.3284C23.2758 43.3173 23.3593 43.5288 23.312 44.0408C23.0029 47.3438 20.0602 49.9984 16.6775 50.004C13.2977 50.0096 10.3661 47.3744 10.0181 44.0658C9.95125 43.4369 10.1545 43.3229 10.7308 43.3312C12.7047 43.3618 14.6814 43.3423 16.6553 43.3423Z" fill="white" fill-opacity="0.3"/>
<path d="M71.66 23.3545C73.6395 23.3545 75.6162 23.3768 77.5957 23.3406C78.1831 23.3295 78.3362 23.4937 78.3446 24.0836C78.3752 26.6881 78.3947 26.6854 75.8278 26.6854C72.4953 26.6854 69.1627 26.6659 65.833 26.7021C65.1565 26.7104 64.9755 26.5351 64.9783 25.8533C64.995 23.3545 64.9672 23.3545 67.4979 23.3545C68.8843 23.3545 70.2708 23.3545 71.66 23.3545Z" fill="white" fill-opacity="0.3"/>
<path d="M71.6544 30.0163C73.5922 30.0163 75.5326 30.0385 77.4676 30.0023C78.0968 29.9912 78.3585 30.0942 78.3445 30.8204C78.3111 32.8573 77.8768 33.3443 75.8667 33.3443C72.8906 33.3443 69.9144 33.3554 66.9383 33.3387C65.3875 33.3304 64.3157 31.5718 65.0033 30.2055C65.1759 29.8632 65.4878 30.019 65.7355 30.019C67.7094 30.0107 69.6833 30.0163 71.6544 30.0163Z" fill="white" fill-opacity="0.3"/>
<path d="M16.5522 39.8641C16.3156 36.344 16.0762 32.824 15.8395 29.3039C15.7644 28.1658 15.7421 27.0193 15.6029 25.8868C15.5082 25.1104 15.7922 24.9017 16.491 25.0158C16.6608 25.0437 16.839 25.0409 17.0088 25.0158C17.5907 24.9323 17.7772 25.1383 17.7299 25.7449C17.5183 28.4691 17.3541 31.1989 17.1731 33.9259C17.0422 35.9071 16.9142 37.8884 16.7833 39.8669C16.7082 39.8669 16.6302 39.8641 16.5522 39.8641Z" fill="white" fill-opacity="0.3"/>
<path d="M10.6584 21.6878C10.4524 21.6878 10.2436 21.6989 10.0375 21.685C9.04921 21.621 8.37268 20.9782 8.34206 20.0794C8.31143 19.1806 8.99353 18.4432 9.92619 18.3625C10.9257 18.2763 11.7052 18.8606 11.8667 19.8151C11.8945 19.9848 11.8862 20.1601 11.8973 20.3326C11.9753 21.6906 11.9753 21.6906 10.6584 21.6878Z" fill="white" fill-opacity="0.3"/>
<path d="M22.4823 21.6878C22.2233 21.3901 21.3658 22.2499 21.3853 21.1452C21.4187 19.1472 21.9254 18.3625 23.2145 18.357C24.2139 18.3514 24.974 19.0471 24.9963 19.9848C25.0185 21.1229 24.2139 21.6878 22.4823 21.6878Z" fill="white" fill-opacity="0.3"/>
</svg>
