<svg width="100" height="100" viewBox="0 0 100 100" fill="none" xmlns="http://www.w3.org/2000/svg">
<g opacity="0.5" clip-path="url(#clip0)">
<path d="M34.8038 100C33.0734 98.6612 33.4085 97.5547 35.735 96.9231C37.1786 96.5316 38.6125 96.1141 40.0722 95.7696C40.7167 95.6182 40.968 95.399 40.968 94.8301C40.9454 86.8886 40.9454 78.9498 40.968 71.0084C40.968 70.463 40.8133 70.2803 40.1141 70.3011C38.6705 70.3455 37.2205 70.3272 35.7769 70.309C34.4429 70.2933 33.7501 69.7818 33.7437 68.6962C33.7147 64.5623 33.676 60.4311 33.7565 56.2973C33.7888 54.5983 34.7071 53.0899 36.0025 51.7589C36.3473 51.404 36.4085 51.1874 36.0315 50.8012C34.4074 49.1388 33.6244 47.2441 33.7082 45.1015C33.7759 43.3791 33.6631 41.6514 33.7501 39.929C33.7888 39.1565 33.4633 39.0417 32.6126 39.0469C27.5504 39.0782 22.4883 39.0808 17.4261 39.0521C14.5808 39.0365 12.3478 37.3506 12.0771 35.1062C11.8032 32.8409 13.569 30.8732 16.3466 30.3721C16.7719 30.2964 17.2231 30.2808 17.6613 30.2756C19.2595 30.2521 19.2595 30.2573 19.2595 28.9211C19.2595 20.0376 19.2595 11.154 19.2595 2.26784C19.2595 0.699387 19.8492 -0.0182912 21.1091 0.00519648C22.3304 0.0286841 22.8814 0.715046 22.8814 2.23391C22.8814 11.8012 22.8814 21.3685 22.8814 30.9358C22.8814 32.8357 22.427 33.1985 20.0587 33.1985C19.2563 33.1985 18.4508 33.1854 17.6484 33.2011C16.4368 33.2272 15.6667 33.8013 15.6635 34.6573C15.6603 35.5133 16.4304 36.1162 17.6355 36.1214C22.0146 36.137 26.3937 36.1266 30.7727 36.1266C31.0531 36.1266 31.3398 36.1057 31.617 36.1292C33.0863 36.2649 34.0852 36.064 34.8424 34.7487C35.8156 33.0549 37.8617 32.2485 40.1914 32.2355C46.7391 32.1989 53.29 32.1807 59.8376 32.2433C62.5604 32.2694 64.5486 33.4125 65.6796 35.4298C65.9567 35.9256 66.2145 36.0666 66.9137 35.9987C76.2905 35.0905 83.6889 28.7697 84.2882 21.1102C84.3172 20.7526 84.3237 20.3951 84.372 20.0376C84.5009 19.0954 85.2033 18.537 86.2087 18.5552C87.2592 18.5735 87.9616 19.2051 87.9584 20.1994C87.9519 22.5638 87.4589 24.8708 86.3021 27.0421C82.69 33.8144 76.3936 37.8229 67.3391 38.8773C66.4465 38.9817 66.237 39.2348 66.2596 39.9212C66.3208 41.7088 66.2403 43.5017 66.2918 45.2894C66.3466 47.2911 65.6055 49.0761 64.1104 50.6341C63.6173 51.1483 63.6753 51.4223 64.1361 51.9103C65.5861 53.4501 66.3144 55.1986 66.2918 57.1663C66.2499 60.8095 66.2822 64.4553 66.2789 68.1011C66.2789 69.9306 65.8053 70.3038 63.5046 70.3038C62.2575 70.3038 61.0137 70.3299 59.77 70.2933C59.1738 70.275 59.0353 70.4369 59.0353 70.8988C59.0514 78.9028 59.0514 86.9095 59.0353 94.9136C59.0353 95.3938 59.2512 95.5869 59.8086 95.7226C61.3037 96.0854 62.7795 96.5081 64.2586 96.91C66.5851 97.5442 66.917 98.6403 65.193 99.9869C64.7097 99.9869 64.2296 99.9869 63.7462 99.9869C61.5196 99.692 59.4316 99.0135 57.2952 98.4733C55.842 98.1053 55.1299 97.3198 54.9913 96.1271C54.9301 95.6078 54.9365 95.0884 54.9365 94.5691C54.9365 87.0922 54.9365 79.6153 54.9333 72.1384C54.9333 70.6143 54.9237 70.6091 53.0741 70.6065C50.9474 70.6039 48.8207 70.6013 46.694 70.6065C45.1569 70.6117 45.0764 70.6691 45.0764 71.9427C45.0699 79.3543 45.0732 86.766 45.0732 94.1777C45.0732 94.4386 45.0732 94.697 45.0732 94.958C45.0571 97.5129 44.6833 97.9278 41.6833 98.7473C39.9014 99.2327 38.1259 99.7442 36.2603 99.9869C35.7705 100 35.2871 100 34.8038 100Z" fill="white" fill-opacity="0.3"/>
<path d="M70.9738 100C70.0715 99.4441 69.8685 98.6977 69.8685 97.8052C69.8975 89.6733 69.8814 81.5413 69.8879 73.4094C69.8911 69.5156 72.5333 67.3861 77.3345 67.3861C78.6202 67.3861 79.9059 67.3756 81.1884 67.3887C84.0208 67.4174 86.1185 68.4508 87.3268 70.523C87.6651 71.1023 88.0131 71.1832 88.6834 71.0475C92.8337 70.2072 95.9818 67.2086 96.3395 63.7298C96.3621 63.5028 96.3717 63.2757 96.4072 63.0487C96.5618 62.057 97.2965 61.4776 98.3309 61.535C99.3781 61.5924 100.023 62.2371 99.9968 63.2392C99.9259 65.9794 98.7498 68.3778 96.5199 70.429C94.5221 72.2663 92.0249 73.4746 89.0668 73.9417C88.113 74.0931 87.9519 74.3802 87.9551 75.0691C87.9809 82.6478 87.9584 90.2265 87.9874 97.8052C87.9906 98.6977 87.7811 99.4415 86.8821 100C86.3988 100 85.9187 100 85.4353 100C84.5138 99.7599 84.1593 99.1805 84.0014 98.4655C83.8854 97.9487 83.8757 97.432 83.8757 96.9127C83.8757 94.2821 83.8822 91.6514 83.8725 89.0208C83.8693 88.1126 83.8403 88.0918 82.8317 88.4467C80.2217 89.3705 77.6278 89.3705 75.0177 88.4467C74.0124 88.0918 73.9802 88.1126 73.9769 89.0208C73.9673 91.6828 73.9737 94.3473 73.9737 97.0092C73.9737 97.4973 73.9544 97.9827 73.848 98.4655C73.6901 99.1805 73.3357 99.7599 72.4141 100C71.9372 100 71.4539 100 70.9738 100Z" fill="white" fill-opacity="0.3"/>
<path d="M13.105 99.9999C12.2028 99.4441 11.9965 98.6977 11.9998 97.8052C12.0288 90.2265 12.0062 82.6478 12.032 75.0691C12.0352 74.3801 11.8676 74.1061 10.9203 73.9443C4.69808 72.8847 0.270681 68.5734 0.00323281 63.4349C-0.0579904 62.2761 0.531686 61.595 1.65304 61.535C2.75183 61.4749 3.55418 62.0987 3.5864 63.2417C3.68307 66.8876 6.94079 70.0688 11.0717 70.9848C11.8709 71.1623 12.2865 71.1701 12.7151 70.4394C13.859 68.4873 15.8761 67.4669 18.5571 67.3991C20.2004 67.3573 21.8502 67.373 23.4968 67.3938C27.0155 67.4382 29.7545 69.5103 30.0574 72.3393C30.096 72.6942 30.1057 73.0544 30.1057 73.4119C30.1089 81.5439 30.096 89.6758 30.125 97.8078C30.1283 98.7003 29.9188 99.4467 29.0198 100.003C28.5365 100.003 28.0563 100.003 27.573 100.003C26.6514 99.7625 26.297 99.1831 26.1391 98.468C26.0231 97.9513 26.0134 97.4346 26.0134 96.9152C26.0134 94.2846 26.0199 91.654 26.0102 89.0234C26.007 88.1152 25.978 88.0943 24.9694 88.4492C22.3594 89.3731 19.7654 89.3731 17.1554 88.4492C16.15 88.0943 16.1178 88.1152 16.1146 89.0234C16.1049 91.6853 16.1114 94.3499 16.1114 97.0118C16.1114 97.4998 16.092 97.9852 15.9857 98.468C15.8278 99.1831 15.4734 99.7625 14.5518 100.003C14.0685 99.9999 13.5883 99.9999 13.105 99.9999Z" fill="white" fill-opacity="0.3"/>
<path d="M43.4395 10.2589C40.3204 8.60952 38.3258 6.38341 37.5815 3.4605C37.4945 3.1108 37.4493 2.75326 37.4139 2.39834C37.2109 0.391446 37.9778 -0.198355 40.4751 0.0573999C44.5319 0.474958 47.6672 2.10344 49.9872 4.93761C51.2826 3.3796 52.8131 2.12953 54.7852 1.26571C56.5413 0.495836 58.4167 0.0626193 60.4145 0.0208635C61.9934 -0.0130631 62.6926 0.574129 62.6217 1.86595C62.4187 5.48044 60.2985 8.20762 56.5832 10.2641C58.6938 11.4124 60.3823 12.8373 61.4456 14.7007C61.8645 15.4314 64.7871 17.7932 65.6281 18.1246C68.3251 19.1894 69.8106 20.9432 69.8525 23.3702C69.8912 25.7999 68.4863 27.6319 65.7957 28.6967C63.0503 29.7823 60.4016 29.4744 58.0429 27.9112C57.4822 27.5406 57.16 27.504 56.5252 27.8015C52.2073 29.8345 47.8412 29.8241 43.5072 27.8276C42.9143 27.5562 42.5856 27.4675 41.9895 27.8851C39.5825 29.5762 36.2668 29.7641 33.5987 28.4514C30.9565 27.1517 29.6063 24.589 30.2766 22.1462C30.9371 19.7427 33.4859 17.9159 36.6212 17.6105C37.0369 17.5688 37.4493 17.6731 37.5782 17.1381C38.2839 14.1787 40.2946 11.9187 43.4395 10.2589Z" fill="white" fill-opacity="0.3"/>
<path d="M30.0832 57.2708C29.951 61.3837 25.8362 64.5546 20.7676 64.4502C15.8794 64.351 11.9128 60.9636 12.0384 56.9915C12.1673 52.8838 16.2822 49.7156 21.354 49.8148C26.2454 49.9113 30.212 53.2988 30.0832 57.2708Z" fill="white" fill-opacity="0.3"/>
<path d="M69.9008 57.1586C69.875 53.1265 73.9222 49.8226 78.8973 49.8122C83.8854 49.8017 87.9326 53.0587 87.9616 57.1064C87.9874 61.1358 83.937 64.4424 78.965 64.4554C73.9834 64.4658 69.9233 61.1985 69.9008 57.1586Z" fill="white" fill-opacity="0.3"/>
<path d="M50.1192 61.5273C53.973 61.5273 57.8301 61.5455 61.6839 61.5116C62.4702 61.5038 62.699 61.6734 62.67 62.3128C62.6087 63.7743 62.6409 65.2383 62.6571 66.7024C62.6635 67.1356 62.6571 67.4044 61.9192 67.4018C53.9698 67.3757 46.0172 67.3809 38.0679 67.3966C37.4814 67.3966 37.3171 67.2635 37.33 66.7963C37.3622 65.267 37.3751 63.7377 37.3235 62.211C37.3042 61.6447 37.5233 61.5116 38.1968 61.5168C42.1666 61.5403 46.1429 61.5273 50.1192 61.5273Z" fill="white" fill-opacity="0.3"/>
<path d="M50 42.1343C48.5242 39.7438 47.1547 37.5307 45.7305 35.2263C48.608 35.2263 51.3662 35.2263 54.2534 35.2263C52.8581 37.4942 51.4887 39.7151 50 42.1343Z" fill="white" fill-opacity="0.3"/>
</g>
<defs>
<clipPath id="clip0">
<rect width="100" height="100" fill="white"/>
</clipPath>
</defs>
</svg>
