<svg width="162" height="250" viewBox="0 0 162 250" fill="none" xmlns="http://www.w3.org/2000/svg">
<path d="M73.3304 235.723C73.3304 235.723 65.7108 236.164 63.9163 235.723C62.1217 235.282 58.5326 232.419 58.084 234.624C57.6354 236.83 60.0993 239.917 61.6446 241.675C63.1899 243.432 69.4779 244.986 71.2867 245.876C73.0955 246.765 75.773 248.963 78.0162 248.963C80.2594 248.963 81.5768 241.682 81.5768 241.682C81.5768 241.682 74.8544 237.719 73.0314 234.848" fill="white"/>
<path d="M73.3304 235.723C73.3304 235.723 65.7108 236.164 63.9163 235.723C62.1217 235.282 58.5326 232.419 58.084 234.624C57.6354 236.83 60.0993 239.917 61.6446 241.675C63.1899 243.432 69.4779 244.986 71.2867 245.876C73.0955 246.765 75.773 248.963 78.0162 248.963C80.2594 248.963 81.5768 241.682 81.5768 241.682C81.5768 241.682 74.8544 237.719 73.0314 234.848" stroke="#263238" stroke-linejoin="round"/>
<path d="M58.4826 233.959C63.0545 242.249 70.5887 243.656 70.5887 243.656L80.1311 246.786C79.5756 247.997 78.8778 248.956 78.0731 248.956C75.8299 248.956 73.1381 246.751 71.3435 245.869C69.549 244.986 63.2681 243.439 61.7014 241.668C60.1348 239.896 57.6637 236.823 58.1408 234.617C58.1638 234.362 58.2863 234.126 58.4826 233.959Z" fill="white" stroke="#263238" stroke-linejoin="round"/>
<path d="M154.184 230.129C154.184 230.129 160.024 236.633 160.522 238.531C160.985 240.351 156.527 242.998 155.374 243.796C152.337 245.854 149.025 247.49 145.532 248.655C144.293 249.075 138.212 250.483 139.009 247.521C139.6 245.329 144.272 242.802 144.863 241.514C145.454 240.225 146.429 237.712 146.429 237.712L154.184 230.129Z" fill="white" stroke="#263238" stroke-linejoin="round"/>
<path d="M155.374 243.831C152.337 245.889 149.025 247.525 145.532 248.69C144.457 249.054 139.728 250.161 139.023 248.508C141.16 248.389 145.262 247.724 150.51 244.776C153.988 242.871 157.297 240.681 160.401 238.23C160.448 238.34 160.488 238.452 160.522 238.566C160.985 240.379 156.527 243.026 155.374 243.831Z" fill="white" stroke="#263238" stroke-linejoin="round"/>
<path d="M138.368 148.49L135.94 166.113L133.882 203.299C133.882 203.299 140.163 209.25 143.745 213.22C147.327 217.19 155.502 231.032 155.502 231.032C155.502 231.032 154.854 234.498 150.837 236.857C146.821 239.217 144.642 238.853 144.642 238.853L141.744 233.889L140.704 231.648C140.704 231.648 117.282 209.474 116.834 206.603C116.385 203.733 114.064 172.702 114.064 172.702L95.7551 199.112C95.7551 199.112 93.5048 216.525 91.7245 220.726C89.9442 224.927 82.5239 238.587 82.5239 238.587L81.6266 241.668C80.6746 241.969 79.66 242.026 78.6791 241.834C77.6982 241.642 76.7837 241.206 76.0222 240.568C74.4731 239.155 73.1117 237.556 71.9703 235.807L74.4556 232.853L74.9042 230.864C74.9042 230.864 80.9572 195.366 82.3031 191.179C83.649 186.992 100.056 150.709 100.056 150.709L103.617 141.012C103.617 141.012 106.978 143.211 117.297 146.298C127.615 149.386 138.368 148.49 138.368 148.49Z" fill="#2978B5" stroke="#263238" stroke-linejoin="round"/>
<path d="M115.531 152.243C108.011 148.868 104.457 145.5 102.798 143.295L103.645 140.998C103.645 140.998 107.007 143.197 117.325 146.285C126.583 149.043 136.118 148.637 138.048 148.518L138.397 148.567L137.734 153.279C134.148 154.56 130.338 155.128 126.527 154.951C122.715 154.773 118.978 153.852 115.531 152.243Z" fill="#FAE1E1" stroke="#263238" stroke-linejoin="round"/>
<path d="M142.328 96.9511L159.988 109.848L139.978 146.726C139.779 148.102 139.056 149.354 137.955 150.226C136.104 151.718 123.998 151.389 119.625 150.065C115.131 148.543 110.793 146.604 106.672 144.275C104.82 143.12 102.299 140.634 102.976 138.485C103.428 137.096 104.047 135.766 104.82 134.522L108.381 124.432C108.381 124.432 94.4234 125.259 92.5719 125.259C90.7204 125.259 84.3326 109.386 84.3326 109.386C84.3326 109.386 86.1842 109.218 86.8535 108.063C87.2737 107.266 87.5941 106.422 87.8078 105.549C89.7616 106.664 91.7831 107.66 93.8608 108.532C97.4214 110.016 101.096 110.345 102.606 109.687C104.115 109.029 113.038 101.089 115.053 98.6035C117.069 96.1179 117.411 95.1027 118.08 95.1027C118.749 95.1027 131.197 95.9359 132.714 95.9359C134.231 95.9359 142.328 96.9511 142.328 96.9511Z" fill="#FB9300" stroke="#263238" stroke-linejoin="round"/>
<path d="M86.8251 108.035C87.2496 107.271 87.5795 106.46 87.8078 105.619L88.3348 106.214C88.3348 106.214 91.0265 108.196 90.35 111.01C89.9299 112.768 87.8648 113.363 86.0417 113.517C85.0163 111.143 84.2971 109.358 84.2971 109.358C84.2971 109.358 86.1557 109.19 86.8251 108.035Z" fill="#FAE1E1" stroke="#263238" stroke-linejoin="round"/>
<path d="M115.353 104.632L116.257 102.076" stroke="#263238" stroke-linejoin="round"/>
<path d="M108.352 124.405L114.562 106.872" stroke="#263238" stroke-linejoin="round"/>
<path d="M142.164 160.183C143.142 159.387 143.948 158.406 144.534 157.298C145.119 156.19 145.473 154.978 145.573 153.734C145.673 152.489 145.518 151.237 145.117 150.053C144.716 148.868 144.078 147.775 143.239 146.837L74.2775 69.0425L63.7382 77.6195L128.626 158.726C129.407 159.711 130.38 160.532 131.489 161.14C132.598 161.749 133.82 162.132 135.082 162.268C136.344 162.404 137.621 162.289 138.838 161.931C140.054 161.573 141.185 160.978 142.164 160.183Z" fill="white" stroke="#263238" stroke-linejoin="round"/>
<path d="M92.6218 89.7393L143.239 146.837C144.034 147.781 144.632 148.869 144.999 150.04C145.367 151.21 145.496 152.441 145.379 153.66C145.263 154.88 144.903 156.065 144.321 157.148C143.739 158.231 142.945 159.191 141.986 159.973C141.026 160.754 139.92 161.342 138.729 161.703C137.538 162.064 136.287 162.191 135.047 162.077C133.806 161.962 132.601 161.609 131.499 161.036C130.397 160.464 129.421 159.684 128.626 158.74L80.7579 98.8974L92.6218 89.7393Z" fill="white" stroke="#263238" stroke-linejoin="round"/>
<path d="M16.7525 11.2932C23.3791 5.89631 31.4848 2.55286 40.0442 1.68565C48.6037 0.818452 57.2325 2.46646 64.8392 6.42126C72.446 10.3761 78.6891 16.46 82.7789 23.9036C86.8687 31.3472 88.6215 39.8161 87.8156 48.2392C87.0097 56.6623 83.6813 64.6613 78.2514 71.2244C72.8215 77.7876 65.534 82.62 57.3105 85.1107C49.0871 87.6013 40.2971 87.6383 32.0523 85.2169C23.8075 82.7954 16.4782 78.0244 10.9914 71.5071C3.63603 62.7704 0.110931 51.519 1.19128 40.2273C2.27163 28.9356 7.86897 18.528 16.7525 11.2932ZM68.2458 72.4314C73.9175 67.8145 78.0694 61.6477 80.1765 54.7107C82.2835 47.7738 82.2511 40.3783 80.0833 33.4595C77.9155 26.5407 73.7097 20.4093 67.9977 15.8407C62.2858 11.272 55.3241 8.47133 47.9933 7.79276C40.6624 7.11418 33.2915 8.5882 26.8126 12.0284C20.3338 15.4686 15.038 20.7205 11.5949 27.12C8.15186 33.5194 6.71619 40.779 7.46944 47.9807C8.22269 55.1824 11.131 62.0027 15.8267 67.5792C18.9445 71.2819 22.7736 74.3446 27.0953 76.5923C31.417 78.8401 36.1466 80.2289 41.0142 80.6794C45.8817 81.13 50.7919 80.6335 55.4643 79.2183C60.1367 77.8031 64.4799 75.4969 68.2458 72.4314Z" fill="white" stroke="#263238" stroke-linejoin="round"/>
<path d="M84.3041 109.358L77.895 99.4366C77.895 99.4366 75.545 94.9696 74.8685 94.1434C74.192 93.3172 71.5073 92.323 73.6935 92.323C75.8797 92.323 76.542 93.6463 76.542 93.6463V90.1455C76.542 89.1513 76.542 86.6937 77.8808 86.8617C79.2196 87.0298 78.7425 88.9622 78.9988 90.8526C79.1128 91.6858 80.0741 95.4597 80.0741 95.4597L81.4984 89.8934C81.5628 89.6229 81.7261 89.385 81.9571 89.225C82.1881 89.065 82.4709 88.9939 82.7517 89.0252C83.0294 89.0672 83.243 89.1933 83.243 89.5013C83.0403 91.0034 82.7599 92.4944 82.4027 93.9684L82.9226 96.769C82.9226 96.769 83.6347 92.393 84.6673 91.2307C85.123 90.7196 85.9206 91.6648 85.5859 92.491C85.2512 93.3172 85.0946 97.9663 85.0946 97.9663L85.2655 99.9478C85.2655 99.9478 86.4405 97.9663 87.1098 96.9721C87.7792 95.9778 88.7976 96.4749 88.292 97.9663C87.7864 99.4576 86.6114 101.936 86.6114 101.936L87.8077 105.549C87.8077 105.549 89.6877 111.171 84.3041 109.358Z" fill="white" stroke="#263238" stroke-linejoin="round"/>
<path d="M76.5706 93.6462L77.7456 96.951" stroke="#263238" stroke-linejoin="round"/>
<path d="M156.812 107.818C156.812 107.818 160.828 108.861 160.828 110.513C160.828 112.166 160.828 146.565 160.999 147.72C161.17 148.875 124.332 143.75 124.332 143.75L123.492 138.149L146.031 133.682L146.202 117.802" fill="#FB9300"/>
<path d="M156.812 107.818C156.812 107.818 160.828 108.861 160.828 110.513C160.828 112.166 160.828 146.565 160.999 147.72C161.17 148.875 124.332 143.75 124.332 143.75L123.492 138.149L146.031 133.682L146.202 117.802" stroke="#263238" stroke-linejoin="round"/>
<path d="M127.195 137.406L127.359 144.093L127.245 144.163L124.332 143.764L123.492 138.163L127.195 137.406Z" fill="#FAE1E1" stroke="#263238" stroke-linejoin="round"/>
<path d="M123.492 138.106C123.492 138.106 118.785 132.155 116.763 132.155C114.74 132.155 111.721 132.323 111.066 132.323C110.41 132.323 108.879 131.987 109.72 133.149C110.56 134.312 113.423 134.137 113.423 134.137L109.677 136.146C109.42 136.282 109.199 136.474 109.03 136.707C108.86 136.941 108.748 137.209 108.701 137.492C108.655 137.775 108.675 138.065 108.76 138.339C108.845 138.613 108.993 138.864 109.193 139.073C110.04 139.899 112.226 139.899 112.226 139.899C112.226 139.899 114.576 143.701 116.093 144.03C117.61 144.359 123.998 142.875 123.998 142.875L123.492 138.106Z" fill="white" stroke="#263238" stroke-linejoin="round"/>
<path d="M127.437 107.804L127.003 96.9651L131.297 95.5577L130.585 99.9198L127.437 107.804Z" fill="#FAE1E1" stroke="#263238" stroke-linejoin="round"/>
<path d="M127.003 96.965L123.855 103.301L127.152 103.014L127.003 96.965Z" fill="#FAE1E1" stroke="#263238" stroke-linejoin="round"/>
<path d="M125.002 88.6681C126.426 89.0882 129.873 97.2521 129.873 97.2521L127.437 107.804L131.297 102.454L132.358 97.3152L141.459 93.5903L141.316 87.6809C142.143 87.2407 142.938 86.7447 143.695 86.1966C145.315 85.0919 146.697 83.6833 147.761 82.0516C149.762 78.6768 152.625 73.4746 148.188 67.8453C143.916 62.412 139.486 62.09 134.658 61.8169H134.131C134.131 61.8169 128.548 65.1987 128.434 66.8861C128.32 68.5735 127.573 70.968 125.999 71.9483C124.425 72.9285 122.281 71.8082 122.281 73.9157C122.318 74.5825 122.49 75.2353 122.785 75.8364C123.081 76.4374 123.496 76.9745 124.005 77.4165C124.005 77.4165 122.581 83.893 121.868 86.0005C121.156 88.108 123.57 88.241 125.002 88.6681Z" fill="white" stroke="#263238" stroke-linejoin="round"/>
<path d="M129.246 72.1022C128.876 72.6553 128.79 73.2435 129.061 73.4115C129.331 73.5795 129.837 73.2715 130.2 72.7113C130.563 72.1512 130.656 71.5701 130.392 71.402C130.129 71.234 129.616 71.5491 129.246 72.1022Z" fill="#263238"/>
<path d="M132.586 71.7801C132.586 71.7801 132.443 69.3855 130.157 69.3855" stroke="#263238" stroke-linejoin="round"/>
<path d="M126.006 80.2233C126.006 80.2233 129.866 81.0629 130.585 78.8239" stroke="#263238" stroke-linejoin="round"/>
<path d="M135.449 66.8581C134.16 68.1184 138.888 71.2131 139.6 72.6274C140.312 74.0417 139.023 76.2822 138.888 77.2695C138.753 78.2567 142.171 81.0644 142.171 81.0644L143.467 82.3316L142.463 86.2736C142.463 86.2736 142.919 86.2736 143.695 86.1965C145.315 85.0919 146.697 83.6833 147.761 82.0516C149.762 78.6768 152.625 73.4746 148.188 67.8453C143.916 62.412 139.486 62.09 134.658 61.8169C135.491 62.37 136.545 62.6151 137.143 63.2172C138.026 64.0364 136.737 65.5838 135.449 66.8581Z" fill="#A6A6A6" stroke="#263238" stroke-linejoin="round"/>
<path d="M140.455 81.6315C140.455 81.6315 142.591 78.3968 145.183 80.2312C147.775 82.0656 143.047 86.2805 142.178 86.9807C141.309 87.6809 138.617 85.0133 138.617 85.0133C138.122 85.7164 137.489 86.3152 136.756 86.7745C136.022 87.2338 135.202 87.5443 134.345 87.6879" fill="white"/>
<path d="M140.455 81.6315C140.455 81.6315 142.591 78.3968 145.183 80.2312C147.775 82.0656 143.047 86.2805 142.178 86.9807C141.309 87.6809 138.617 85.0133 138.617 85.0133C138.122 85.7164 137.489 86.3152 136.756 86.7745C136.022 87.2338 135.202 87.5443 134.345 87.6879" stroke="#263238" stroke-linejoin="round"/>
<path d="M137.884 64.3234C137.884 64.3234 144.037 71.08 145.611 74.1747C146.678 76.3588 147.587 78.6143 148.331 80.9243C148.331 80.9243 151.478 80.6442 153.316 78.6767C155.153 76.7093 153.173 68.9655 149.598 65.1706C147.368 62.8344 144.754 60.884 141.865 59.4013C141.865 59.4013 146.444 59.5413 144.713 58.274C142.983 57.0067 138.703 56.4466 135.84 57.8539C135.462 57.9981 135.117 58.215 134.825 58.492C134.534 58.7689 134.301 59.1003 134.141 59.4668C133.981 59.8332 133.898 60.2274 133.895 60.6261C133.892 61.0248 133.97 61.4201 134.124 61.7888L137.884 64.3234Z" fill="#263238" stroke="#263238" stroke-linejoin="round"/>
<path d="M142.321 92.7432L145.269 98.8976L133.732 105.409L131.781 96.8951L142.321 92.7432Z" fill="#FAE1E1" stroke="#263238" stroke-linejoin="round"/>
</svg>
