<svg width="611" height="552" viewBox="0 0 611 552" fill="none" xmlns="http://www.w3.org/2000/svg">
<g opacity="0.3">
<path d="M591.769 493.353H18.46V522.568H591.769V493.353Z" fill="#F3F5FD"/>
<path d="M571.659 464.142H38.575V493.357H571.659V464.142Z" fill="#F3F5FD"/>
<path d="M571.659 485.54H38.5747V493.357H571.659V485.54Z" fill="#DEE8F5"/>
<path d="M591.769 514.751H18.46V522.568H591.769V514.751Z" fill="#DEE8F5"/>
<path d="M611 522.568H0V551.782H611V522.568Z" fill="#F3F5FD"/>
<path d="M611 543.966H0V551.782H611V543.966Z" fill="#DEE8F5"/>
<path d="M125.297 213.814H79.165V450.994H125.297V213.814Z" fill="#F3F5FD"/>
<path d="M241.674 213.814H195.542V450.994H241.674V213.814Z" fill="#F3F5FD"/>
<path d="M531.066 213.814H484.934V450.994H531.066V213.814Z" fill="#F3F5FD"/>
<path d="M65.272 191.854H139.192V218.769C139.192 219.671 138.839 220.536 138.211 221.174C137.583 221.811 136.731 222.17 135.843 222.17H68.6213C67.733 222.17 66.8811 221.811 66.253 221.174C65.6249 220.536 65.272 219.671 65.272 218.769V191.854Z" fill="#C1D8ED"/>
<path d="M181.651 191.854H255.568V218.769C255.568 219.671 255.216 220.536 254.587 221.174C253.959 221.811 253.107 222.17 252.219 222.17H184.998C184.109 222.17 183.258 221.811 182.629 221.174C182.001 220.536 181.648 219.671 181.648 218.769V191.854H181.651Z" fill="#C1D8ED"/>
<path d="M471.041 191.854H544.958V218.769C544.958 219.671 544.605 220.536 543.977 221.174C543.349 221.811 542.497 222.17 541.609 222.17H474.391C473.502 222.17 472.65 221.811 472.022 221.174C471.394 220.536 471.041 219.671 471.041 218.769V191.854Z" fill="#C1D8ED"/>
<path d="M68.6208 442.877H135.842C136.73 442.877 137.582 443.235 138.211 443.873C138.839 444.511 139.192 445.376 139.192 446.278V464.142H65.2715V446.278C65.2715 445.376 65.6244 444.511 66.2525 443.873C66.8806 443.235 67.7325 442.877 68.6208 442.877Z" fill="#C1D8ED"/>
<path d="M184.998 442.877H252.217C253.105 442.877 253.957 443.235 254.585 443.873C255.213 444.511 255.566 445.376 255.566 446.278V464.142H181.652V446.278C181.652 445.376 182.004 444.512 182.632 443.874C183.259 443.236 184.11 442.878 184.998 442.877Z" fill="#C1D8ED"/>
<path d="M474.391 442.877H541.609C542.497 442.877 543.349 443.235 543.978 443.873C544.606 444.511 544.959 445.376 544.959 446.278V464.142H471.042V446.278C471.042 445.376 471.394 444.511 472.022 443.873C472.651 443.235 473.503 442.877 474.391 442.877Z" fill="#C1D8ED"/>
<path d="M94.0489 232.825H94.046C92.7642 232.825 91.7251 233.88 91.7251 235.182V429.627C91.7251 430.929 92.7642 431.984 94.046 431.984H94.0489C95.3307 431.984 96.3697 430.929 96.3697 429.627V235.182C96.3697 233.88 95.3307 232.825 94.0489 232.825Z" fill="#C1D8ED"/>
<path d="M110.418 232.825H110.415C109.133 232.825 108.094 233.88 108.094 235.182V429.627C108.094 430.929 109.133 431.984 110.415 431.984H110.418C111.699 431.984 112.738 430.929 112.738 429.627V235.182C112.738 233.88 111.699 232.825 110.418 232.825Z" fill="#C1D8ED"/>
<path d="M210.425 232.825H210.422C209.14 232.825 208.101 233.88 208.101 235.182V429.627C208.101 430.929 209.14 431.984 210.422 431.984H210.425C211.707 431.984 212.746 430.929 212.746 429.627V235.182C212.746 233.88 211.707 232.825 210.425 232.825Z" fill="#C1D8ED"/>
<path d="M226.793 232.825H226.79C225.508 232.825 224.469 233.88 224.469 235.182V429.627C224.469 430.929 225.508 431.984 226.79 431.984H226.793C228.075 431.984 229.114 430.929 229.114 429.627V235.182C229.114 233.88 228.075 232.825 226.793 232.825Z" fill="#C1D8ED"/>
<path d="M418.283 213.814H372.151V450.994H418.283V213.814Z" fill="#F3F5FD"/>
<path d="M358.257 191.854H432.174V218.769C432.174 219.671 431.822 220.536 431.193 221.174C430.565 221.811 429.713 222.17 428.825 222.17H361.607C360.718 222.17 359.866 221.811 359.238 221.174C358.61 220.536 358.257 219.671 358.257 218.769V191.854Z" fill="#C1D8ED"/>
<path d="M361.607 442.877H428.825C429.713 442.877 430.565 443.235 431.193 443.873C431.822 444.511 432.174 445.376 432.174 446.278V464.142H358.257V446.278C358.257 445.376 358.61 444.511 359.238 443.873C359.866 443.235 360.718 442.877 361.607 442.877Z" fill="#C1D8ED"/>
<path d="M387.035 232.825H387.032C385.75 232.825 384.711 233.88 384.711 235.182V429.627C384.711 430.929 385.75 431.984 387.032 431.984H387.035C388.317 431.984 389.356 430.929 389.356 429.627V235.182C389.356 233.88 388.317 232.825 387.035 232.825Z" fill="#C1D8ED"/>
<path d="M403.403 232.825H403.4C402.118 232.825 401.079 233.88 401.079 235.182V429.627C401.079 430.929 402.118 431.984 403.4 431.984H403.403C404.685 431.984 405.724 430.929 405.724 429.627V235.182C405.724 233.88 404.685 232.825 403.403 232.825Z" fill="#C1D8ED"/>
<path d="M499.82 232.825H499.817C498.535 232.825 497.496 233.88 497.496 235.182V429.627C497.496 430.929 498.535 431.984 499.817 431.984H499.82C501.102 431.984 502.141 430.929 502.141 429.627V235.182C502.141 233.88 501.102 232.825 499.82 232.825Z" fill="#C1D8ED"/>
<path d="M516.186 232.825H516.183C514.901 232.825 513.862 233.88 513.862 235.182V429.627C513.862 430.929 514.901 431.984 516.183 431.984H516.186C517.468 431.984 518.507 430.929 518.507 429.627V235.182C518.507 233.88 517.468 232.825 516.186 232.825Z" fill="#C1D8ED"/>
<path d="M565.125 181.295V198.545C565.125 199.473 564.762 200.363 564.117 201.019C563.471 201.675 562.595 202.044 561.681 202.045H47.4804C46.5661 202.045 45.6893 201.676 45.0429 201.02C44.3964 200.363 44.0332 199.473 44.0332 198.545V182.035C44.0334 181.221 44.2295 180.419 44.6045 179.699C44.9796 178.979 45.5222 178.364 46.1851 177.906L302.346 0.8668C303.161 0.30207 304.126 0 305.113 0C306.1 0 307.064 0.30207 307.88 0.8668L562.973 177.165C563.636 177.623 564.179 178.239 564.554 178.959C564.929 179.678 565.125 180.48 565.125 181.295Z" fill="#DEE8F5"/>
<path d="M496.472 172.93H113.774C113.491 172.929 113.216 172.837 112.989 172.666C112.762 172.495 112.594 172.255 112.511 171.98C112.428 171.706 112.434 171.412 112.527 171.141C112.62 170.87 112.796 170.636 113.03 170.474L304.361 38.2231C304.58 38.0719 304.838 37.9911 305.102 37.9911C305.367 37.9911 305.625 38.0719 305.843 38.2231L497.201 170.474C497.434 170.635 497.609 170.867 497.703 171.137C497.797 171.407 497.803 171.699 497.722 171.973C497.641 172.247 497.476 172.487 497.251 172.659C497.026 172.831 496.754 172.926 496.472 172.93Z" fill="#F3F5FD"/>
</g>
</svg>
