<svg width="150" height="70" viewBox="0 0 150 70" fill="none" xmlns="http://www.w3.org/2000/svg">
<g clip-path="url(#clip0)">
<path d="M69.6558 61.7274C69.6558 62.4168 69.4 62.9479 68.8884 63.3206C68.38 63.6901 67.6513 63.8749 66.702 63.8749H65.8335V66.5536H64.9751V59.7428H66.8888C68.7335 59.7428 69.6558 60.4043 69.6558 61.7274ZM65.8335 63.1948H66.6061C67.3668 63.1948 67.9172 63.0814 68.2572 62.8547C68.5972 62.628 68.7672 62.2646 68.7672 61.7647C68.7672 61.3143 68.6073 60.9789 68.2875 60.7584C67.9677 60.5379 67.4695 60.4276 66.7929 60.4276H65.8335V63.1948ZM75.8564 63.9961C75.8564 64.8284 75.6292 65.479 75.1748 65.948C74.7203 66.4138 74.0925 66.6468 73.2913 66.6468C72.7965 66.6468 72.3572 66.5397 71.9735 66.3253C71.5897 66.111 71.2935 65.8036 71.0847 65.403C70.8761 65.0023 70.7717 64.5333 70.7717 63.9961C70.7717 63.1637 70.9973 62.5162 71.4483 62.0535C71.8994 61.5876 72.5256 61.3547 73.3267 61.3547C74.1009 61.3547 74.7152 61.5923 75.1697 62.0674C75.6275 62.5426 75.8564 63.1855 75.8564 63.9961ZM71.6402 63.9961C71.6402 64.6483 71.7816 65.1452 72.0644 65.4868C72.3471 65.8284 72.7628 65.9993 73.3115 65.9993C73.8602 65.9993 74.2759 65.8299 74.5587 65.4914C74.8449 65.1498 74.9879 64.6513 74.9879 63.9961C74.9879 63.347 74.8449 62.8547 74.5587 62.5193C74.2759 62.1807 73.8569 62.0115 73.3015 62.0115C72.7528 62.0115 72.3387 62.1777 72.0593 62.51C71.7799 62.8423 71.6402 63.3377 71.6402 63.9961ZM81.8499 66.5536L80.835 63.5582C80.771 63.375 80.6515 62.9588 80.4765 62.3096H80.4361C80.3015 62.8532 80.1836 63.2724 80.0827 63.5675L79.0374 66.5536H78.068L76.5582 61.4478H77.4368C77.7937 62.7305 78.0646 63.7073 78.2497 64.3781C78.4382 65.0489 78.546 65.5008 78.5729 65.7337H78.6133C78.6503 65.5567 78.7093 65.3284 78.79 65.0489C78.8742 64.7663 78.9466 64.5427 79.0071 64.3781L80.0221 61.4478H80.931L81.9206 64.3781C82.1091 64.9123 82.237 65.361 82.3044 65.7244H82.3447C82.3582 65.6126 82.3935 65.4402 82.4508 65.2073C82.5114 64.9744 82.8631 63.7212 83.5057 61.4478H84.3748L82.8446 66.5536H81.8499ZM87.7168 66.6468C86.8992 66.6468 86.2525 66.417 85.7785 65.9573C85.307 65.4976 85.0713 64.8594 85.0713 64.0426C85.0713 63.2196 85.2904 62.5659 85.7279 62.0814C86.1687 61.5969 86.7597 61.3547 87.5002 61.3547C88.1933 61.3547 88.742 61.5658 89.1463 61.9882C89.5497 62.4075 89.7522 62.9618 89.7522 63.6514V64.1404H85.9396C85.957 64.7399 86.1197 65.1949 86.4293 65.5054C86.7423 65.816 87.1822 65.9713 87.7475 65.9713C88.3435 65.9713 88.9321 65.8564 89.5148 65.6265V66.316C89.2185 66.434 88.9371 66.5179 88.6714 66.5675C88.4091 66.6204 88.0912 66.6468 87.7168 66.6468ZM87.4902 62.0022C87.0453 62.0022 86.6908 62.1357 86.4243 62.4028C86.162 62.6699 86.0068 63.0395 85.9603 63.5116H88.8532C88.8532 63.024 88.7354 62.6513 88.4996 62.3935C88.2639 62.1327 87.9277 62.0022 87.4902 62.0022ZM93.711 61.3547C93.9567 61.3547 94.1767 61.3733 94.3718 61.4106L94.2564 62.128C94.0273 62.0814 93.8256 62.0581 93.6504 62.0581C93.2022 62.0581 92.8186 62.2258 92.4991 62.5612C92.1828 62.8967 92.0242 63.3144 92.0242 63.8144V66.5536H91.1858V61.4478H91.8781L91.9736 62.3935H92.0143C92.2193 62.0612 92.4667 61.805 92.7564 61.6249C93.0461 61.4448 93.364 61.3547 93.711 61.3547ZM97.7453 66.6468C96.9268 66.6468 96.281 66.417 95.8062 65.9573C95.3347 65.4976 95.0989 64.8594 95.0989 64.0426C95.0989 63.2196 95.3181 62.5659 95.7556 62.0814C96.1963 61.5969 96.7874 61.3547 97.5278 61.3547C98.2218 61.3547 98.7705 61.5658 99.1739 61.9882C99.5782 62.4075 99.7799 62.9618 99.7799 63.6514V64.1404H95.9681C95.9847 64.7399 96.1482 65.1949 96.4578 65.5054C96.7708 65.816 97.2099 65.9713 97.7752 65.9713C98.3712 65.9713 98.9606 65.8564 99.5425 65.6265V66.316C99.2461 66.434 98.9656 66.5179 98.6991 66.5675C98.4368 66.6204 98.1189 66.6468 97.7453 66.6468ZM97.5179 62.0022C97.0738 62.0022 96.7185 62.1357 96.4528 62.4028C96.1897 62.6699 96.0353 63.0395 95.988 63.5116H98.8809C98.8809 63.024 98.763 62.6513 98.5281 62.3935C98.2924 62.1327 97.9553 62.0022 97.5179 62.0022ZM104.981 65.8688H104.936C104.548 66.3874 103.969 66.6468 103.198 66.6468C102.474 66.6468 101.911 66.4185 101.507 65.962C101.106 65.5054 100.906 64.8564 100.906 64.0147C100.906 63.1731 101.108 62.5193 101.512 62.0535C101.916 61.5876 102.478 61.3547 103.198 61.3547C103.949 61.3547 104.525 61.6062 104.925 62.1094H104.99L104.956 61.7413L104.936 61.3826V59.3049H105.773V66.5536H105.092L104.981 65.8688ZM103.305 65.9993C103.876 65.9993 104.291 65.8564 104.546 65.5706C104.805 65.2818 104.936 64.8175 104.936 64.1777V64.0147C104.936 63.2911 104.804 62.7755 104.541 62.468C104.282 62.1575 103.867 62.0022 103.295 62.0022C102.803 62.0022 102.425 62.1792 102.163 62.5333C101.904 62.8842 101.775 63.3812 101.775 64.024C101.775 64.6762 101.904 65.1685 102.163 65.5008C102.422 65.8331 102.803 65.9993 103.305 65.9993ZM112.818 61.364C113.545 61.364 114.108 61.5938 114.508 62.0535C114.913 62.51 115.114 63.1575 115.114 63.9961C115.114 64.8346 114.911 65.4868 114.503 65.9526C114.1 66.4154 113.538 66.6468 112.818 66.6468C112.457 66.6468 112.127 66.5862 111.827 66.4651C111.532 66.3408 111.283 66.1514 111.08 65.8967H111.02L110.843 66.5536H110.243V59.3049H111.08V61.0658C111.08 61.4602 111.067 61.8143 111.04 62.128H111.08C111.471 61.6187 112.05 61.364 112.818 61.364ZM112.696 62.0115C112.124 62.0115 111.712 62.1637 111.459 62.468C111.206 62.7693 111.08 63.2786 111.08 63.9961C111.08 64.7135 111.21 65.2274 111.469 65.5381C111.728 65.8455 112.144 65.9993 112.716 65.9993C113.231 65.9993 113.615 65.8269 113.868 65.4822C114.12 65.1343 114.246 64.6358 114.246 63.9867C114.246 63.3221 114.12 62.8268 113.868 62.5006C113.615 62.1745 113.224 62.0115 112.696 62.0115ZM115.705 61.4478H116.604L117.816 64.3594C118.082 65.024 118.247 65.5039 118.311 65.7989H118.351C118.395 65.6405 118.486 65.3703 118.624 64.9883C118.765 64.6032 119.223 63.4231 119.997 61.4478H120.896L118.518 67.2617C118.282 67.8363 118.007 68.2431 117.69 68.4822C117.376 68.7245 116.991 68.8456 116.534 68.8456C116.277 68.8456 116.025 68.8192 115.776 68.7664V68.1468C115.961 68.1841 116.169 68.2027 116.397 68.2027C116.973 68.2027 117.384 67.9046 117.63 67.3083L117.938 66.5815L115.705 61.4478ZM129.248 66.5536L128.329 64.3874H125.37L124.461 66.5536H123.592L126.511 59.7149H127.233L130.136 66.5536H129.248ZM128.061 63.6746L127.202 61.5643C127.092 61.2972 126.977 60.9695 126.86 60.5813C126.786 60.8795 126.679 61.2072 126.542 61.5643L125.673 63.6746H128.061ZM131.151 66.5536V59.7428H132.01V66.5536H131.151Z" fill="#7FC4C9"/>
<path d="M43.9128 52.6147C44.6669 54.2827 46.4337 55.369 48.3926 55.369H140.62C145.48 55.369 149.419 51.7343 149.419 47.2508V37.4478C149.419 32.9642 145.48 29.3296 140.62 29.3296H60.3489" stroke="#88C436" stroke-width="1.87746"/>
<path d="M100.692 48.0934L75.5398 56.5179L92.723 56.9008L92.0589 60.577L125.595 50.9271L100.194 51.6929L100.692 48.0934Z" fill="#FEC617"/>
<path d="M139.831 34.2696L141.616 36.9119H142.903L140.869 33.8101C139.911 32.424 139.406 32.3319 138.503 32.0869H136.013V33.2357H137.798C138.702 33.1584 139.131 33.4516 139.831 34.2696Z" fill="#923579"/>
<path d="M141.574 49.0125V38.0607H143.193V49.0125H141.574Z" fill="#923579"/>
<path d="M136.552 44.1109C136.619 42.4872 137.341 42.2719 138.669 41.9282H136.137C135.251 42.7174 135.205 43.3206 135.183 44.4173C135.864 46.1971 136.63 46.2675 137.88 46.6766C139.708 46.7292 140.426 46.3162 141.616 45.4512V43.6897C140.747 44.793 140.27 44.9002 139.416 45.2214C137.398 45.565 137.004 45.121 136.552 44.1109Z" fill="#923579"/>
<path d="M129.621 44.7619C129.315 43.0979 129.855 42.7356 130.617 41.9282H132.693C131.795 42.2697 131.491 42.5982 131.074 43.2685C130.685 44.5746 131.074 44.7619 132.07 45.3363C133.426 45.617 134.12 45.2301 135.349 44.4939C135.404 45.1365 135.542 45.2901 135.806 45.5278V45.7193C134.593 46.593 133.91 46.6315 132.693 46.7149C131.005 46.5393 130.413 46.0156 129.621 44.7619Z" fill="#923579"/>
<path d="M127.629 40.7411V41.9282H140.495V40.7411H127.629Z" fill="#923579"/>
<path d="M121.942 45.7959L118.954 41.7368C119.223 41.3973 119.458 41.2518 119.909 41.0093L123.146 45.2215C122.571 45.7636 122.324 45.8396 121.942 45.7959Z" fill="#923579"/>
<path d="M115.094 38.0988V36.95L144.978 36.8734V38.0988H115.094Z" fill="#923579"/>
<path d="M68.1406 44.8452C68.1406 45.774 67.7754 46.4983 67.0452 47.0181C66.3148 47.5378 65.3238 47.7977 64.0719 47.7977C62.7157 47.7977 61.6725 47.6365 60.9421 47.314V46.1301C61.4116 46.313 61.9228 46.4574 62.4758 46.5633C63.0286 46.6692 63.5763 46.7221 64.1189 46.7221C65.0056 46.7221 65.6732 46.5681 66.1218 46.2601C66.5704 45.9473 66.7947 45.5142 66.7947 44.9607C66.7947 44.595 66.7139 44.2966 66.5522 44.0656C66.3957 43.8298 66.1297 43.6132 65.7541 43.4159C65.3838 43.2185 64.8178 42.9948 64.0563 42.7446C62.9922 42.3933 62.2305 41.9769 61.7716 41.4957C61.3178 41.0145 61.0908 40.3864 61.0908 39.6116C61.0908 38.7983 61.422 38.151 62.0845 37.6697C62.747 37.1885 63.6233 36.9479 64.7135 36.9479C65.8506 36.9479 66.8965 37.1403 67.851 37.5253L67.4363 38.5937C66.4922 38.228 65.5741 38.0451 64.6822 38.0451C63.978 38.0451 63.4277 38.1847 63.0313 38.4638C62.6348 38.7429 62.4366 39.1304 62.4366 39.626C62.4366 39.9918 62.5096 40.2926 62.6557 40.5284C62.8017 40.7594 63.0469 40.9736 63.3912 41.1709C63.7407 41.3633 64.2727 41.5775 64.9873 41.8133C66.1871 42.2079 67.0112 42.6314 67.4598 43.0838C67.9136 43.5362 68.1406 44.1233 68.1406 44.8452ZM75.5424 47.6534L71.6615 38.2978H71.5989C71.6719 39.0389 71.7084 39.9196 71.7084 40.9399V47.6534H70.48V37.0994H72.483L76.1057 45.8053H76.1683L79.8222 37.0994H81.8096V47.6534H80.4795V40.8533C80.4795 40.0736 80.516 39.2266 80.589 38.3122H80.5264L76.6143 47.6534H75.5424ZM92.1455 47.6534L90.7218 44.2966H86.1363L84.7285 47.6534H83.382L87.9044 37.0561H89.0234L93.5226 47.6534H92.1455ZM90.3068 43.1921L88.9769 39.922C88.8043 39.5081 88.6275 39.0004 88.4448 38.3988C88.3295 38.8609 88.1659 39.3685 87.9518 39.922L86.6062 43.1921H90.3068ZM96.4255 43.2643V47.6534H95.0956V37.0994H98.2326C99.6363 37.0994 100.671 37.3473 101.339 37.8429C102.012 38.3387 102.348 39.0846 102.348 40.0808C102.348 41.4764 101.581 42.4197 100.048 42.9106L103.154 47.6534H101.581L98.812 43.2643H96.4255ZM96.4255 42.2104H98.2484C99.1872 42.2104 99.8762 42.0395 100.314 41.6978C100.752 41.3513 100.971 40.834 100.971 40.1457C100.971 39.448 100.747 38.945 100.299 38.6371C99.8555 38.329 99.1408 38.175 98.1546 38.175H96.4255V42.2104ZM108.522 47.6534H107.192V38.1895H103.569V37.0994H112.144V38.1895H108.522V47.6534Z" fill="#DB2121"/>
<path d="M125.014 43.46C125.014 45.5537 123.174 47.251 120.905 47.251C118.635 47.251 116.796 45.5537 116.796 43.46C116.796 41.3663 118.635 39.6689 120.905 39.6689C123.174 39.6689 125.014 41.3663 125.014 43.46ZM118.248 43.46C118.248 44.8139 119.437 45.9113 120.905 45.9113C122.373 45.9113 123.562 44.8139 123.562 43.46C123.562 42.1061 122.373 41.0086 120.905 41.0086C119.437 41.0086 118.248 42.1061 118.248 43.46Z" fill="#923579"/>
<path d="M123.769 49.0125V38.0989H125.18V49.0125H123.769Z" fill="#923579"/>
<path d="M26.7638 15.6974L35.7289 40.4348C38.1362 44.8003 43.1168 42.1964 42.5357 38.0607C46.5202 37.6012 46.1882 34.5377 44.777 33.1592C47.0183 33.1592 47.0183 31.1679 45.5241 30.1723C48.6785 28.1045 47.1843 24.9644 45.5241 24.5815C47.9314 23.6624 47.0183 21.518 45.5241 20.8288C46.8523 18.6077 45.026 16.6931 43.1168 16.6931C43.1168 13.553 40.2114 11.7149 37.3061 13.0169C36.725 10.7959 34.7327 10.7959 33.4046 11.7149C32.2204 10.2602 26.1416 10.1995 26.7638 15.6974Z" fill="#30BDCA" stroke="black" stroke-width="0.14442"/>
<path d="M37.5551 19.833L36.4759 16.9227L32.9065 15.2378" stroke="#017587" stroke-width="0.57768"/>
<path d="M39.3808 19.3735L38.0527 15.774L32.574 13.17" stroke="#017587" stroke-width="0.57768"/>
<path d="M35.8118 22.973L40.0453 24.8877L41.8715 29.7892" stroke="#017587" stroke-width="0.57768"/>
<path d="M41.5393 28.4873L43.7806 24.3516L43.1165 22.5135" stroke="#017587" stroke-width="0.57768"/>
<path d="M36.1437 20.2926L35.3966 18.2247L30.499 15.9271" stroke="#017587" stroke-width="0.57768"/>
<path d="M29.5029 17.7654L32.3253 16.8463" stroke="#017587" stroke-width="0.57768"/>
<path d="M33.6528 23.6625L37.8034 25.5771L38.9655 28.6406" stroke="#017587" stroke-width="0.57768"/>
<path d="M33.7358 29.4065L34.898 27.2621" stroke="#017587" stroke-width="0.57768"/>
<path d="M32.4082 25.6535L34.8985 20.9052L41.4563 18.9139" stroke="#017587" stroke-width="0.57768"/>
<path d="M33.5703 23.5091L38.717 21.8242" stroke="#017587" stroke-width="0.57768"/>
<path d="M35.2307 33.6187L39.9623 35.9162L42.0376 35.3036" stroke="#017587" stroke-width="0.57768"/>
<path d="M34.4836 31.6273L38.8002 33.6186" stroke="#017587" stroke-width="0.57768"/>
<path d="M34.0684 30.1722L36.5587 29.4064" stroke="#017587" stroke-width="0.57768"/>
<path d="M30.499 20.8287L37.2229 39.3626L38.8831 40.2051" stroke="#017587" stroke-width="0.57768"/>
<path d="M30.831 32.3165C30.9595 33.0101 31.104 33.367 31.4536 33.9631C30.7301 34.2403 30.3186 34.1931 29.5858 34.1546C28.8112 33.838 28.9565 33.5497 29.1708 33.0441C30.2219 32.3884 30.4554 32.3494 30.831 32.3165Z" fill="#393A3C" stroke="black" stroke-width="0.14442"/>
<path d="M35.0641 44.1109L33.819 41.0475C29.9366 41.9958 28.7335 41.4403 26.2236 40.856C22.919 39.8753 21.9817 38.6772 20.1638 36.6438C19.0706 37.3244 18.5678 37.1412 17.7565 36.3757C16.7204 34.7465 17.2169 33.8484 18.2961 33.542L19.5412 34.2313C18.2435 32.5773 18.1666 31.4017 17.964 29.3298C25.0132 28.5525 26.8378 27.9167 28.6724 26.6492L23.6918 13.7827C20.8105 14.8555 19.8759 16.251 17.964 18.4545C14.2255 24.1392 13.0964 24.8681 10.7421 27.0322C9.29791 27.8711 9.65469 28.2436 10.7421 28.8702C12.2948 29.0663 13.1678 29.1609 14.7232 29.3294L14.7265 29.3298V32.0869C12.2363 37.2182 16.1378 39.7455 18.9601 40.3582C21.3412 42.5381 22.3636 42.9377 24.1843 43.6492L24.1897 43.6514C28.9575 45.3538 31.2164 45.0965 35.0641 44.1109Z" fill="#393A3C" stroke="black" stroke-width="0.14442"/>
<path d="M22.4465 54.6032C26.3852 53.7225 28.4556 52.8457 32.1587 51.31C20.102 49.5266 20.0225 47.8796 15.8056 45.3362C9.02244 41.583 6.14543 38.5861 0.780762 33.4653C4.14456 43.1759 5.51083 44.1388 8.00267 46.3318C12.7835 51.31 16.7167 52.6783 22.4465 54.6032Z" fill="#ED2A2E" stroke="#ED2A2E" stroke-width="0.14442"/>
<path d="M9.24738 37.7543C6.2946 31.9769 6.34414 29.4515 6.84006 25.1176C5.85076 17.8307 6.9922 13.8925 10.1606 6.96655C4.68884 11.4529 3.6016 14.3693 1.44447 19.5268C-0.608504 27.1732 0.142893 28.8715 0.614368 33.0826C7.13834 40.0865 10.3175 42.0131 15.9097 45.4019L16.0543 45.4896C12.7791 42.8676 11.4721 41.0557 9.24738 37.7543Z" fill="url(#paint0_linear)" stroke="#F9D538" stroke-width="0.14442"/>
<path d="M0.531982 33.0825C6.13664 39.0904 9.60194 41.6734 16.1379 45.4129C2.20438 35.2094 4.00745 35.107 0.531982 31.0146V33.0825Z" fill="#F2BA11" stroke="#F2BA11" stroke-width="0.14442"/>
<path d="M13.9797 11.5617C8.32558 17.6205 7.91458 20.2552 6.59176 25.1175C6.32937 17.7861 6.59161 13.7255 10.4102 6.88987C17.9561 1.19455 20.7706 1.19143 26.1822 0.303442C32.844 -0.323247 36.2651 0.366999 42.2033 2.14152C32.5056 3.80568 30.7084 4.7524 24.688 6.43036C18.7035 7.74292 17.4976 9.30313 13.9797 11.5617Z" fill="url(#paint1_linear)" stroke="#9DCC3C" stroke-width="0.14442"/>
<path d="M6.63409 24.5233C6.62152 24.6672 6.60739 24.8142 6.59155 24.9643C6.60573 24.8162 6.6199 24.6692 6.63409 24.5233C7.13906 18.7407 5.12301 17.8537 10.41 6.81332L13.2325 4.74548C8.53838 10.0213 7.56122 14.985 6.63409 24.5233Z" fill="#78B54F"/>
<path d="M6.59155 24.9643C7.24391 18.7785 4.99145 18.1285 10.41 6.81332L13.2325 4.74548C8.46658 10.102 7.5322 15.1368 6.59155 24.9643Z" stroke="#78B54F" stroke-width="0.14442"/>
<path d="M44.7768 10.4128C52.2781 14.2161 55.2593 16.9825 59.7187 22.3603C57.4742 16.0814 56.5662 12.3699 51.1686 7.80888C47.9559 5.31756 46.0566 4.11753 42.4525 2.37122C35.2252 3.56449 31.2603 4.36802 24.6052 6.4303C30.8622 6.24089 32.4159 4.03058 44.7768 10.4128Z" fill="url(#paint2_linear)" stroke="#127EA3" stroke-width="0.14442"/>
<path d="M44.3615 3.29035C35.1158 4.12955 31.939 5.08707 24.771 6.43039C30.5895 4.54448 34.3524 3.60164 42.3692 2.21814L44.3615 3.29035Z" fill="#127EA3" stroke="#127EA3" stroke-width="0.14442"/>
<path d="M45.0259 10.6427C54.5541 17.8368 56.8549 20.1011 59.8848 25.6919C59.6905 23.3788 59.5892 21.9733 59.2207 22.0924C58.2497 20.7932 58.7276 20.9041 54.1155 16.6164C50.8167 13.9412 48.8309 12.6222 45.0259 10.6427Z" fill="#6E368C" stroke="#6E368C" stroke-width="0.28884"/>
<path d="M59.3034 34.461C55.22 45.7267 52.2677 45.6841 47.5159 50.5442C49.3966 47.4892 50.4727 45.8413 50.8363 38.3669C53.4706 32.7024 53.763 30.3782 53.4927 26.8024C53.0087 18.8257 50.1176 16.6277 46.1047 11.7148C50.7605 15.1508 52.3281 16.504 54.9038 18.8374C57.4553 21.2347 58.3434 22.9138 59.9675 25.8833C60.415 29.1955 59.9143 31.0925 59.3034 34.461Z" fill="url(#paint3_linear)"/>
<g filter="url(#filter0_d)">
<path d="M50.8364 38.4436C49.1085 46.684 47.0285 48.5086 43.8635 52.8419L47.35 50.774C50.2535 46.0553 50.5393 43.3222 50.8364 38.4436Z" fill="url(#paint4_linear)"/>
</g>
<path d="M27.6648 62.3539C27.7727 62.4463 27.887 62.5417 28.0087 62.6448C27.8697 62.5417 27.756 62.4458 27.6648 62.3539C27.0478 61.8262 26.6355 61.3981 26.1825 60.194L24.6883 56.5945C23.9866 55.5156 24.5843 55.2813 26.1825 55.0628C31.7432 52.9393 34.9479 52.3269 40.2942 48.7827C44.5365 45.4259 46.9975 44.3934 51.0026 38.5967C49.5274 44.0869 49.1954 47.1125 44.0297 52.9949C40.7244 55.1269 38.8551 56.2404 35.3966 57.5901C31.9536 58.7343 30.0553 59.3963 27.5106 61.1131C27.2963 61.6327 27.2706 61.9567 27.6648 62.3539Z" fill="url(#paint5_linear)"/>
<path d="M41.6224 60.6536C41.2369 60.7038 40.8635 60.7521 40.5006 60.7987L28.0087 62.4151C27.2593 61.5969 25.9495 61.3319 29.8349 59.5048C33.4283 58.1288 35.4924 57.5742 38.9659 55.6755C44.8188 55.0251 48.2324 54.0032 53.7418 55.0628C49.1839 57.4792 46.6019 58.7992 41.6224 60.6536Z" fill="url(#paint6_linear)"/>
<path d="M29.8348 68.3888C30.688 70.0429 31.3447 69.9481 32.4911 69.9205L52.4136 61.9555C54.1927 61.2377 54.5631 60.8352 55.1529 60.1174C54.5363 56.7059 54.2238 56.2366 53.6587 55.0627C44.9031 59.8493 39.6731 61.0713 30.5819 64.3297C28.7952 64.5855 28.8031 65.2048 29.0047 66.3975L29.8348 68.3888Z" fill="url(#paint7_linear)"/>
<path d="M48.595 69.9206H32.0759L45.9387 64.4064L52.0815 65.0191C53.5323 65.3496 53.4259 65.7599 52.9946 66.5508L50.8363 68.925C50.0245 69.7814 49.5193 69.8955 48.595 69.9206Z" fill="url(#paint8_linear)"/>
<path d="M24.8953 32.6228C25.9268 32.6228 26.7631 31.8856 26.7631 30.9762C26.7631 30.0668 25.9268 29.3296 24.8953 29.3296C23.8638 29.3296 23.0276 30.0668 23.0276 30.9762C23.0276 31.8856 23.8638 32.6228 24.8953 32.6228Z" fill="#393A3C"/>
<path d="M30.2913 20.8287C30.681 20.8287 30.9969 20.5543 30.9969 20.216C30.9969 19.8776 30.681 19.6033 30.2913 19.6033C29.9016 19.6033 29.5857 19.8776 29.5857 20.216C29.5857 20.5543 29.9016 20.8287 30.2913 20.8287Z" fill="#047487"/>
<path d="M29.8767 16.1569C30.2664 16.1569 30.5823 15.8826 30.5823 15.5442C30.5823 15.2058 30.2664 14.9315 29.8767 14.9315C29.487 14.9315 29.1711 15.2058 29.1711 15.5442C29.1711 15.8826 29.487 16.1569 29.8767 16.1569Z" fill="#047487"/>
<path d="M31.9514 13.4764C32.3411 13.4764 32.657 13.202 32.657 12.8637C32.657 12.5253 32.3411 12.251 31.9514 12.251C31.5618 12.251 31.2458 12.5253 31.2458 12.8637C31.2458 13.202 31.5618 13.4764 31.9514 13.4764Z" fill="#047487"/>
<path d="M42.1614 19.2969C42.5511 19.2969 42.867 19.0226 42.867 18.6842C42.867 18.3458 42.5511 18.0715 42.1614 18.0715C41.7717 18.0715 41.4558 18.3458 41.4558 18.6842C41.4558 19.0226 41.7717 19.2969 42.1614 19.2969Z" fill="#047487"/>
<path d="M39.4221 22.2073C39.8118 22.2073 40.1277 21.933 40.1277 21.5946C40.1277 21.2562 39.8118 20.9819 39.4221 20.9819C39.0325 20.9819 38.7166 21.2562 38.7166 21.5946C38.7166 21.933 39.0325 22.2073 39.4221 22.2073Z" fill="#047487"/>
<path d="M42.9092 22.5136C43.2989 22.5136 43.6148 22.2393 43.6148 21.9009C43.6148 21.5625 43.2989 21.2882 42.9092 21.2882C42.5195 21.2882 42.2036 21.5625 42.2036 21.9009C42.2036 22.2393 42.5195 22.5136 42.9092 22.5136Z" fill="#047487"/>
<path d="M41.9961 31.0146C42.3858 31.0146 42.7017 30.7403 42.7017 30.4019C42.7017 30.0635 42.3858 29.7892 41.9961 29.7892C41.6064 29.7892 41.2905 30.0635 41.2905 30.4019C41.2905 30.7403 41.6064 31.0146 41.9961 31.0146Z" fill="#047487"/>
<path d="M39.2566 29.8659C39.6463 29.8659 39.9622 29.5916 39.9622 29.2532C39.9622 28.9148 39.6463 28.6405 39.2566 28.6405C38.8669 28.6405 38.551 28.9148 38.551 29.2532C38.551 29.5916 38.8669 29.8659 39.2566 29.8659Z" fill="#047487"/>
<path d="M35.1892 27.4152C35.5789 27.4152 35.8948 27.1409 35.8948 26.8025C35.8948 26.4641 35.5789 26.1898 35.1892 26.1898C34.7995 26.1898 34.4836 26.4641 34.4836 26.8025C34.4836 27.1409 34.7995 27.4152 35.1892 27.4152Z" fill="#047487"/>
<path d="M39.4221 34.5378C39.8118 34.5378 40.1277 34.2634 40.1277 33.9251C40.1277 33.5867 39.8118 33.3124 39.4221 33.3124C39.0325 33.3124 38.7166 33.5867 38.7166 33.9251C38.7166 34.2634 39.0325 34.5378 39.4221 34.5378Z" fill="#047487"/>
<path d="M42.7429 35.6864C43.1326 35.6864 43.4485 35.4121 43.4485 35.0738C43.4485 34.7354 43.1326 34.4611 42.7429 34.4611C42.3533 34.4611 42.0374 34.7354 42.0374 35.0738C42.0374 35.4121 42.3533 35.6864 42.7429 35.6864Z" fill="#047487"/>
<path d="M39.5889 40.9709C39.9786 40.9709 40.2945 40.6966 40.2945 40.3582C40.2945 40.0198 39.9786 39.7455 39.5889 39.7455C39.1992 39.7455 38.8833 40.0198 38.8833 40.3582C38.8833 40.6966 39.1992 40.9709 39.5889 40.9709Z" fill="#047487"/>
</g>
<defs>
<filter id="filter0_d" x="43.2858" y="38.4436" width="8.12825" height="15.5536" filterUnits="userSpaceOnUse" color-interpolation-filters="sRGB">
<feFlood flood-opacity="0" result="BackgroundImageFix"/>
<feColorMatrix in="SourceAlpha" type="matrix" values="0 0 0 0 0 0 0 0 0 0 0 0 0 0 0 0 0 0 127 0"/>
<feOffset dy="0.57768"/>
<feGaussianBlur stdDeviation="0.28884"/>
<feColorMatrix type="matrix" values="0 0 0 0 0 0 0 0 0 0 0 0 0 0 0 0 0 0 0.25 0"/>
<feBlend mode="normal" in2="BackgroundImageFix" result="effect1_dropShadow"/>
<feBlend mode="normal" in="SourceGraphic" in2="effect1_dropShadow" result="shape"/>
</filter>
<linearGradient id="paint0_linear" x1="8.06842" y1="6.96655" x2="6.28633" y2="35.3259" gradientUnits="userSpaceOnUse">
<stop stop-color="#F9D536"/>
<stop offset="1" stop-color="#F8D43C"/>
</linearGradient>
<linearGradient id="paint1_linear" x1="10.9574" y1="9.72643" x2="36.2587" y2="0.70321" gradientUnits="userSpaceOnUse">
<stop stop-color="#9CCD3F"/>
<stop offset="1" stop-color="#9ECB3A"/>
</linearGradient>
<linearGradient id="paint2_linear" x1="42.1619" y1="2.37122" x2="56.9237" y2="21.4672" gradientUnits="userSpaceOnUse">
<stop stop-color="#1793CE"/>
<stop offset="1" stop-color="#1794CE"/>
</linearGradient>
<linearGradient id="paint3_linear" x1="53.1268" y1="19.8358" x2="49.0873" y2="50.6378" gradientUnits="userSpaceOnUse">
<stop stop-color="#8B3292"/>
<stop offset="1" stop-color="#8A3392"/>
</linearGradient>
<linearGradient id="paint4_linear" x1="49.8065" y1="38.4464" x2="47.7079" y2="52.8939" gradientUnits="userSpaceOnUse">
<stop stop-color="#5E2A64"/>
<stop offset="1" stop-color="#792357"/>
</linearGradient>
<linearGradient id="paint5_linear" x1="26.2224" y1="58.1724" x2="52.9654" y2="50.8788" gradientUnits="userSpaceOnUse">
<stop stop-color="#852273"/>
<stop offset="1" stop-color="#99167E"/>
</linearGradient>
<linearGradient id="paint6_linear" x1="30.152" y1="62.4192" x2="51.8327" y2="58.9216" gradientUnits="userSpaceOnUse">
<stop stop-color="#512555"/>
<stop offset="1" stop-color="#722238"/>
</linearGradient>
<linearGradient id="paint7_linear" x1="30.714" y1="67.1662" x2="54.5413" y2="56.8007" gradientUnits="userSpaceOnUse">
<stop stop-color="#852273"/>
<stop offset="1" stop-color="#99167E"/>
</linearGradient>
<linearGradient id="paint8_linear" x1="34.4494" y1="69.9234" x2="51.6329" y2="66.7894" gradientUnits="userSpaceOnUse">
<stop stop-color="#512555"/>
<stop offset="1" stop-color="#722238"/>
</linearGradient>
<clipPath id="clip0">
<rect width="150" height="70" fill="white"/>
</clipPath>
</defs>
</svg>
