<svg width="76" height="55" viewBox="0 0 76 55" fill="none" xmlns="http://www.w3.org/2000/svg">
<path fill-rule="evenodd" clip-rule="evenodd" d="M75.9046 30.8224L74.3958 31.5584L74.1327 31.6864L71.3528 33.0433L75.9046 30.8224ZM74.1327 32.5383L72.2244 33.4718L74.1327 32.5383ZM75.9046 31.6713V30.8224L36.151 11.2963L12.7862 22.6974L12.7848 22.6968L11.8372 23.1589L11.8385 23.1595L9.03125 24.5291V25.4256L10.4969 26.1448V28.2714L9.03742 28.9837L9.03193 28.9808V28.9866V29.8772L48.789 49.3917V48.5103V49.3917L75.0289 36.5515V36.5597L75.9046 36.1311V36.1236V35.2798V35.274V31.6713Z" fill="#D23F43"/>
<path fill-rule="evenodd" clip-rule="evenodd" d="M76.0004 34.0817L36.2461 14.5557L9.12695 27.789L48.8806 47.3145L76.0004 34.0817Z" fill="#AA312F"/>
<path fill-rule="evenodd" clip-rule="evenodd" d="M74.2285 30.4889L75.1248 30.0516V34.5033L74.2285 34.1118V30.4889Z" fill="#852A28"/>
<path fill-rule="evenodd" clip-rule="evenodd" d="M76.0004 29.6242L36.2461 10.0988L9.12695 23.3321L48.8806 42.8576L76.0004 29.6242Z" fill="#AA312F"/>
<path fill-rule="evenodd" clip-rule="evenodd" d="M76.0002 29.6242L48.8838 42.8576V43.7431L76.0002 30.4732V29.6242Z" fill="#6A211F"/>
<path fill-rule="evenodd" clip-rule="evenodd" d="M48.884 43.743L9.12695 24.228V23.3321L48.8806 42.8575L48.884 42.8558V43.743Z" fill="#852A28"/>
<path fill-rule="evenodd" clip-rule="evenodd" d="M76.0002 34.0758L48.8838 47.3092V48.1946L76.0002 34.9248V34.0758Z" fill="#6A211F"/>
<path fill-rule="evenodd" clip-rule="evenodd" d="M48.884 48.1947L9.12695 28.6797V27.7832L48.8806 47.3092L48.884 47.3075V48.1947Z" fill="#852A28"/>
<path fill-rule="evenodd" clip-rule="evenodd" d="M75.9997 29.6242L75.124 30.0516V35.3534L75.9997 34.933V29.6242Z" fill="#6A211F"/>
<path fill-rule="evenodd" clip-rule="evenodd" d="M74.2282 31.3401L48.8838 43.7431V46.4892L74.2282 34.1118V31.3401Z" fill="#D4CACA"/>
<path fill-rule="evenodd" clip-rule="evenodd" d="M10.5918 24.9473L48.9065 43.743V46.4892L10.5918 27.7189V24.9473Z" fill="#CAC0C0"/>
<path fill-rule="evenodd" clip-rule="evenodd" d="M51.6855 41.4868V42.3705L52.6332 41.9084V41.0247L51.6855 41.4868Z" fill="#DCC832"/>
<path fill-rule="evenodd" clip-rule="evenodd" d="M11.9326 21.9613L51.6862 41.4868L52.6339 41.0247L12.8803 21.4992L11.9326 21.9613Z" fill="#F9EE5D"/>
<path fill-rule="evenodd" clip-rule="evenodd" d="M67.3787 28.8291L35.2815 13.0644L13.3857 23.7485L45.4829 39.5138L67.3787 28.8291Z" fill="#3A8197"/>
<path fill-rule="evenodd" clip-rule="evenodd" d="M65.9482 25.9283L66.6718 25.5756V29.1696L65.9482 28.854V25.9283Z" fill="#70BDD3"/>
<path fill-rule="evenodd" clip-rule="evenodd" d="M67.3787 25.2304L35.2815 9.46576L13.3857 20.1499L45.4829 35.9151L67.3787 25.2304Z" fill="#3A8197"/>
<path fill-rule="evenodd" clip-rule="evenodd" d="M67.3781 25.2305L45.4844 35.9151V36.6298L67.3781 25.9161V25.2305Z" fill="#274C64"/>
<path fill-rule="evenodd" clip-rule="evenodd" d="M45.4849 36.6297L13.3857 20.8737V20.1498L45.4829 35.9151L45.4849 35.9134V36.6297Z" fill="#70BDD3"/>
<path fill-rule="evenodd" clip-rule="evenodd" d="M67.3781 28.8245L45.4844 39.5091V40.2238L67.3781 29.5101V28.8245Z" fill="#274C64"/>
<path fill-rule="evenodd" clip-rule="evenodd" d="M45.4849 40.2238L13.3857 24.4678V23.7444L45.4829 39.5091L45.4849 39.508V40.2238Z" fill="#70BDD3"/>
<path fill-rule="evenodd" clip-rule="evenodd" d="M67.379 25.2305L66.6719 25.5756V29.8564L67.379 29.5165V25.2305Z" fill="#274C64"/>
<path fill-rule="evenodd" clip-rule="evenodd" d="M65.9474 26.6163L45.4844 36.6298V38.8472L65.9474 28.854V26.6163Z" fill="#D4CACA"/>
<path fill-rule="evenodd" clip-rule="evenodd" d="M14.5693 21.4547L45.5037 36.6298V38.8472L14.5693 23.6924V21.4547Z" fill="#CAC0C0"/>
<path fill-rule="evenodd" clip-rule="evenodd" d="M19.3105 24.3224L48.8608 9.80865L69.0195 19.6455L39.4693 34.1593L19.3105 24.3224Z" fill="#57341D"/>
<path fill-rule="evenodd" clip-rule="evenodd" d="M20.6286 21.6521L19.9619 21.3272V24.6357L20.6286 24.345V21.6521Z" fill="#341F11"/>
<path fill-rule="evenodd" clip-rule="evenodd" d="M19.3105 21.0093L48.8608 6.49554L69.0195 16.3318L39.4693 30.8462L19.3105 21.0093Z" fill="#57341D"/>
<path fill-rule="evenodd" clip-rule="evenodd" d="M19.3105 21.0092L39.4673 30.8461V31.5039L19.3105 21.6405V21.0092Z" fill="#442714"/>
<path fill-rule="evenodd" clip-rule="evenodd" d="M39.4668 31.504L69.0191 16.9983V16.3317L39.4689 30.8461L39.4668 30.8449V31.504Z" fill="#341F11"/>
<path fill-rule="evenodd" clip-rule="evenodd" d="M19.3105 24.3184L39.4673 34.1552V34.8131L19.3105 24.9496V24.3184Z" fill="#442714"/>
<path fill-rule="evenodd" clip-rule="evenodd" d="M39.4668 34.8131L69.0191 20.3074V19.6408L39.4689 34.1552L39.4668 34.154V34.8131Z" fill="#341F11"/>
<path fill-rule="evenodd" clip-rule="evenodd" d="M19.3105 21.0092L19.9615 21.3272V25.268L19.3105 24.9553V21.0092Z" fill="#442714"/>
<path fill-rule="evenodd" clip-rule="evenodd" d="M20.6279 22.2851L39.467 31.504V33.5454L20.6279 24.345V22.2851Z" fill="#D4CACA"/>
<path fill-rule="evenodd" clip-rule="evenodd" d="M67.9308 17.5328L39.4502 31.504V33.5454L67.9308 19.5933V17.5328Z" fill="#CAC0C0"/>
<path fill-rule="evenodd" clip-rule="evenodd" d="M32.5254 25.8165L32.5274 25.2553L33.3942 24.8291L34.1185 25.0347L32.5254 25.8165Z" fill="#B52934"/>
<path fill-rule="evenodd" clip-rule="evenodd" d="M29.9625 23.4624L29.9605 24.0114L14.0184 16.2322L14.0061 16.2258L13.9938 16.2194L13.9821 16.2131L13.9705 16.2067L13.9588 16.2003L13.9472 16.1939L13.9362 16.1876L13.9253 16.1812L13.9143 16.1748L13.904 16.1685L13.8937 16.1621L13.8835 16.1551L13.8732 16.1482L13.8636 16.1412L13.854 16.1343L13.8444 16.1273L13.8355 16.1204L13.8266 16.1134L13.8177 16.1065L13.8088 16.0995L13.8005 16.0926L13.7923 16.0857L13.7841 16.0787L13.7766 16.0718L13.769 16.0648L13.7615 16.0573L13.754 16.0497L13.7471 16.0422L13.7403 16.0347L13.7334 16.0272L13.7272 16.0196L13.7211 16.0121L13.7149 16.0046L13.7087 15.997L13.7033 15.9895L13.6978 15.982L13.6923 15.9745L13.6875 15.9669L13.6827 15.9594L13.6779 15.9519L13.6731 15.9443L13.669 15.9368L13.6649 15.9293C13.6608 15.9218 13.6573 15.9137 13.6539 15.9061L13.6505 15.898C13.632 15.854 13.6224 15.8088 13.6231 15.7637L13.6245 15.2147C13.6238 15.3838 13.756 15.5534 14.0205 15.6826L29.9625 23.4624Z" fill="#B56332"/>
<path fill-rule="evenodd" clip-rule="evenodd" d="M52.8085 12.2415L52.8064 12.7905L29.9609 24.0114L29.963 23.4624L52.8085 12.2415Z" fill="#B56332"/>
<path fill-rule="evenodd" clip-rule="evenodd" d="M52.8092 12.2415L29.9638 23.4624L14.0211 15.6837C13.4955 15.4272 13.4928 15.0108 14.0142 14.7548L34.9699 4.4622C35.492 4.20565 36.3417 4.20623 36.8672 4.46278L52.8092 12.2415Z" fill="#D6712B"/>
<path fill-rule="evenodd" clip-rule="evenodd" d="M55.373 13.4929L55.3716 14.0419L32.5254 25.2629L32.5274 24.7139L55.373 13.4929Z" fill="#BB6E41"/>
<path fill-rule="evenodd" clip-rule="evenodd" d="M32.527 25.2675L32.525 25.8165L29.9609 24.565V24.0114L32.527 25.2675Z" fill="#B56332"/>
<path fill-rule="evenodd" clip-rule="evenodd" d="M55.3725 14.0535L32.527 25.2744L29.9609 24.0114L52.8085 12.8026L55.3725 14.0535Z" fill="#D6712B"/>
<path fill-rule="evenodd" clip-rule="evenodd" d="M71.7095 22.2989V22.2972V22.2989ZM71.7095 22.2966L71.7116 21.7493L71.7095 22.2966ZM71.3203 22.7495L50.3653 33.0421L50.3441 33.0519L50.3407 33.0537L50.34 33.0543L50.3359 33.056L50.3228 33.0618L50.3187 33.0635L50.316 33.0647L50.3146 33.0653L50.2927 33.0745L50.2906 33.0757L50.2886 33.0768L50.266 33.0861L50.2646 33.0867L50.2393 33.0965L50.2386 33.0971L50.2125 33.107H50.2118L50.207 33.1087L50.2022 33.1104L50.1837 33.1168H50.1831L50.1598 33.1249L50.1563 33.1261L50.155 33.1266L50.1502 33.1284L50.131 33.1342L50.1282 33.1347L50.1262 33.1353L50.1002 33.1429L50.0974 33.1434L50.0775 33.1486L50.0727 33.1498L50.0714 33.1504L50.0686 33.151L50.0453 33.1573L50.0419 33.1585H50.0412L50.0371 33.1597L50.033 33.1608L50.0172 33.1649L50.0131 33.166L50.0111 33.1666L50.009 33.1672H50.0083L49.9857 33.1724L49.9816 33.1736C49.9617 33.1782 49.9419 33.1822 49.922 33.1863H49.9213C49.8871 33.1932 49.8521 33.199 49.8165 33.2048C49.7603 33.2135 49.7027 33.2199 49.6452 33.2251C49.5958 33.2291 49.5458 33.232 49.4965 33.2332C49.4506 33.2344 49.4047 33.2349 49.3588 33.2338H49.3526C49.3101 33.2326 49.2683 33.2309 49.2265 33.228C49.1827 33.2251 49.1395 33.221 49.0963 33.2158C49.0518 33.2106 49.0072 33.2037 48.9634 33.1961C48.9175 33.188 48.8723 33.1788 48.8277 33.1683L48.8257 33.1678L48.8236 33.1672H48.8222L48.8209 33.1666L48.8181 33.166L48.8154 33.1654L48.8126 33.1649L48.7941 33.1602L48.7921 33.1597C48.7469 33.1481 48.703 33.1353 48.6598 33.1208C48.5886 33.0954 48.5091 33.0647 48.4666 33.0427L32.5273 25.2744V24.7138L48.47 32.4931C48.529 32.522 48.5913 32.5469 48.6578 32.5695V32.5701L48.6605 32.5707L48.6633 32.5713H48.664L48.6688 32.573C48.716 32.5886 48.7654 32.6025 48.8161 32.6153L48.8188 32.6159L48.8216 32.6164L48.8243 32.617L48.8257 32.6176H48.827L48.8291 32.6182L48.8312 32.6188C48.8586 32.6257 48.8873 32.6315 48.9154 32.6373L48.9422 32.6425L48.9442 32.6431L48.9456 32.6437L48.9661 32.6471L48.9744 32.6483L48.9764 32.6489C48.9963 32.6523 49.0162 32.6552 49.0367 32.6581H49.0381L49.0675 32.6622H49.0689H49.0696H49.0717H49.0737H49.0758L49.0778 32.6628H49.0799L49.0881 32.6639H49.0902H49.0922H49.0943H49.0963L49.0984 32.6645L49.1025 32.6651H49.1045H49.1066H49.1087H49.1107H49.1128H49.1148L49.1189 32.6657H49.121L49.1251 32.6662H49.1272H49.1292H49.1313H49.132H49.1333H49.1354H49.1374C49.1676 32.6697 49.1984 32.672 49.2293 32.6744C49.2601 32.6767 49.2909 32.6784 49.3224 32.679H49.3231L49.3512 32.6796H49.3533H49.3553H49.3574H49.3594H49.3615H49.3636H49.3656H49.3677H49.3697H49.3718H49.3738H49.3759H49.3779H49.38H49.3821H49.3841H49.3862H49.3882H49.3903H49.3923H49.3944H49.4115H49.4136H49.4156H49.4177H49.4197H49.4218H49.4519H49.454H49.4561L49.4752 32.679H49.4773H49.4794H49.4814H49.4835H49.4855H49.4876H49.4896H49.4917H49.4937H49.4958H49.4979H49.4999H49.502H49.504H49.5061H49.5088H49.5157H49.5177H49.5198H49.5218H49.5239H49.5259H49.528H49.5301H49.5321H49.5342H49.5362H49.5383H49.5403H49.5424H49.5444H49.5465H49.5486H49.5506H49.5527H49.5547H49.5568H49.5588H49.5609H49.563H49.565H49.5671H49.5684H49.5691H49.5712H49.5732L49.5869 32.6778H49.589L49.5958 32.6772H49.5979H49.5986H49.6L49.6047 32.6767H49.6068L49.6232 32.6755H49.6253H49.6274H49.6294H49.6301H49.6322H49.6342H49.637H49.6397H49.6424H49.6452H49.6479H49.6507H49.6534H49.6561H49.6589H49.6596L49.6644 32.6749H49.6671H49.6698H49.6726L49.6753 32.6744H49.6781H49.6808H49.6835H49.6863H49.689H49.6918H49.6945H49.6972H49.7L49.7027 32.6738L49.726 32.6709H49.7267L49.7534 32.6674L49.7562 32.6668H49.7575H49.7589L49.7617 32.6662L49.7644 32.6657L49.7671 32.6651L49.7856 32.6628L49.7884 32.6622L49.7904 32.6616L49.8062 32.6593C49.8199 32.657 49.8336 32.6552 49.8466 32.6529L49.8494 32.6523H49.8507L49.8747 32.6483L49.8788 32.6477H49.8795L49.9069 32.6425L49.9104 32.6419H49.911L49.9384 32.6361L49.9398 32.6356L49.9426 32.635L49.97 32.6292L49.9994 32.6222L50.0015 32.6217L50.0248 32.6159L50.0289 32.6147L50.0323 32.6135L50.0364 32.6124L50.0481 32.6095L50.0522 32.6083L50.0563 32.6072L50.0584 32.6066L50.0597 32.606L50.0645 32.6049L50.0789 32.6008L50.0837 32.5996L50.0864 32.5991L50.0885 32.5985C50.1063 32.5933 50.1241 32.5881 50.1413 32.5823L50.1426 32.5817C50.2166 32.5579 50.2872 32.5296 50.3523 32.4977L50.3509 33.0467L50.353 32.4977L71.3087 22.2051L71.3203 22.1993L71.3251 22.197L71.3279 22.1953L71.3306 22.1935L71.332 22.1929L71.3333 22.1924L71.3361 22.1906L71.3388 22.1889L71.3416 22.1872L71.3429 22.1866L71.345 22.1854L71.3512 22.1819L71.3539 22.1802L71.3546 22.1796L71.3566 22.1785L71.3594 22.1767L71.3621 22.175L71.3649 22.1733H71.3655L71.3683 22.1721L71.371 22.1704L71.3738 22.1686L71.3765 22.1669L71.3792 22.1651L71.382 22.1634L71.3847 22.1617L71.3875 22.1599L71.3902 22.1582L71.393 22.1565L71.3957 22.1547L71.3977 22.1536H71.3984L71.4012 22.1518L71.4039 22.1501L71.4067 22.1484L71.4087 22.1472L71.4094 22.1466L71.4121 22.1449L71.4149 22.1431L71.4176 22.1414L71.4197 22.1402L71.4204 22.1397L71.4293 22.1339L71.4306 22.1333L71.4334 22.1316L71.4361 22.1298L71.4437 22.1246L71.4464 22.1229L71.4491 22.1211L71.4498 22.1206L71.4512 22.1194L71.4539 22.1177L71.4567 22.1159L71.4615 22.1124L71.4642 22.1107C71.4745 22.1032 71.4848 22.0957 71.4944 22.0881C71.5129 22.0736 71.53 22.0586 71.5464 22.0435L71.5478 22.0424L71.5492 22.0412L71.5505 22.0401L71.5519 22.0389L71.5547 22.0366L71.556 22.0354L71.5574 22.0343L71.5588 22.0331L71.5622 22.0296L71.5636 22.0285L71.5649 22.0273L71.5663 22.0262L71.5677 22.025L71.5697 22.0227L71.5711 22.0215L71.5725 22.0204L71.5738 22.0192L71.5752 22.018L71.5786 22.0146L71.58 22.0134L71.5807 22.0123L71.5814 22.0111L71.5821 22.0099L71.5827 22.0094L71.5834 22.0088L71.5841 22.0076L71.5848 22.0065L71.5855 22.0053L71.5862 22.0041L71.5869 22.003L71.5875 22.0018L71.5882 22.0013L71.5889 22.0007L71.5896 21.9995L71.5903 21.9984L71.591 21.9972L71.5917 21.996L71.5923 21.9949L71.593 21.9937L71.5937 21.9931L71.5944 21.9926L71.5951 21.9914L71.5958 21.9903L71.5965 21.9891L71.5971 21.9879L71.5978 21.9868L71.5985 21.9856L71.5992 21.985L71.5999 21.9845L71.6006 21.9833L71.6012 21.9821L71.6019 21.981L71.6026 21.9798L71.6033 21.9787L71.604 21.9775L71.6047 21.9769L71.6054 21.9764L71.606 21.9752L71.6108 21.9694L71.6115 21.9688L71.6122 21.9677L71.6211 21.9561L71.6218 21.9549V21.9543L71.6225 21.9538L71.6307 21.9422L71.6355 21.9352L71.6362 21.9341L71.6369 21.9329L71.6376 21.9318L71.6383 21.9312L71.6389 21.93L71.6396 21.9289L71.6403 21.9277L71.641 21.9265L71.6424 21.9248L71.643 21.9242L71.6451 21.9202L71.6458 21.919L71.6465 21.9179L71.6472 21.9167L71.6478 21.9161L71.6485 21.915L71.6492 21.9138L71.6499 21.9127L71.6506 21.9115L71.6513 21.9103L71.652 21.9092L71.6526 21.9086L71.6533 21.9074L71.654 21.9063L71.6547 21.9051L71.6554 21.904L71.6561 21.9028L71.6568 21.9016L71.6574 21.9005V21.8999V21.8993L71.6581 21.8982L71.6588 21.897L71.6595 21.8959L71.6602 21.8947L71.6609 21.8935L71.6615 21.8924L71.6622 21.8912L71.6629 21.8901L71.6636 21.8889L71.6643 21.8877L71.665 21.8866L71.6657 21.8854L71.6663 21.8843L71.667 21.8831V21.8825V21.882L71.6677 21.8808L71.6684 21.8796L71.6691 21.8785L71.6698 21.8773L71.6705 21.8762L71.6711 21.875L71.6718 21.8738L71.6725 21.8727L71.6732 21.8715L71.6739 21.8704L71.6759 21.8663V21.8657V21.8652L71.6766 21.864L71.6794 21.8582V21.8576V21.8571C71.6842 21.8443 71.689 21.8322 71.6917 21.8194V21.8188L71.6938 21.8113L71.6944 21.8084L71.6951 21.8044V21.8038L71.6965 21.7968V21.7962V21.7957V21.7945V21.7934V21.7922L71.6986 21.7812V21.7806V21.7795V21.7783V21.7771V21.776V21.7748V21.7725V21.7719L71.6999 21.7574V21.7569L71.7006 21.7459V21.7447V21.7435V21.7412V21.7337L71.6986 22.2827V22.2908V22.2925V22.2937L71.6979 22.3059V22.3064L71.6972 22.3134V22.3146L71.6965 22.3221V22.3227V22.3238V22.325V22.3261L71.6958 22.329V22.3302V22.3308V22.3313V22.3325L71.6951 22.3366V22.3377V22.3389V22.34V22.3412V22.3424V22.3435L71.6944 22.3458V22.347V22.3476V22.3481V22.3493L71.6938 22.3534V22.3545V22.3557V22.3563V22.3568L71.6931 22.3597V22.3603L71.6903 22.3713V22.3725V22.3736V22.3748V22.3759V22.3771V22.3783V22.3794V22.38V22.3806V22.3817V22.3829L71.6862 22.3962V22.3974L71.6855 22.3985L71.6842 22.4026L71.6835 22.4037L71.6828 22.4049L71.6821 22.4061L71.6814 22.4072L71.6807 22.4084L71.68 22.4095L71.6794 22.4107L71.6787 22.4118L71.678 22.413V22.4136V22.4142L71.6773 22.4153L71.6766 22.4165L71.6759 22.4176L71.6753 22.4188L71.6746 22.42L71.6739 22.4211L71.6732 22.4223V22.4229V22.4234L71.6725 22.4246L71.6718 22.4257L71.6711 22.4269L71.6705 22.4281L71.6698 22.4292L71.6691 22.4304L71.6684 22.4315L71.6677 22.4327L71.667 22.4339L71.6663 22.435L71.6657 22.4362L71.665 22.4373L71.6643 22.4385L71.6636 22.4396L71.6629 22.4402V22.4408L71.6622 22.442L71.6615 22.4431L71.6609 22.4443L71.6602 22.4454L71.6595 22.4466L71.6588 22.4478L71.6581 22.4489L71.6574 22.4495L71.6568 22.4506L71.6561 22.4518L71.6554 22.453L71.6547 22.4541L71.654 22.4553L71.6533 22.4564L71.6526 22.457L71.652 22.4582L71.6513 22.4593L71.6506 22.4605L71.6499 22.4617L71.6492 22.4628L71.6485 22.464L71.6478 22.4651L71.6472 22.4657L71.6465 22.4669L71.6458 22.468L71.6451 22.4692L71.6444 22.4703L71.6437 22.4715L71.643 22.4727L71.6424 22.4732L71.6417 22.4744L71.641 22.4756L71.6403 22.4767L71.6396 22.4779L71.6389 22.479L71.6383 22.4802L71.6376 22.4813V22.4819L71.6369 22.4825L71.6362 22.4837L71.6355 22.4848L71.6348 22.486L71.6341 22.4871L71.6335 22.4883L71.6328 22.4894L71.6321 22.4906L71.6314 22.4918L71.6307 22.4929L71.63 22.4941L71.6293 22.4952L71.6287 22.4964L71.628 22.4976L71.6273 22.4987V22.4993L71.6266 22.4999L71.6259 22.501L71.6252 22.5022L71.6246 22.5033L71.6239 22.5045L71.6232 22.5057L71.6225 22.5068L71.6218 22.5074V22.508L71.6211 22.5091L71.6184 22.5132L71.6177 22.5144L71.617 22.5149L71.6136 22.5196L71.6129 22.5207L71.6122 22.5219L71.6115 22.5225V22.523L71.6108 22.5242L71.6102 22.5254L71.6067 22.53L71.606 22.5306L71.6019 22.5358L71.6012 22.5369L71.6006 22.5375L71.5985 22.5404L71.5978 22.5416L71.5971 22.5427L71.5951 22.545L71.5944 22.5456L71.5937 22.5462L71.593 22.5474L71.5923 22.5485L71.5917 22.5497L71.591 22.5508L71.5903 22.552L71.5896 22.5532L71.5889 22.5537L71.5882 22.5543L71.5875 22.5555L71.5869 22.5566L71.5862 22.5578L71.5855 22.5589L71.5848 22.5601L71.5841 22.5613V22.5618L71.5834 22.5624L71.5827 22.5636L71.5821 22.5647L71.5814 22.5659L71.5807 22.567L71.58 22.5682L71.5793 22.5694L71.5786 22.5699L71.578 22.5705L71.5773 22.5717L71.5766 22.5728L71.5759 22.574L71.578 22.025L71.5759 22.574L71.5643 22.5862L71.5629 22.5873L71.5615 22.5885L71.5601 22.5896L71.5588 22.5908L71.5581 22.592L71.5567 22.5931L71.5553 22.5943L71.554 22.5954L71.5526 22.5966L71.5512 22.5977L71.5505 22.5989L71.5492 22.6001L71.5478 22.6012L71.5464 22.6024L71.5451 22.6035L71.5437 22.6047L71.543 22.6059H71.5423L71.541 22.607L71.5396 22.6082L71.5382 22.6093L71.5368 22.6105L71.5355 22.6116L71.5348 22.6128L71.5334 22.614L71.532 22.6151L71.5307 22.6163L71.5293 22.6174L71.5279 22.6186L71.5272 22.6192L71.5266 22.6197L71.5252 22.6209L71.5238 22.6221L71.5225 22.6232L71.5211 22.6244L71.5197 22.6255L71.519 22.6261L71.5183 22.6267L71.517 22.6279L71.5156 22.629L71.5142 22.6302L71.5129 22.6313L71.5115 22.6325L71.5108 22.6331L71.5101 22.6336L71.5087 22.6348L71.5074 22.636L71.506 22.6371L71.5046 22.6383L71.5033 22.6394L71.5026 22.64L71.5019 22.6406L71.5005 22.6418L71.4978 22.6441L71.4964 22.6452L71.4923 22.6487L71.4902 22.6504L71.4882 22.6522L71.4861 22.6539L71.4841 22.6557L71.482 22.6574L71.48 22.6591L71.4779 22.6609L71.4759 22.6626L71.4738 22.6643L71.4717 22.6661L71.4697 22.6672L71.469 22.6678L71.4669 22.6696L71.4622 22.673L71.4601 22.6742L71.4594 22.6748L71.4567 22.6765L71.4539 22.6782L71.4512 22.68L71.4498 22.6811L71.4491 22.6817C71.4121 22.7072 71.3703 22.7315 71.3244 22.7547L71.3203 22.7495Z" fill="#B56332"/>
<path fill-rule="evenodd" clip-rule="evenodd" d="M71.3162 21.2722C71.8411 21.5281 71.8445 21.9439 71.3224 22.2005L50.3667 32.4931C49.8453 32.7491 48.9949 32.7491 48.4701 32.4931L32.5273 24.7139L55.3735 13.4929L71.3162 21.2722Z" fill="#D6712B"/>
<path fill-rule="evenodd" clip-rule="evenodd" d="M53.0758 11.3149L53.0703 12.981L31.1738 23.7357L31.1793 22.0696L53.0758 11.3149Z" fill="#B4C2A1"/>
<path fill-rule="evenodd" clip-rule="evenodd" d="M46.9238 7.00336C49.4687 8.24498 51.5572 9.70377 53.0756 11.3149L31.1791 22.0696C29.6607 20.4585 27.5729 19.0003 25.0274 17.7581C23.5692 17.0464 21.9617 16.4065 20.2241 15.8488L14.9863 14.1682L36.8835 3.414L42.1212 5.09459C43.8582 5.6517 45.4657 6.29221 46.9238 7.00336Z" fill="#FFF5F0"/>
<path fill-rule="evenodd" clip-rule="evenodd" d="M20.2192 17.5155L14.9814 15.8349L14.9869 14.1688L20.2246 15.8494L20.2308 15.8517L20.2377 15.854L20.2438 15.8564L20.2507 15.8587L20.2569 15.861L20.263 15.8633L20.2692 15.8656L20.276 15.8679L20.2822 15.8703L20.2884 15.8726L20.2945 15.8749L20.3007 15.8772L20.3041 15.8784L20.3076 15.8795L20.3137 15.8818L20.3199 15.8842L20.3261 15.8865L20.3322 15.8888L20.3384 15.8911L20.3446 15.8934L20.3507 15.8957L20.3699 15.9021L20.3768 15.9044L20.3829 15.9067L20.3891 15.9085L20.4021 15.9125L20.4083 15.9149L20.4343 15.9235L20.4405 15.9259L20.4467 15.9282L20.4528 15.9305L20.459 15.9328L20.4624 15.934L20.4652 15.9351L20.4713 15.9374L20.4775 15.9398L20.4837 15.9421L20.4898 15.9444L20.496 15.9467L20.5022 15.949L20.5083 15.9513L20.5145 15.9537L20.5207 15.956L20.5268 15.9583L20.533 15.9606L20.5392 15.9629H20.5398L20.546 15.9647L20.5522 15.967L20.5583 15.9693L20.5645 15.9716L20.5707 15.9739L20.5768 15.9762L20.583 15.9786L20.5892 15.9809L20.5953 15.9832L20.6015 15.9855L20.6077 15.9878L20.6138 15.9901L20.618 15.9913L20.6207 15.9919L20.6269 15.9942L20.6981 16.0179L20.7009 16.0185L20.7783 16.0446L20.8482 16.0683L20.8585 16.0718L20.9215 16.0932L20.9379 16.099L20.9948 16.1181L21.0174 16.1262L21.0675 16.1436L21.0969 16.1534L21.1408 16.1685L21.1764 16.1807L21.2141 16.194L21.2559 16.2085C21.3347 16.2363 21.4135 16.2641 21.4916 16.2919L21.5032 16.2959L21.5697 16.3197L21.5752 16.322L21.6471 16.348H21.6478L21.7191 16.3741L21.7259 16.3764L21.7903 16.4002L21.8034 16.4048L21.8616 16.4262L21.8808 16.4332L21.8856 16.4349L21.9582 16.4615L22.0041 16.4783L22.0356 16.4899L22.1124 16.5189L22.146 16.5316L22.1891 16.5478L22.1898 16.5484L22.2652 16.5774L22.2864 16.5855L22.3419 16.6069L22.357 16.6127L22.418 16.6364C22.4673 16.6555 22.5167 16.6747 22.566 16.6943L22.5694 16.6955L22.7202 16.7552L22.7736 16.7766L22.7949 16.7853L22.8421 16.8044L22.8695 16.8154L23.0128 16.8733L23.023 16.8773L23.1635 16.9353L23.1662 16.9364L23.1834 16.9434L23.2396 16.9665L23.2512 16.9712L23.3136 16.9972L23.3869 17.0279L23.4602 17.0586L23.5212 17.0847L23.5328 17.0899L23.5876 17.1136L23.6055 17.1212L23.6548 17.1426L23.6781 17.153C23.75 17.1843 23.8213 17.2155 23.8926 17.2468L23.8946 17.2474L23.92 17.259L23.9659 17.2792L23.9857 17.2879L24.0371 17.3111L24.0515 17.3175L24.1084 17.343L24.1797 17.3748L24.1824 17.376L24.2475 17.4055L24.2502 17.4067L24.3119 17.435L24.3208 17.4391L24.377 17.4651L24.3914 17.4715L24.4421 17.4947L24.462 17.5039L24.5065 17.5248L24.5319 17.5364L24.5709 17.5543L24.6017 17.5688L24.6072 17.5711C24.6737 17.6024 24.7395 17.6337 24.8053 17.6649L24.8094 17.6673L24.8258 17.6754L24.8779 17.7003L24.8888 17.7055L24.9464 17.7333L24.9519 17.7362L25.0149 17.7669C27.5605 19.0085 29.6476 20.4667 31.1667 22.0784L31.1612 23.7445C29.6428 22.1334 27.555 20.6752 25.0094 19.433L24.9464 19.4023L24.9409 19.3994L24.8834 19.3716L24.8724 19.3664L24.8203 19.3415L24.8039 19.3334L24.7566 19.3108L24.7347 19.3004L24.6929 19.2807L24.6655 19.2674L24.6292 19.25L24.5956 19.2343L24.5647 19.2199L24.5257 19.2013L24.5003 19.1897L24.4558 19.1689L24.4359 19.1596L24.3852 19.1365L24.3181 19.1058L24.3146 19.104L24.3064 19.1L24.2441 19.0716L24.1762 19.0409L24.1735 19.0398L24.1022 19.0079L24.0454 18.9824L24.031 18.9761C23.9357 18.9338 23.8398 18.8915 23.7439 18.8492L23.7151 18.8365L23.6719 18.818C23.624 18.7971 23.5753 18.7763 23.5267 18.7554L23.515 18.7502L23.454 18.7241L23.4479 18.7218L23.3807 18.6934C22.9901 18.529 22.5907 18.3691 22.183 18.2139L22.1809 18.2134C22.0809 18.1751 21.9801 18.1375 21.8794 18.1004L21.8746 18.0987L21.8554 18.0917L21.7972 18.0703L21.7842 18.0657L21.7198 18.0419L21.6417 18.0136H21.641L21.5635 17.9858L21.4971 17.962L21.4854 17.958C21.4073 17.9302 21.3285 17.9018 21.2497 17.8746L21.2079 17.8601L21.1702 17.8468L21.1346 17.8346L21.0907 17.8196L20.9379 17.7669L20.9318 17.7645L20.9153 17.7588L20.8523 17.7373L20.842 17.7339L20.7721 17.7101L20.6947 17.6841L20.692 17.6835L20.6207 17.6597L20.6145 17.6574L20.6118 17.6568L20.6077 17.6557L20.6015 17.6534L20.5953 17.651C20.5186 17.6256 20.4405 17.6001 20.3631 17.5746L20.3569 17.5723L20.3309 17.5636L20.3247 17.5613L20.3185 17.559L20.3124 17.5566L20.3062 17.5543L20.3 17.552L20.2939 17.5497L20.2904 17.5485L20.287 17.5474L20.2808 17.5451L20.2747 17.5427L20.2685 17.5404L20.2616 17.5381L20.2555 17.5358L20.2493 17.5335L20.2431 17.5312L20.237 17.5288L20.2308 17.5265L20.224 17.5242L20.2178 17.5219L20.2192 17.5155Z" fill="#D4CACA"/>
<path fill-rule="evenodd" clip-rule="evenodd" d="M51.292 26.7726L51.2866 28.4387L48.9473 26.7049L48.9527 25.0388L51.292 26.7726Z" fill="#869380"/>
<path fill-rule="evenodd" clip-rule="evenodd" d="M51.2928 26.7726L51.2873 28.4393L51.0742 28.5077L51.0804 26.8416L51.2928 26.7726Z" fill="#6E7173"/>
<path fill-rule="evenodd" clip-rule="evenodd" d="M51.0801 26.8416L51.074 28.5077L48.7354 26.7732L48.7408 25.1071L51.0801 26.8416Z" fill="#6E7173"/>
<path fill-rule="evenodd" clip-rule="evenodd" d="M65.8182 16.6572L69.2683 19.2158L47.3718 29.9705L43.9218 27.412C42.7775 26.5636 41.464 25.7783 40.0065 25.0671C37.4617 23.8249 34.4755 22.808 31.1797 22.0696L53.0761 11.3149C56.372 12.0533 59.3581 13.0708 61.903 14.3124C63.3611 15.0241 64.674 15.8088 65.8182 16.6572Z" fill="#FFF5F0"/>
<path fill-rule="evenodd" clip-rule="evenodd" d="M69.2681 19.2164L69.2627 20.8825L47.3662 31.6372L47.3717 29.9705L69.2681 19.2164Z" fill="#CAC0C0"/>
<path fill-rule="evenodd" clip-rule="evenodd" d="M41.5155 27.5284C41.473 27.5046 41.4312 27.4809 41.3887 27.4571L41.5155 27.5284ZM47.3719 29.9705L47.3664 31.6366L43.9164 29.0781L43.863 29.0381L43.8088 28.9988L43.7547 28.9594L43.6999 28.92L43.6451 28.8806L43.5903 28.8412L43.5348 28.8019L43.4792 28.7631L43.4237 28.7243L43.3676 28.6855L43.3114 28.6467L43.2552 28.6079L43.1983 28.5691L43.1414 28.5308L43.0846 28.4926L43.027 28.4544L42.9695 28.4162L42.9119 28.3779L42.8537 28.3397L42.7954 28.3021L42.7372 28.2644L42.6782 28.2268L42.6193 28.1892L42.5597 28.1515L42.5001 28.1139L42.4405 28.0768L42.3802 28.0397L42.3199 28.0027L42.2596 27.9656L42.1986 27.9285L42.1376 27.8915L42.0766 27.855L42.015 27.8185L41.9533 27.782L41.8916 27.7455L41.8293 27.7091L41.7669 27.6732L41.7046 27.6373L41.6415 27.6013L41.5785 27.5654L41.5155 27.5295C41.473 27.5058 41.4312 27.4821 41.3887 27.4583C41.325 27.423 41.2606 27.3877 41.1961 27.3523L41.1317 27.317C40.7651 27.1178 40.3883 26.9238 40.0011 26.7344C39.6668 26.5711 39.3242 26.4118 38.9747 26.2566L38.961 26.2509C38.8534 26.2034 38.7458 26.1559 38.6369 26.109L38.5698 26.08L38.5663 26.0783L38.5026 26.0511L38.4355 26.0227L38.3683 25.9943L38.3005 25.9659L38.247 25.9433L38.2333 25.9376L38.1655 25.9092L38.1408 25.8993L38.123 25.8924L38.0284 25.8518L38.0113 25.8449L37.9935 25.8374L37.9072 25.802L37.8489 25.7783L37.8229 25.7679L37.7537 25.7401L37.7516 25.7395L37.7441 25.7366L37.6303 25.6914L37.6207 25.688L37.6153 25.6856L37.5111 25.6445L37.4618 25.6254L37.3768 25.5924L37.3576 25.5849L37.3371 25.5768L37.2672 25.5501L37.2254 25.5345L37.1966 25.5235L37.126 25.4968L37.1157 25.4928L37.0719 25.4766L36.9616 25.4355L36.954 25.4326L36.8423 25.3914L36.8238 25.3845L36.8136 25.381L36.6998 25.3393L36.6889 25.3353L36.6861 25.3341L36.5566 25.2872L36.5532 25.286L36.4442 25.2467L36.4175 25.2368L36.4127 25.2351L36.3887 25.2264C36.2764 25.1864 36.164 25.1471 36.0502 25.1077L36.0057 25.0926L35.9961 25.0897L35.9036 25.0579L35.8673 25.0457L35.8303 25.033L35.757 25.0081L35.7282 24.9982L35.7172 24.9948L35.6097 24.9588L35.5891 24.9519L35.5548 24.9403L35.5 24.9224L35.476 24.9148L35.4445 24.9044L35.3897 24.8865C35.3164 24.8627 35.2424 24.8384 35.1684 24.8146H35.1677C35.0752 24.7851 34.9827 24.7556 34.8895 24.7266L34.884 24.7249L34.8333 24.7092L34.7771 24.6919L34.7415 24.6809L34.7216 24.6745C34.6332 24.6473 34.5449 24.6206 34.4565 24.5934L34.4551 24.5928L34.44 24.5882C34.1097 24.4886 33.7754 24.3925 33.4369 24.2992H33.4362C33.2923 24.2599 33.1477 24.2205 33.0025 24.1823L32.9922 24.1794C32.6448 24.0873 32.2933 23.9987 31.9376 23.913C31.7876 23.8765 31.6362 23.8412 31.484 23.8064L31.4799 23.8052L31.3401 23.7734L31.3278 23.7705L31.3258 23.7699L31.3162 23.7676L31.3038 23.7647L31.1956 23.7404L31.1832 23.7375L31.1709 23.7346L31.1764 22.0685L31.1887 22.0714L31.201 22.0743L31.2977 22.0963L31.31 22.0992L31.3223 22.1021L31.3319 22.1044L31.334 22.105L31.3463 22.1079L31.4662 22.1351L31.4779 22.138L31.4854 22.1397L31.4895 22.1409L31.5019 22.1438L31.5135 22.1467L31.5251 22.1496L31.5368 22.1525L31.5608 22.1582L31.5724 22.1611L31.5841 22.164L31.5957 22.1669L31.6074 22.1698L31.619 22.1727L31.6307 22.1756L31.6362 22.1768L31.643 22.1785L31.6547 22.1814L31.6663 22.1843L31.6903 22.1901L31.7019 22.193L31.7259 22.1988L31.7376 22.2017L31.7492 22.2046L31.7609 22.2075L31.7725 22.2104L31.8205 22.2219L31.8321 22.2248L31.8438 22.2277L31.8554 22.2306L31.8671 22.2335L31.8787 22.2364L31.8904 22.2393L31.9376 22.2509L31.9973 22.2654L32.0569 22.2799L32.1165 22.2943L32.1761 22.3088L32.1871 22.3117L32.2946 22.3383L32.3542 22.3534C32.433 22.3731 32.5118 22.3928 32.5906 22.4131L32.6496 22.4281L32.7661 22.4582L32.7674 22.4588L32.8264 22.4739L32.8853 22.4895L32.9435 22.5051L32.949 22.5069L33.0559 22.5352L33.0607 22.5364L33.1189 22.552L33.1772 22.5677L33.2354 22.5833L33.3519 22.6152L33.4102 22.6308L33.4684 22.647L33.526 22.6632L33.5307 22.6644L33.6404 22.6951H33.6411L33.6986 22.7113H33.6993L33.7562 22.7275L33.8137 22.7437L33.8713 22.7599L33.8768 22.7611L33.9289 22.7762L33.9857 22.7924L34.0426 22.8092L34.0995 22.826L34.1563 22.8428L34.2132 22.8596L34.2701 22.8763L34.2721 22.8769L34.327 22.8931L34.3838 22.9099L34.4407 22.9267L34.4969 22.9435L34.5531 22.9603L34.599 22.9742L34.6093 22.9777L34.6654 22.9951L34.7216 23.0124L34.7778 23.0298L34.834 23.0472L34.8847 23.0628L34.8902 23.0646L34.9005 23.068L35.0074 23.1016L35.0519 23.1155L35.0574 23.1173L35.1129 23.1346L35.1362 23.1422L35.2047 23.1642L35.2239 23.1705L35.2794 23.1885L35.3089 23.1983L35.3342 23.2064L35.4445 23.2423L35.4493 23.2435L35.4534 23.2447L35.5548 23.2783L35.5891 23.2898L35.6097 23.2968L35.7022 23.3281L35.7652 23.3495L35.8584 23.3813L35.8721 23.386L35.9756 23.4213L36.0043 23.4311L36.0194 23.4364L36.1215 23.4717L36.1421 23.4786L36.1613 23.4856L36.2661 23.5221L36.2784 23.5267L36.288 23.5302L36.3778 23.562L36.4497 23.5875L36.5313 23.6165L36.5511 23.6234L36.5546 23.6246L36.6265 23.6506L36.6464 23.6576L36.7224 23.6854L36.8122 23.7184L36.8225 23.7219L36.841 23.7288L36.9122 23.7549L36.9239 23.7595L36.9821 23.7815L37.0815 23.8191L37.0966 23.8249L37.2192 23.8713L37.2288 23.8747L37.3364 23.9159L37.385 23.9344L37.4049 23.9419L37.4748 23.9691L37.4878 23.9744L37.4995 23.979L37.5844 24.012L37.6481 24.0369L37.729 24.0687L37.7502 24.0774L37.7523 24.078L37.7694 24.085L37.8654 24.1232L37.8804 24.1296L37.89 24.1336L38.0079 24.1817L38.0099 24.1823L38.0271 24.1892L38.123 24.2286L38.1388 24.235L38.1627 24.2448L38.2539 24.2824L38.2669 24.2877L38.2984 24.301L38.3889 24.3392L38.4046 24.3461L38.5211 24.3954L38.6335 24.444L38.6472 24.4498L38.6609 24.4556L38.7671 24.5013L38.7733 24.5042L38.7801 24.5071L38.8986 24.5593L38.8993 24.5598L39.0234 24.6149L39.0316 24.6183L39.1316 24.6629L39.1474 24.6699L39.1625 24.6768L39.1652 24.678L39.2598 24.7208L39.2762 24.7284C39.355 24.7643 39.4331 24.8002 39.5112 24.8367L39.5215 24.8413L39.6161 24.8853L39.6373 24.8951L39.6414 24.8969L39.7442 24.9455L39.7579 24.9519L39.7613 24.9536L39.8716 25.0063L39.8785 25.0098L39.8949 25.0179L39.9984 25.0683L40.0669 25.1019L40.1348 25.1355L40.2026 25.1691L40.2704 25.2027L40.3376 25.2362L40.4047 25.2704L40.4719 25.3046L40.5383 25.3387L40.6048 25.3729L40.6713 25.4071L40.7371 25.4412L40.8028 25.476L40.8686 25.5107L40.9337 25.5455L40.9988 25.5802L41.0639 25.615L41.129 25.6503L41.1934 25.6856L41.2578 25.721L41.3222 25.7563L41.3859 25.7916L41.4497 25.8269L41.5134 25.8628L41.5764 25.8987L41.6395 25.9347L41.7025 25.9706L41.7649 26.0065L41.8272 26.043L41.8896 26.0794L41.9512 26.1159L42.0129 26.1524L42.0746 26.1889L42.1356 26.2254L42.1965 26.2624L42.2575 26.2995L42.3178 26.3366L42.3781 26.3736L42.4384 26.4107L42.498 26.4478L42.5576 26.4854L42.6173 26.523L42.6762 26.5607L42.7351 26.5983L42.794 26.636L42.8523 26.6736L42.9105 26.7118C42.9489 26.7373 42.988 26.7628 43.0263 26.7883L43.0839 26.8265L43.1408 26.8647L43.1976 26.9029L43.2545 26.9417C43.4806 27.0964 43.7013 27.2533 43.9157 27.4126L47.3719 29.9705Z" fill="#D4CACA"/>
<path fill-rule="evenodd" clip-rule="evenodd" d="M21.7842 17.4923L23.3567 18.2602V21.5901L21.7842 20.824V17.4923Z" fill="#DCC832"/>
<path fill-rule="evenodd" clip-rule="evenodd" d="M22.2871 17.2497L23.8562 18.0124L23.3567 18.2603L21.7842 17.4923L22.2871 17.2497Z" fill="#FDEF43"/>
<path fill-rule="evenodd" clip-rule="evenodd" d="M23.3565 21.5901L21.4489 22.6893L21.1282 21.9492L19.7324 21.8253L21.7839 20.824L23.3565 21.5901Z" fill="#F9EE5D"/>
<path fill-rule="evenodd" clip-rule="evenodd" d="M54.5844 16.6028V17.7894C54.5844 19.9437 52.9454 21.4517 50.6137 22.3372C50.5938 22.3447 50.5732 22.3522 50.5534 22.3598C50.4554 22.3963 50.356 22.4322 50.2553 22.4663C50.2142 22.4802 50.1738 22.4941 50.1327 22.508C50.0497 22.5352 49.9662 22.5625 49.8819 22.5879C49.8305 22.6036 49.7791 22.6192 49.727 22.6343C49.651 22.6569 49.5742 22.6789 49.4968 22.7003C49.4296 22.7188 49.3625 22.7368 49.2947 22.7542C49.2254 22.7721 49.1562 22.7895 49.087 22.8063C49.0137 22.8242 48.9404 22.8416 48.8664 22.8584C48.8034 22.8729 48.7396 22.8868 48.6759 22.9007C48.5916 22.9186 48.5074 22.936 48.4217 22.9528C48.3676 22.9632 48.3134 22.9736 48.2586 22.9841C48.1654 23.0014 48.0722 23.0182 47.9784 23.0339C47.9297 23.042 47.8818 23.0501 47.8331 23.0576C47.7303 23.0738 47.6269 23.0895 47.5234 23.1045C47.4795 23.1109 47.435 23.1167 47.3905 23.1225C47.2849 23.1364 47.1787 23.1497 47.0725 23.1619C47.0314 23.1665 46.9903 23.1711 46.9492 23.1758C46.8354 23.1879 46.7217 23.1995 46.608 23.2099C41.1311 23.7022 34.8457 21.8415 34.8457 17.7882V17.1072L54.5844 16.6028Z" fill="#CAC0C0"/>
<path fill-rule="evenodd" clip-rule="evenodd" d="M28.5763 13.0893H29.2923C29.0868 14.0338 30.3044 14.7554 30.562 15.5795C30.6244 15.7295 30.6607 15.8795 30.6579 16.03C30.6374 17.0012 29.7261 17.7888 28.577 17.7888C28.5729 17.7888 28.5681 17.7888 28.5639 17.7888C28.5598 17.7888 28.555 17.7888 28.5509 17.7888C27.4018 17.7888 26.4912 17.0012 26.4699 16.03C26.4665 15.8795 26.5028 15.7295 26.5659 15.5795C26.8235 14.7554 28.0411 14.0338 27.8356 13.0893H28.5516C30.4072 13.0893 26.6988 13.0893 28.5763 13.0893Z" fill="#FBB216"/>
<path fill-rule="evenodd" clip-rule="evenodd" d="M28.5752 13.0893H29.2912C29.0856 14.0338 30.3032 14.7554 30.5609 15.5795C30.578 15.6206 30.5931 15.6623 30.6061 15.7034C30.3992 16.5009 29.5783 17.1002 28.5758 17.1002C28.5717 17.1002 28.5669 17.1002 28.5628 17.1002C28.5587 17.1002 28.5539 17.1002 28.5498 17.1002C27.5473 17.1002 26.7265 16.5009 26.5195 15.7034C26.5326 15.6623 26.5476 15.6206 26.5648 15.5795C26.8224 14.7554 28.04 14.0338 27.8344 13.0893H28.5505C30.406 13.0893 26.6977 13.0893 28.5752 13.0893Z" fill="#FFD700"/>
<path fill-rule="evenodd" clip-rule="evenodd" d="M29.3135 16.9798V14.4803L29.8801 17.1165L29.3135 16.9798Z" fill="#FBB216"/>
<path fill-rule="evenodd" clip-rule="evenodd" d="M28.7052 17.1848L28.4619 15.6102L28.3002 17.1507L27.6925 17.0823L27.8946 14.5145L27.2471 17.1848L27.9761 17.4246L28.7052 17.1848Z" fill="#FBB216"/>
<path fill-rule="evenodd" clip-rule="evenodd" d="M34.8457 10.3142H54.5851V16.6028C54.5851 24.0832 34.8457 23.7867 34.8457 16.6028V10.3142Z" fill="#201F1F"/>
<path fill-rule="evenodd" clip-rule="evenodd" d="M52.3184 20.3051C50.8185 21.2728 48.7252 21.8455 46.5059 22.0332V11.7145H52.3184V20.3051Z" fill="#26292E"/>
<path fill-rule="evenodd" clip-rule="evenodd" d="M25.6847 9.19995L44.1346 0.137953C44.5663 -0.0740036 44.7951 -0.0294117 45.2378 0.187757L63.5643 9.18895C63.75 9.27987 63.7493 9.48719 63.5869 9.56653L44.9808 18.7056C44.7444 18.822 44.5217 18.8196 44.3052 18.7131L25.7286 9.58912C25.5415 9.49704 25.4977 9.29203 25.6847 9.19995Z" fill="#2E3136"/>
<path fill-rule="evenodd" clip-rule="evenodd" d="M28.8178 12.6955H28.2812C28.2812 10.7983 28.7342 10.1966 30.3019 10.0142C31.5867 9.86423 45.4614 8.47783 45.6012 8.46393L45.6642 8.9139C45.5245 8.9278 31.6545 10.3136 30.3752 10.463C29.2679 10.5922 28.8178 10.8302 28.8178 12.6955Z" fill="#FFD700"/>
<path fill-rule="evenodd" clip-rule="evenodd" d="M28.582 12.6955H28.8177C28.8177 10.8302 29.2686 10.5922 30.3752 10.4636C31.6545 10.3142 45.5244 8.92836 45.6642 8.91446L45.6293 8.66718C43.6771 8.86234 31.784 10.0524 30.5993 10.1902C29.0829 10.3669 28.6108 10.9396 28.582 12.6955Z" fill="#FBB216"/>
<path fill-rule="evenodd" clip-rule="evenodd" d="M29.5639 12.8698C29.5639 13.3366 29.1164 13.7148 28.5642 13.7148C28.0119 13.7148 27.5645 13.3366 27.5645 12.8698C27.5645 12.4031 28.0119 12.0249 28.5642 12.0249C29.1164 12.0249 29.5639 12.4031 29.5639 12.8698Z" fill="#FBB216"/>
<path fill-rule="evenodd" clip-rule="evenodd" d="M28.5639 13.2028C28.1171 13.2028 27.7396 12.9555 27.6108 12.6138C27.5806 12.6943 27.5635 12.7806 27.5635 12.8698C27.5635 13.3366 28.0109 13.7147 28.5632 13.7147C29.1155 13.7147 29.5629 13.3366 29.5629 12.8698C29.5629 12.7806 29.5465 12.6943 29.5156 12.6138C29.3882 12.9555 29.0106 13.2028 28.5639 13.2028Z" fill="#F7981F"/>
<path fill-rule="evenodd" clip-rule="evenodd" d="M44.831 6.99408C46.2186 6.99408 47.3437 7.63632 47.3437 8.42855C47.3437 9.22078 46.2186 9.86303 44.831 9.86303C43.4435 9.86303 42.3184 9.22078 42.3184 8.42855C42.3184 7.63632 43.4435 6.99408 44.831 6.99408Z" fill="#1E1A19"/>
<path fill-rule="evenodd" clip-rule="evenodd" d="M15.0615 47.1969C15.0615 47.1969 20.4075 47.9289 22.6605 44.0291C23.6951 42.2402 23.3046 40.91 22.6618 40.0274C22.0205 39.1466 21.1167 38.7053 21.1167 38.7053C21.423 38.8449 21.7258 38.9821 22.0369 39.1205C22.0369 39.1205 22.9517 39.7228 23.5601 40.7681C24.1707 41.8157 24.4824 43.3104 23.247 45.1121C20.8303 48.6835 16.0126 47.6277 16.0126 47.6277C15.694 47.4841 15.3753 47.3417 15.0615 47.1969Z" fill="#D23F43"/>
<path fill-rule="evenodd" clip-rule="evenodd" d="M33.165 54.8632C33.165 54.8632 35.4447 54.913 36.5397 52.0359C37.0385 50.748 36.7541 49.5967 36.2629 48.6846C33.9585 45.9946 26.5473 47.0955 29.0326 45.1948C27.1969 44.519 27.7471 45.6054 26.326 46.1058C26.326 46.1058 23.5728 49.2834 23.5434 49.5834C23.5139 49.8834 25.1467 51.5686 25.2653 51.6439C25.355 51.7192 29.6129 55.7886 33.165 54.8632Z" fill="#D23F43"/>
<path fill-rule="evenodd" clip-rule="evenodd" d="M33.3782 53.837C33.3782 53.837 35.5538 53.1861 35.427 51.1523C32.6286 50.1307 29.8268 49.1057 27.0209 48.0771C27.0031 48.087 27.1545 49.7409 28.0233 51.2889C28.8942 52.8421 30.4976 54.2847 33.3782 53.837Z" fill="#D23F43"/>
<path fill-rule="evenodd" clip-rule="evenodd" d="M36.2642 48.6846C36.2642 48.6846 33.8996 46.6444 31.365 47.853C30.1042 48.4628 29.4108 49.5661 29.2621 50.6415C29.1127 51.7227 29.4971 52.7761 30.3995 53.2753C32.1961 54.2777 33.4754 53.7751 33.4754 53.7751C33.4754 53.7751 31.6589 54.5412 28.6584 53.167C25.6545 51.791 22.5957 48.3737 22.5957 48.3737C22.5957 48.3737 23.1726 46.5147 23.2734 46.4539C23.3707 46.3908 24.2512 44.2706 24.5561 44.233C24.7219 44.2156 27.0605 44.614 29.6533 45.3715C32.2359 46.1249 35.0754 47.2432 36.2642 48.6846Z" fill="#D23F43"/>
<path fill-rule="evenodd" clip-rule="evenodd" d="M33.8332 54.7694C34.0106 54.7428 33.4234 54.7735 33.2206 54.7764C30.5448 54.8453 28.5619 54.042 27.445 52.8224C26.3322 51.6069 26.0787 49.9749 26.8338 48.3829C27.7458 46.48 30.3098 45.7995 32.634 45.5927C34.9466 45.3872 37.0344 45.6501 37.0344 45.6501C32.0119 43.6104 26.9797 41.565 21.9297 39.5138C16.8661 37.4573 11.788 35.3939 6.68939 33.3236C6.68939 33.3236 1.87444 32.2881 0.249815 36.7751C-1.07332 40.4583 4.15275 41.8997 4.15275 41.8997C4.15275 41.8997 7.42393 43.0278 11.9648 45.0339C16.4967 47.0365 22.2943 49.9216 27.408 53.4664C27.4313 53.4942 29.6116 55.4423 33.8332 54.7694Z" fill="#D23F43"/>
<path fill-rule="evenodd" clip-rule="evenodd" d="M22.0479 39.1257C22.0479 39.1257 17.1192 38.5831 14.8272 42.418C13.7411 44.2248 14.0344 45.5284 14.6004 46.3809C15.1664 47.2333 16.0126 47.6271 16.0126 47.6271C15.6933 47.4841 15.3754 47.3416 15.0609 47.1968C15.0609 47.1968 14.2133 46.6363 13.6863 45.6216C13.1601 44.6076 12.9586 43.143 14.2461 41.3362C16.7047 37.8459 21.116 38.7053 21.116 38.7053C21.4271 38.8471 21.7334 38.9856 22.0479 39.1257Z" fill="#D23F43"/>
<path fill-rule="evenodd" clip-rule="evenodd" d="M15.0273 46.1684C15.0273 46.1684 20.3733 46.9004 22.6263 43.0006C23.6609 41.2117 23.2704 39.8815 22.6277 38.9989C21.9863 38.1181 21.0825 37.6768 21.0825 37.6768C21.3888 37.8164 21.6917 37.9536 22.0027 38.092C22.0027 38.092 22.9175 38.6943 23.526 39.7396C24.1365 40.7872 24.4482 42.2819 23.2128 44.0836C20.7961 47.655 15.9784 46.5993 15.9784 46.5993C15.6598 46.4556 15.3412 46.3132 15.0273 46.1684Z" fill="#90332E"/>
<path fill-rule="evenodd" clip-rule="evenodd" d="M33.1299 53.834C33.1299 53.834 35.4095 53.8838 36.5045 51.0068C37.0033 49.7189 36.719 48.5676 36.2277 47.6555C33.9233 44.9655 26.5121 46.0664 28.9974 44.1657C27.1617 43.4899 27.7119 44.5763 26.2908 45.0767C26.2908 45.0767 23.5377 48.2543 23.5082 48.5548C23.4787 48.8548 25.1116 50.54 25.2301 50.6153C25.3199 50.69 29.5778 54.76 33.1299 53.834Z" fill="#AFA686"/>
<path fill-rule="evenodd" clip-rule="evenodd" d="M33.343 52.8085C33.343 52.8085 35.5186 52.1576 35.3918 50.1238C32.5934 49.1022 29.7916 48.0772 26.9857 47.0486C26.9679 47.0585 27.1193 48.7124 27.9882 50.2604C28.8591 51.8136 30.4624 53.2562 33.343 52.8085Z" fill="#C5BBA1"/>
<path fill-rule="evenodd" clip-rule="evenodd" d="M36.229 47.6556C36.229 47.6556 33.8644 45.6154 31.3298 46.824C30.069 47.4338 29.3756 48.537 29.2269 49.6124C29.0775 50.6942 29.4619 51.747 30.3644 52.2462C32.161 53.2487 33.4403 52.746 33.4403 52.746C33.4403 52.746 31.6238 53.5122 28.6233 52.1379C25.6193 50.762 22.5605 47.3446 22.5605 47.3446C22.5605 47.3446 23.1375 45.4856 23.2389 45.4248C23.3362 45.3617 24.2167 43.2416 24.5216 43.2039C24.6874 43.1865 27.026 43.585 29.6189 44.3425C32.2007 45.0959 35.0402 46.2147 36.229 47.6556Z" fill="#DED8C0"/>
<path fill-rule="evenodd" clip-rule="evenodd" d="M33.798 53.7403C33.9755 53.7137 33.3882 53.7444 33.1854 53.7473C30.5097 53.8162 28.5267 53.013 27.4098 51.7933C26.297 50.5778 26.0435 48.9458 26.7986 47.3539C27.7106 45.4509 30.2747 44.7704 32.5989 44.5637C34.9115 44.3581 36.9993 44.621 36.9993 44.621C31.9767 42.5814 26.9446 40.5359 21.8946 38.4847C16.8309 36.4283 11.7529 34.3649 6.65423 32.2945C6.65423 32.2945 1.83928 31.2591 0.214659 35.7461C-1.10847 39.4292 4.11759 40.8707 4.11759 40.8707C4.11759 40.8707 7.38877 41.9988 11.9296 44.0048C16.4616 46.0074 22.2591 48.8926 27.3728 52.4373C27.3961 52.4657 29.5764 54.4133 33.798 53.7403Z" fill="#EDE5CC"/>
<path fill-rule="evenodd" clip-rule="evenodd" d="M22.0127 38.0966C22.0127 38.0966 17.0841 37.554 14.792 41.3889C13.706 43.1957 13.9993 44.4993 14.5652 45.3518C15.1312 46.2042 15.9774 46.598 15.9774 46.598C15.6581 46.455 15.3402 46.3125 15.0257 46.1678C15.0257 46.1678 14.1781 45.6072 13.6512 44.5926C13.1249 43.5785 12.9235 42.114 14.211 40.3071C16.6695 36.8168 21.0809 37.6762 21.0809 37.6762C21.3919 37.8187 21.6982 37.9565 22.0127 38.0966Z" fill="#EA434B"/>
</svg>
