<svg width="40" height="50" viewBox="0 0 40 50" fill="none" xmlns="http://www.w3.org/2000/svg">
<g clip-path="url(#clip0)">
<path d="M15.2532 11.6739C15.2117 11.36 14.2484 3.98814 14.5896 2.99171C14.9361 1.9794 18.0132 0.774155 18.3638 0.639832L18.4855 0.902372C17.5717 1.25283 15.1461 2.3262 14.8893 3.07597C14.623 3.85504 15.2866 9.52104 15.5649 11.6385L15.2532 11.6739Z" fill="#011627"/>
<path d="M19.5571 0.324857C19.1544 -0.515274 16.9094 0.44819 17.2867 1.23215C17.6626 2.01733 19.9598 1.16499 19.5571 0.324857Z" fill="#011627"/>
<path d="M1.83398 8.6358L3.84884 50H36.2644L38.1655 8.6358H1.83398Z" fill="#FF9F1C"/>
<path d="M37.1611 30.4865L37.9424 13.4775L2.12598 14.6132L2.69859 26.386L37.1611 30.4865Z" fill="#F57A1C"/>
<path d="M8.52372 50H10.1773L7.73436 8.6358H5.72754L8.52372 50Z" fill="#FFBD2E"/>
<path d="M0 8.6358L0.804067 22.3233H38.7932L40 8.6358H0Z" fill="#FF9F1C"/>
<path d="M10.5778 12.0549L10.3945 18.9042H29.4045L29.2052 12.0549H10.5778Z" fill="white"/>
<path d="M4.42721 22.3233H6.11829L4.64127 8.6358H2.64648L4.42721 22.3233Z" fill="#FFBD2E"/>
</g>
<defs>
<clipPath id="clip0">
<rect width="40" height="50" fill="white"/>
</clipPath>
</defs>
</svg>
