<svg width="70" height="70" viewBox="0 0 70 70" fill="none" xmlns="http://www.w3.org/2000/svg">
<path d="M35 0C15.6692 0 0 15.6692 0 35C0 54.3308 15.6692 70 35 70C54.3308 70 70 54.3308 70 35C70 15.6692 54.3308 0 35 0Z" fill="#ADD9D2"/>
<path d="M43.2334 29.373C43.2549 29.3999 43.2819 29.4269 43.3034 29.4592C43.7934 30.2184 43.7826 32.4638 43.7342 33.7561H44.5257L45.818 31.4622L47.1103 33.7561H51.9188C51.9188 33.7561 52.0157 31.3599 51.698 30.8592C51.3372 30.3046 50.1419 29.9546 48.9519 29.4646C47.7672 28.9692 47.4819 28.7969 47.4819 28.7969L47.4711 27.6553C47.4711 27.6553 47.918 27.3161 48.0526 26.2446C48.3326 26.3253 48.6234 25.8299 48.6396 25.5661C48.6557 25.313 48.6019 24.6184 48.2626 24.6884C48.3326 24.1607 48.3811 23.6922 48.3596 23.4392C48.2734 22.5238 47.3688 21.5599 45.9849 21.5599C44.6011 21.5599 43.6965 22.5238 43.6103 23.4392C43.5888 23.6869 43.6372 24.1607 43.7072 24.6884C43.368 24.6184 43.3142 25.3184 43.3303 25.5661C43.3465 25.8299 43.6372 26.3199 43.9172 26.2446C44.0519 27.3161 44.4988 27.6553 44.4988 27.6553L44.488 28.7969C44.4772 28.8022 44.2242 28.953 43.2334 29.373ZM45.8126 29.9384L46.5772 30.703L45.8126 31.4676L45.048 30.703L45.8126 29.9384Z" fill="#434A54"/>
<path d="M22.8946 33.7616L24.187 31.4677L25.4793 33.7616H26.2708C26.217 32.4693 26.2116 30.2239 26.6962 29.4646C26.7177 29.4323 26.7393 29.4054 26.7662 29.3785C25.7754 28.9585 25.5223 28.8077 25.5223 28.8077L25.5116 27.6662C25.5116 27.6662 25.9585 27.327 26.0931 26.2554C26.3731 26.3362 26.6639 25.8408 26.68 25.577C26.6962 25.3239 26.6423 24.6293 26.3031 24.6993C26.3731 24.1716 26.4216 23.7031 26.4 23.45C26.3085 22.5346 25.4093 21.5708 24.0254 21.5708C22.6416 21.5708 21.737 22.5346 21.6508 23.45C21.6239 23.6977 21.6777 24.1716 21.7423 24.6993C21.4031 24.6293 21.3493 25.3293 21.3654 25.577C21.3816 25.8408 21.6777 26.3308 21.9523 26.2554C22.0923 27.327 22.5339 27.6662 22.5339 27.6662L22.5231 28.8077C22.5231 28.8077 22.2431 28.98 21.0531 29.4754C19.8631 29.9708 18.6677 30.3154 18.307 30.87C17.9893 31.3708 18.0862 33.767 18.0862 33.767H22.8946V33.7616ZM24.187 29.9385L24.9516 30.7031L24.187 31.4677L23.4223 30.7031L24.187 29.9385Z" fill="#434A54"/>
<path d="M29.959 33.7615H33.0552L34.7782 30.7084L36.5013 33.7615H40.039H42.9144C42.9144 33.7615 43.0436 30.5684 42.6183 29.9008C42.5752 29.8308 42.5052 29.7608 42.4406 29.6961C41.8213 29.0715 40.389 28.63 38.9567 28.0377C37.3736 27.3754 37.0021 27.1492 37.0021 27.1492L36.9859 25.6308C36.9859 25.6308 37.5782 25.1784 37.7613 23.7461C38.1329 23.8538 38.5259 23.1915 38.5421 22.8415C38.5636 22.5077 38.4936 21.5761 38.0413 21.6731C38.1329 20.9731 38.1975 20.3431 38.1652 20.0092C38.0467 18.7869 36.8459 17.5054 34.999 17.5054C33.1521 17.5054 31.9513 18.7923 31.8329 20.0092C31.8006 20.3431 31.8652 20.9731 31.9567 21.6731C31.5044 21.5815 31.4344 22.5131 31.4559 22.8415C31.4775 23.1915 31.8652 23.8538 32.2367 23.7461C32.4198 25.1731 33.0121 25.6308 33.0121 25.6308L32.9959 27.1492C32.9959 27.1492 32.619 27.3808 31.0359 28.0377C29.6036 28.6354 28.1659 29.0715 27.5521 29.6961C27.4875 29.7608 27.4229 29.8308 27.3744 29.9008C26.9436 30.5684 27.0729 33.7615 27.0729 33.7615H29.959ZM34.7782 28.6677L35.7959 29.6854L34.7782 30.7031L33.7606 29.6854L34.7782 28.6677Z" fill="#434A54"/>
<path d="M17.8388 34.8223C17.7904 37.6115 18.3504 40.4277 19.5081 42.7215C22.2704 48.693 28.7642 52.753 35.2904 52.4838C41.9188 52.473 48.1865 48.0253 50.755 42.0107C51.7673 39.8407 52.2196 37.3315 52.1604 34.8169H17.8388V34.8223ZM22.9488 46.103C20.3696 43.2115 18.9642 39.7438 18.8027 35.813L24.9034 35.8023L25.4688 35.8184C25.5119 38.4407 26.0881 40.88 27.0358 43.1469C25.5173 43.9169 24.2034 44.9723 22.9488 46.103ZM23.665 46.8569C24.7634 45.6669 26.1204 44.8054 27.4181 44.073C28.7642 46.7923 30.9288 49.5223 33.5242 51.4446C29.7334 51.1215 26.3519 49.4577 23.665 46.8569ZM34.6927 51.0354C31.9896 49.1938 29.7388 46.5338 28.3496 43.6423C30.2988 42.7269 32.4042 42.2638 34.7196 42.2046L34.6927 51.0354ZM34.7358 41.1654C34.6604 41.1869 34.5419 41.1977 34.4396 41.203C32.1673 41.2892 29.9381 41.8169 27.9242 42.6946C27.095 40.6646 26.5565 38.36 26.4596 36.1954L26.4811 35.8023L32.9588 35.7915L34.7465 35.7969L34.7358 41.1654ZM35.7642 35.8077L43.8196 35.7861L44.0458 35.8023C44.0188 38.3277 43.3727 40.6861 42.4465 42.8777C40.4004 41.93 38.155 41.3323 35.7427 41.2084L35.7642 35.8077ZM35.7319 42.2046C37.8481 42.3338 39.9965 42.8454 41.8758 43.7607L41.9942 43.8307C40.6211 46.6254 38.295 49.21 35.6996 50.9923L35.7319 42.2046ZM36.9165 51.38C38.9465 49.8507 40.7504 47.8692 42.0804 45.7207C42.3711 45.2523 42.6188 44.8054 42.8773 44.31C44.0996 44.9454 45.2142 45.8123 46.2696 46.83C43.6796 49.3554 40.4488 50.9438 36.9165 51.38ZM46.9696 46.0761C45.8388 44.9884 44.595 44.1215 43.3242 43.3677C44.3527 41.0361 45.0204 38.2846 45.0527 35.7915L50.9434 35.7754C51.0134 35.813 51.105 35.7915 51.1911 35.8023C51.0458 39.6415 49.5811 43.1307 46.9696 46.0761Z" fill="#FAF0E0"/>
</svg>
