<svg width="76" height="55" viewBox="0 0 76 55" fill="none" xmlns="http://www.w3.org/2000/svg">
<path d="M71.301 11.7632H4.70117V54.8844H71.301V11.7632Z" fill="#DDC993"/>
<path d="M71.301 11.7632H4.70117V14.9515H71.301V11.7632Z" fill="#DDC993"/>
<path d="M58.5179 11.7632H17.3145V54.8844H58.5179V11.7632Z" fill="#DDC993"/>
<path d="M71.301 11.7632H4.70117V13.3662H71.301V11.7632Z" fill="#BABECC"/>
<path d="M38.2324 11.7633H0L10.6033 0.954712H38.2324V11.7633Z" fill="#791B1F"/>
<path d="M38.232 11.7633H11.3057L34.5827 0.954712H38.232V11.7633Z" fill="#4A0000"/>
<path d="M37.7676 11.7633H76L65.3967 0.954712H37.7676V11.7633Z" fill="#791B1F"/>
<path d="M37.7676 11.7633H65.5523L42.5311 0.954712H37.7676V11.7633Z" fill="#4A0000"/>
<path d="M76 11.7632H0V13.9315H76V11.7632Z" fill="#A7C1C4"/>
<path d="M57.4924 10.4717H18.5039V54.8817H57.4924V10.4717Z" fill="#F3EEB5"/>
<path d="M57.4924 9.63763H18.5039V13.8887H57.4924V9.63763Z" fill="#BABECC"/>
<path d="M59.6452 12.7179H16.3535V10.0648L37.9982 -6.10352e-05L59.6452 10.0648V12.7179Z" fill="#BF353C"/>
<path d="M59.6452 10.228H16.3535V12.7179H59.6452V10.228Z" fill="#E3F3EE"/>
<path d="M37.9108 15.042C40.253 15.042 42.1517 12.8969 42.1517 10.2508C42.1517 7.60464 40.253 5.45953 37.9108 5.45953C35.5686 5.45953 33.6699 7.60464 33.6699 10.2508C33.6699 12.8969 35.5686 15.042 37.9108 15.042Z" fill="white"/>
<path d="M37.9104 15.4188C35.3886 15.4188 33.3359 13.0999 33.3359 10.2507C33.3359 7.40163 35.3886 5.08264 37.9104 5.08264C40.4322 5.08264 42.4848 7.40163 42.4848 10.2507C42.4848 13.0999 40.4322 15.4188 37.9104 15.4188ZM37.9104 5.83638C35.7555 5.83638 34.0031 7.81618 34.0031 10.2507C34.0031 12.6853 35.7555 14.6651 37.9104 14.6651C40.0653 14.6651 41.8177 12.6853 41.8177 10.2507C41.8177 7.81618 40.0653 5.83638 37.9104 5.83638Z" fill="#7F838E"/>
<path d="M37.9097 10.6276C37.7252 10.6276 37.5762 10.4593 37.5762 10.2507V7.04233C37.5762 6.8338 37.7252 6.66547 37.9097 6.66547C38.0943 6.66547 38.2433 6.8338 38.2433 7.04233V10.2507C38.2433 10.4593 38.0943 10.6276 37.9097 10.6276Z" fill="#35383F"/>
<path d="M36.3042 11.9241C36.2019 11.9241 36.0996 11.8713 36.0329 11.7683C35.9239 11.6 35.9573 11.3638 36.1063 11.2407L37.7119 9.92417C37.8609 9.80106 38.0699 9.83874 38.1789 10.0071C38.2879 10.1754 38.2545 10.4116 38.1055 10.5347L36.4999 11.8512C36.4421 11.8989 36.3732 11.9241 36.3042 11.9241Z" fill="#35383F"/>
<path d="M38.3038 10.2508C38.3038 10.497 38.1282 10.6955 37.9102 10.6955C37.6923 10.6955 37.5166 10.497 37.5166 10.2508C37.5166 10.0046 37.6923 9.80609 37.9102 9.80609C38.1282 9.80609 38.3038 10.0046 38.3038 10.2508Z" fill="#7F838E"/>
<path d="M52.8719 16.8359H46.7207V25.637H52.8719V16.8359Z" fill="#554B3F"/>
<path d="M49.5626 17.464H47.1875V25.0089H49.5626V17.464Z" fill="#469FBB"/>
<path d="M49.6736 25.132H47.0762V17.3384H49.6736V25.132ZM47.2986 24.8807H49.4512V17.5896H47.2986V24.8807Z" fill="white"/>
<path d="M52.3614 17.464H49.9863V25.0089H52.3614V17.464Z" fill="#469FBB"/>
<path d="M52.4754 25.132H49.8779V17.3384H52.4754V25.132ZM50.0981 24.8807H52.2508V17.5896H50.0981V24.8807Z" fill="white"/>
<path d="M49.5626 17.464H47.1875V21.107H49.5626V17.464Z" fill="#469FBB"/>
<path d="M49.6736 21.2327H47.0762V17.3384H49.6736V21.2327ZM47.2986 20.9814H49.4512V17.5896H47.2986V20.9814Z" fill="white"/>
<path d="M52.3614 17.464H49.9863V21.107H52.3614V17.464Z" fill="#469FBB"/>
<path d="M52.4754 21.2327H49.8779V17.3384H52.4754V21.2327ZM50.0981 20.9814H52.2508V17.5896H50.0981V20.9814Z" fill="white"/>
<path d="M29.8992 16.8359H23.748V25.637H29.8992V16.8359Z" fill="#554B3F"/>
<path d="M26.5919 17.464H24.2168V25.0089H26.5919V17.464Z" fill="#469FBB"/>
<path d="M26.7029 25.132H24.1055V17.3384H26.7029V25.132ZM24.3279 24.8807H26.4805V17.5896H24.3279V24.8807Z" fill="white"/>
<path d="M29.3907 17.464H27.0156V25.0089H29.3907V17.464Z" fill="#469FBB"/>
<path d="M29.5047 25.132H26.9072V17.3384H29.5047V25.132ZM27.1274 24.8807H29.2801V17.5896H27.1274V24.8807Z" fill="white"/>
<path d="M26.5919 17.464H24.2168V21.107H26.5919V17.464Z" fill="#469FBB"/>
<path d="M26.7029 21.2327H24.1055V17.3384H26.7029V21.2327ZM24.3279 20.9814H26.4805V17.5896H24.3279V20.9814Z" fill="white"/>
<path d="M29.3907 17.464H27.0156V21.107H29.3907V17.464Z" fill="#469FBB"/>
<path d="M29.5047 21.2327H26.9072V17.3384H29.5047V21.2327ZM27.1274 20.9814H29.2801V17.5896H27.1274V20.9814Z" fill="white"/>
<path d="M67.398 19.5995H60.6953V29.1896H67.398V19.5995Z" fill="#554B3F"/>
<path d="M63.7936 20.2855H61.2051V28.5062H63.7936V20.2855Z" fill="#469FBB"/>
<path d="M63.9047 28.6318H61.0938V20.1598H63.9047V28.6318ZM61.3161 28.3805H63.6823V20.411H61.3161V28.3805Z" fill="white"/>
<path d="M66.8473 20.2855H64.2588V28.5062H66.8473V20.2855Z" fill="#469FBB"/>
<path d="M66.9584 28.6318H64.1475V20.1599H66.9584V28.6318ZM64.3698 28.3806H66.736V20.4111H64.3698V28.3806Z" fill="white"/>
<path d="M63.7936 20.2855H61.2051V24.2551H63.7936V20.2855Z" fill="#469FBB"/>
<path d="M63.9047 24.3807H61.0938V20.1598H63.9047V24.3807ZM61.3161 24.1295H63.6823V20.411H61.3161V24.1295Z" fill="white"/>
<path d="M66.8473 20.2855H64.2588V24.2552H66.8473V20.2855Z" fill="#469FBB"/>
<path d="M66.9584 24.3808H64.1475V20.1599H66.9584V24.3808ZM64.3698 24.1295H66.736V20.4111H64.3698V24.1295Z" fill="white"/>
<path d="M14.9107 19.5996H8.20801V29.1896H14.9107V19.5996Z" fill="#554B3F"/>
<path d="M11.3054 20.2855H8.7168V28.5062H11.3054V20.2855Z" fill="#469FBB"/>
<path d="M11.4164 28.6318H8.60547V20.1598H11.4164V28.6318ZM8.82785 28.3805H11.194V20.411H8.82785V28.3805Z" fill="white"/>
<path d="M14.3581 20.2855H11.7695V28.5062H14.3581V20.2855Z" fill="#469FBB"/>
<path d="M14.4701 28.6318H11.6592V20.1599H14.4701V28.6318ZM11.8816 28.3806H14.2477V20.4111H11.8816V28.3806Z" fill="white"/>
<path d="M11.3054 20.2855H8.7168V24.2551H11.3054V20.2855Z" fill="#469FBB"/>
<path d="M11.4164 24.3807H8.60547V20.1598H11.4164V24.3807ZM8.82785 24.1295H11.194V20.411H8.82785V24.1295Z" fill="white"/>
<path d="M14.3581 20.2855H11.7695V24.2552H14.3581V20.2855Z" fill="#469FBB"/>
<path d="M14.4701 24.3808H11.6592V20.1599H14.4701V24.3808ZM11.8816 24.1295H14.2477V20.4111H11.8816V24.1295Z" fill="white"/>
<path d="M67.398 39.1941H60.6953V48.7841H67.398V39.1941Z" fill="#554B3F"/>
<path d="M63.7936 39.8799H61.2051V48.1007H63.7936V39.8799Z" fill="#469FBB"/>
<path d="M63.9047 48.2263H61.0938V39.7543H63.9047V48.2263ZM61.3161 47.9751H63.6823V40.0056H61.3161V47.9751Z" fill="white"/>
<path d="M66.8473 39.8799H64.2588V48.1007H66.8473V39.8799Z" fill="#469FBB"/>
<path d="M66.9584 48.2263H64.1475V39.7543H66.9584V48.2263ZM64.3698 47.9751H66.736V40.0056H64.3698V47.9751Z" fill="white"/>
<path d="M63.7936 39.8799H61.2051V43.8496H63.7936V39.8799Z" fill="#469FBB"/>
<path d="M63.9047 43.9752H61.0938V39.7543H63.9047V43.9752ZM61.3161 43.724H63.6823V40.0056H61.3161V43.724Z" fill="white"/>
<path d="M66.8473 39.8799H64.2588V43.8496H66.8473V39.8799Z" fill="#469FBB"/>
<path d="M66.9584 43.9752H64.1475V39.7543H66.9584V43.9752ZM64.3698 43.724H66.736V40.0056H64.3698V43.724Z" fill="white"/>
<path d="M14.9107 39.1942H8.20801V48.7842H14.9107V39.1942Z" fill="#554B3F"/>
<path d="M11.3054 39.88H8.7168V48.1007H11.3054V39.88Z" fill="#469FBB"/>
<path d="M11.4164 48.2264H8.60547V39.7544H11.4164V48.2264ZM8.82785 47.9751H11.194V40.0056H8.82785V47.9751Z" fill="white"/>
<path d="M14.3581 39.88H11.7695V48.1007H14.3581V39.88Z" fill="#469FBB"/>
<path d="M14.4701 48.2264H11.6592V39.7544H14.4701V48.2264ZM11.8816 47.9751H14.2477V40.0056H11.8816V47.9751Z" fill="white"/>
<path d="M11.3054 39.88H8.7168V43.8497H11.3054V39.88Z" fill="#469FBB"/>
<path d="M11.4164 43.9753H8.60547V39.7544H11.4164V43.9753ZM8.82785 43.7241H11.194V40.0056H8.82785V43.7241Z" fill="white"/>
<path d="M14.3581 39.88H11.7695V43.8497H14.3581V39.88Z" fill="#469FBB"/>
<path d="M14.4701 43.9753H11.6592V39.7544H14.4701V43.9753ZM11.8816 43.7241H14.2477V40.0056H11.8816V43.7241Z" fill="white"/>
<path d="M53.7417 39.1942H47.0391V48.7842H53.7417V39.1942Z" fill="#554B3F"/>
<path d="M50.1374 39.8801H47.5488V48.1009H50.1374V39.8801Z" fill="#469FBB"/>
<path d="M50.2484 48.2265H47.4375V39.7545H50.2484V48.2265ZM47.6599 47.9752H50.0261V40.0058H47.6599V47.9752Z" fill="white"/>
<path d="M53.1891 39.8802H50.6006V48.1009H53.1891V39.8802Z" fill="#469FBB"/>
<path d="M53.3022 48.2265H50.4912V39.7545H53.3022V48.2265ZM50.7114 47.9752H53.0775V40.0058H50.7114V47.9752Z" fill="white"/>
<path d="M50.1374 39.8801H47.5488V43.8498H50.1374V39.8801Z" fill="#469FBB"/>
<path d="M50.2484 43.9754H47.4375V39.7545H50.2484V43.9754ZM47.6599 43.7242H50.0261V40.0058H47.6599V43.7242Z" fill="white"/>
<path d="M53.1891 39.8802H50.6006V43.8499H53.1891V39.8802Z" fill="#469FBB"/>
<path d="M53.3022 43.9754H50.4912V39.7545H53.3022V43.9754ZM50.7114 43.7242H53.0775V40.0058H50.7114V43.7242Z" fill="white"/>
<path d="M29.5816 38.257H22.8789V47.8772H29.5816V38.257Z" fill="#554B3F"/>
<path d="M25.9772 38.9429H23.3887V47.1888H25.9772V38.9429Z" fill="#469FBB"/>
<path d="M26.0883 47.3144H23.2773V38.8173H26.0883V47.3144ZM23.4997 47.0632H25.8659V39.0686H23.4997V47.0632Z" fill="white"/>
<path d="M29.03 38.9429H26.4414V47.1888H29.03V38.9429Z" fill="#469FBB"/>
<path d="M29.141 47.3144H26.3301V38.8173H29.141V47.3144ZM26.5525 47.0632H28.9186V39.0686H26.5525V47.0632Z" fill="white"/>
<path d="M25.9772 38.9429H23.3887V42.9252H25.9772V38.9429Z" fill="#469FBB"/>
<path d="M26.0883 43.0533H23.2773V38.8173H26.0883V43.0533ZM23.4997 42.8021H25.8659V39.0686H23.4997V42.8021Z" fill="white"/>
<path d="M29.03 38.9429H26.4414V42.9252H29.03V38.9429Z" fill="#469FBB"/>
<path d="M29.141 43.0533H26.3301V38.8173H29.141V43.0533ZM26.5525 42.8021H28.9186V39.0686H26.5525V42.8021Z" fill="white"/>
<path d="M43.5133 37.3475H32.2695V53.4825H43.5133V37.3475Z" fill="#554B3F"/>
<path d="M37.4662 38.5008H33.123V52.3318H37.4662V38.5008Z" fill="#AD774F"/>
<path d="M42.5883 38.5008H38.2451V52.3318H42.5883V38.5008Z" fill="#AD774F"/>
<path d="M47.8494 51.8544H28.7666V53.4825H47.8494V51.8544Z" fill="#8F8561"/>
<path d="M49.3171 53.1207H27.2988V55H49.3171V53.1207Z" fill="#DDC993"/>
<path d="M58.1537 29.1896H17.6797V35.7547H58.1537V29.1896Z" fill="#EEBD7D"/>
<path d="M27.9667 34.1517C28.0979 34.315 28.2558 34.4607 28.4471 34.5838C28.6361 34.7094 28.854 34.7697 29.1009 34.7697C29.3833 34.7697 29.6101 34.6944 29.7791 34.5461C29.9482 34.3954 30.0327 34.1818 30.0327 33.9029C30.0327 33.6291 29.9548 33.4256 29.7992 33.2924C29.6435 33.1593 29.4122 33.0286 29.1031 32.9005L28.8651 32.7874C28.5338 32.6543 28.2558 32.4759 28.0334 32.2523C27.811 32.0287 27.6998 31.7322 27.6998 31.3629C27.6998 30.986 27.8288 30.6895 28.0846 30.4684C28.3403 30.2473 28.6628 30.1368 29.0497 30.1368C29.3477 30.1368 29.5946 30.187 29.7925 30.2875C29.9904 30.388 30.1728 30.5337 30.3373 30.7222L30.0638 31.0739C29.9437 30.9483 29.8058 30.8378 29.6457 30.7347C29.4878 30.6342 29.2899 30.584 29.0542 30.584C28.8029 30.584 28.5916 30.6518 28.4248 30.785C28.2558 30.9207 28.1735 31.094 28.1735 31.3051C28.1735 31.5639 28.2669 31.7674 28.456 31.9131C28.645 32.0588 28.8385 32.1744 29.0364 32.2598L29.4433 32.4533C29.8636 32.6316 30.1483 32.8226 30.2995 33.0286C30.4485 33.2321 30.5241 33.5009 30.5241 33.8326C30.5241 34.2748 30.3863 34.6165 30.1105 34.8577C29.8347 35.0989 29.4967 35.2195 29.0942 35.2195C28.9296 35.2195 28.7806 35.2069 28.6428 35.1818C28.5049 35.1566 28.3781 35.1139 28.258 35.0587C28.1379 35.0034 28.0245 34.9305 27.9178 34.8426C27.811 34.7547 27.7065 34.6516 27.6064 34.5285L27.9667 34.1517Z" fill="#997B50"/>
<path d="M34.2702 34.438C34.1257 34.6591 33.9478 34.845 33.7409 34.9958C33.5319 35.1465 33.2384 35.2194 32.8603 35.2194C32.3177 35.2194 31.8885 34.9807 31.5682 34.5059C31.248 34.0285 31.0879 33.4155 31.0879 32.6617C31.0879 31.9633 31.2413 31.3678 31.5482 30.8754C31.8551 30.3829 32.3066 30.1367 32.907 30.1367C33.1561 30.1367 33.3762 30.1769 33.5675 30.2548C33.7587 30.3327 33.9411 30.4784 34.1123 30.6869L33.8166 31.0362C33.6876 30.8879 33.5452 30.7749 33.3918 30.6995C33.2361 30.6241 33.0671 30.5864 32.8803 30.5864C32.4711 30.5864 32.1509 30.7849 31.9218 31.1769C31.6928 31.5713 31.5794 32.0386 31.5794 32.5813C31.5794 33.2873 31.7083 33.8275 31.9663 34.2069C32.2243 34.5837 32.5178 34.7747 32.8447 34.7747C33.1627 34.7747 33.394 34.7194 33.5363 34.6064C33.6787 34.4933 33.8099 34.3451 33.93 34.1541L34.2702 34.438Z" fill="#997B50"/>
<path d="M34.8828 30.2649H35.352V32.4507H37.4892V30.2649H37.9584V35.1441H37.4892V32.8552H35.352V35.1441H34.8828V30.2649Z" fill="#997B50"/>
<path d="M40.6341 35.2194C40.0247 35.2194 39.5555 34.9807 39.2242 34.5034C38.895 34.026 38.7305 33.3954 38.7305 32.609C38.7305 31.9005 38.9173 31.31 39.2887 30.8402C39.66 30.3704 40.1204 30.1367 40.6674 30.1367C41.2634 30.1367 41.726 30.3704 42.0529 30.8402C42.3798 31.31 42.5444 31.9281 42.5444 32.6994C42.5444 33.4155 42.3642 34.0134 42.0017 34.4958C41.6393 34.9782 41.1834 35.2194 40.6341 35.2194ZM40.6585 34.7722C41.0166 34.7722 41.3368 34.5863 41.6215 34.2119C41.9061 33.8376 42.0462 33.2873 42.0462 32.5587C42.0462 32.0939 41.935 31.6492 41.7126 31.2221C41.4903 30.7975 41.1456 30.5839 40.6763 30.5839C40.2249 30.5839 39.8691 30.7749 39.6111 31.1543C39.3531 31.5362 39.2242 32.0211 39.2242 32.609C39.2242 33.3024 39.3598 33.835 39.6311 34.2094C39.9047 34.5838 40.2471 34.7722 40.6585 34.7722Z" fill="#997B50"/>
<path d="M45.1644 35.2194C44.555 35.2194 44.0836 34.9807 43.7544 34.5034C43.4253 34.026 43.2607 33.3954 43.2607 32.609C43.2607 31.9005 43.4475 31.31 43.8189 30.8402C44.1903 30.3704 44.6506 30.1367 45.1977 30.1367C45.7937 30.1367 46.2563 30.3704 46.5832 30.8402C46.9101 31.31 47.0746 31.9281 47.0746 32.6994C47.0746 33.4155 46.8945 34.0134 46.532 34.4958C46.1673 34.9782 45.7136 35.2194 45.1644 35.2194ZM45.1888 34.7722C45.5469 34.7722 45.8671 34.5863 46.1517 34.2119C46.4364 33.8376 46.5787 33.2873 46.5787 32.5587C46.5787 32.0939 46.4675 31.6492 46.2451 31.2221C46.0228 30.7975 45.6781 30.5839 45.2088 30.5839C44.7574 30.5839 44.4016 30.7749 44.1436 31.1543C43.8856 31.5362 43.7567 32.0211 43.7567 32.609C43.7567 33.3024 43.8923 33.835 44.1636 34.2094C44.4349 34.5838 44.7774 34.7722 45.1888 34.7722Z" fill="#997B50"/>
<path d="M50.2566 35.1415H47.8438V30.2623H48.313V34.7119H50.2588V35.1415H50.2566Z" fill="#997B50"/>
<path d="M27.9667 33.8527C28.0979 34.016 28.2558 34.1617 28.4471 34.2848C28.6361 34.4104 28.854 34.4707 29.1009 34.4707C29.3833 34.4707 29.6101 34.3953 29.7791 34.2471C29.9482 34.0989 30.0327 33.8828 30.0327 33.6039C30.0327 33.3301 29.9548 33.1266 29.7992 32.9934C29.6435 32.8602 29.4122 32.7296 29.1031 32.6015L28.8651 32.4884C28.5338 32.3552 28.2558 32.1769 28.0334 31.9532C27.811 31.7296 27.6998 31.4332 27.6998 31.0638C27.6998 30.687 27.8288 30.3905 28.0846 30.1694C28.3403 29.9483 28.6628 29.8378 29.0497 29.8378C29.3477 29.8378 29.5946 29.888 29.7925 29.9885C29.9904 30.089 30.1728 30.2322 30.3373 30.4232L30.0638 30.7749C29.9437 30.6493 29.8058 30.5387 29.6457 30.4357C29.4878 30.3352 29.2899 30.285 29.0542 30.285C28.8029 30.285 28.5916 30.3528 28.4248 30.486C28.2558 30.6217 28.1735 30.795 28.1735 31.0061C28.1735 31.2648 28.2669 31.4683 28.456 31.6141C28.645 31.7598 28.8385 31.8754 29.0364 31.9608L29.4433 32.1542C29.8636 32.3326 30.1483 32.5236 30.2995 32.7296C30.4485 32.9331 30.5241 33.2019 30.5241 33.5336C30.5241 33.9758 30.3863 34.3175 30.1105 34.5587C29.8347 34.7999 29.4967 34.9204 29.0942 34.9204C28.9296 34.9204 28.7806 34.9079 28.6428 34.8828C28.5049 34.8576 28.3781 34.8149 28.258 34.7597C28.1379 34.7044 28.0245 34.6315 27.9178 34.5436C27.811 34.4556 27.7065 34.3526 27.6064 34.2295L27.9667 33.8527Z" fill="white"/>
<path d="M34.2702 34.1391C34.1257 34.3602 33.9478 34.5461 33.7409 34.6968C33.5319 34.8451 33.2384 34.9204 32.8603 34.9204C32.3177 34.9204 31.8885 34.6818 31.5682 34.2069C31.248 33.7295 31.0879 33.1165 31.0879 32.3628C31.0879 31.6643 31.2413 31.0689 31.5482 30.5764C31.8551 30.084 32.3066 29.8378 32.907 29.8378C33.1561 29.8378 33.3762 29.878 33.5675 29.9559C33.7587 30.0337 33.9411 30.1795 34.1123 30.388L33.8166 30.7372C33.6876 30.5865 33.5452 30.4759 33.3918 30.4006C33.2361 30.3252 33.0671 30.2875 32.8803 30.2875C32.4711 30.2875 32.1509 30.486 31.9218 30.8779C31.6928 31.2724 31.5794 31.7397 31.5794 32.2824C31.5794 32.9884 31.7083 33.5286 31.9663 33.9079C32.2243 34.2848 32.5178 34.4757 32.8447 34.4757C33.1627 34.4757 33.394 34.4205 33.5363 34.3074C33.6787 34.1944 33.8099 34.0461 33.93 33.8552L34.2702 34.1391Z" fill="white"/>
<path d="M34.8828 29.9659H35.352V32.1517H37.4892V29.9659H37.9584V34.8451H37.4892V32.5562H35.352V34.8451H34.8828V29.9659Z" fill="white"/>
<path d="M40.6341 34.9204C40.0247 34.9204 39.5555 34.6818 39.2242 34.2044C38.895 33.727 38.7305 33.0964 38.7305 32.31C38.7305 31.6015 38.9173 31.0111 39.2887 30.5413C39.66 30.0714 40.1204 29.8378 40.6674 29.8378C41.2634 29.8378 41.726 30.0714 42.0529 30.5413C42.3798 31.0111 42.5444 31.6291 42.5444 32.4005C42.5444 33.1165 42.3642 33.7145 42.0017 34.1969C41.6393 34.6793 41.1834 34.9204 40.6341 34.9204ZM40.6585 34.4732C41.0166 34.4732 41.3368 34.2873 41.6215 33.913C41.9061 33.5386 42.0462 32.9884 42.0462 32.2598C42.0462 31.795 41.935 31.3503 41.7126 30.9231C41.4903 30.4985 41.1456 30.285 40.6763 30.285C40.2249 30.285 39.8691 30.4759 39.6111 30.8553C39.3531 31.2372 39.2242 31.7221 39.2242 32.31C39.2242 33.0035 39.3598 33.5361 39.6311 33.9104C39.9047 34.2848 40.2471 34.4732 40.6585 34.4732Z" fill="white"/>
<path d="M45.1644 34.9204C44.555 34.9204 44.0836 34.6818 43.7544 34.2044C43.4253 33.727 43.2607 33.0964 43.2607 32.31C43.2607 31.6015 43.4475 31.0111 43.8189 30.5413C44.1903 30.0714 44.6506 29.8378 45.1977 29.8378C45.7937 29.8378 46.2563 30.0714 46.5832 30.5413C46.9101 31.0111 47.0746 31.6291 47.0746 32.4005C47.0746 33.1165 46.8945 33.7145 46.532 34.1969C46.1673 34.6793 45.7136 34.9204 45.1644 34.9204ZM45.1888 34.4732C45.5469 34.4732 45.8671 34.2873 46.1517 33.913C46.4364 33.5386 46.5787 32.9884 46.5787 32.2598C46.5787 31.795 46.4675 31.3503 46.2451 30.9231C46.0228 30.4985 45.6781 30.285 45.2088 30.285C44.7574 30.285 44.4016 30.4759 44.1436 30.8553C43.8856 31.2372 43.7567 31.7221 43.7567 32.31C43.7567 33.0035 43.8923 33.5361 44.1636 33.9104C44.4349 34.2848 44.7774 34.4732 45.1888 34.4732Z" fill="white"/>
<path d="M50.2566 34.8425H47.8438V29.9634H48.313V34.4129H50.2588V34.8425H50.2566Z" fill="white"/>
<path d="M67.3023 33.5939H65.8701V34.4431H67.3023V33.5939Z" fill="#F3EEB5"/>
<path d="M66.5884 34.6014H65.1562V35.4506H66.5884V34.6014Z" fill="#F3EEB5"/>
<path d="M69.7261 34.6014H68.2939V35.4506H69.7261V34.6014Z" fill="#F3EEB5"/>
<path d="M69.0103 35.6089H67.5781V36.4581H69.0103V35.6089Z" fill="#F3EEB5"/>
<path d="M70.607 35.6089H69.1748V36.4581H70.607V35.6089Z" fill="#F3EEB5"/>
<path d="M61.6704 36.6163H60.2383V37.4655H61.6704V36.6163Z" fill="#F3EEB5"/>
<path d="M60.9536 35.6089H59.5215V36.4581H60.9536V35.6089Z" fill="#F3EEB5"/>
<path d="M64.0943 35.6089H62.6621V36.4581H64.0943V35.6089Z" fill="#F3EEB5"/>
<path d="M63.3775 34.6014H61.9453V35.4506H63.3775V34.6014Z" fill="#F3EEB5"/>
<path d="M13.5445 49.9951H12.1123V50.8443H13.5445V49.9951Z" fill="#F3EEB5"/>
<path d="M12.8286 51.0026H11.3965V51.8518H12.8286V51.0026Z" fill="#F3EEB5"/>
<path d="M15.9673 51.0026H14.5352V51.8518H15.9673V51.0026Z" fill="#F3EEB5"/>
<path d="M15.2505 52.0101H13.8184V52.8593H15.2505V52.0101Z" fill="#F3EEB5"/>
<path d="M16.8501 52.0101H15.418V52.8593H16.8501V52.0101Z" fill="#F3EEB5"/>
<path d="M7.91165 53.0176H6.47949V53.8668H7.91165V53.0176Z" fill="#F3EEB5"/>
<path d="M7.19583 52.0101H5.76367V52.8593H7.19583V52.0101Z" fill="#F3EEB5"/>
<path d="M10.3335 52.0101H8.90137V52.8593H10.3335V52.0101Z" fill="#F3EEB5"/>
<path d="M9.6177 51.0026H8.18555V51.8518H9.6177V51.0026Z" fill="#F3EEB5"/>
<path d="M27.6538 49.3068H26.2217V50.156H27.6538V49.3068Z" fill="#DDC993"/>
<path d="M26.937 50.3143H25.5049V51.1635H26.937V50.3143Z" fill="#DDC993"/>
<path d="M30.0747 50.3143H28.6426V51.1635H30.0747V50.3143Z" fill="#DDC993"/>
<path d="M29.3589 51.3217H27.9268V52.1709H29.3589V51.3217Z" fill="#DDC993"/>
<path d="M30.9575 51.3217H29.5254V52.1709H30.9575V51.3217Z" fill="#DDC993"/>
<path d="M22.02 52.3292H20.5879V53.1784H22.02V52.3292Z" fill="#DDC993"/>
<path d="M21.3042 51.3217H19.8721V52.1709H21.3042V51.3217Z" fill="#DDC993"/>
<path d="M24.4419 51.3217H23.0098V52.1709H24.4419V51.3217Z" fill="#DDC993"/>
<path d="M23.7261 50.3143H22.2939V51.1635H23.7261V50.3143Z" fill="#DDC993"/>
<path d="M50.3794 49.3068H48.9473V50.156H50.3794V49.3068Z" fill="#DDC993"/>
<path d="M51.0962 50.3143H49.6641V51.1635H51.0962V50.3143Z" fill="#DDC993"/>
<path d="M47.9575 50.3143H46.5254V51.1635H47.9575V50.3143Z" fill="#DDC993"/>
<path d="M48.6743 51.3217H47.2422V52.1709H48.6743V51.3217Z" fill="#DDC993"/>
<path d="M47.0747 51.3217H45.6426V52.1709H47.0747V51.3217Z" fill="#DDC993"/>
<path d="M56.0122 52.3292H54.5801V53.1784H56.0122V52.3292Z" fill="#DDC993"/>
<path d="M56.729 51.3217H55.2969V52.1709H56.729V51.3217Z" fill="#DDC993"/>
<path d="M53.5904 51.3217H52.1582V52.1709H53.5904V51.3217Z" fill="#DDC993"/>
<path d="M54.3072 50.3143H52.875V51.1635H54.3072V50.3143Z" fill="#DDC993"/>
</svg>
