<svg width="54" height="54" viewBox="0 0 54 54" fill="none" xmlns="http://www.w3.org/2000/svg">
<g clip-path="url(#clip0)">
<path d="M13.9099 0L0 31.484L33.8731 28.9123L51.7468 7.83769L13.9099 0Z" fill="#000D16"/>
<path d="M0 31.484L28.4038 29.3277L29.147 28.365L6.0503 26.8404L13.9099 0L0 31.484Z" fill="#011627"/>
<path d="M31.5538 44.9226C30.3726 44.8725 29.1826 45.0031 28.056 45.3262C27.2037 45.5702 26.3543 45.9394 25.8117 46.5764C25.1688 47.3295 25.0493 48.3357 25.0508 49.2839C25.0537 50.4748 25.2218 51.6987 25.8589 52.7445C28.9025 51.1026 33.1331 50.2071 34.8997 53.9987C34.1329 52.3554 36.9228 51.2595 38.1984 51.5879C38.9445 51.7804 39.5933 52.1906 40.2274 52.5941C40.1699 49.8391 38.0008 46.7465 35.1268 45.6506C33.9987 45.222 32.7807 44.9754 31.5538 44.9226Z" fill="#FFBE0B"/>
<path d="M33.4484 50.703C33.9085 51.0195 34.2535 51.4692 34.3081 51.9796C34.4939 50.976 35.5718 50.1688 36.7088 50.1807C36.7692 49.462 36.0761 41.437 35.7532 41.4054C32.7391 41.1073 29.8666 41.4106 26.8835 41.4054C26.6947 44.0482 26.7316 47.7778 27.811 50.2743C28.7429 50.0924 29.7014 50.0515 30.654 50.0647C31.4297 50.0765 32.2245 50.1293 32.9279 50.4207C33.1122 50.4985 33.2877 50.5922 33.4484 50.703Z" fill="#F38570"/>
<path d="M41.3259 27.7096C40.8275 27.9812 39.1981 18.7245 40.1064 18.9012C40.9632 19.0674 41.8081 19.2863 42.631 19.5541C43.6189 19.8758 44.6364 20.3137 45.1776 21.1195C47.0548 23.9061 43.6337 26.4475 41.3259 27.7096Z" fill="#490F14"/>
<path d="M13.3512 30.359C13.3645 31.7926 13.6211 33.2314 14.0811 34.6043C14.64 36.2752 15.4967 37.8802 16.7266 39.2333C19.0697 41.8129 22.5984 43.3124 26.1685 44.2342C29.9759 45.218 34.4085 45.8563 38.3502 45.9856C38.9312 46.0041 39.5151 46.0106 40.0931 45.9473C44.7352 45.4383 51.4211 39.0302 48.9054 34.7295C48.4365 33.9277 47.68 33.2934 47.0931 32.5548C45.4371 30.4698 45.2572 27.7649 44.918 25.2249C44.5789 22.6862 43.8681 19.9325 41.5928 18.3842C40.6564 17.7472 39.5298 17.3753 38.3929 17.1076C33.5208 15.9629 28.3405 16.675 23.7324 18.3499C19.8321 19.7676 15.9701 21.9054 14.3274 25.5493C13.6402 27.0752 13.335 28.7131 13.3512 30.359Z" fill="#FFC09F"/>
<path d="M41.4085 28.1738C40.9308 30.2562 41.1048 32.4401 41.9232 34.4368C42.0205 34.6742 42.4482 34.5713 42.3494 34.3313C41.5575 32.4005 41.3732 30.2944 41.8347 28.2793C41.8922 28.03 41.4661 27.9245 41.4085 28.1738Z" fill="#F38570"/>
<path d="M41.1934 35.3151C41.7227 34.9827 42.2846 34.6702 42.8774 34.4341C43.1413 34.3286 43.4451 34.2442 43.7326 34.3207C43.9995 34.3919 44.147 34.5713 44.1367 34.8218C44.116 35.3019 43.7503 35.7463 43.3374 36.0299C42.8597 36.3583 42.2669 36.5165 41.68 36.6075C41.1359 36.6919 40.4133 36.7855 39.9739 36.4097C39.7689 36.233 39.4548 36.5126 39.6612 36.6893C40.1508 37.1073 40.8498 37.106 41.4809 37.0308C42.202 36.9451 42.9437 36.7763 43.538 36.3846C44.0659 36.0365 44.4862 35.53 44.5673 34.9353C44.6085 34.6293 44.5215 34.322 44.2458 34.1216C43.9981 33.9409 43.6707 33.871 43.3551 33.9026C42.9201 33.9461 42.522 34.1387 42.143 34.322C41.7375 34.5172 41.3482 34.7348 40.9707 34.9722C40.7392 35.1186 40.9589 35.4615 41.1934 35.3151Z" fill="#F38570"/>
<path d="M29.1474 28.365C29.572 28.1105 29.9997 27.8612 30.4568 27.6621C31.7677 27.0923 33.2025 26.7046 34.6712 26.7297C34.5503 25.9911 34.3807 25.1748 33.7142 24.7251C33.2423 24.4072 32.6009 24.3453 32.0243 24.4587C31.4477 24.5734 30.9257 24.8451 30.4406 25.1458C29.1872 25.9239 28.0739 27.0119 27.2982 28.1896C27.0755 28.5272 26.875 28.8951 26.875 29.2868C26.875 29.333 26.8809 29.3871 26.9237 29.4147C26.9694 29.4451 27.0343 29.4293 27.0873 29.4121C27.835 29.1668 28.4882 28.7606 29.1474 28.365Z" fill="#611C1F"/>
<path d="M35.7533 31.4259C35.8403 30.6716 35.768 29.5954 35.2667 28.9584C35.1221 28.7751 34.9614 28.5812 34.7225 28.5166C34.3907 28.4269 34.0324 28.6366 33.8732 28.9123C33.4662 29.6152 33.5723 31.1701 33.8953 31.8783C34.0678 32.2541 34.463 32.6128 34.9113 32.5443C35.4539 32.4612 35.6884 31.9983 35.7533 31.4259Z" fill="#000A11"/>
<path d="M44.1831 30.5846C44.2524 29.9832 44.1949 29.1233 43.7953 28.6156C43.6802 28.4692 43.5519 28.3149 43.3602 28.2634C43.0948 28.1922 42.8087 28.3597 42.6819 28.5786C42.3575 29.1391 42.4416 30.3801 42.6996 30.9446C42.8368 31.2453 43.1523 31.5315 43.5107 31.4761C43.9427 31.4115 44.13 31.0409 44.1831 30.5846Z" fill="#000A11"/>
<path d="M45.0356 26.8404C44.6257 26.6558 44.0668 26.2483 43.5846 26.2615C43.2838 26.2694 43.0051 26.6439 42.722 26.5701C42.5155 26.516 42.4787 26.272 42.4875 26.0795C42.5037 25.7168 42.5391 25.3555 42.5952 24.9954C42.6232 24.82 42.6571 24.638 42.7736 24.4943C42.955 24.2688 43.3074 24.1883 43.6097 24.2477C43.9135 24.3083 44.173 24.4864 44.3809 24.6934C44.9575 25.2632 45.2096 26.0861 45.0356 26.8404Z" fill="#611C1F"/>
<path d="M36.6514 38.7203C37.2722 41.2735 38.4342 42.8706 39.633 42.8126C40.8304 42.7545 42.0248 41.0414 42.6914 38.4249L36.6514 38.7203Z" fill="#000A11"/>
<path d="M21.7934 34.7414C21.758 34.3787 21.6813 34.0148 21.6046 33.6587C21.3775 32.597 21.1652 31.5169 21.2802 30.4408C21.3967 29.3646 21.8833 28.2779 22.833 27.6093C24.2147 26.636 24.8163 25.9028 24.3769 24.249C24.1631 23.4432 23.9492 22.6374 23.7354 21.8316C23.6927 21.6707 23.6514 21.4966 23.7236 21.345C23.7841 21.2197 23.9109 21.1326 24.0318 21.0509C25.5123 20.0604 27.1255 19.07 28.8965 18.5425C33.0771 17.0957 37.7191 17.3648 42.1901 17.6536C40.5489 15.6068 37.9329 14.2774 35.1784 13.7486C32.4238 13.2198 29.5395 13.4413 26.8115 14.0651C23.2842 14.8722 19.9029 16.3796 17.3489 18.6994C14.7949 21.0205 13.1286 24.1962 13.1758 27.4524C13.1994 29.0204 13.6064 30.5648 13.7347 32.1289C13.8246 33.2327 13.7759 34.3524 14.0399 35.4351C14.8495 38.7717 20.54 39.4878 21.6931 35.9376C21.8199 35.5499 21.8332 35.1463 21.7934 34.7414Z" fill="#611C1F"/>
<path d="M29.3843 36.2396C29.6128 36.3649 29.8753 36.4506 30.1348 36.5113C31.3882 36.804 35.1942 37.2564 35.3992 35.3811C35.498 34.479 34.4392 34.1704 33.6297 33.995C32.565 33.7642 27.5897 33.755 28.8563 35.7701C28.9802 35.9679 29.166 36.1209 29.3843 36.2396Z" fill="#FF9B93"/>
<path d="M46.055 35.5182C46.1922 35.6264 46.3396 35.695 46.4812 35.7372C47.1669 35.9442 49.1797 36.1394 48.9821 34.2693C48.8877 33.3699 48.2979 33.1352 47.857 33.0151C47.2775 32.8582 44.7397 33.1787 45.71 35.0883C45.8058 35.2756 45.9253 35.4154 46.055 35.5182Z" fill="#FF9B93"/>
<path d="M36.763 39.1489C37.7937 39.5485 38.8849 39.8056 39.9997 39.7595C40.8992 39.7225 41.812 39.4482 42.536 38.9761C42.5891 38.7967 42.6422 38.6134 42.6894 38.4235L36.6494 38.7189C36.6863 38.8666 36.7246 39.0091 36.763 39.1489Z" fill="white"/>
<path d="M36.713 9.41235C36.713 9.41235 16.7366 7.33918 8.06738 22.6413C8.06738 22.6413 10.3766 29.9119 13.9186 34.0926C16.7351 28.4942 32.6372 14.9975 45.0888 20.9572C45.0888 20.9585 42.4065 13.7249 36.713 9.41235Z" fill="#011627"/>
<path d="M25.0941 10.4199C19.1382 11.8851 12.2725 15.2204 8.06836 22.6427C8.06836 22.6427 10.3776 29.9133 13.9196 34.0939C14.387 33.1654 15.2172 32.0181 16.3291 30.7784C15.8498 27.2163 15.698 22.4422 17.348 18.7007C18.7932 15.4261 22.0683 12.5406 25.0941 10.4199Z" fill="#000D16"/>
<path d="M17.6373 41.3065C20.6308 41.1733 23.8041 39.985 23.0255 37.2089C22.3044 34.6386 18.8303 31.7781 16.1612 30.7863C15.5508 30.5595 14.9034 30.3762 14.2428 30.3986C13.678 30.4171 13.1309 30.5859 12.6325 30.8232C10.5135 31.8348 9.3471 34.1572 9.7364 36.2765C10.1257 38.3959 11.9527 40.2119 14.2118 40.9399C15.104 41.2274 16.3544 41.3632 17.6373 41.3065Z" fill="#FFC09F"/>
<path d="M20.736 37.9237C20.8259 37.3447 20.6239 36.7565 20.3128 36.2422C19.5725 35.0223 18.1392 34.1216 16.5894 34.0543C15.0396 33.987 13.4485 34.8284 12.9058 36.1301C12.3632 37.4304 13.0312 39.0803 14.4424 39.6579C13.7936 38.7321 13.8982 37.4344 14.6901 36.6022C13.8555 37.4779 20.04 42.3813 20.736 37.9237Z" fill="#F38570"/>
<path d="M47.3853 6.9317L46.3428 6.69958C46.5153 8.17006 48.0415 20.2609 52.3385 26.3973L54.0019 25.3542C54.0004 25.3555 49.2979 18.954 47.3853 6.9317Z" fill="#FF9F1C"/>
<path d="M49.9684 22.061L51.7173 21.312C51.7173 21.312 53.0253 20.8003 53.3866 21.7247C53.7478 22.6492 52.956 23.6885 52.956 23.6885L51.0965 24.3307C51.0965 24.3307 49.5275 24.2872 49.2002 23.5539C48.8713 22.8207 49.9684 22.061 49.9684 22.061Z" fill="#2EC4B6"/>
</g>
<defs>
<clipPath id="clip0">
<rect width="54" height="54" fill="white"/>
</clipPath>
</defs>
</svg>
