<svg width="1440" height="450" viewBox="0 0 1440 450" fill="none" xmlns="http://www.w3.org/2000/svg">
<path d="M1440 428.557V449.854H0V430.009L159.11 379.991L159.41 379.901L305.27 380.261L307.69 380.272L444.52 380.599L446.45 380.61L582.82 380.936H584.45L720.17 381.296H721.75L856.52 381.622H858.33L991.96 381.949L994.21 381.96L1126.53 382.286L1129.31 382.297C1129.31 382.297 1266.82 382.624 1279.43 382.657C1280.03 382.657 1280.35 382.657 1280.35 382.657L1440 428.557Z" fill="url(#paint0_linear)"/>
<path d="M1440 0.18V449.865H0V0H1340.97L1440 0.18Z" fill="url(#paint1_linear)"/>
<path d="M159.11 0.18V449.865H0V0H148.17L159.11 0.18Z" fill="url(#paint2_linear)"/>
<path d="M1440 0.18V449.865H1279.43V0H1428.96L1440 0.18Z" fill="url(#paint3_linear)"/>
<path d="M0 0V27.6637L159.29 67.4775L1279.43 68.9738L1440 25.6612V0.18L1340.97 0H0Z" fill="#F9D3B7"/>
<path d="M1440 428.557V449.854H0V427.646L59.73 411.232C59.74 411.232 63.34 410.096 63.34 410.096C63.35 410.096 64.45 409.736 64.45 409.736C64.46 409.736 141.92 385.391 141.92 385.391L143.79 384.806L159.1 379.991L159.4 379.901L305.26 380.261L307.68 380.272L318.06 380.295C318.07 380.295 319.87 380.306 319.87 380.306H320.58L444.51 380.599L446.44 380.61L464.8 380.655H466.82L582.81 380.936H584.44L610.52 381.004H611.38L612.22 381.015L720.16 381.296H721.74L755.21 381.375L756.88 381.386L856.51 381.622H858.32L898.86 381.724H901.02L991.96 381.949L994.21 381.96L1041.53 382.072H1041.62L1043.92 382.084L1126.53 382.286L1129.31 382.297C1129.31 382.297 1153.93 382.354 1183.32 382.421C1184.28 382.432 1185.25 382.432 1186.23 382.432C1225.31 382.522 1271.49 382.635 1279.22 382.657H1279.42C1280.02 382.657 1280.34 382.657 1280.34 382.657L1358.5 405.124L1362.39 406.249C1362.4 406.249 1414.52 421.234 1414.52 421.234L1440 428.557Z" fill="url(#paint4_linear)"/>
<path d="M212.03 410.659C157.22 426.352 97.2601 443.52 75.1001 449.865H77.5501L214.57 410.659L393.34 409.972C355.23 425.599 312.82 442.991 296.05 449.865H297.96L395.33 409.961L570.99 409.286L514.26 449.865H515.84L572.66 409.275L745.08 408.611L729.74 449.854H731.25L746.68 408.6L915.67 407.947L942.52 449.842H944.3L917.52 407.936L1082.94 407.306L1152.71 449.842H1154.97L1085.25 407.295L1247.02 406.676L1360.39 449.842H1363.21L1249.87 406.665L1364.06 406.226L1364.05 405.101L1246.94 405.551L1186.21 382.41L1178.76 379.755L1177.24 380.25L1183.29 382.41L1244.09 405.562L1083.41 406.181L1043.9 382.072L1038.67 379.102L1037.08 379.541L1041.53 382.061L1081.1 406.192L916.8 406.822L900.76 381.724L898.48 378.484L896.79 378.81L898.86 381.724L914.95 406.834L747.11 407.475L756.87 381.375L758.14 377.91L756.43 378.022L755.2 381.375L745.49 407.486L574.24 408.139L612.23 381.004L617.54 377.359L616.08 377.179L610.51 381.004L572.56 408.15L398.09 408.814L466.81 380.655C466.83 380.655 476.77 376.774 476.77 376.774L475.7 376.402L464.82 380.655C464.81 380.655 432.82 393.772 396.1 408.825L218.55 409.511L320.61 380.306C320.63 380.306 335.95 376.144 335.95 376.144L335.11 375.682L318.1 380.295C318.09 380.295 270.1 394.031 216.01 409.522L59.1001 410.119L59.1101 411.244L212.03 410.659Z" fill="#DDAC87"/>
<path d="M942.45 449.719L915.47 407.824L745.63 408.465L730.12 449.719H942.45Z" fill="#EDC891"/>
<path d="M900.93 381.589L916.93 406.687L1080.83 406.057L1041.36 381.926L900.93 381.589Z" fill="#EDC891"/>
<path d="M611.57 380.869L573.4 408.004L745.51 407.34L755.27 381.229L611.57 380.869Z" fill="#EDC891"/>
<path d="M1360.45 449.719L1246.51 406.552L1084.85 407.126L1154.69 449.865L1360.45 449.719Z" fill="#E2B881"/>
<path d="M1186.55 382.522L1247.39 405.72L1357.73 405.011L1279.39 382.669L1186.55 382.522Z" fill="#E2B881"/>
<path d="M1414.53 421.234L1440 428.501V449.831L1370.82 449.854L1406.46 442.114L1330.01 406.361L1327.61 405.236L1327.51 405.191L1279.43 382.714C1279.37 382.691 1279.3 382.657 1279.3 382.657C1279.33 382.669 1279.4 382.68 1279.43 382.691C1279.44 382.691 1357.65 405 1357.65 405L1358.1 405.124L1362.02 406.249L1414.53 421.234Z" fill="#E2CEC3"/>
<path d="M514.01 450L571.02 409.421L394.47 410.096L296.61 450H514.01Z" fill="#EDC891"/>
<path d="M212.03 410.659L159.11 426.06L78.01 449.685L77.4 449.865H0V427.646L62.69 410.107L63.82 409.747H64.47L91.52 409.916L99.35 409.961L159.11 410.332L212.03 410.659Z" fill="#E2B881"/>
<path d="M157.66 380.475L91.52 409.916L91.34 409.995L88.79 411.131L25.97 439.087L76.67 449.415L78.01 449.685L78.11 449.707L78.89 449.865H0V427.646L59.32 411.244L62.95 410.107L64.08 409.747L141.93 385.391L143.8 384.806L157.66 380.475Z" fill="#E2CEC3"/>
<path d="M319.93 380.295L217.97 409.511L395.8 408.825L464.87 380.655L319.93 380.295Z" fill="#E2B881"/>
<path d="M1121.54 0L1014.81 68.625H1016.76L1123.49 0H1121.54Z" fill="#DDAC87"/>
<path d="M978.85 0L913.09 68.49H914.62L980.37 0H978.85Z" fill="#DDAC87"/>
<path d="M836.52 0L811.45 68.355H812.68L837.75 0H836.52Z" fill="#DDAC87"/>
<path d="M694.48 0L709.82 68.22H711.01L695.67 0H694.48Z" fill="#DDAC87"/>
<path d="M552.74 0L608.21 68.085H609.64L554.17 0H552.74Z" fill="#DDAC87"/>
<path d="M411.32 0L506.64 67.9388L508.49 67.95L413.17 0H411.32Z" fill="#DDAC87"/>
<path d="M281.63 0L396.2 67.7925L398.67 67.8037L284.11 0H281.63Z" fill="#DDAC87"/>
<path d="M1280.97 0L1157.31 68.8162H1159.9L1283.56 0H1280.97Z" fill="#DDAC87"/>
<path d="M127.99 0L256.29 67.6125H258.99L130.68 0H127.99Z" fill="#DDAC87"/>
<path d="M9.35986 27.3825L1440 25.3912V24.2662L9.35986 26.2575V27.3825Z" fill="#DDAC87"/>
<path d="M1277.5 59.9737L161.1 58.4887L0 18.1012V27.6637L159.29 67.4775L1279.43 68.9737L1440 25.6612V15.4237L1277.5 59.9737Z" fill="#C19374"/>
<path d="M1440 414.934V428.524L1279.48 382.747C1279.42 382.747 159.11 382.376 159.11 382.376L0 427.86V414.607L159.11 371.149L159.2 371.126L1279.43 371.407L1440 414.934Z" fill="#7171A3"/>
<path d="M1279.43 379.935L159.11 379.564L0 425.047V427.86L159.11 382.376L1279.43 382.747C1279.49 382.747 1440 428.524 1440 428.524V425.711L1279.48 379.935H1279.43Z" fill="#505087"/>
<path opacity="0.5" d="M464.56 382.511L159.11 382.376H158.94L0 427.747V355.376L124.07 234.292L159.11 249.547L464.56 382.511Z" fill="url(#paint5_linear)"/>
<path d="M124.56 89.9775V350.888L0.00976562 381.285V65.5088L124.56 89.9775Z" fill="#FFCEFF"/>
<path d="M0 76.2075V366.019L98.64 347.153V94.3875L0 76.2075Z" fill="#E29FA2"/>
<path d="M0 79.4363V362.138L92.4 344.003V96.8963L0 79.4363Z" fill="#FCB7B8"/>
<path d="M0 83.4524V359.955L90 342.731V98.8761L0 83.4524Z" fill="#FFCEFF"/>
<path d="M87.1198 100.688V340.976L0.00976562 357.638V85.7588L87.1198 100.688Z" fill="#FFF9E9"/>
<path d="M27.96 48.2962L0 40.1849V231.356L84.32 229.084L134.52 227.734L135.06 79.3799L27.96 48.2962Z" fill="#F2CECC"/>
<path d="M0 85.6573V231.221L86.4 228.026L87.12 100.687L0 85.6573Z" fill="#FFE4E3"/>
<path opacity="0.5" d="M123.8 100.8L123.36 229.23L98.39 229.995L97.96 96.0413L123.8 100.8Z" fill="#FFE4E3"/>
<path d="M116.07 227.531L0 231.266V241.155L116 235.215L138.51 234.068L138.57 226.811L116.07 227.531Z" fill="#DBADA9"/>
<path d="M27.96 59.9174L0 51.9187V78.0412L134.95 102.859L135.06 91.0012L27.96 59.9174Z" fill="#E0B0AF"/>
<path d="M0 27.36V62.8312L144.55 93.015L144.82 63.5962L0 27.36Z" fill="#DBADA9"/>
<path opacity="0.65" d="M1201.21 96.6488L1031.72 246.375L1037.59 254.498L1213.19 256.05L1212.46 96.6488H1201.21Z" fill="url(#paint6_linear)"/>
<path d="M1205.9 96.6488L1204.93 246.015L1031.72 246.375L1034.07 249.66L1208.05 249.289L1209.4 96.6488H1205.9Z" fill="#377EAF"/>
<path d="M1027.04 96.6488L1028.66 148.59L1115.41 246.206L1179 246.071L1035.49 96.6488H1027.04Z" fill="#70B9EA"/>
<path d="M1031.72 246.375L1058.64 246.319L1030.81 217.159L1031.72 246.375Z" fill="#B43B7C"/>
<path d="M1035.49 96.6488L1179 246.071L1204.92 246.015L1204.95 241.189C1163.85 198.214 1102.37 134.055 1066.02 96.6488H1035.49Z" fill="#B43B7C"/>
<path d="M1030.81 217.159L1058.64 246.319L1091.09 246.251L1029.73 182.588L1030.81 217.159Z" fill="#3D8BC3"/>
<path d="M1029.73 182.588L1091.09 246.251L1115.41 246.206L1028.66 148.59L1029.73 182.588Z" fill="#F18CC8"/>
<path d="M1123.99 96.6488L1205.34 183.004L1205.67 131.344L1171.18 96.6488H1123.99Z" fill="#F18CC8"/>
<path d="M1099.82 96.6488C1130.64 128.183 1173.81 173.093 1205.18 205.83L1205.33 182.993L1123.98 96.6376H1099.82V96.6488Z" fill="#70B9EA"/>
<path d="M1171.18 96.6488L1205.67 131.344L1205.9 96.6488H1171.18Z" fill="#3D8BC3"/>
<path d="M1066.03 96.6488C1102.39 134.055 1163.86 198.214 1204.96 241.189L1205.19 205.841C1173.81 173.104 1130.64 128.183 1099.83 96.66H1066.03V96.6488Z" fill="#BAABFF"/>
<path opacity="0.65" d="M1440 324.675V362.655L1315.43 335.711L1305.55 326.723L1440 324.675Z" fill="url(#paint7_linear)"/>
<path d="M1392.97 183.746L1392.18 63.0676L1346.27 73.2264L1346.99 184.196C1354.85 184.185 1371.81 184.005 1392.97 183.746Z" fill="#1AB2C6"/>
<path d="M1440 105.435L1398.46 109.631L1398.94 183.668C1411.69 183.51 1425.7 183.319 1440 183.128V105.435Z" fill="#EACE8F"/>
<path d="M1347.03 188.809L1347.49 259.898C1361.54 260.539 1377.27 261.248 1393.48 261.99L1393 188.426C1372.09 188.674 1359.66 188.775 1352.24 188.809C1350.11 188.809 1348.41 188.809 1347.03 188.809Z" fill="#EACE8F"/>
<path d="M1341.27 188.708C1341.14 188.696 1341.09 188.685 1341.05 188.674L1341.27 188.145L1341 147.218L1305.96 148.073L1305.71 257.996C1314.51 258.39 1327.02 258.953 1341.73 259.616L1341.27 188.708Z" fill="#F2BBEB"/>
<path d="M1440 187.808C1423.81 188.033 1410.28 188.201 1398.97 188.348L1399.45 262.26C1412.97 262.879 1426.71 263.509 1439.99 264.105V187.808H1440Z" fill="#1AB2C6"/>
<path d="M1440 52.4926L1398.14 61.7513L1398.42 104.94L1440 100.733V52.4926Z" fill="#0D919B"/>
<path d="M1340.52 74.4976L1306.11 82.1138L1305.97 143.415L1340.96 142.56L1340.52 74.4976Z" fill="#1AB2C6"/>
<path d="M1347.52 264.566L1347.98 334.643L1394.01 343.238L1393.51 266.659C1377.04 265.905 1361.39 265.196 1347.52 264.566Z" fill="#1AB2C6"/>
<path d="M1440 268.774C1426.38 268.155 1412.72 267.525 1399.49 266.929L1400 344.351L1440.01 351.821V268.774H1440Z" fill="#F2BBEB"/>
<path d="M1305.69 262.676L1305.54 326.711L1342.2 333.563L1341.75 264.296C1326.91 263.633 1314.44 263.07 1305.69 262.676Z" fill="#0D919B"/>
<path d="M1347.03 188.809C1342.86 188.798 1341.67 188.753 1341.27 188.708L1341.73 259.628C1343.62 259.718 1345.53 259.796 1347.49 259.886L1347.03 188.809Z" fill="#329193"/>
<path d="M1341.76 264.308L1342.21 333.574L1347.98 334.654L1347.52 264.578C1345.56 264.476 1343.65 264.386 1341.76 264.308Z" fill="#329193"/>
<path d="M1343.04 142.504L1343.23 147.161L1340.99 147.218L1341.26 188.145L1342.9 184.241C1342.62 184.174 1342.42 184.151 1342.39 184.151C1342.86 184.185 1344.46 184.196 1346.99 184.196L1346.27 73.2263L1340.52 74.4976L1340.96 142.56L1343.04 142.504Z" fill="#329193"/>
<path d="M1398.94 183.679L1398.46 109.642L1396.56 109.834L1395.79 105.21L1398.42 104.94L1398.14 61.7512L1392.18 63.0675L1392.97 183.746C1394.92 183.724 1396.92 183.701 1398.94 183.679Z" fill="#329193"/>
<path d="M1393 188.415L1393.48 261.979C1395.46 262.069 1397.46 262.159 1399.45 262.249L1398.97 188.336C1396.9 188.37 1394.92 188.393 1393 188.415Z" fill="#329193"/>
<path d="M1393.51 266.659L1394.01 343.238L1399.99 344.351L1399.48 266.929C1397.48 266.839 1395.49 266.749 1393.51 266.659Z" fill="#329193"/>
<path d="M1340.96 142.56L1305.97 143.415L1305.96 148.084L1340.99 147.229L1340.96 142.56Z" fill="#329193"/>
<path d="M1343.04 142.504L1340.96 142.56L1340.99 147.229L1343.23 147.173L1343.04 142.504Z" fill="#329193"/>
<path d="M1341.04 188.674C1341.09 188.685 1341.14 188.696 1341.26 188.708V188.145L1341.04 188.674Z" fill="#329193"/>
<path d="M1352.24 188.798C1359.66 188.764 1372.09 188.663 1393 188.415L1392.97 183.746C1371.81 184.005 1354.85 184.185 1347 184.196L1347.03 188.809C1348.41 188.809 1350.11 188.809 1352.24 188.798Z" fill="#329193"/>
<path d="M1440 183.128C1425.7 183.319 1411.69 183.51 1398.94 183.668L1398.97 188.336C1410.27 188.201 1423.81 188.021 1440 187.796V183.128Z" fill="#329193"/>
<path d="M1347 184.196C1344.47 184.196 1342.87 184.185 1342.4 184.151C1342.42 184.151 1342.63 184.174 1342.91 184.241L1341.27 188.145V188.708C1341.67 188.753 1342.86 188.798 1347.03 188.809L1347 184.196Z" fill="#329193"/>
<path d="M1398.97 188.347L1398.94 183.679C1396.92 183.701 1394.92 183.724 1392.97 183.757L1393 188.426C1394.92 188.392 1396.9 188.37 1398.97 188.347Z" fill="#329193"/>
<path d="M1341.73 259.628C1327.02 258.964 1314.5 258.401 1305.71 258.008L1305.7 262.676C1314.44 263.07 1326.92 263.633 1341.76 264.296L1341.73 259.628Z" fill="#329193"/>
<path d="M1440 264.105C1426.72 263.498 1412.98 262.868 1399.46 262.26L1399.49 266.929C1412.72 267.536 1426.39 268.155 1440 268.774V264.105Z" fill="#329193"/>
<path d="M1347.49 259.897L1347.52 264.566C1361.39 265.196 1377.04 265.905 1393.51 266.659L1393.48 261.99C1377.27 261.247 1361.54 260.527 1347.49 259.897Z" fill="#329193"/>
<path d="M1341.73 259.628L1341.76 264.296C1343.65 264.386 1345.56 264.465 1347.52 264.555L1347.49 259.886C1345.53 259.808 1343.62 259.718 1341.73 259.628Z" fill="#329193"/>
<path d="M1393.51 266.659C1395.49 266.749 1397.48 266.839 1399.48 266.929L1399.45 262.26C1397.45 262.17 1395.46 262.08 1393.48 261.99L1393.51 266.659Z" fill="#329193"/>
<path d="M1440 100.733L1398.42 104.94L1398.45 109.631L1440 105.435V100.733Z" fill="#329193"/>
<path d="M1395.79 105.199L1396.56 109.823L1398.45 109.631L1398.42 104.94L1395.79 105.199Z" fill="#329193"/>
<path opacity="0.65" d="M943.11 84.9825L954.29 99.2363L938.24 249.986L959.03 250.301L953.99 271.676L500.77 269.933L943.11 84.9825Z" fill="url(#paint8_linear)"/>
<path d="M928.69 257.389H519.52L506.5 88.1101C506.5 88.1101 552.72 87.9526 615 87.6938C637.62 87.6038 662.35 87.4913 687.76 87.3788C713.48 87.2663 739.89 87.1201 765.52 86.9851C776.01 86.9288 786.35 86.8726 796.47 86.7938C875.12 86.3326 941.59 83.5538 943.26 84.7351C946.67 87.1538 928.69 257.389 928.69 257.389Z" fill="url(#paint9_linear)"/>
<path opacity="0.25" d="M589.79 87.3788L681.39 158.636L717.56 130.5L662.55 87.705C639.93 87.6038 615.19 87.4913 589.79 87.3788Z" fill="white"/>
<path d="M763.52 86.7938L831.96 140.04L847.3 128.093L794.46 86.9851C783.98 86.9288 773.64 86.8726 763.52 86.7938Z" fill="#D86830"/>
<path d="M531.78 247.264L520.32 98.1901C552.76 98.0776 637.65 97.7626 722.1 97.3351C855.34 96.6713 908.14 96.1763 929.75 95.7151C929.25 118.924 923.25 185.186 916.7 247.264H531.78Z" fill="url(#paint10_linear)"/>
<path opacity="0.5" d="M531.45 242.921L520.32 98.1901L929.75 95.7151L925.18 160.47L921.25 101.138L529.75 106.2L531.78 247.264L531.45 242.921Z" fill="#375B3F"/>
<path d="M611 248.929L609.66 256.219L609.45 257.355L557.38 257.13L555.52 248.681L603.87 248.895L611 248.929Z" fill="#C7F4FF"/>
<path d="M611 248.929L609.66 256.219L602.95 257.243C602.95 257.243 603.56 251.359 603.88 248.895L611 248.929Z" fill="#A2E3ED"/>
<path d="M945.7 254.498L942.75 269.685H500.92L500.29 257.366L591.16 256.781L639.37 256.466L676.21 256.23L724.4 255.926L811.48 255.364L883.08 254.903L945.7 254.498Z" fill="url(#paint11_linear)"/>
<path opacity="0.25" d="M783.79 254.903L802.8 269.685H873.83L855.4 255.364L783.79 254.903Z" fill="white"/>
<path d="M574.57 256.466L591.57 269.685H639.37L622.78 256.781L574.57 256.466Z" fill="#D86830"/>
<path d="M500.92 269.685L500.3 257.366L945.7 254.498L508.98 262.091L500.92 269.685Z" fill="#FFA76C"/>
<path d="M733.09 255.949L730.87 269.685H720.07L733.09 255.949Z" fill="#FFA76C"/>
<path d="M733.09 255.949L717.28 288.022L648.46 256.702L647.85 256.421L648.46 256.376L648.69 256.354L697.14 252.574L713.56 253.777L732.66 255.904L733.09 255.949Z" fill="#C0F9FC"/>
<path d="M733.09 255.949L717.28 288.023L648.46 256.703V256.309L648.69 256.354L685.05 264.15L696.9 252.506L708.3 259.92L714.66 272.588L718.52 258.12L732.66 255.904L733.09 255.949Z" fill="#AFEFEA"/>
<path d="M826.24 222.975L825.01 222.334C825.01 222.334 816.66 225.81 805.43 230.535C800.53 232.594 795.08 234.9 789.52 237.24C768.92 245.947 747.02 255.341 747.02 255.881L749.16 255.87L814 255.712L837.52 255.656L888.6 255.532L826.24 222.975ZM829.19 249.154L805.36 249.21L785.35 249.266C785.35 249.075 791.01 246.589 797.95 243.619C803.09 241.436 808.9 238.972 813.65 236.992C819.03 234.72 823.03 233.055 823.03 233.055L853.76 249.097L829.19 249.154Z" fill="url(#paint12_linear)"/>
<path d="M823.03 233.044L853.76 249.086L785.36 249.244L850.76 248.344L823.03 233.044Z" fill="url(#paint13_linear)"/>
<path opacity="0.25" d="M826.24 222.975L749.17 255.87L747.03 255.881C747.03 254.869 825.01 222.334 825.01 222.334L826.24 222.975Z" fill="white"/>
<path opacity="0.25" d="M813.65 236.981C808.91 238.961 803.09 241.425 797.95 243.607L789.52 237.251C795.07 234.9 800.52 232.605 805.43 230.546L813.65 236.981Z" fill="white"/>
<path opacity="0.25" d="M837.53 255.667L814 255.724L805.37 249.199L829.19 249.154L837.53 255.667Z" fill="white"/>
<path opacity="0.65" d="M238.77 251.213H245.46L395.27 254.543L394.55 100.058L390.5 96.6488L238.77 251.213Z" fill="url(#paint14_linear)"/>
<path d="M244.63 96.7275L245.46 251.213H274.25L273.43 96.7275H244.63Z" fill="url(#paint15_linear)"/>
<path d="M307.14 96.7275C307.69 131.063 309.3 226.035 309.73 251.213H318.36C318.04 221.209 317.14 135.574 316.74 96.7275H307.14Z" fill="url(#paint16_linear)"/>
<path d="M273.43 96.7275L274.25 251.213H309.72C309.29 226.035 307.68 131.063 307.13 96.7275H273.43Z" fill="#3D8BC3"/>
<path d="M235.03 96.7275L238.77 251.213H245.46L244.63 96.7275H235.03Z" fill="#3D8BC3"/>
<path d="M390.45 96.7275H375.81L373.28 251.213H389.51L390.45 96.7275Z" fill="#B43B7C"/>
<path d="M316.74 96.7275C317.14 135.574 318.04 221.209 318.36 251.213H354.91C354.76 223.65 354.25 132.199 354.07 96.7275H316.74Z" fill="#F18CC8"/>
<path d="M366.47 96.7275V251.213H373.28L375.81 96.7275H366.47Z" fill="url(#paint17_linear)"/>
<path d="M354.06 96.7275C354.25 132.199 354.75 223.65 354.9 251.213H366.46V96.7275H354.06Z" fill="url(#paint18_linear)"/>
<path opacity="0.5" d="M240.23 187.29L242.15 250.324L388.07 253.44L240.23 187.29Z" fill="url(#paint19_linear)"/>
<path opacity="0.37" d="M0 0V112.635L86.39 123.154L158.39 161.393H1280.87L1439.63 80.6963L1440 0.18L1340.97 0H0Z" fill="url(#paint20_linear)"/>
<path d="M1094.14 22.9388L1058.35 43.8188L823.09 43.5825L831.35 22.3425L1094.14 22.9388Z" fill="#EFC8A8"/>
<path d="M1094.14 22.9387L1094.15 18.3824L833.41 17.2574L831.05 23.0962L1094.14 22.9387Z" fill="#F9D6BB"/>
<path d="M1094.14 22.9387L1094.15 18.3824L833.41 17.2574L831.05 23.0962L1094.14 22.9387Z" fill="#F9D6BB"/>
<path d="M1094.14 22.9388L1058.35 43.8188L823.09 43.5825L831.35 22.3425L1094.14 22.9388Z" fill="#EFC8A8"/>
<path opacity="0.1" d="M1094.15 18.3824L833.41 17.2574L1094.15 18.3824Z" fill="url(#paint21_linear)"/>
<path opacity="0.1" d="M1094.15 18.3824L833.41 17.2574L1094.15 18.3824Z" fill="url(#paint22_linear)"/>
<path d="M314 22.725L325.72 28.0688L358.52 43.0312L594.57 43.11L575.95 22.2188L314 22.725Z" fill="#EFC8A8"/>
<path d="M314 22.7249L314.02 17.2574L571.95 17.8762L576.02 22.2187L314 22.7249Z" fill="#F9D6BB"/>
<path d="M154.76 404.606L230.15 412.751L489.35 410.119L487.09 402.266L349.91 391.478L246.94 391.219L154.76 404.606Z" fill="#E2CEC3"/>
<path d="M307.85 373.286L295.29 373.252L295.37 348.615L307.93 348.649L307.85 373.286Z" fill="#B9B4D3"/>
<path d="M307.85 373.286L295.29 373.252L295.37 348.615L307.93 348.649L307.85 373.286Z" fill="url(#paint23_linear)"/>
<path opacity="0.5" d="M305.22 373.275L300.76 373.264L300.84 348.626L305.3 348.637L305.22 373.275Z" fill="white"/>
<path d="M356.37 300.049L355.87 302.209L349.54 329.974L346.51 343.26L340.65 343.519C340.65 343.519 341.98 338.557 343.67 331.976C346.25 321.952 349.65 308.149 350.41 302.377C350.59 301.027 350.62 300.116 350.47 299.801C349.22 297.191 292.95 302.231 292.95 302.231L292.57 298.091L352.03 295.695C354.78 295.594 356.91 297.731 356.37 300.049Z" fill="url(#paint24_linear)"/>
<path opacity="0.5" d="M355.88 302.22L349.55 329.985L343.69 331.987C346.27 321.964 349.67 308.16 350.43 302.389L355.88 302.22Z" fill="white"/>
<path d="M278.74 342.416C280.05 347.49 289.8 351.45 301.65 351.472C313.5 351.506 323.27 347.591 324.62 342.529L278.74 342.416Z" fill="#491A40"/>
<path d="M314.76 328.275C314.32 323.291 311.39 293.49 302.74 270.844L295.11 234.416L234.82 234.259L258.36 335.565L316.29 335.633L314.76 328.275Z" fill="url(#paint25_linear)"/>
<path d="M304.1 269.505L243.35 269.944L234.86 234.27L295.12 234.428C296.8 235.778 298.21 237.24 299.4 238.781C300.63 240.345 301.63 241.988 302.42 243.675C303.39 245.7 304.08 247.781 304.55 249.829C306.92 259.954 304.1 269.505 304.1 269.505Z" fill="url(#paint26_linear)"/>
<path d="M360.14 333.495C360.14 333.495 303.17 323.516 257.81 333.112L319.86 334.339L360.14 333.495Z" fill="url(#paint27_linear)"/>
<path d="M358.91 333.731L358.46 336.6L319.53 336.251L258.47 335.576L257.88 333.124L358.91 333.731Z" fill="#491A40"/>
<path d="M360.14 333.495L358.37 336.566L312.65 336.229L312.54 333.259L360.14 333.495Z" fill="url(#paint28_linear)"/>
<path opacity="0.15" d="M304.55 249.817C301.18 250.425 297.79 250.92 294.37 251.314C281.73 252.765 268.87 252.799 256.24 251.381C251.71 250.864 248.12 250.74 245.81 247.084C243.09 242.798 239.97 238.781 236.41 234.99C236.19 234.765 235.97 234.529 235.76 234.281L295.12 234.428C296.8 235.778 298.21 237.24 299.4 238.781C300.63 240.345 301.63 241.988 302.42 243.675C303.38 245.689 304.08 247.759 304.55 249.817Z" fill="white"/>
<path d="M234.79 234.202C234.79 234.202 244.88 238.41 246.3 249.154C247.72 259.897 243.14 270.169 243.14 270.169L234.79 234.202Z" fill="#491A40"/>
<path d="M243.14 270.18L257.81 333.124C257.81 333.124 254 295.2 243.14 270.18Z" fill="#491A40"/>
<path opacity="0.08" d="M249.84 272.846L301.73 271.395C301.73 271.395 308.06 284.996 308.73 302.366L300.09 273.915L249.84 272.846Z" fill="white"/>
<path d="M310.63 297.99L310.31 300.184L306.2 328.264L304.23 341.696L298.41 342.304C298.41 342.304 299.34 337.275 300.51 330.604C302.29 320.445 304.59 306.472 304.89 300.679C304.96 299.329 304.92 298.417 304.75 298.102C303.29 295.571 247.56 303.952 247.56 303.952L246.85 299.846L305.98 293.917C308.69 293.636 310.97 295.639 310.63 297.99Z" fill="url(#paint29_linear)"/>
<path opacity="0.5" d="M310.3 300.172L306.19 328.252L300.5 330.592C302.28 320.434 304.58 306.461 304.88 300.667L310.3 300.172Z" fill="white"/>
<path d="M358.49 336.454L356.09 344.34L319.24 344.306L259.84 344.25C251.91 344.239 247.52 342.529 246.54 335.7L230.22 234.371L234.83 234.27L258.37 335.576L319.56 336.105L358.49 336.454Z" fill="url(#paint30_linear)"/>
<path d="M362.22 336.465L359.42 344.396L311.77 344.284L312.02 336.094H312.16L362.22 336.465Z" fill="#B9B4D3"/>
<path d="M234.79 234.202L258.47 335.576L319.53 336.251L257.45 337.624L234.79 234.202Z" fill="#B9B4D1"/>
<path d="M314.67 376.38L289 376.312L289.03 367.785L314.7 367.852L314.67 376.38Z" fill="#491A40"/>
<path d="M311.21 376.369L301.56 376.346L301.59 367.819L311.24 367.841L311.21 376.369Z" fill="url(#paint31_linear)"/>
<path d="M246.9 391.489L302.66 374.895L289.74 372.454L247.1 386.404L246.9 391.489Z" fill="#491A40"/>
<path d="M295.38 373.252L270.94 387.562L270.74 393.097L307.03 374.861L295.38 373.252Z" fill="#491A40"/>
<path d="M356.3 391.759L300.66 374.895L313.59 372.51L356.5 387.461L356.3 391.759Z" fill="#491A40"/>
<path d="M307.94 373.286L330.65 388.507L330.27 393.559L296.29 374.839L307.94 373.286Z" fill="#491A40"/>
<path d="M349.82 385.954L352.07 385.965C353.68 385.965 355.27 386.404 356.5 387.304C357.64 388.147 358.64 389.464 358.47 391.5C358.47 391.522 358.47 391.556 358.46 391.579C358.17 394.594 355.99 396.742 351.64 396.922L349.78 396.956L349.82 385.954Z" fill="#491A40"/>
<path d="M343.64 391.455C343.63 394.504 346.43 396.979 349.89 396.99C353.35 397.001 356.17 394.538 356.18 391.489C356.19 388.44 353.39 385.965 349.93 385.954C346.46 385.943 343.65 388.418 343.64 391.455Z" fill="#351130"/>
<path d="M345.11 391.466C345.1 393.795 347.24 395.696 349.89 395.708C352.54 395.719 354.69 393.829 354.7 391.5C354.71 389.171 352.57 387.27 349.92 387.259C347.27 387.248 345.12 389.126 345.11 391.466Z" fill="#766CA8"/>
<path d="M324.34 385.886L326.59 385.897C328.2 385.897 329.79 386.336 331.02 387.236C332.16 388.08 333.16 389.396 332.99 391.432C332.99 391.455 332.99 391.489 332.98 391.511C332.69 394.526 330.51 396.675 326.16 396.855L324.3 396.889L324.34 385.886Z" fill="#491A40"/>
<path d="M318.15 391.399C318.14 394.448 320.94 396.922 324.4 396.934C327.86 396.945 330.68 394.481 330.69 391.433C330.7 388.384 327.9 385.909 324.44 385.897C320.98 385.886 318.16 388.35 318.15 391.399Z" fill="#351130"/>
<path d="M319.63 391.399C319.62 393.727 321.76 395.629 324.41 395.64C327.06 395.651 329.21 393.761 329.22 391.432C329.23 389.104 327.09 387.202 324.44 387.191C321.79 387.18 319.63 389.07 319.63 391.399Z" fill="url(#paint32_linear)"/>
<path d="M277.52 385.774L275.27 385.762C273.66 385.762 272.06 386.179 270.83 387.079C269.68 387.911 268.68 389.227 268.83 391.264C268.83 391.286 268.83 391.32 268.84 391.342C269.11 394.369 271.28 396.517 275.62 396.72L277.48 396.754L277.52 385.774Z" fill="#491A40"/>
<path d="M283.67 391.309C283.66 394.357 280.84 396.821 277.38 396.81C273.92 396.799 271.12 394.324 271.13 391.275C271.14 388.226 273.96 385.762 277.42 385.774C280.88 385.785 283.68 388.26 283.67 391.309Z" fill="#351130"/>
<path d="M282.2 391.309C282.19 393.637 280.04 395.527 277.39 395.516C274.74 395.505 272.6 393.615 272.61 391.275C272.62 388.946 274.77 387.056 277.42 387.067C280.07 387.079 282.21 388.969 282.2 391.309Z" fill="#766CA8"/>
<path d="M251.86 385.706L249.61 385.695C248 385.695 246.4 386.111 245.17 387.011C244.02 387.844 243.02 389.16 243.17 391.196C243.17 391.219 243.17 391.252 243.18 391.275C243.45 394.301 245.62 396.45 249.96 396.652L251.82 396.686L251.86 385.706Z" fill="#491A40"/>
<path d="M258 391.241C257.99 394.29 255.17 396.754 251.71 396.742C248.25 396.731 245.45 394.256 245.46 391.207C245.47 388.159 248.29 385.695 251.75 385.706C255.21 385.717 258.01 388.192 258 391.241Z" fill="#351130"/>
<path d="M256.53 391.241C256.52 393.57 254.37 395.46 251.72 395.449C249.07 395.438 246.93 393.548 246.94 391.208C246.95 388.879 249.1 386.989 251.75 387C254.4 387.011 256.54 388.913 256.53 391.241Z" fill="url(#paint33_linear)"/>
<path opacity="0.65" d="M1363.6 314.46L1359.43 311.929L1312.27 308.858L1299.21 308.003L1272.68 306.27L1265.68 397.98L1307.88 400.421L1331.67 401.805L1345.11 402.593L1349.61 402.885L1363.6 314.46ZM1334.91 396.371L1284.28 393.435L1274.58 392.873L1281.73 312.514L1299.74 313.684L1323.54 315.236L1352.65 317.138L1340.09 396.675L1334.91 396.371Z" fill="url(#paint34_linear)"/>
<path d="M1269.59 310.264L1262.2 393.3L1256.44 391.792L1264.03 309.622L1269.59 310.264Z" fill="#9E202F"/>
<path d="M1260.44 305.156L1253.44 396.866L1295.64 399.308L1319.43 400.691L1332.87 401.479L1347.18 310.804L1260.44 305.156ZM1327.85 395.539L1318.89 395.021L1295.08 393.637L1259.73 391.579L1265.87 311.141L1340.4 316.001L1327.85 395.539Z" fill="url(#paint35_linear)"/>
<path d="M1347.18 310.804L1332.86 401.479L1337.37 401.771L1351.36 313.335L1347.18 310.804Z" fill="#9E202F"/>
<path d="M1265.89 311.152L1258.48 392.119L1327.85 395.55L1259.75 391.59L1265.89 311.152Z" fill="url(#paint36_linear)"/>
<path opacity="0.35" d="M1311.3 314.111L1287.5 312.559L1286.97 306.889L1310.77 308.43L1311.3 314.111Z" fill="white"/>
<path opacity="0.35" d="M1319.43 400.691L1295.64 399.319L1295.09 393.649L1318.9 395.033L1319.43 400.691Z" fill="white"/>
<path d="M485.75 401.175H408.02V404.606H485.75V401.175Z" fill="#54170B"/>
<path d="M485.75 401.175H481.26V404.606H485.75V401.175Z" fill="#7C2818"/>
<path d="M487.85 295.009L487.08 402.255H406.66L401.88 317.779L401.29 307.418L400.57 294.739L487.85 295.009Z" fill="url(#paint37_linear)"/>
<path opacity="0.5" d="M481.9 309.679L467.05 317.779H401.88L401.29 307.417L481.9 309.679Z" fill="#A5766A"/>
<path d="M235.16 401.175H154.76V404.606H235.16V401.175Z" fill="#68210E"/>
<path d="M235.16 401.175H230.24V404.606H235.16V401.175Z" fill="#7C2818"/>
<path d="M153.1 294.75L161.08 402.266H236.5L237.25 295.009L153.1 294.75Z" fill="#EA722F"/>
<path opacity="0.5" d="M400.58 294.75L406.66 402.266H487.09L487.85 295.009L400.58 294.75Z" fill="#A5766A"/>
<path d="M403.69 294.75C403.69 294.772 481.99 295.009 481.99 295.009L481.23 402.266H487.08L487.84 295.009L403.69 294.75Z" fill="#EA722F"/>
<path d="M487.85 309.679L232.34 308.79L230.25 308.779L148.51 308.509L147.09 299.846C147.09 299.835 146.26 294.75 146.26 294.75L145.69 291.296C145.69 291.285 145.5 290.036 145.5 290.036L163.2 290.182L358.84 291.769L487.76 292.826L487.81 300.6L487.85 309.679Z" fill="url(#paint38_linear)"/>
<path d="M230.35 295.009L230.32 300.038L230.25 308.79L229.63 395.46L229.58 402.266H154.16L147.62 314.1L146.57 299.835L146.18 294.75H146.26L230.35 295.009Z" fill="url(#paint39_linear)"/>
<path d="M490.82 277.054L490.8 283.635H492.64V284.456L432.8 284.321L432.83 276.097L492.67 276.232V277.054H490.82Z" fill="#297E90"/>
<path d="M490.82 277.054L490.8 283.635L432.8 283.5L432.82 276.919L490.82 277.054Z" fill="url(#paint40_linear)"/>
<path d="M463.77 284.4L416.96 284.299C416.96 284.299 415.45 282.836 415.55 280.001C415.64 277.594 416.99 276.075 416.99 276.075L463.8 276.176C463.8 276.176 462.14 277.819 462.26 280.159C462.4 282.994 463.77 284.4 463.77 284.4Z" fill="#1E7682"/>
<path d="M463.8 276.176H462.61C462.61 276.176 460.95 277.819 461.07 280.159C461.22 282.994 462.58 284.4 462.58 284.4H463.77C463.77 284.4 462.41 282.994 462.26 280.159C462.14 277.819 463.8 276.176 463.8 276.176Z" fill="#297E90"/>
<path d="M479.06 270.934L479.04 275.715H480.38V276.311L437 276.21L437.02 270.247L480.4 270.349V270.945L479.06 270.934Z" fill="#F4753D"/>
<path d="M479.06 270.934L479.04 275.715L437 275.614L437.02 270.844L479.06 270.934Z" fill="url(#paint41_linear)"/>
<path d="M459.45 276.266L425.52 276.187C425.52 276.187 424.43 275.13 424.5 273.071C424.56 271.327 425.54 270.225 425.54 270.225L459.47 270.304C459.47 270.304 458.26 271.496 458.35 273.195C458.46 275.242 459.45 276.266 459.45 276.266Z" fill="#ED5B21"/>
<path d="M459.47 270.304H458.61C458.61 270.304 457.4 271.496 457.49 273.195C457.6 275.254 458.59 276.266 458.59 276.266H459.45C459.45 276.266 458.46 275.254 458.35 273.195C458.27 271.496 459.47 270.304 459.47 270.304Z" fill="#F4753D"/>
<path opacity="0.5" d="M487.8 300.6L230.31 300.026L147.09 299.846L146.56 299.835L146.18 294.75H146.26L145.69 291.296L357.75 291.769L487.75 292.826L487.8 300.6Z" fill="#A5766A"/>
<path d="M139.8 283.68L140.81 294.795L493.75 295.594L496.93 284.411L139.8 283.68Z" fill="#68210E"/>
<path opacity="0.85" d="M229.85 283.871C230.11 287.629 230.38 291.127 230.34 294.986C230.34 294.997 140.81 294.784 140.81 294.784L139.82 283.68L229.85 283.871Z" fill="white"/>
<path opacity="0.25" d="M339.52 295.245L274.5 295.099L266.27 283.882L331.29 284.029L339.52 295.245Z" fill="white"/>
<path opacity="0.25" d="M400.58 284.186L415.28 295.425L439.2 295.47L427.58 284.243L400.58 284.186Z" fill="white"/>
<path d="M449.34 237.791C449.34 237.791 453.8 230.107 446.99 230.096C440.18 230.085 440.47 238.77 444.73 241.256C449 243.742 449.34 237.791 449.34 237.791Z" fill="#686B20"/>
<path d="M441.949 243.54C443.449 247.961 448.919 254.869 448.919 254.869L458.539 252.506C458.739 252.506 461.809 249.919 464.199 246.656C467.419 242.28 469.449 236.711 461.659 234.652C456.159 233.201 451.649 233.719 448.339 235.125C443.459 237.206 441.139 241.166 441.949 243.54Z" fill="#7A822F"/>
<path d="M441.949 243.54C443.449 247.961 448.919 254.869 448.919 254.869L458.539 252.506C458.739 252.506 461.809 249.919 464.199 246.656C448.359 247.579 450.669 238.658 448.339 235.114C443.459 237.206 441.139 241.166 441.949 243.54Z" fill="#686B20"/>
<path d="M434.419 250.92L434.539 252.191L434.589 252.562L434.809 254.554L436.479 270.394L468.509 270.472L471.969 254.554L472.379 252.574L472.459 252.27L472.689 251.179L469.449 251.156L458.529 251.089L434.419 250.92Z" fill="url(#paint42_linear)"/>
<path d="M457.88 240.907C459.78 241.166 461.35 240.795 461.35 240.795C461.58 240.795 464.01 239.962 466.2 238.601C468.99 236.846 471.41 234.202 468.41 231.221C464.83 227.644 461 227.137 458.47 228.757C457.23 229.545 456.28 230.861 455.87 232.582C454.58 237.802 455.99 240.66 457.88 240.907Z" fill="#7A822F"/>
<path d="M457.88 240.907C459.78 241.166 461.35 240.795 461.35 240.795C461.58 240.795 464.01 239.962 466.2 238.601C458.48 238.5 458.07 232.267 458.46 228.757C457.22 229.545 456.27 230.861 455.86 232.582C454.58 237.802 455.99 240.66 457.88 240.907Z" fill="#686B20"/>
<path opacity="0.25" d="M458.51 250.256L458.53 251.089L458.55 252.585L458.89 270.45L464.74 270.461L469.11 252.562L469.45 251.156L469.68 250.279L458.51 250.256Z" fill="white"/>
<path d="M434.54 252.191L434.81 254.554H471.97L472.46 252.27L434.54 252.191Z" fill="url(#paint43_linear)"/>
<path d="M432.52 250.2L433.63 252.562H434.59L458.55 252.585H459.99L468.05 252.562L473.8 252.574L474.59 250.29L432.52 250.2Z" fill="url(#paint44_linear)"/>
<path opacity="0.25" d="M458.76 250.256L459.99 252.585L468.04 252.562C468.32 251.932 468.68 251.055 469.01 250.279L458.76 250.256Z" fill="white"/>
<path opacity="0.5" d="M140.82 294.795L139.83 283.691L229.85 283.871L145.49 286.492L140.82 294.795Z" fill="white"/>
<path opacity="0.25" d="M229.8 361.834L229.75 402.052H154.34L147.69 314.752L229.8 361.834Z" fill="url(#paint45_linear)"/>
<path opacity="0.5" d="M455.09 331.785L455.03 404.595L446.93 404.449L452.87 333.743L455.09 331.785Z" fill="#A5766A"/>
<path d="M447.98 401.13H349.19V404.775H447.98V401.13Z" fill="#68210E"/>
<path d="M397.79 401.13H349.31V404.775H397.79V401.13Z" fill="#54170B"/>
<path d="M397.45 402.255L397.67 331.785L343.36 332.066L348.71 402.255H397.45Z" fill="#EA722F"/>
<path opacity="0.5" d="M397.45 402.255L397.67 331.785L343.36 332.066L348.71 402.255H397.45Z" fill="#A5766A"/>
<path d="M451.07 402.255L455.09 331.785H399.98L400.18 402.255H451.07Z" fill="#E06427"/>
<path d="M401.31 402.255L401.15 331.785H397.36L397.5 402.255H401.31Z" fill="#EA722F"/>
<path d="M397.66 402.255L397.19 331.785H393.4L393.85 402.255H397.66Z" fill="#E06427"/>
<path d="M351.22 402.255L346.79 331.785H343L347.41 402.255H351.22Z" fill="#D35A24"/>
<path d="M451.07 402.21H447.26L450.95 331.785H455.09L451.07 402.21Z" fill="#EA722F"/>
<path d="M445.63 402.21H447.26L450.95 331.785H449.18L445.63 402.21Z" fill="#C95420"/>
<path opacity="0.65" d="M736.79 307.755L741.23 308.228L739.25 313.853L736.37 314.134L736.19 385.549L728.39 389.194L728.63 311.603L736.79 307.755Z" fill="url(#paint46_linear)"/>
<path d="M728.39 385.785H526.31V389.205H728.39V385.785Z" fill="#54170B"/>
<path d="M694.31 312.536V387.203H522.31L520.24 350.82L520.14 348.919L518.06 312.536H694.31Z" fill="url(#paint47_linear)"/>
<path d="M731.3 387.203L733.07 312.536H694.31V387.203H731.3Z" fill="url(#paint48_linear)"/>
<path d="M694.31 312.536H689.51V387.203H694.31V312.536Z" fill="#821D2E"/>
<path opacity="0.1" d="M586.71 387.203H578.99L570.96 349.346L557.51 348.975L549.14 312.536H566.88L574.79 349.729H579.6L586.71 387.203Z" fill="#E0C1B3"/>
<path opacity="0.1" d="M641.03 350.111L618.47 349.729L610.9 312.536H640.67L641.03 350.111Z" fill="#E0C1B3"/>
<path d="M694.31 348.919V350.82H520.24L520.14 348.919H694.31Z" fill="#821D2E"/>
<path d="M639.47 319.084H564.95V324.495H639.47V319.084Z" fill="#B9B4D3"/>
<path d="M639.47 319.084H634.25V324.495H639.47V319.084Z" fill="url(#paint49_linear)"/>
<path d="M639.47 355.894H564.95V361.305H639.47V355.894Z" fill="#B9B4D3"/>
<path d="M639.47 355.894H634.25V361.305H639.47V355.894Z" fill="url(#paint50_linear)"/>
<path d="M736.79 307.755L735.35 313.099L693.95 313.065L512.15 312.919L509.99 307.755H736.79Z" fill="#821D2E"/>
<path d="M736.79 307.755L735.35 313.099L693.95 313.065L693.56 307.755H736.79Z" fill="#72172A"/>
<path d="M1114.43 425.486L1197.35 420.615L1253.56 425.486L1263.23 430.177L1114.43 425.486Z" fill="#E2CEC3"/>
<path d="M1189.74 303.446L1190.99 425.486H1209.05L1204.5 303.604L1204.14 293.94L1201.44 221.603L1188.91 222.75L1189.63 293.783L1189.74 303.446Z" fill="url(#paint51_linear)"/>
<path opacity="0.5" d="M1209.05 425.486L1201.44 221.603L1199.17 221.805L1206.77 425.486H1209.05Z" fill="url(#paint52_linear)"/>
<path opacity="0.5" d="M1204.5 303.604L1189.74 303.446L1189.63 293.782L1204.14 293.94L1204.5 303.604Z" fill="url(#paint53_linear)"/>
<path d="M1236.11 358.796H1134.42V367.965H1236.11V358.796Z" fill="url(#paint54_linear)"/>
<path d="M1236.11 358.796H1134.42V360.326H1236.11V358.796Z" fill="#EF8759"/>
<path d="M1224.9 302.917L1231.7 425.486H1253.57L1242.06 302.917L1241.53 297.191L1229.16 165.319H1217.28L1224.59 297.191L1224.9 302.917Z" fill="url(#paint55_linear)"/>
<path opacity="0.25" d="M1226.55 297.191L1219.23 165.319H1217.28L1224.59 297.191L1224.9 302.917L1231.7 425.486H1233.66L1226.86 302.917L1226.55 297.191Z" fill="#E0C1B3"/>
<path opacity="0.5" d="M1226.71 165.712L1251.08 425.486H1253.56L1229.15 165.33H1217.28L1217.3 165.712H1226.71Z" fill="url(#paint56_linear)"/>
<path d="M1136.29 425.486L1143.08 302.917L1143.4 297.191L1150.71 165.319H1138.83L1126.47 297.191L1125.93 302.917L1114.43 425.486H1136.29Z" fill="url(#paint57_linear)"/>
<path opacity="0.25" d="M1128.42 297.191L1140.79 165.319H1138.83L1126.47 297.191L1125.93 302.917L1114.43 425.486H1116.38L1127.88 302.917L1128.42 297.191Z" fill="#E0C1B3"/>
<path opacity="0.5" d="M1136.29 425.486L1150.71 165.33H1147.29L1132.87 425.486H1136.29Z" fill="url(#paint58_linear)"/>
<path d="M1256.81 205.931L1253.71 291.589L1256.97 291.847L1259.91 207.202L1256.81 205.931Z" fill="#E5A889"/>
<path d="M1109.12 206.314L1111.6 295.155H1255.02L1256.81 205.931L1109.12 206.314Z" fill="url(#paint59_linear)"/>
<path opacity="0.5" d="M1143.4 297.191L1143.08 302.917H1125.93L1126.47 297.191H1143.4Z" fill="url(#paint60_linear)"/>
<path opacity="0.5" d="M1242.06 302.917H1224.9L1224.59 297.191H1241.53L1242.06 302.917Z" fill="url(#paint61_linear)"/>
<path d="M1258.76 290.317H1106.22V298.339H1258.76V290.317Z" fill="url(#paint62_linear)"/>
<path opacity="0.25" d="M1106.22 298.339V290.317L1257.79 290.509L1107.94 291.847L1106.22 298.339Z" fill="#E0C1B3"/>
<path opacity="0.25" d="M1230.88 298.339H1207.95L1205.12 290.317H1228.05L1230.88 298.339Z" fill="#D86830"/>
<path opacity="0.25" d="M1168.36 298.339H1152.89L1150.06 290.317H1165.53L1168.36 298.339Z" fill="#D86830"/>
<path opacity="0.65" d="M926.86 307.755L931.31 308.228L929.33 313.853L926.45 314.134L926.27 385.549L918.47 389.194L918.71 311.603L926.86 307.755Z" fill="url(#paint63_linear)"/>
<path d="M918.47 385.785H716.39V389.205H918.47V385.785Z" fill="#54170B"/>
<path d="M884.38 312.536V387.203H712.39L710.32 350.82L710.22 348.919L708.14 312.536H884.38Z" fill="url(#paint64_linear)"/>
<path d="M921.38 387.203L923.15 312.536H884.39V387.203H921.38Z" fill="url(#paint65_linear)"/>
<path d="M884.39 312.536H879.59V387.203H884.39V312.536Z" fill="#821D2E"/>
<path opacity="0.1" d="M776.79 387.203H769.07L761.03 349.346L747.58 348.975L739.22 312.536H756.96L764.86 349.729H769.67L776.79 387.203Z" fill="#E0C1B3"/>
<path opacity="0.1" d="M831.099 350.111L808.549 349.729L800.979 312.536H830.74L831.099 350.111Z" fill="#E0C1B3"/>
<path d="M884.38 348.919V350.82H710.32L710.22 348.919H884.38Z" fill="#821D2E"/>
<path d="M829.55 319.084H755.03V324.495H829.55V319.084Z" fill="#B9B4D3"/>
<path d="M829.55 319.084H824.33V324.495H829.55V319.084Z" fill="url(#paint66_linear)"/>
<path d="M829.55 355.894H755.03V361.305H829.55V355.894Z" fill="#B9B4D3"/>
<path d="M829.55 355.894H824.33V361.305H829.55V355.894Z" fill="url(#paint67_linear)"/>
<path d="M926.86 307.755L925.42 313.099L884.02 313.065L702.23 312.919L700.07 307.755H926.86Z" fill="#821D2E"/>
<path d="M926.86 307.755L925.42 313.099L884.02 313.065L883.64 307.755H926.86Z" fill="#72172A"/>
<path d="M952.26 396.81L1053.59 402.244L1053.16 396.81L1000.79 393.064L952.26 396.81Z" fill="#E2CEC3"/>
<path d="M1013.51 280.789L998.85 280.541L998.03 280.53L987.13 280.71L982.55 280.789C982.55 280.789 967.43 268.976 970.31 258.019C973.19 247.061 987.23 243.956 987.23 243.956L984.02 232.897L983.08 229.646L982.91 229.05L985.42 229.005L997.31 228.791C997.31 228.769 998.03 228.78 998.03 228.78L998.75 228.769C998.75 228.791 999.15 228.802 999.15 228.802L1013.15 229.05L1013.11 229.185L1010.4 238.556L1008.83 243.956C1008.83 243.956 1022.87 247.05 1025.75 258.019C1028.63 268.987 1013.51 280.789 1013.51 280.789Z" fill="#AF2214"/>
<path d="M1000.94 247.478C1004.28 256.736 1000.65 274.005 998.85 280.541C998.36 282.285 998.03 283.32 998.03 283.32L988.67 282.195C988.14 281.689 987.6 281.194 987.13 280.71C976.32 270.18 972.7 264.758 974.5 255.859C975.61 250.414 981.86 247.86 985.65 246.78C988.5 245.959 990.07 243.563 989.34 241.256L985.42 229.005L988.04 228.96L996.85 228.803L997.31 228.791C997.31 228.769 998.03 228.78 998.03 228.78L998.75 228.769C998.75 228.791 1002.35 228.578 1002.35 228.578L1000.68 245.081C1000.61 245.891 1000.67 246.701 1000.94 247.478Z" fill="#BF312B"/>
<path opacity="0.3" d="M993.35 281.531H989.98C989.98 281.531 980.14 270.101 977.51 265.41C974.86 260.719 976.07 253.789 979.9 251.156C983.74 248.535 990.94 246.285 991.66 243.664C992.18 241.74 989.51 233.348 988.03 228.949L996.84 228.791C997.63 233.865 997 240.379 997.18 243.473C997.41 247.973 990.94 249.66 986.62 253.969C982.31 258.289 993.35 281.531 993.35 281.531Z" fill="url(#paint68_linear)"/>
<path d="M1026.7 279.923C1019.3 284.783 1005.53 285.773 999.76 278.64C999.28 278.055 998.91 277.436 998.61 276.795C996.98 273.319 997.83 269.123 1001.09 266.411C1004.14 263.858 1008.88 262.789 1013.33 263.104C1017.55 263.396 1021.52 264.803 1025.02 266.693C1025.22 266.783 1025.41 266.895 1025.6 266.996C1027.6 268.11 1029.55 269.46 1030.42 271.26C1031.9 274.298 1029.88 277.83 1026.7 279.923Z" fill="#F2BB40"/>
<path d="M1018.99 267.244C1020.11 269.978 1016.92 273.229 1011.86 274.489C1006.8 275.76 1001.78 274.568 1000.66 271.834C999.54 269.1 1002.73 265.849 1007.79 264.577C1012.85 263.317 1017.86 264.51 1018.99 267.244Z" fill="#EFCD41"/>
<path opacity="0.76" d="M1026.7 279.923C1019.3 284.783 1005.53 285.773 999.76 278.64C999.28 278.055 998.91 277.436 998.61 276.795C1003.77 279.101 1010.45 279.236 1015.69 277.043C1018.61 275.828 1021 273.926 1022.63 271.688C1023.67 270.248 1024.03 268.256 1025.02 266.693C1025.22 266.783 1025.41 266.895 1025.6 266.996C1027.6 268.11 1029.55 269.46 1030.42 271.26C1031.9 274.298 1029.88 277.83 1026.7 279.923Z" fill="url(#paint69_linear)"/>
<path d="M987.99 293.895L987.73 294.863L984.57 306.518L960.08 396.81H952.26L969.92 306.518L972.19 294.863L972.25 294.548L987.99 293.895Z" fill="url(#paint70_linear)"/>
<path d="M1053.16 396.81H1045.33L1020.84 306.518L1017.68 294.863L1017.42 293.895L1033.17 294.548L1033.23 294.863L1035.51 306.518L1053.16 396.81Z" fill="url(#paint71_linear)"/>
<path d="M1009.3 292.928L1009.21 294.863L1008.72 306.518L1004.8 396.81H998.92L996.77 306.518L996.5 294.863L996.46 293.243L1009.3 292.928Z" fill="#6D2546"/>
<path opacity="0.5" d="M987.73 294.863L984.57 306.518H969.92L972.19 294.863H987.73Z" fill="#895670"/>
<path opacity="0.85" d="M1009.21 294.863L1008.72 306.518H996.77L996.5 294.863H1009.21Z" fill="#895670"/>
<path opacity="0.5" d="M1035.51 306.518H1020.84L1017.68 294.863H1033.23L1035.51 306.518Z" fill="#895670"/>
<path d="M1046.93 280.958L1045.6 297.124L1030.58 297.011L1018.56 296.91L997.98 296.764L973.42 296.573L961.89 296.483L958.83 280.958H1046.93Z" fill="#BC3A56"/>
<path opacity="0.5" d="M997.979 296.764L973.43 296.584C972.1 291.611 970.58 285.975 969.27 280.958H997.799L997.979 296.764Z" fill="#E5663A"/>
<path opacity="0.5" d="M1033.23 280.958L1030.58 297.011L1018.56 296.91L1019.25 280.958H1033.23Z" fill="#8B3156"/>
<path d="M1012.13 280.71L1007.47 282.893L993.89 353.183L965.82 280.474H967.11L1006 280.688L1012.13 280.71Z" fill="#80BBBC"/>
<path d="M1012.76 281.025L1008.09 283.219L993.83 353.138L966.45 280.789L967.74 280.8L981.52 297.54L988.97 298.024L991.91 334.631L997.38 295.47L1006.63 281.003L1012.76 281.025Z" fill="#64AFAF"/>
<path opacity="0.5" d="M1013.11 229.196L1010.4 238.568C1004.68 231.773 989.28 232.448 984.02 232.909L983.08 229.658C991.13 229.534 1007.88 229.298 1013.11 229.196Z" fill="#9B4B48"/>
<path d="M1015.18 227.554L1014.02 231.187L1010.31 231.176L999.73 231.131L995.4 231.109L988.02 231.075L981.98 231.052L980.87 227.554H1015.18Z" fill="#AF2214"/>
<path opacity="0.35" d="M1010.99 227.554L1010.31 231.176L999.729 231.131C999.829 230.074 999.97 228.656 1000.08 227.554H1010.99Z" fill="#9B4B48"/>
<path opacity="0.3" d="M995.64 227.554L995.4 231.109L988.02 231.075L986.91 227.554H995.64Z" fill="url(#paint72_linear)"/>
<defs>
<linearGradient id="paint0_linear" x1="-8.2771" y1="414.883" x2="1452.31" y2="414.883" gradientUnits="userSpaceOnUse">
<stop stop-color="#F2C483"/>
<stop offset="0.4561" stop-color="#F6D9AA"/>
<stop offset="0.6769" stop-color="#F5D29D"/>
<stop offset="1" stop-color="#F2C483"/>
</linearGradient>
<linearGradient id="paint1_linear" x1="720.002" y1="451.761" x2="720.002" y2="-0.00134636" gradientUnits="userSpaceOnUse">
<stop stop-color="#FFCEFF"/>
<stop offset="1" stop-color="#A5A3ED"/>
</linearGradient>
<linearGradient id="paint2_linear" x1="79.5569" y1="451.761" x2="79.5569" y2="-0.00134636" gradientUnits="userSpaceOnUse">
<stop stop-color="#B4B3F4"/>
<stop offset="1" stop-color="#BC9AF4"/>
</linearGradient>
<linearGradient id="paint3_linear" x1="1359.71" y1="451.761" x2="1359.71" y2="-0.00134636" gradientUnits="userSpaceOnUse">
<stop stop-color="#B4B3F4"/>
<stop offset="1" stop-color="#BC9AF4"/>
</linearGradient>
<linearGradient id="paint4_linear" x1="-8.2771" y1="414.883" x2="1452.31" y2="414.883" gradientUnits="userSpaceOnUse">
<stop stop-color="#F2C483"/>
<stop offset="0.4561" stop-color="#F6D9AA"/>
<stop offset="0.6769" stop-color="#F5D29D"/>
<stop offset="1" stop-color="#F2C483"/>
</linearGradient>
<linearGradient id="paint5_linear" x1="232.283" y1="428.861" x2="232.283" y2="232.644" gradientUnits="userSpaceOnUse">
<stop/>
<stop offset="1" stop-color="white"/>
</linearGradient>
<linearGradient id="paint6_linear" x1="1031.72" y1="176.347" x2="1213.19" y2="176.347" gradientUnits="userSpaceOnUse">
<stop stop-color="#7EBAE0"/>
<stop offset="1" stop-color="#7EBAE0"/>
</linearGradient>
<linearGradient id="paint7_linear" x1="1305.55" y1="343.664" x2="1440" y2="343.664" gradientUnits="userSpaceOnUse">
<stop stop-color="#7EBAE0"/>
<stop offset="1" stop-color="#7EBAE0"/>
</linearGradient>
<linearGradient id="paint8_linear" x1="500.774" y1="178.325" x2="959.029" y2="178.325" gradientUnits="userSpaceOnUse">
<stop stop-color="#7EBAE0"/>
<stop offset="1" stop-color="#7EBAE0"/>
</linearGradient>
<linearGradient id="paint9_linear" x1="725.094" y1="257.392" x2="725.094" y2="84.4499" gradientUnits="userSpaceOnUse">
<stop offset="0.00537634" stop-color="#D1743D"/>
<stop offset="1" stop-color="#EA722F"/>
</linearGradient>
<linearGradient id="paint10_linear" x1="725.034" y1="247.264" x2="725.034" y2="95.7143" gradientUnits="userSpaceOnUse">
<stop stop-color="#32535C"/>
<stop offset="0.0614" stop-color="#34585B"/>
<stop offset="0.3879" stop-color="#3C6E57"/>
<stop offset="0.7037" stop-color="#407B54"/>
<stop offset="0.9946" stop-color="#427F53"/>
</linearGradient>
<linearGradient id="paint11_linear" x1="722.997" y1="269.69" x2="722.997" y2="254.498" gradientUnits="userSpaceOnUse">
<stop offset="0.0161" stop-color="#EA722F"/>
<stop offset="0.9946" stop-color="#F4964A"/>
</linearGradient>
<linearGradient id="paint12_linear" x1="747.024" y1="239.115" x2="888.605" y2="239.115" gradientUnits="userSpaceOnUse">
<stop stop-color="#F9AE70"/>
<stop offset="0.9892" stop-color="#FFBF73"/>
</linearGradient>
<linearGradient id="paint13_linear" x1="785.361" y1="241.145" x2="853.757" y2="241.145" gradientUnits="userSpaceOnUse">
<stop offset="0.0161" stop-color="#EA722F"/>
<stop offset="0.9946" stop-color="#F4964A"/>
</linearGradient>
<linearGradient id="paint14_linear" x1="238.768" y1="175.597" x2="395.269" y2="175.597" gradientUnits="userSpaceOnUse">
<stop stop-color="#7EBAE0"/>
<stop offset="1" stop-color="#7EBAE0"/>
</linearGradient>
<linearGradient id="paint15_linear" x1="235.035" y1="173.974" x2="390.452" y2="173.974" gradientUnits="userSpaceOnUse">
<stop stop-color="#7EBAE0"/>
<stop offset="1" stop-color="#7EBAE0"/>
</linearGradient>
<linearGradient id="paint16_linear" x1="235.035" y1="173.974" x2="390.452" y2="173.974" gradientUnits="userSpaceOnUse">
<stop stop-color="#7EBAE0"/>
<stop offset="1" stop-color="#7EBAE0"/>
</linearGradient>
<linearGradient id="paint17_linear" x1="235.036" y1="173.974" x2="390.452" y2="173.974" gradientUnits="userSpaceOnUse">
<stop stop-color="#7EBAE0"/>
<stop offset="1" stop-color="#7EBAE0"/>
</linearGradient>
<linearGradient id="paint18_linear" x1="235.034" y1="173.974" x2="390.453" y2="173.974" gradientUnits="userSpaceOnUse">
<stop stop-color="#7EBAE0"/>
<stop offset="1" stop-color="#7EBAE0"/>
</linearGradient>
<linearGradient id="paint19_linear" x1="240.229" y1="220.364" x2="388.069" y2="220.364" gradientUnits="userSpaceOnUse">
<stop stop-color="white"/>
<stop offset="0.0295" stop-color="#F5F5F6"/>
<stop offset="0.2382" stop-color="#B2AFBC"/>
<stop offset="0.4355" stop-color="#79758B"/>
<stop offset="0.6157" stop-color="#4E4865"/>
<stop offset="0.7756" stop-color="#2E284A"/>
<stop offset="0.9092" stop-color="#1B1439"/>
<stop offset="1" stop-color="#140D33"/>
</linearGradient>
<linearGradient id="paint20_linear" x1="1442.13" y1="82.8815" x2="-18.214" y2="79.1171" gradientUnits="userSpaceOnUse">
<stop stop-color="#B3C0FF"/>
<stop offset="0.0626" stop-color="#A6B3F7"/>
<stop offset="0.3781" stop-color="#6877D2"/>
<stop offset="0.5281" stop-color="#505FC4"/>
<stop offset="0.636" stop-color="#6270CF"/>
<stop offset="0.8505" stop-color="#8F9DEA"/>
<stop offset="1" stop-color="#B3C0FF"/>
</linearGradient>
<linearGradient id="paint21_linear" x1="1094.15" y1="18.2436" x2="833.412" y2="17.5714" gradientUnits="userSpaceOnUse">
<stop stop-color="#000E6C"/>
<stop offset="0.9921" stop-color="#3B5EFF"/>
</linearGradient>
<linearGradient id="paint22_linear" x1="1094.15" y1="18.2436" x2="833.412" y2="17.5714" gradientUnits="userSpaceOnUse">
<stop stop-color="#000E6C"/>
<stop offset="0.9921" stop-color="#3B5EFF"/>
</linearGradient>
<linearGradient id="paint23_linear" x1="295.323" y1="360.929" x2="307.903" y2="360.961" gradientUnits="userSpaceOnUse">
<stop stop-color="#766CA8"/>
<stop offset="0.1298" stop-color="#8179AA"/>
<stop offset="0.3563" stop-color="#8F88AD"/>
<stop offset="0.6182" stop-color="#9791AF"/>
<stop offset="0.9946" stop-color="#9A94AF"/>
</linearGradient>
<linearGradient id="paint24_linear" x1="291.506" y1="315.169" x2="355.192" y2="319.233" gradientUnits="userSpaceOnUse">
<stop stop-color="#766CA8"/>
<stop offset="0.1298" stop-color="#8179AA"/>
<stop offset="0.3563" stop-color="#8F88AD"/>
<stop offset="0.6182" stop-color="#9791AF"/>
<stop offset="0.9946" stop-color="#9A94AF"/>
</linearGradient>
<linearGradient id="paint25_linear" x1="234.696" y1="284.856" x2="316.437" y2="285.067" gradientUnits="userSpaceOnUse">
<stop stop-color="#491A40"/>
<stop offset="0.9946" stop-color="#5E2552"/>
</linearGradient>
<linearGradient id="paint26_linear" x1="270.12" y1="270.025" x2="270.236" y2="234.335" gradientUnits="userSpaceOnUse">
<stop offset="0.00537634" stop-color="#5E2552"/>
<stop offset="1" stop-color="#68365F"/>
</linearGradient>
<linearGradient id="paint27_linear" x1="257.815" y1="331.468" x2="360.145" y2="331.732" gradientUnits="userSpaceOnUse">
<stop offset="0.00537634" stop-color="#5E2552"/>
<stop offset="1" stop-color="#68365F"/>
</linearGradient>
<linearGradient id="paint28_linear" x1="312.533" y1="334.84" x2="360.136" y2="334.962" gradientUnits="userSpaceOnUse">
<stop offset="0.00537634" stop-color="#5E2552"/>
<stop offset="1" stop-color="#68365F"/>
</linearGradient>
<linearGradient id="paint29_linear" x1="246.797" y1="317.911" x2="310.608" y2="318.076" gradientUnits="userSpaceOnUse">
<stop stop-color="#766CA8"/>
<stop offset="0.1298" stop-color="#8179AA"/>
<stop offset="0.3563" stop-color="#8F88AD"/>
<stop offset="0.6182" stop-color="#9791AF"/>
<stop offset="0.9946" stop-color="#9A94AF"/>
</linearGradient>
<linearGradient id="paint30_linear" x1="230.078" y1="289.199" x2="358.613" y2="289.531" gradientUnits="userSpaceOnUse">
<stop stop-color="#766CA8"/>
<stop offset="0.1298" stop-color="#8179AA"/>
<stop offset="0.3563" stop-color="#8F88AD"/>
<stop offset="0.6182" stop-color="#9791AF"/>
<stop offset="0.9946" stop-color="#9A94AF"/>
</linearGradient>
<linearGradient id="paint31_linear" x1="301.572" y1="372.081" x2="311.227" y2="372.106" gradientUnits="userSpaceOnUse">
<stop offset="0.00537634" stop-color="#5E2552"/>
<stop offset="1" stop-color="#68365F"/>
</linearGradient>
<linearGradient id="paint32_linear" x1="329.221" y1="391.428" x2="319.626" y2="391.403" gradientUnits="userSpaceOnUse">
<stop offset="0.00537634" stop-color="#9A94AF"/>
<stop offset="0.3818" stop-color="#9791AF"/>
<stop offset="0.6437" stop-color="#8F88AD"/>
<stop offset="0.8702" stop-color="#8179AA"/>
<stop offset="1" stop-color="#766CA8"/>
</linearGradient>
<linearGradient id="paint33_linear" x1="246.936" y1="391.212" x2="256.532" y2="391.237" gradientUnits="userSpaceOnUse">
<stop offset="0.00537634" stop-color="#9A94AF"/>
<stop offset="0.1103" stop-color="#928BAD"/>
<stop offset="0.3736" stop-color="#827AAA"/>
<stop offset="0.6581" stop-color="#796FA9"/>
<stop offset="1" stop-color="#766CA8"/>
</linearGradient>
<linearGradient id="paint34_linear" x1="1265.68" y1="354.587" x2="1363.6" y2="354.587" gradientUnits="userSpaceOnUse">
<stop stop-color="#7EBAE0"/>
<stop offset="1" stop-color="#7EBAE0"/>
</linearGradient>
<linearGradient id="paint35_linear" x1="1256.77" y1="349.753" x2="1343.92" y2="356.213" gradientUnits="userSpaceOnUse">
<stop stop-color="#C4502C"/>
<stop offset="0.9892" stop-color="#AD3529"/>
</linearGradient>
<linearGradient id="paint36_linear" x1="1261.49" y1="351.569" x2="1330.73" y2="356.702" gradientUnits="userSpaceOnUse">
<stop stop-color="#EA722F"/>
<stop offset="0.9892" stop-color="#D1633D"/>
</linearGradient>
<linearGradient id="paint37_linear" x1="444.212" y1="402.26" x2="444.212" y2="294.742" gradientUnits="userSpaceOnUse">
<stop stop-color="#EA722F"/>
<stop offset="0.9892" stop-color="#D1633D"/>
</linearGradient>
<linearGradient id="paint38_linear" x1="316.671" y1="309.68" x2="316.671" y2="290.034" gradientUnits="userSpaceOnUse">
<stop stop-color="#EA722F"/>
<stop offset="0.9892" stop-color="#D1633D"/>
</linearGradient>
<linearGradient id="paint39_linear" x1="188.265" y1="402.267" x2="188.265" y2="294.749" gradientUnits="userSpaceOnUse">
<stop stop-color="#EA722F"/>
<stop offset="0.9892" stop-color="#D1633D"/>
</linearGradient>
<linearGradient id="paint40_linear" x1="461.803" y1="283.599" x2="461.824" y2="276.957" gradientUnits="userSpaceOnUse">
<stop offset="0.00537634" stop-color="#FFCFAB"/>
<stop offset="1" stop-color="#FFE7D7"/>
</linearGradient>
<linearGradient id="paint41_linear" x1="458.024" y1="275.684" x2="458.04" y2="270.869" gradientUnits="userSpaceOnUse">
<stop offset="0.00537634" stop-color="#FFCFAB"/>
<stop offset="1" stop-color="#FFE7D7"/>
</linearGradient>
<linearGradient id="paint42_linear" x1="453.503" y1="270.45" x2="453.567" y2="250.98" gradientUnits="userSpaceOnUse">
<stop offset="0.00537634" stop-color="#EA9F6C"/>
<stop offset="1" stop-color="#EDC4A9"/>
</linearGradient>
<linearGradient id="paint43_linear" x1="453.492" y1="254.612" x2="453.5" y2="252.212" gradientUnits="userSpaceOnUse">
<stop offset="0.00537634" stop-color="#EA9F6C"/>
<stop offset="1" stop-color="#EDC4A9"/>
</linearGradient>
<linearGradient id="paint44_linear" x1="453.55" y1="252.628" x2="453.558" y2="250.225" gradientUnits="userSpaceOnUse">
<stop offset="0.00537634" stop-color="#EA9F6C"/>
<stop offset="1" stop-color="#EDC4A9"/>
</linearGradient>
<linearGradient id="paint45_linear" x1="147.694" y1="358.405" x2="229.802" y2="358.405" gradientUnits="userSpaceOnUse">
<stop stop-color="white"/>
<stop offset="0.0295" stop-color="#F5F5F6"/>
<stop offset="0.2382" stop-color="#B2AFBC"/>
<stop offset="0.4355" stop-color="#79758B"/>
<stop offset="0.6157" stop-color="#4E4865"/>
<stop offset="0.7756" stop-color="#2E284A"/>
<stop offset="0.9092" stop-color="#1B1439"/>
<stop offset="1" stop-color="#140D33"/>
</linearGradient>
<linearGradient id="paint46_linear" x1="728.39" y1="348.475" x2="741.23" y2="348.475" gradientUnits="userSpaceOnUse">
<stop stop-color="#7EBAE0"/>
<stop offset="1" stop-color="#7EBAE0"/>
</linearGradient>
<linearGradient id="paint47_linear" x1="606.185" y1="387.206" x2="606.185" y2="312.539" gradientUnits="userSpaceOnUse">
<stop offset="0.0108" stop-color="#D1633D"/>
<stop offset="1" stop-color="#EA722F"/>
</linearGradient>
<linearGradient id="paint48_linear" x1="713.69" y1="387.206" x2="713.69" y2="312.535" gradientUnits="userSpaceOnUse">
<stop stop-color="#9E202F"/>
<stop offset="0.9822" stop-color="#BD3E2A"/>
</linearGradient>
<linearGradient id="paint49_linear" x1="636.86" y1="324.49" x2="636.86" y2="319.082" gradientUnits="userSpaceOnUse">
<stop offset="0.0089225" stop-color="#9A94AF"/>
<stop offset="0.384" stop-color="#9791AF"/>
<stop offset="0.645" stop-color="#8F88AD"/>
<stop offset="0.8706" stop-color="#8179AA"/>
<stop offset="1" stop-color="#766CA8"/>
</linearGradient>
<linearGradient id="paint50_linear" x1="636.86" y1="361.304" x2="636.86" y2="355.896" gradientUnits="userSpaceOnUse">
<stop offset="0.0089225" stop-color="#9A94AF"/>
<stop offset="0.384" stop-color="#9791AF"/>
<stop offset="0.645" stop-color="#8F88AD"/>
<stop offset="0.8706" stop-color="#8179AA"/>
<stop offset="1" stop-color="#766CA8"/>
</linearGradient>
<linearGradient id="paint51_linear" x1="1197.69" y1="429.159" x2="1200.91" y2="221.592" gradientUnits="userSpaceOnUse">
<stop stop-color="#C4502C"/>
<stop offset="0.9892" stop-color="#AD3529"/>
</linearGradient>
<linearGradient id="paint52_linear" x1="1202.82" y1="429.163" x2="1206.04" y2="221.672" gradientUnits="userSpaceOnUse">
<stop offset="0.00537634" stop-color="#822B10"/>
<stop offset="0.2377" stop-color="#752217"/>
<stop offset="0.6878" stop-color="#601521"/>
<stop offset="0.9892" stop-color="#591025"/>
</linearGradient>
<linearGradient id="paint53_linear" x1="1197.01" y1="303.561" x2="1197.16" y2="293.826" gradientUnits="userSpaceOnUse">
<stop offset="0.00537634" stop-color="#822B10"/>
<stop offset="0.2377" stop-color="#752217"/>
<stop offset="0.6878" stop-color="#601521"/>
<stop offset="0.9892" stop-color="#591025"/>
</linearGradient>
<linearGradient id="paint54_linear" x1="1134.27" y1="363.375" x2="1236.63" y2="363.375" gradientUnits="userSpaceOnUse">
<stop offset="0.0108" stop-color="#D1633D"/>
<stop offset="1" stop-color="#EA722F"/>
</linearGradient>
<linearGradient id="paint55_linear" x1="1235.42" y1="427.392" x2="1235.42" y2="163.996" gradientUnits="userSpaceOnUse">
<stop stop-color="#EA722F"/>
<stop offset="0.9892" stop-color="#D1633D"/>
</linearGradient>
<linearGradient id="paint56_linear" x1="1235.42" y1="427.392" x2="1235.42" y2="163.996" gradientUnits="userSpaceOnUse">
<stop offset="0.00537634" stop-color="#822B10"/>
<stop offset="0.2377" stop-color="#752217"/>
<stop offset="0.6878" stop-color="#601521"/>
<stop offset="0.9892" stop-color="#591025"/>
</linearGradient>
<linearGradient id="paint57_linear" x1="1114.23" y1="295.406" x2="1150.89" y2="295.406" gradientUnits="userSpaceOnUse">
<stop offset="0.0108" stop-color="#D1633D"/>
<stop offset="1" stop-color="#EA722F"/>
</linearGradient>
<linearGradient id="paint58_linear" x1="1132.76" y1="295.407" x2="1150.8" y2="295.407" gradientUnits="userSpaceOnUse">
<stop offset="0.00537634" stop-color="#822B10"/>
<stop offset="0.2377" stop-color="#752217"/>
<stop offset="0.6878" stop-color="#601521"/>
<stop offset="0.9892" stop-color="#591025"/>
</linearGradient>
<linearGradient id="paint59_linear" x1="1182.96" y1="295.152" x2="1182.96" y2="201.582" gradientUnits="userSpaceOnUse">
<stop offset="0.00537634" stop-color="#FFCFAB"/>
<stop offset="1" stop-color="#FFE7D7"/>
</linearGradient>
<linearGradient id="paint60_linear" x1="1134.66" y1="302.925" x2="1134.66" y2="297.16" gradientUnits="userSpaceOnUse">
<stop offset="0.00537634" stop-color="#822B10"/>
<stop offset="0.2377" stop-color="#752217"/>
<stop offset="0.6878" stop-color="#601521"/>
<stop offset="0.9892" stop-color="#591025"/>
</linearGradient>
<linearGradient id="paint61_linear" x1="1233.33" y1="302.925" x2="1233.33" y2="297.16" gradientUnits="userSpaceOnUse">
<stop offset="0.00537634" stop-color="#822B10"/>
<stop offset="0.2377" stop-color="#752217"/>
<stop offset="0.6878" stop-color="#601521"/>
<stop offset="0.9892" stop-color="#591025"/>
</linearGradient>
<linearGradient id="paint62_linear" x1="1106.22" y1="294.325" x2="1258.76" y2="294.325" gradientUnits="userSpaceOnUse">
<stop stop-color="#EA722F"/>
<stop offset="0.9892" stop-color="#D1633D"/>
</linearGradient>
<linearGradient id="paint63_linear" x1="918.469" y1="348.475" x2="931.309" y2="348.475" gradientUnits="userSpaceOnUse">
<stop stop-color="#7EBAE0"/>
<stop offset="1" stop-color="#7EBAE0"/>
</linearGradient>
<linearGradient id="paint64_linear" x1="796.264" y1="387.206" x2="796.264" y2="312.539" gradientUnits="userSpaceOnUse">
<stop offset="0.0108" stop-color="#D1633D"/>
<stop offset="1" stop-color="#EA722F"/>
</linearGradient>
<linearGradient id="paint65_linear" x1="903.769" y1="387.206" x2="903.769" y2="312.535" gradientUnits="userSpaceOnUse">
<stop stop-color="#9E202F"/>
<stop offset="0.9822" stop-color="#BD3E2A"/>
</linearGradient>
<linearGradient id="paint66_linear" x1="826.939" y1="324.49" x2="826.939" y2="319.082" gradientUnits="userSpaceOnUse">
<stop offset="0.0089225" stop-color="#9A94AF"/>
<stop offset="0.384" stop-color="#9791AF"/>
<stop offset="0.645" stop-color="#8F88AD"/>
<stop offset="0.8706" stop-color="#8179AA"/>
<stop offset="1" stop-color="#766CA8"/>
</linearGradient>
<linearGradient id="paint67_linear" x1="826.939" y1="361.304" x2="826.939" y2="355.896" gradientUnits="userSpaceOnUse">
<stop offset="0.0089225" stop-color="#9A94AF"/>
<stop offset="0.384" stop-color="#9791AF"/>
<stop offset="0.645" stop-color="#8F88AD"/>
<stop offset="0.8706" stop-color="#8179AA"/>
<stop offset="1" stop-color="#766CA8"/>
</linearGradient>
<linearGradient id="paint68_linear" x1="986.677" y1="281.533" x2="986.677" y2="228.81" gradientUnits="userSpaceOnUse">
<stop/>
<stop offset="1" stop-color="white"/>
</linearGradient>
<linearGradient id="paint69_linear" x1="998.607" y1="275.24" x2="1030.91" y2="275.24" gradientUnits="userSpaceOnUse">
<stop stop-color="white"/>
<stop offset="1" stop-color="#FFC12E"/>
</linearGradient>
<linearGradient id="paint70_linear" x1="970.128" y1="396.814" x2="970.128" y2="293.895" gradientUnits="userSpaceOnUse">
<stop stop-color="#994169"/>
<stop offset="1" stop-color="#6D2546"/>
</linearGradient>
<linearGradient id="paint71_linear" x1="1035.29" y1="396.814" x2="1035.29" y2="293.895" gradientUnits="userSpaceOnUse">
<stop stop-color="#8B3156"/>
<stop offset="1" stop-color="#6D2546"/>
</linearGradient>
<linearGradient id="paint72_linear" x1="991.278" y1="231.104" x2="991.278" y2="227.55" gradientUnits="userSpaceOnUse">
<stop/>
<stop offset="1" stop-color="white"/>
</linearGradient>
</defs>
</svg>
